<?xml version="1.0" encoding="utf-8"?>
<!-- Generator: Adobe Illustrator 16.0.4, SVG Export Plug-In . SVG Version: 6.00 Build 0)  -->
<!DOCTYPE svg PUBLIC "-//W3C//DTD SVG 1.1//EN" "http://www.w3.org/Graphics/SVG/1.1/DTD/svg11.dtd">
<svg version="1.1" id="Layer_1" xmlns="http://www.w3.org/2000/svg" xmlns:xlink="http://www.w3.org/1999/xlink" x="0px" y="0px"
	 width="300px" height="250px" viewBox="0 0 300 250" enable-background="new 0 0 300 250" xml:space="preserve">
<g>
	<path fill="#8B6400" d="M67.777,41.09c4.041,5.254,8.486,18.188,15.763,18.188c0-1.212,0.404-2.425,0-3.638
		c3.638-1.616,8.891,0.808,12.934,0.808c4.849-0.403,8.487,0.808,13.337,1.212c4.851,0.405,7.68-2.829,12.53-2.829
		c5.254,0,7.275,1.617,12.125,0.808c4.042-0.808,7.679-2.829,12.125-2.829c1.213,0,0.809,2.829,2.022,2.424
		c1.617,0,2.829-1.617,4.448-2.021c2.021-0.405,4.85-1.617,6.869-2.425c8.893-2.83,16.571-9.296,25.869-11.317
		c0.808,4.041,9.7,2.424,13.337,1.617c5.255-0.809,8.083-5.659,13.742-7.275c6.467-1.617,8.487,3.638,13.338,5.253
		c4.446,1.617,9.297,2.424,14.146,3.638c10.104,2.425,18.591,9.296,25.463,16.168c2.021,1.616,2.424,3.638,4.041,5.253
		c0.81,1.212,3.233,1.617,3.638,2.829c0.403,0.405-0.403,2.83-0.403,2.425c1.212,2.424-1.212,3.233,2.425,5.253
		c1.616,0.81,4.447-0.808,6.467,0c5.659,2.425,7.68,14.954,9.296,21.018c2.829,10.104,3.639,16.975-1.212,27.081
		c-2.021,4.446-3.232,8.486-4.85,12.932c-2.83,5.658-5.658,3.233-10.104,6.467c-4.85,2.831-4.85,5.66-11.319,5.66
		c-5.253,0-8.081-2.021-12.932,2.425c2.424,2.828,6.871,8.082,4.851,12.529c-2.022,4.851-7.275,2.021-11.723,0.808
		c-9.7-2.021-18.188-2.828-27.483,0.404c-10.508,4.041-16.167,8.489-27.484,5.658c-5.253-1.617-7.679-3.639-12.124-1.214
		c-4.446,2.425-6.872,9.296-12.529,9.296c0,0,0,0-0.404,0c-3.232-9.037-20.209,3.233-24.655,4.447
		c-8.083,2.831-16.975,0.811-25.462,2.021c-9.701,1.213-18.996-1.615-28.292-1.615c-8.487,0.404-18.188-0.81-25.867-3.232
		c-0.404-0.163-0.807-0.389-1.211-0.642c-1.617-1.024-3.234-2.513-4.851-2.19l-2.83,3.639c-6.467,8.488-23.847,18.996-34.759,13.741
		c-12.934-6.465-2.829-26.271-1.617-36.374l2.021-6.468c0-5.658-4.85-6.468-6.467-11.721c-1.213-3.639-1.213-10.913-1.213-14.955
		c0-5.254,3.639-8.891,3.639-14.549c0-4.447-2.021-8.893-2.021-13.34c0-4.04-1.212-11.316,0-14.954
		c1.617-5.658,7.275-5.658,10.508-10.104c2.829-3.638,1.212-9.296,6.062-11.317c1.617-0.808,4.042,0.404,5.658,0.404
		c1.212,0,2.425-1.616,2.425-1.616c0.404,0,4.85,0.807,4.042,0.807c5.658-2.424,0.808-5.253,4.042-9.296l0.404-1.212
		c8.892-2.829,6.062,12.529,14.955,0c2.829-3.638,7.679-5.255,8.487-9.701"/>
	<g>
		<path d="M66.801,41.661c4.506,6.233,7.714,17.952,16.738,18.747c0.65,0.058,1.083-0.561,1.13-1.13
			c0.448-5.388,8.028-1.944,11.804-1.699c4.661,0.3,10.705,1.948,15.37,1.167c2.115-0.354,3.988-1.045,5.98-1.821
			c3.483-1.358,6.859-0.926,10.43-0.295c4.13,0.729,7.646-0.086,11.581-1.352c1.631-0.524,5.784-2.167,6.916-0.149
			c0.453,0.808,0.644,1.04,1.561,1.199c0.653,0.113,1.454-0.057,2.021-0.373c2.328-1.301,4.693-2.053,7.189-2.987
			c9.69-3.626,18.532-9.905,28.576-12.403c-0.464-0.264-0.927-0.527-1.39-0.79c2.104,5.428,10.405,3.33,14.727,2.406
			c4.249-0.907,7.295-3.896,10.915-6.089c6.565-3.976,9.174,1.455,14.406,3.595c5.466,2.238,11.391,3.063,17.072,4.585
			c6.784,1.818,12.806,6.136,18.076,10.611c3.84,3.258,6.392,7.502,10.015,10.829c2.232,2.049,2.578,3.285,2.353,6.451
			c-0.152,2.139,2.335,3.435,4.051,3.798c2.605,0.552,5.007-0.986,7.291,1.316c1.921,1.935,2.822,4.96,3.672,7.472
			c3.343,9.906,6.72,21.699,3.961,31.96c-1.521,5.643-4.505,11.222-6.438,16.776c-1.978,5.674-8.266,6.018-12.676,9.35
			c-4.211,3.18-7.151,4.101-12.522,3.512c-3.901-0.427-6.541,0.61-9.538,3.073c-0.504,0.413-0.368,1.165,0,1.598
			c1.124,1.326,2.186,2.683,3.16,4.122c1.406,2.079,4.938,10.465-3.469,8.963c-3.22-0.574-6.304-1.826-9.552-2.42
			c-7.401-1.351-14.729-1.356-22.017,0.556c-7.019,1.843-13.043,6.156-20.378,7.055c-6.917,0.846-12.982-4.296-19.628-2.688
			c-5.448,1.316-7.554,7.933-12.762,9.785c-1.445,0.515-1.026-0.954-2.299-1.886c-1.361-0.997-2.75-1.296-4.417-1.342
			c-3.753-0.099-7.647,1.959-10.93,3.552c-5.53,2.684-9.785,5.165-16.119,5.771c-3.929,0.377-7.94,0.102-11.881,0.128
			c-4.056,0.03-8.048,0.718-12.109,0.713c-8.642-0.006-17.131-1.893-25.811-1.832c-7.646,0.058-17.907-0.48-24.423-4.889
			c-3.849-2.604-4.969-0.447-7.276,2.519c-7.019,9.027-25.577,21.314-36.375,11.792c-8.358-7.373,0.472-24.284,1.73-33.124
			c0.305-2.14,2.251-4.613,2.062-6.767c-0.465-5.282-4.655-7.335-6.507-12.021c-1.862-4.711-1.784-12.706-0.753-17.658
			c1.204-5.792,3.71-9.505,2.778-15.658c-0.942-6.217-1.84-12.2-2.104-18.51c-0.166-3.978,0.622-7.404,4.067-9.854
			c1.924-1.367,3.939-2.415,5.698-4.013c3.979-3.619,2.096-13.699,10.22-11.91c1.261,0.278,2.228,0.317,3.376-0.355
			c1.76-1.031,2.33-0.854,4.438-0.336c-0.263-0.463-0.525-0.927-0.789-1.39c-0.003,0.021-0.005,0.039-0.009,0.06
			c-0.151,0.965,0.718,1.772,1.66,1.275c4.979-2.63,1.85-5.604,4.447-9.7c2.336-3.685,5.215,2.328,7.108,3.663
			c2.347,1.657,4.476-0.338,6.083-2.069c2.157-2.322,3.936-4.644,6.43-6.657c2.153-1.736,3.559-3.488,4.34-6.12
			c0.417-1.4-1.765-1.995-2.18-0.6c-0.988,3.329-3.592,4.955-6.077,7.022c-1.951,1.624-3.239,3.818-4.95,5.661
			c-2.396,2.58-4.517-2.182-6.512-3.475c-7.885-5.109-6.422,8.523-9.829,10.325c0.553,0.425,1.106,0.851,1.659,1.275
			c0.002-0.02,0.005-0.04,0.009-0.06c0.093-0.594-0.141-1.23-0.79-1.389c-1.432-0.353-2.888-0.613-4.352-0.788
			c-0.262-0.032-0.631,0.132-0.799,0.331c-1.064,1.241-2.864,0.97-4.455,0.781c-4.915-0.583-6.984,3.004-8.021,7.273
			c-1.021,4.199-3.149,6.371-6.746,8.554c-1.537,0.933-3.411,2.083-4.365,3.668C7.608,83.416,8.903,89.56,9.225,95.16
			c0.183,3.185,0.592,6.096,1.298,9.226c1.106,4.901,0.482,8.76-1.325,13.299c-2.21,5.552-1.896,12.009-1.102,17.853
			c0.349,2.562,0.905,4.794,2.205,7.034c1.4,2.414,6.006,5.131,4.99,8.379c-1.211,3.875-2.072,7.677-3.05,11.604
			c-2.169,8.718-6.584,19.413-1.669,27.966c5.237,9.108,18.345,5.736,25.812,2.265c5.087-2.367,9.741-5.905,13.609-9.945
			c1.215-1.269,2.25-2.734,3.325-4.12c1.757-2.259,5.154,1.412,7.751,2.19c6.696,2.003,13.829,2.721,20.789,2.848
			c8.671,0.159,17.159,1.491,25.811,1.831c6.621,0.262,13.395-0.694,20.057-0.697c4.381-0.002,9.204-0.328,13.25-2.169
			c4.788-2.179,18.68-12.18,22.02-4.449c0.152,0.352,0.614,0.559,0.975,0.559c3.765,0,6.462-2.642,8.848-5.223
			c3.022-3.269,5.893-6.042,10.938-4.636c3.676,1.025,6.945,2.301,10.796,2.634c5.525,0.48,10.825-1.729,15.784-3.852
			c9.858-4.222,18.633-5.6,29.273-3.895c3.78,0.606,10.282,4.209,14.098,2.405c3.62-1.712,4.457-6.111,2.852-9.606
			c-1.072-2.337-2.494-4.337-4.111-6.322c-1.173-1.44,8.822-1.558,9.847-1.468c6.182,0.546,8.61-2.694,13.396-5.762
			c4.242-2.717,7.791-2.18,10.51-6.871c1.594-2.752,2.279-6.484,3.4-9.474c1.66-4.414,3.712-8.334,4.661-12.996
			c1.254-6.147-0.277-12.5-1.888-18.415c-1.386-5.109-2.164-10.507-4.472-15.322c-1.246-2.592-3.649-7.056-7.205-6.758
			c-1.592,0.133-6.304,0.85-6.109-1.9c-0.045,0.642,0.169-2.278-0.57-1.343c0.734-0.928,0.771-2.265,0.574-3.373
			c-0.271-1.546-3.03-2.503-3.928-3.329c-2.361-2.169-4.124-5.371-6.535-7.673c-5.293-5.056-11.264-9.349-18-12.25
			c-5.599-2.412-11.852-3.096-17.686-4.779c-4.605-1.329-7.612-5.429-12.37-6.185c-4.515-0.718-8.659,2.813-12.031,5.229
			c-2.597,1.861-15.298,6.294-17.156,1.504c-0.226-0.585-0.744-0.95-1.389-0.791c-9.571,2.38-18.063,8.165-27.164,11.84
			c-1.009,0.408-9.435,3.911-9.879,2.986c-1.124-2.337-3.667-1.436-5.802-1.069c-2.295,0.393-4.547,1.333-6.773,1.998
			c-3.361,1.004-6.458,0.376-9.807-0.157c-4.379-0.697-7.701,0.349-11.743,1.872c-5.346,2.015-12.171-0.765-17.854-0.535
			c-4.63,0.187-8.601-2.156-13.234-0.769c-0.451,0.136-0.871,0.587-0.829,1.089c0.202,1.212,0.202,2.425,0,3.638
			c0.376-0.376,0.753-0.753,1.129-1.13c-7.607-0.671-10.942-12.31-14.787-17.628C67.907,39.352,65.945,40.479,66.801,41.661
			L66.801,41.661z"/>
	</g>
</g>
<g>
	<g>
		<path fill="#5C3800" d="M136.487,95.333c-11.669,0.715-17.879,9.686-17.297,20.934c0.074,1.45,2.335,1.457,2.26,0
			c-0.515-9.929,4.562-18.033,15.038-18.674C137.934,97.503,137.942,95.243,136.487,95.333L136.487,95.333z"/>
	</g>
</g>
<g>
	<g>
		<path fill="#5C3800" d="M146.756,114.484c-6.605-5.061-20.564-4.346-23.89,4.312c-0.523,1.362,1.662,1.947,2.18,0.6
			c2.802-7.298,15.292-7.004,20.569-2.961C146.772,117.321,147.896,115.356,146.756,114.484L146.756,114.484z"/>
	</g>
</g>
<g>
	<g>
		<path fill="#5C3800" d="M136.382,144.437c11.047-2.925,0.701-25.482-8.384-25.66c-1.458-0.028-1.455,2.231,0,2.26
			c6.703,0.13,15.719,19.123,7.784,21.222C134.374,142.63,134.972,144.811,136.382,144.437L136.382,144.437z"/>
	</g>
</g>
<g>
	<g>
		<path fill="#5C3800" d="M111.665,141.09c11.196,5.502,16.574-11.081,15.402-19.464c-0.201-1.438-2.378-0.823-2.18,0.6
			c0.885,6.331-3.112,21.32-12.082,16.913C111.503,138.499,110.358,140.447,111.665,141.09L111.665,141.09z"/>
	</g>
</g>
<g>
	<g>
		<path fill="#5C3800" d="M96.078,123.938c8.38,8.68,18.361,8.239,27.466,0.808c1.13-0.922-0.479-2.51-1.598-1.598
			c-8.095,6.609-16.8,6.931-24.269-0.808C96.662,121.29,95.066,122.889,96.078,123.938L96.078,123.938z"/>
	</g>
</g>
<g>
	<g>
		<path fill="#5C3800" d="M105.084,98.183c-2.422,8.569,2.824,18.446,10.623,22.292c1.302,0.643,2.448-1.306,1.142-1.952
			c-6.906-3.406-11.747-12.094-9.586-19.742C107.659,97.379,105.479,96.783,105.084,98.183L105.084,98.183z"/>
	</g>
</g>
<g>
	<g>
		<path fill="#5C3800" d="M225.167,87.809c-6.021-8.584-18.146-11.303-28.055-11.472c-1.457-0.025-1.455,2.234,0,2.259
			c8.995,0.153,20.604,2.513,26.104,10.354C224.046,90.132,226.005,89.006,225.167,87.809L225.167,87.809z"/>
	</g>
</g>
<g>
	<g>
		<path fill="#5C3800" d="M223.487,92.543c-4.098,0.951-8.403,0.977-12.394,2.361c-3.751,1.299-6.103,4.358-7.683,7.859
			c-0.595,1.317,1.353,2.467,1.951,1.141c3.758-8.325,11.074-7.406,18.726-9.181C225.507,94.394,224.905,92.214,223.487,92.543
			L223.487,92.543z"/>
	</g>
</g>
<g>
	<g>
		<path fill="#5C3800" d="M229.042,97.757c-7.676-0.521-11.788,11.138-13.214,16.998c-0.346,1.416,1.834,2.015,2.178,0.6
			c1.166-4.782,4.691-15.77,11.037-15.338C230.497,100.117,230.487,97.856,229.042,97.757L229.042,97.757z"/>
	</g>
</g>
<g>
	<g>
		<path fill="#5C3800" d="M229.28,103.167c-2.47,4.011-2.654,8.883-1.73,13.399c0.291,1.427,2.469,0.823,2.178-0.6
			c-0.803-3.928-0.641-8.172,1.503-11.658C231.997,103.063,230.041,101.93,229.28,103.167L229.28,103.167z"/>
	</g>
</g>
<g>
	<g>
		<path fill="#5C3800" d="M235.632,107.48c-0.87,3.195-1.277,6.662,0.113,9.763c0.595,1.328,2.543,0.177,1.952-1.142
			c-1.115-2.49-0.573-5.492,0.114-8.021C238.192,106.672,236.014,106.075,235.632,107.48L235.632,107.48z"/>
	</g>
</g>
<g>
	<g>
		<path d="M229.166,96.972c-0.948,3.83-0.282,10.593,4.326,12.065c4.544,1.45,9.002-1.658,12.817-3.759
			c5.312-2.925,12.873-2.509,17.449-6.629c6.592-5.933,2.154-13.248,5.867-20.208c0.686-1.286-1.264-2.426-1.951-1.141
			c-1.929,3.615-1.718,7.238-1.7,11.244c0.037,8.442-6.825,10.342-13.477,11.888c-3.385,0.788-6.326,2.333-9.342,4.009
			c-1.908,1.06-3.816,2.018-5.929,2.603c-5.423,1.504-6.815-5.706-5.886-9.471C231.696,96.158,229.517,95.558,229.166,96.972
			L229.166,96.972z"/>
	</g>
</g>
<g>
	<g>
		<path fill="#5C3800" d="M249.241,78.669c3.701-4.519,13.67-4.045,18.706-2.539c1.399,0.419,1.994-1.763,0.601-2.179
			c-5.772-1.727-16.652-2.071-20.904,3.119C246.728,78.189,248.316,79.798,249.241,78.669L249.241,78.669z"/>
	</g>
</g>
<g>
	<g>
		<path fill="#5C3800" d="M245.201,74.224c4.811-3.809,7.424-10.792,14.051-11.835c1.436-0.226,0.823-2.403-0.601-2.18
			c-7.16,1.126-9.874,8.32-15.048,12.416C242.461,73.53,244.071,75.118,245.201,74.224L245.201,74.224z"/>
	</g>
</g>
<g>
	<g>
		<path fill="#5C3800" d="M241.655,49.579c0.562,8.763-2.615,17.181-3.233,25.868c-0.104,1.456,2.156,1.445,2.26,0
			c0.618-8.695,3.796-17.084,3.232-25.868C243.822,48.131,241.562,48.123,241.655,49.579L241.655,49.579z"/>
	</g>
</g>
<g>
	<g>
		<path fill="#5C3800" d="M229.166,51.899c1.414,10.111-1.822,20.211,0,30.314c0.258,1.432,2.436,0.823,2.178-0.6
			c-1.814-10.069,1.416-20.204,0-30.314C231.144,49.861,228.967,50.475,229.166,51.899L229.166,51.899z"/>
	</g>
</g>
<g>
	<g>
		<path fill="#5C3800" d="M124.124,90.971c7.2-5.044,3.51-22.106-1.389-27.642c-0.967-1.094-2.56,0.511-1.598,1.598
			c3.844,4.343,7.549,20.098,1.845,24.094C121.799,89.851,122.927,91.811,124.124,90.971L124.124,90.971z"/>
	</g>
</g>
<g>
	<g>
		<path fill="#5C3800" d="M126.371,90.795c5.339-4.75,8.73-12.557,7.163-19.692c-0.313-1.423-2.492-0.82-2.18,0.6
			c1.397,6.359-1.871,13.303-6.581,17.495C123.684,90.168,125.287,91.762,126.371,90.795L126.371,90.795z"/>
	</g>
</g>
<g>
	<g>
		<path fill="#5C3800" d="M125.169,91.934c8.416,0.232,16.378-3.972,19.276-12.146c0.489-1.376-1.694-1.963-2.179-0.6
			c-2.564,7.23-9.751,10.688-17.099,10.486C123.71,89.635,123.715,91.895,125.169,91.934L125.169,91.934z"/>
	</g>
</g>
<g>
	<g>
		<path fill="#5C3800" d="M107.686,75.727c8.818-3.063,13.547,8.717,15.182,15.378c0.348,1.414,2.526,0.814,2.18-0.6
			c-1.946-7.925-7.753-20.503-17.96-16.957C105.717,74.022,106.307,76.206,107.686,75.727L107.686,75.727z"/>
	</g>
</g>
<g>
	<g>
		<path fill="#5C3800" d="M103.853,85.023c7.447,1.235,14.403,3.367,20.747,7.564c1.219,0.807,2.35-1.151,1.141-1.952
			c-6.502-4.302-13.641-6.524-21.288-7.792C103.027,82.608,102.416,84.784,103.853,85.023L103.853,85.023z"/>
	</g>
</g>
<path d="M266.438,93.107c1.003-0.915,0.762-4.121,2.213-4.121c3.126,0,5.659,2.569,5.659,5.74c0,3.17-2.533,5.739-5.659,5.739
	c-2.208,0-4.121-1.285-5.054-3.159C263.211,96.531,265.285,94.159,266.438,93.107z"/>
<g>
	<g>
		<path d="M286.466,123.421c3.105-0.427,5.109-3.026,6.872-5.369c0.877-1.166-1.087-2.291-1.951-1.142
			c-1.433,1.905-3.008,3.985-5.522,4.331C284.427,121.439,285.039,123.616,286.466,123.421L286.466,123.421z"/>
	</g>
</g>
<g>
	<g>
		<path fill="#5C3800" d="M28.571,72.534c6.923,0.051,11.822,1.798,16,7.524c0.849,1.164,2.812,0.038,1.952-1.141
			c-4.684-6.421-10.143-8.586-17.951-8.644C27.113,70.264,27.114,72.523,28.571,72.534L28.571,72.534z"/>
	</g>
</g>
<g>
	<g>
		<path fill="#5C3800" d="M45.785,67.125c3.288,2.458,3.904,6.096,4.291,9.937c0.145,1.436,2.405,1.449,2.26,0
			c-0.479-4.758-1.392-8.884-5.41-11.888C45.756,64.3,44.632,66.264,45.785,67.125L45.785,67.125z"/>
	</g>
</g>
<g>
	<g>
		<path fill="#5C3800" d="M55.484,60.253c3.299,4.633,2.762,12.68,0,17.451c-0.731,1.264,1.221,2.401,1.951,1.141
			c3.141-5.425,3.764-14.447,0-19.733C56.598,57.936,54.637,59.063,55.484,60.253L55.484,60.253z"/>
	</g>
</g>
<g>
	<g>
		<path fill="#5C3800" d="M62.759,78.917c-1.521,2.102-4.263,2.638-6.705,2.674c-1.456,0.021-1.458,2.281,0,2.26
			c3.336-0.048,6.627-0.989,8.655-3.793C65.565,78.875,63.604,77.749,62.759,78.917L62.759,78.917z"/>
	</g>
</g>
<g>
	<g>
		<path fill="#5C3800" d="M42.013,114.37c-8.132,1.433-12.717,7.975-14.127,15.744c-0.258,1.425,1.92,2.033,2.18,0.601
			c1.279-7.053,5.119-12.857,12.548-14.166C44.047,116.296,43.438,114.119,42.013,114.37L42.013,114.37z"/>
	</g>
</g>
<g>
	<g>
		<path fill="#5C3800" d="M44.571,116.505c-1.577,2.967-1.768,6.164-1.77,9.461c-0.001,1.458,2.259,1.458,2.26,0
			c0.002-2.877,0.08-5.721,1.462-8.32C47.206,116.36,45.254,115.219,44.571,116.505L44.571,116.505z"/>
	</g>
</g>
<g>
	<g>
		<path fill="#5C3800" d="M49.711,116.568c1.312,7.214,5.611,11.612,12.24,14.418c1.325,0.562,2.479-1.386,1.141-1.952
			c-6.128-2.594-9.985-6.375-11.202-13.067C51.63,114.534,49.453,115.143,49.711,116.568L49.711,116.568z"/>
	</g>
</g>
<g>
	<g>
		<path fill="#5C3800" d="M51.214,112.62c2.198,2.1,4.964,3.203,7.97,2.31c1.394-0.413,0.8-2.594-0.601-2.179
			c-2.233,0.662-4.143-0.174-5.772-1.73C51.759,110.017,50.159,111.612,51.214,112.62L51.214,112.62z"/>
	</g>
</g>
<g>
	<g>
		<path fill="#5C3800" d="M29.679,110.081c4.816-2.007,8.74-2.503,13.047,0.923c1.127,0.897,2.738-0.69,1.598-1.598
			c-4.962-3.948-9.534-3.885-15.246-1.504C27.755,108.455,28.334,110.642,29.679,110.081L29.679,110.081z"/>
	</g>
</g>
<g>
	<g>
		<path fill="#5C3800" d="M40.801,97.148c4.515,1.252,11.774,8.755,7.584,13.47c-0.965,1.084,0.628,2.688,1.597,1.598
			c5.445-6.127-2.279-15.498-8.582-17.247C39.995,94.579,39.397,96.758,40.801,97.148L40.801,97.148z"/>
	</g>
</g>
<g>
	<g>
		<path fill="#5C3800" d="M58.18,163.681c-2.971,0.639-5.828,0-8.696-0.811c-1.405-0.398-2,1.783-0.6,2.179
			c3.282,0.928,6.511,1.537,9.896,0.811C60.205,165.553,59.601,163.375,58.18,163.681L58.18,163.681z"/>
	</g>
</g>
<g>
	<g>
		<path fill="#5C3800" d="M63.454,166.895c-0.791,2.048-1.221,4.166-1.253,6.362c-0.021,1.458,2.238,1.456,2.26,0
			c0.028-2.004,0.452-3.895,1.173-5.762C66.159,166.133,63.972,165.549,63.454,166.895L63.454,166.895z"/>
	</g>
</g>
<g>
	<g>
		<path fill="#5C3800" d="M69.112,170.323c0.55,3.868,2.87,7.068,5.545,9.796c1.021,1.041,2.619-0.559,1.598-1.598
			c-2.433-2.479-4.464-5.284-4.963-8.799C71.086,168.286,68.91,168.899,69.112,170.323L69.112,170.323z"/>
	</g>
</g>
<g>
	<g>
		<path fill="#5C3800" d="M76.097,170.996c1.364,3.037,3.835,5.511,6.872,6.872c1.318,0.591,2.469-1.354,1.142-1.951
			c-2.735-1.229-4.834-3.325-6.062-6.062C77.452,168.529,75.505,169.679,76.097,170.996L76.097,170.996z"/>
	</g>
</g>
</svg>
