<?xml version="1.0" encoding="utf-8"?>
<!-- Generator: Adobe Illustrator 16.0.4, SVG Export Plug-In . SVG Version: 6.00 Build 0)  -->
<!DOCTYPE svg PUBLIC "-//W3C//DTD SVG 1.1//EN" "http://www.w3.org/Graphics/SVG/1.1/DTD/svg11.dtd">
<svg version="1.1" id="Layer_1" xmlns="http://www.w3.org/2000/svg" xmlns:xlink="http://www.w3.org/1999/xlink" x="0px" y="0px"
	 width="300px" height="250px" viewBox="0 0 300 250" enable-background="new 0 0 300 250" xml:space="preserve">
<path fill="#FFA94E" d="M79.985,32.146c0,0,7.901,4.096-7.64,15.253s-4.367,21.113,4.773,27.489
	c9.14,6.375,17.491,19.522,9.92,26.297s-7.268,26.299,2.937,30.682c10.205,4.383,12.99,21.119,5.418,29.487
	s-4.703,24.476,0.795,27.313l-8.515-2.209l1.616,6.774l-7.167,5.812l-8.251,0.186l-14.744-3.571l-12.798-9.2l-14.84-21.482
	l-13.811-26.936L10,115.129V90.024l4.103-15.143l5.716-10.964l10.279-11.944l8.316-6.444l15.093-8.106l12.815-3.752L79.985,32.146z"
	/>
<path fill="#FFA94E" d="M233.665,180.083c0,0-17.827-31.88-39-9.165c-21.172,22.714-26.352,15.541-26.352,15.541
	s-21.157,2.311-8.369,14.046c0,0,6.988,10.679,18.438,14.057c0,0,18.931,7.668,15.833-16.148l5.181,0.797l12.939-3.551
	L233.665,180.083z"/>
<path fill="#FFA94E" d="M228.086,60.935c0,0-33.074-6.828-28.69,21.492c4.383,28.319,21.119,25.929,28.69,25.132
	c7.571-0.797,13.549,8.767,12.354,17.533c-1.195,8.767,1.72,19.245,8.83,17.792c7.109-1.453,21.455-6.992,21.455-6.992
	l12.354-10.799l4.436-10.361l1.741-11.161l-3.664-13.599l-9.287-11.502l-8.767-7.403l-6.866-7.08
	C260.671,63.985,251.597,44.995,228.086,60.935z"/>
<g>
	<g>
		<path d="M259.566,60.935c0.062-4.513,3.82-6.957,2.349-11.874c-1.235-4.129-5.29-7.902-8.166-10.903
			c-3.187-3.324-6.581-5.849-11.021-7.209c-6.509-1.995-14.082-1.538-20.806-2.188c-15.86-1.535-31.683-3.514-47.632-2.094
			c-13.779,1.226-24.6,12.757-38.379,12.826c-6.419,0.032-12.714-3.318-18.723-5.187c-5.783-1.798-12.075-2.377-18.082-2.951
			c-12.568-1.201-25.516-0.819-37.809,2.21c-20.502,5.052-39.483,20.259-47.311,39.961c-6.645,16.726-4.958,37.046-0.501,54.087
			c2.404,9.191,6.514,17.525,10.734,25.976c3.75,7.509,7.649,14.938,12.201,22c4.043,6.271,8.764,12.187,14.719,16.735
			c5.777,4.414,13.687,5.949,20.672,7.198c5.828,1.042,12.018,1.924,16.63-2.541c4.148-4.014,2.248-9.842-1.771-12.962
			c-1.202-0.933-2.907,0.747-1.69,1.691c7.557,5.865,0.642,12.622-6.728,12.23c-6.035-0.32-12.155-1.844-17.89-3.683
			c-11.667-3.742-18.959-14.837-24.964-24.843c-6.459-10.764-12.641-22.473-17.013-34.229c-5.221-14.037-6.859-29.125-5.815-44.005
			c1.837-26.189,21.179-45.706,45.202-54.085c12.566-4.383,26.653-4.458,39.775-3.483c6.367,0.473,12.846,1.274,19.004,2.998
			c6.024,1.686,11.58,4.399,17.848,5.178c11.42,1.421,21.997-7.56,32.225-11.138c12.753-4.46,28.802-2.088,41.959-0.843
			c6.988,0.661,13.963,1.449,20.958,2.034c7.067,0.591,13.889,0.436,19.614,5.232c3.509,2.939,6.693,6.626,9.263,10.393
			c3.61,5.292-1.175,8.397-1.244,13.468C257.154,62.477,259.546,62.475,259.566,60.935L259.566,60.935z"/>
	</g>
</g>
<g>
	<g>
		<path d="M79.245,182.709c22.797,13.845,48.752,15.998,74.723,12.517c1.505-0.201,1.524-2.595,0-2.391
			c-25.552,3.425-51.058,1.449-73.516-12.19C79.13,179.842,77.93,181.91,79.245,182.709L79.245,182.709z"/>
	</g>
</g>
<g>
	<g>
		<path d="M152.567,195.859c3.921,1.815,6.122,5.033,8.724,8.33c2.248,2.849,4.792,5.167,7.754,7.254
			c5.757,4.055,13.499,6.412,20.489,4.979c10.591-2.169,5.047-16.99,3.442-23.507c-0.368-1.497-2.674-0.862-2.305,0.635
			c1.805,7.337,7.048,20.356-4.812,20.925c-7.55,0.361-15.003-3.916-20.287-8.938c-4.16-3.953-6.347-9.218-11.798-11.742
			C152.385,193.151,151.17,195.212,152.567,195.859L152.567,195.859z"/>
	</g>
</g>
<g>
	<g>
		<path d="M195.766,200.088c-0.118-0.559-0.236-1.116-0.355-1.675c-0.504,0.384-1.009,0.769-1.513,1.152
			c15.658,2.776,28.579-8.035,39.565-17.711c12.204-10.749,15.685-26.396,23.948-39.821c0.811-1.317-1.258-2.517-2.064-1.207
			c-7.104,11.542-10.38,25.387-19.569,35.625c-4.716,5.254-10.951,9.928-16.717,13.93c-7.221,5.011-15.64,8.455-24.528,6.88
			c-0.723-0.129-1.555,0.317-1.513,1.152c0.055,1.101,0.072,1.257,0.441,2.31C193.967,202.168,196.276,201.547,195.766,200.088
			L195.766,200.088z"/>
	</g>
</g>
<g>
	<g>
		<path d="M232.675,150.432c10.069-6.138,22.08-6.8,32.958-10.844c10.179-3.784,18.322-12.315,22.246-22.417
			c3.75-9.651,3.199-19.542-1.718-28.663c-6.309-11.701-19.874-16.765-26.359-28.178c-0.762-1.34-2.827-0.136-2.064,1.207
			c5.312,9.347,15.232,14.465,22.253,22.346c8.416,9.449,10.104,22.228,5.125,33.7c-4.852,11.179-14.006,18.07-25.421,21.46
			c-9.584,2.846-19.538,4.028-28.227,9.323C230.154,149.168,231.354,151.236,232.675,150.432L232.675,150.432z"/>
	</g>
</g>
<g>
	<g>
		<path d="M198.792,54.722c-9.659,4.236-11.688,17.38-15.966,25.852c-1.8,3.564-4.261,6.66-8.192,7.979
			c-4.479,1.502-8.83-2.329-12.777-3.666c-2.457-0.832-5.07-1.142-7.455-2.2c-3.517-1.562,3.671-8.468,4.795-9.749
			c1.012-1.154-0.672-2.852-1.691-1.69c-2.028,2.312-9.986,9.856-4.951,13.092c2.953,1.898,6.677,1.917,9.816,3.418
			c3.644,1.742,7.155,3.471,11.28,3.367c7.07-0.177,11.029-8.339,13.329-13.868c2.954-7.102,5.293-17.082,13.02-20.47
			C201.408,56.168,200.189,54.109,198.792,54.722L198.792,54.722z"/>
	</g>
</g>
<ellipse cx="217.726" cy="82.426" rx="5.978" ry="7.544"/>
<g>
	<g>
		<path d="M208.604,196.738c1.868,7.963,14.667,19.233,23.23,15.822c10.085-4.018,1.752-22.062-3.301-26.947
			c-1.108-1.071-2.801,0.617-1.691,1.691c4.233,4.093,11.792,19.988,3.653,23.23c-6.858,2.731-18.16-8.354-19.587-14.432
			C210.557,194.603,208.251,195.239,208.604,196.738L208.604,196.738z"/>
	</g>
</g>
<g>
	<g>
		<path d="M267.537,131.068c5.332-0.665,8.318-4.874,10.596-9.358c-0.742-0.201-1.485-0.402-2.228-0.604
			c0.085,2.562,0.739,5.089,2.74,6.823c1.16,1.004,2.858-0.68,1.691-1.691c-1.538-1.332-1.976-3.162-2.041-5.132
			c-0.037-1.126-1.664-1.714-2.228-0.604c-1.807,3.558-4.177,7.631-8.531,8.175C266.028,128.866,266.01,131.259,267.537,131.068
			L267.537,131.068z"/>
	</g>
</g>
<g>
	<g>
		<path d="M279.703,115.898c1.931-0.549,3.188-2.241,4.063-3.953c0.467-0.913-0.908-1.72-1.377-0.805
			c-0.677,1.325-1.594,2.79-3.11,3.22C278.292,114.641,278.712,116.179,279.703,115.898L279.703,115.898z"/>
	</g>
</g>
<g>
	<g>
		<path d="M270.513,113.108c1.152,0.396,2.387,1.005,3.109,2.024c0.59,0.831,1.973,0.036,1.377-0.805
			c-0.983-1.386-2.482-2.213-4.062-2.757C269.962,111.236,269.547,112.776,270.513,113.108L270.513,113.108z"/>
	</g>
</g>
<g>
	<g>
		<path d="M243.534,49.148c5.741,0.785,12.699,5.142,12.966,11.518c0.026,0.643,1.027,0.645,1,0
			c-0.284-6.815-7.484-11.632-13.7-12.482C243.17,48.098,242.897,49.062,243.534,49.148L243.534,49.148z"/>
	</g>
</g>
</svg>
