<?xml version="1.0" encoding="utf-8"?>
<!-- Generator: Adobe Illustrator 16.0.4, SVG Export Plug-In . SVG Version: 6.00 Build 0)  -->
<!DOCTYPE svg PUBLIC "-//W3C//DTD SVG 1.1//EN" "http://www.w3.org/Graphics/SVG/1.1/DTD/svg11.dtd">
<svg version="1.1" id="Layer_1" xmlns="http://www.w3.org/2000/svg" xmlns:xlink="http://www.w3.org/1999/xlink" x="0px" y="0px"
	 width="612px" height="175.402px" viewBox="0 0 612 175.402" enable-background="new 0 0 612 175.402" xml:space="preserve">
<rect y="0" fill="#D6ECDC" width="612" height="175.402"/>
<path fill="#FFFFFF" d="M22.166,100.368l4.833-18.5l7.5-10.103c0,0,10.333-8.731,20.667-5.397l26.167,3.333
	c0,0,13.358,0.965,19.666-5.833c0,0,32.405-30.045,53.453-6.106c0,0,16.047,9.102,8.88,32.437l-21.344,17.916
	c0,0,10.01,19.121-1.323,18.187c0,0-8.251-3.075-8.625-9.088c0,0-4.375,15.486-10.875,15.153c0,0-4.833-2.666-5.167-12.166
	l-11.667,4.848l-15.667,2.904h-16c0,0-18.615-1.198-22.167-2.904l-7-6.348l-2.333,7.601l-6.833,4.232l-7-0.817l-3.936-5.516
	l-1.897-9.868L22.166,100.368z"/>
<g display="none">
	<path display="inline" fill="none" d="M324.495-81.281"/>
</g>
<g display="none">
	<path display="inline" fill="none" d="M324.495-81.281"/>
</g>
<g display="none">
	<path display="inline" fill="none" d="M324.495-81.281"/>
</g>
<g display="none">
	<path display="inline" fill="none" d="M324.495-81.281"/>
</g>
<g display="none">
	<path display="inline" fill="none" d="M324.495-81.281"/>
</g>
<g display="none">
	<path display="inline" fill="none" d="M324.495-81.281"/>
</g>
<g display="none">
	<path display="inline" fill="none" d="M324.495-81.281"/>
</g>
<g display="none">
	<path display="inline" fill="none" d="M324.495-81.281"/>
</g>
<g display="none">
	<path display="inline" fill="none" d="M324.495-81.281"/>
</g>
<g display="none">
	<path display="inline" fill="none" d="M324.495-81.281"/>
</g>
<g display="none">
	<path display="inline" fill="none" d="M324.495-81.281"/>
</g>
<g display="none">
	<path display="inline" fill="none" d="M324.495-81.281"/>
</g>
<g display="none">
	<path display="inline" fill="none" d="M324.495-81.281"/>
</g>
<g display="none">
	<path display="inline" fill="none" d="M324.495-81.281"/>
</g>
<g display="none">
	<path display="inline" fill="none" d="M324.495-81.281"/>
</g>
<g display="none">
	<path display="inline" fill="none" d="M324.495-81.281"/>
</g>
<g display="none">
	<path display="inline" fill="none" d="M324.495-81.281"/>
</g>
<g display="none">
	<path display="inline" fill="none" d="M324.495-81.281"/>
</g>
<g display="none">
	<path display="inline" fill="none" d="M324.495-81.281"/>
</g>
<g display="none">
	<path display="inline" fill="none" d="M324.495-81.281"/>
</g>
<g display="none">
	<path display="inline" fill="none" d="M324.495-81.281"/>
</g>
<g display="none">
	<path display="inline" fill="none" d="M324.495-81.281"/>
</g>
<g display="none">
	<path display="inline" fill="none" d="M324.495-81.281"/>
</g>
<g display="none">
	<path display="inline" fill="none" d="M324.495-81.281"/>
</g>
<g display="none">
	<path display="inline" fill="none" d="M324.495-81.281"/>
</g>
<g display="none">
	<path display="inline" fill="none" d="M324.495-81.281"/>
</g>
<g display="none">
	<path display="inline" fill="none" d="M324.495-81.281"/>
</g>
<g display="none">
	<path display="inline" fill="none" d="M324.495-81.281"/>
</g>
<g display="none">
	<path display="inline" fill="none" d="M324.495-81.281"/>
</g>
<g display="none">
	<path display="inline" fill="none" d="M324.495-81.281"/>
</g>
<g display="none">
	<path display="inline" fill="none" d="M324.495-81.281"/>
</g>
<g display="none">
	<path display="inline" fill="none" d="M324.495-81.281"/>
</g>
<g display="none">
	<path display="inline" fill="none" d="M324.495-81.281"/>
</g>
<g display="none">
	<path display="inline" fill="none" d="M324.495-81.281"/>
</g>
<g display="none">
	<path display="inline" fill="none" d="M324.495-81.281"/>
</g>
<g display="none">
	<path display="inline" fill="none" d="M324.495-81.281"/>
</g>
<g display="none">
	<path display="inline" fill="none" d="M324.495-81.281"/>
</g>
<g display="none">
	<path display="inline" fill="none" d="M324.495-81.281"/>
</g>
<g display="none">
	<path display="inline" fill="none" d="M324.495-81.281"/>
</g>
<g display="none">
	<path display="inline" fill="none" d="M324.495-81.281"/>
</g>
<g display="none">
	<path display="inline" fill="none" d="M324.495-81.281"/>
</g>
<g display="none">
	<path display="inline" fill="none" d="M324.495-81.281"/>
</g>
<g display="none">
	<path display="inline" fill="none" d="M324.495-81.281"/>
</g>
<g display="none">
	<path display="inline" fill="none" d="M324.495-81.281"/>
</g>
<g display="none">
	<path display="inline" fill="none" d="M324.495-81.281"/>
</g>
<g display="none">
	<path display="inline" fill="none" d="M324.495-81.281"/>
</g>
<g display="none">
	<path display="inline" fill="none" d="M324.495-81.281"/>
</g>
<g display="none">
	<path display="inline" fill="none" d="M324.495-81.281"/>
</g>
<g display="none">
	<path display="inline" fill="none" d="M324.495-81.281"/>
</g>
<g display="none">
	<path display="inline" fill="none" d="M324.495-81.281"/>
</g>
<g display="none">
	<path display="inline" fill="none" d="M324.495-81.281"/>
</g>
<g display="none">
	<path display="inline" fill="none" d="M324.495-81.281"/>
</g>
<g display="none">
	<path display="inline" fill="none" d="M324.495-81.281"/>
</g>
<g display="none">
	<path display="inline" fill="none" d="M324.495-81.281"/>
</g>
<g display="none">
	<path display="inline" fill="none" d="M324.495-81.281"/>
</g>
<g display="none">
	<path display="inline" fill="none" d="M324.495-81.281"/>
</g>
<g display="none">
	<path display="inline" fill="none" d="M324.495-81.281"/>
</g>
<g display="none">
	<path display="inline" fill="none" d="M324.495-81.281"/>
</g>
<g display="none">
	<path display="inline" fill="none" d="M324.495-81.281"/>
</g>
<g display="none">
	<path display="inline" fill="none" d="M324.495-81.281"/>
</g>
<g display="none">
	<path display="inline" fill="none" d="M324.495-81.281"/>
</g>
<g display="none">
	<path display="inline" fill="none" d="M324.495-81.281"/>
</g>
<g display="none">
	<path display="inline" fill="none" d="M324.495-81.281"/>
</g>
<g display="none">
	<path display="inline" fill="none" d="M324.495-81.281"/>
</g>
<g display="none">
	<path display="inline" fill="none" d="M324.495-81.281"/>
</g>
<g display="none">
	<path display="inline" fill="none" d="M324.495-81.281"/>
</g>
<g display="none">
	<path display="inline" fill="none" d="M324.495-81.281"/>
</g>
<g display="none">
	<path display="inline" fill="none" d="M324.495-81.281"/>
</g>
<g display="none">
	<path display="inline" fill="none" d="M324.495-81.281"/>
</g>
<g display="none">
	<path display="inline" fill="none" d="M324.495-81.281"/>
</g>
<g display="none">
	<path display="inline" fill="none" d="M324.495-81.281"/>
</g>
<g display="none">
	<path display="inline" fill="none" d="M324.495-81.281"/>
</g>
<g display="none">
	<path display="inline" fill="none" d="M324.495-81.281"/>
</g>
<g display="none">
	<path display="inline" fill="none" d="M324.495-81.281"/>
</g>
<g display="none">
	<path display="inline" fill="none" d="M324.495-81.281"/>
</g>
<g display="none">
	<path display="inline" fill="none" d="M324.495-81.281"/>
</g>
<g display="none">
	<path display="inline" fill="none" d="M324.495-81.281"/>
</g>
<g display="none">
	<path display="inline" fill="none" d="M324.495-81.281"/>
</g>
<g display="none">
	<path display="inline" fill="none" d="M324.495-81.281"/>
</g>
<g display="none">
	<path display="inline" fill="none" d="M324.495-81.281"/>
</g>
<g display="none">
	<path display="inline" fill="none" d="M324.495-81.281"/>
</g>
<g display="none">
	<path display="inline" fill="none" d="M324.495-81.281"/>
</g>
<g display="none">
	<path display="inline" fill="none" d="M324.495-81.281"/>
</g>
<g display="none">
	<path display="inline" fill="none" d="M324.495-81.281"/>
</g>
<g display="none">
	<path display="inline" fill="none" d="M324.495-81.281"/>
</g>
<g display="none">
	<path display="inline" fill="none" d="M324.495-81.281"/>
</g>
<g display="none">
	<path display="inline" fill="none" d="M324.495-81.281"/>
</g>
<g display="none">
	<path display="inline" fill="none" d="M324.495-81.281"/>
</g>
<g display="none">
	<path display="inline" fill="none" d="M324.495-81.281"/>
</g>
<g display="none">
	<path display="inline" fill="none" d="M324.495-81.281"/>
</g>
<g display="none">
	<path display="inline" fill="none" d="M324.495-81.281"/>
</g>
<g display="none">
	<path display="inline" fill="none" d="M324.495-81.281"/>
</g>
<g display="none">
	<path display="inline" fill="none" d="M324.495-81.281"/>
</g>
<g display="none">
	<path display="inline" fill="none" d="M324.495-81.281"/>
</g>
<g display="none">
	<path display="inline" fill="none" d="M324.495-81.281"/>
</g>
<g display="none">
	<path display="inline" fill="none" d="M324.495-81.281"/>
</g>
<g display="none">
	<path display="inline" fill="none" d="M324.495-81.281"/>
</g>
<g display="none">
	<path display="inline" fill="none" d="M324.495-81.281"/>
</g>
<g display="none">
	<path display="inline" fill="none" d="M324.495-81.281"/>
</g>
<g display="none">
	<path display="inline" fill="none" d="M324.495-81.281"/>
</g>
<g display="none">
	<path display="inline" fill="none" d="M324.495-81.281"/>
</g>
<g display="none">
	<path display="inline" fill="none" d="M324.495-81.281"/>
</g>
<g display="none">
	<path display="inline" fill="none" d="M324.495-81.281"/>
</g>
<g display="none">
	<path display="inline" fill="none" d="M324.495-81.281"/>
</g>
<g display="none">
	<path display="inline" fill="none" d="M324.495-81.281"/>
</g>
<g display="none">
	<path display="inline" fill="none" d="M324.495-81.281"/>
</g>
<g display="none">
	<path display="inline" fill="none" d="M324.495-81.281"/>
</g>
<g display="none">
	<path display="inline" fill="none" d="M324.495-81.281"/>
</g>
<g display="none">
	<path display="inline" fill="none" d="M324.495-81.281"/>
</g>
<g display="none">
	<path display="inline" fill="none" d="M324.495-81.281"/>
</g>
<g display="none">
	<path display="inline" fill="none" d="M324.495-81.281"/>
</g>
<g display="none">
	<path display="inline" fill="none" d="M324.495-81.281"/>
</g>
<g display="none">
	<path display="inline" fill="none" d="M324.495-81.281"/>
</g>
<g display="none">
	<path display="inline" fill="none" d="M324.495-81.281"/>
</g>
<g display="none">
	<path display="inline" fill="none" d="M324.495-81.281"/>
</g>
<g display="none">
	<path display="inline" fill="none" d="M324.495-81.281"/>
</g>
<g display="none">
	<path display="inline" fill="none" d="M324.495-81.281"/>
</g>
<g display="none">
	<path display="inline" fill="none" d="M324.495-81.281"/>
</g>
<g display="none">
	<path display="inline" fill="none" d="M324.495-81.281"/>
</g>
<g display="none">
	<path display="inline" fill="none" d="M324.495-81.281"/>
</g>
<g display="none">
	<path display="inline" fill="none" d="M324.495-81.281"/>
</g>
<g display="none">
	<path display="inline" fill="none" d="M324.495-81.281"/>
</g>
<g display="none">
	<path display="inline" fill="none" d="M324.495-81.281"/>
</g>
<g display="none">
	<path display="inline" fill="none" d="M324.495-81.281"/>
</g>
<g display="none">
	<path display="inline" fill="none" d="M324.495-81.281"/>
</g>
<g display="none">
	<path display="inline" fill="none" d="M324.495-81.281"/>
</g>
<g display="none">
	<path display="inline" fill="none" d="M324.495-81.281"/>
</g>
<g display="none">
	<path display="inline" fill="none" d="M324.495-81.281"/>
</g>
<g display="none">
	<path display="inline" fill="none" d="M324.495-81.281"/>
</g>
<g display="none">
	<path display="inline" fill="none" d="M324.495-81.281"/>
</g>
<g display="none">
	<path display="inline" fill="none" d="M324.495-81.281"/>
</g>
<g display="none">
	<path display="inline" fill="none" d="M324.495-81.281"/>
</g>
<g display="none">
	<path display="inline" fill="none" d="M324.495-81.281"/>
</g>
<g display="none">
	<path display="inline" fill="none" d="M324.495-81.281"/>
</g>
<g display="none">
	<path display="inline" fill="none" d="M324.495-81.281"/>
</g>
<g display="none">
	<path display="inline" fill="none" d="M324.495-81.281"/>
</g>
<g display="none">
	<path display="inline" fill="none" d="M324.495-81.281"/>
</g>
<g display="none">
	<path display="inline" fill="none" d="M324.495-81.281"/>
</g>
<g display="none">
	<path display="inline" fill="none" d="M324.495-81.281"/>
</g>
<g display="none">
	<path display="inline" fill="none" d="M324.495-81.281"/>
</g>
<g display="none">
	<path display="inline" fill="none" d="M324.495-81.281"/>
</g>
<g display="none">
	<path display="inline" fill="none" d="M324.495-81.281"/>
</g>
<g display="none">
	<path display="inline" fill="none" d="M324.495-81.281"/>
</g>
<g display="none">
	<path display="inline" fill="none" d="M324.495-81.281"/>
</g>
<g display="none">
	<path display="inline" fill="none" d="M324.495-81.281"/>
</g>
<g display="none">
	<path display="inline" fill="none" d="M324.495-81.281"/>
</g>
<g display="none">
	<path display="inline" fill="none" d="M324.495-81.281"/>
</g>
<g display="none">
	<path display="inline" fill="none" d="M324.495-81.281"/>
</g>
<g display="none">
	<path display="inline" fill="none" d="M324.495-81.281"/>
</g>
<g display="none">
	<path display="inline" fill="none" d="M324.495-81.281"/>
</g>
<g display="none">
	<path display="inline" fill="none" d="M324.495-81.281"/>
</g>
<g display="none">
	<path display="inline" fill="none" d="M324.495-81.281"/>
</g>
<g display="none">
	<path display="inline" fill="none" d="M324.495-81.281"/>
</g>
<g display="none">
	<path display="inline" fill="none" d="M324.495-81.281"/>
</g>
<g display="none">
	<path display="inline" fill="none" d="M324.495-81.281"/>
</g>
<g display="none">
	<path display="inline" fill="none" d="M324.495-81.281"/>
</g>
<g display="none">
	<path display="inline" fill="none" d="M324.495-81.281"/>
</g>
<g display="none">
	<path display="inline" fill="none" d="M324.495-81.281"/>
</g>
<g display="none">
	<path display="inline" fill="none" d="M324.495-81.281"/>
</g>
<g display="none">
	<path display="inline" fill="none" d="M324.495-81.281"/>
</g>
<g display="none">
	<path display="inline" fill="none" d="M324.495-81.281"/>
</g>
<g display="none">
	<path display="inline" fill="none" d="M324.495-81.281"/>
</g>
<g display="none">
	<path display="inline" fill="none" d="M324.495-81.281"/>
</g>
<g display="none">
	<path display="inline" fill="none" d="M324.495-81.281"/>
</g>
<g display="none">
	<path display="inline" fill="none" d="M324.495-81.281"/>
</g>
<g display="none">
	<path display="inline" fill="none" d="M324.495-81.281"/>
</g>
<g display="none">
	<path display="inline" fill="none" d="M324.495-81.281"/>
</g>
<g display="none">
	<path display="inline" fill="none" d="M324.495-81.281"/>
</g>
<g display="none">
	<path display="inline" fill="none" d="M324.495-81.281"/>
</g>
<g display="none">
	<path display="inline" fill="none" d="M324.495-81.281"/>
</g>
<g display="none">
	<path display="inline" fill="none" d="M324.495-81.281"/>
</g>
<g display="none">
	<path display="inline" fill="none" d="M324.495-81.281"/>
</g>
<g display="none">
	<path display="inline" fill="none" d="M324.495-81.281"/>
</g>
<g display="none">
	<path display="inline" fill="none" d="M324.495-81.281"/>
</g>
<g display="none">
	<path display="inline" fill="none" d="M324.495-81.281"/>
</g>
<g display="none">
	<path display="inline" fill="none" d="M324.495-81.281"/>
</g>
<g display="none">
	<path display="inline" fill="none" d="M324.495-81.281"/>
</g>
<g display="none">
	<path display="inline" fill="none" d="M324.495-81.281"/>
</g>
<g display="none">
	<path display="inline" fill="none" d="M324.495-81.281"/>
</g>
<g display="none">
	<path display="inline" fill="none" d="M324.495-81.281"/>
</g>
<g display="none">
	<path display="inline" fill="none" d="M324.495-81.281"/>
</g>
<g display="none">
	<path display="inline" fill="none" d="M324.495-81.281"/>
</g>
<g display="none">
	<path display="inline" fill="none" d="M324.495-81.281"/>
</g>
<g display="none">
	<path display="inline" fill="none" d="M324.495-81.281"/>
</g>
<g display="none">
	<path display="inline" fill="none" d="M324.495-81.281"/>
</g>
<g display="none">
	<path display="inline" fill="none" d="M324.495-81.281"/>
</g>
<g>
	<g>
		<path fill="#172E18" d="M186.912,51.495V74.32h-3.753V51.495h-7.865v-3.304h19.483v3.304H186.912z"/>
		<path fill="#172E18" d="M212.286,74.32V63.733c0-4.467-1.651-5.856-4.354-5.856c-2.178,0-3.772,0.864-4.955,1.896V74.32h-3.754
			V46.39h3.754v10.642c2.064-1.615,4.43-2.383,6.287-2.383c4.543,0,6.777,2.496,6.777,9.084V74.32H212.286z"/>
		<path fill="#172E18" d="M220.073,64.24c0-6.308,4.843-9.591,8.991-9.591c5.105,0,7.715,3.697,7.715,8.652v1.465h-12.803
			c0,3.189,1.277,6.774,6.739,6.774c2.497,0,4.018-0.318,4.993-0.582v3.172c-0.957,0.226-2.459,0.487-5.013,0.487
			C223.526,74.62,220.073,71.035,220.073,64.24z M224.071,62.007h8.953c0-2.159-1.275-4.467-4.204-4.467
			C225.815,57.54,224.071,59.698,224.071,62.007z"/>
		<path fill="#172E18" d="M253.28,60.993c0-8.878,6.72-12.989,14.042-12.989c2.252,0,3.941,0.094,5.066,0.244v3.604
			c-0.976-0.244-2.552-0.414-5.03-0.414c-6.87,0-10.173,3.734-10.173,9.555c0,5.744,3.209,10.286,10.192,10.286
			c0.619,0,1.37-0.02,2.158-0.093v-9.629h3.754v12.501c-1.126,0.301-3.548,0.562-6.25,0.562
			C259.062,74.62,253.28,69.871,253.28,60.993z"/>
		<path fill="#172E18" d="M283.069,54.949v10.586c0,4.843,1.314,5.856,4.018,5.856c2.027,0,3.733-0.788,4.917-1.82V54.949h3.754
			V74.32h-3.379l-0.338-2.046c-1.951,1.651-4.411,2.346-6.138,2.346c-4.693,0-6.588-2.308-6.588-8.896V54.949H283.069z"/>
		<path fill="#172E18" d="M306.189,49.317c0,1.427-1.051,2.215-2.478,2.215c-1.371,0-2.402-0.789-2.402-2.215
			c0-1.445,1.031-2.214,2.402-2.214C305.14,47.104,306.189,47.872,306.189,49.317z M305.553,74.32h-3.754V54.949h3.754V74.32z"/>
		<path fill="#172E18" d="M324.516,74.32V63.733c0-4.467-1.633-5.856-4.336-5.856c-2.178,0-3.791,0.864-4.975,1.896V74.32h-3.754
			V54.949h3.473l0.263,2.103c2.083-1.634,4.468-2.401,6.325-2.401c4.506,0,6.758,2.496,6.758,9.084V74.32H324.516z"/>
		<path fill="#172E18" d="M332.322,64.24c0-6.308,4.842-9.591,8.99-9.591c5.105,0,7.715,3.697,7.715,8.652v1.465h-12.803
			c0,3.189,1.277,6.774,6.738,6.774c2.498,0,4.018-0.318,4.994-0.582v3.172c-0.957,0.226-2.459,0.487-5.014,0.487
			C335.775,74.62,332.322,71.035,332.322,64.24z M336.32,62.007h8.951c0-2.159-1.273-4.467-4.203-4.467
			C338.064,57.54,336.32,59.698,336.32,62.007z"/>
		<path fill="#172E18" d="M366.027,72.086c-0.582,0.808-2.553,2.516-5.389,2.516c-3.172,0-7.977-2.046-7.977-9.574
			c0-7.396,5.875-10.379,11.412-10.379c2.516,0,3.924,0.149,5.48,0.3V74.32h-3.379L366.027,72.086z M365.801,69.232V57.708
			c-0.373-0.075-1.312-0.148-1.914-0.148c-4.43,0-7.318,2.177-7.318,7.47c0,5.444,2.945,6.683,4.822,6.683
			C363.812,71.711,365.332,70.115,365.801,69.232z"/>
		<path fill="#172E18" d="M392.424,64.747v9.573h-3.754V48.191h7.414c8.541,0,10.324,4.449,10.324,8.203
			c0,5.932-4.506,8.353-9.836,8.353H392.424z M392.424,51.195v10.549h3.416c4.504,0,6.662-1.728,6.662-5.406
			c0-3.042-1.801-5.143-6.344-5.143H392.424z"/>
		<path fill="#172E18" d="M415.207,49.317c0,1.427-1.051,2.215-2.479,2.215c-1.369,0-2.4-0.789-2.4-2.215
			c0-1.445,1.031-2.214,2.4-2.214C414.156,47.104,415.207,47.872,415.207,49.317z M414.57,74.32h-3.756V54.949h3.756V74.32z"/>
		<path fill="#172E18" d="M432.953,73.381v-0.995c-0.826,0.864-2.836,2.216-5.801,2.216c-3.117,0-7.902-2.253-7.939-9.835
			c-0.037-6.946,6.477-10.117,12.014-10.117c2.514,0,3.924,0.074,5.48,0.3v18.433c0,6.759-3.512,8.747-8.916,8.747
			c-1.334,0-3.322-0.074-4.281-0.375v-3.341c0.695,0.3,2.666,0.639,4.242,0.639C431.883,79.106,432.953,77.548,432.953,73.381z
			 M432.953,69.232V57.689c-0.377-0.075-1.314-0.149-1.916-0.149c-4.279,0-7.977,2.233-7.977,7.228c0,5.743,3.246,6.944,5.254,6.944
			C430.812,71.711,432.482,70.115,432.953,69.232z"/>
	</g>
	<g>
		<path fill="#172E18" d="M200.409,110.211h-18.138v18.359h-5.514V90.199h5.514v15.162h18.138V90.199h5.516v38.371h-5.516V110.211
			L200.409,110.211z"/>
		<path fill="#172E18" d="M233.378,125.291c-0.855,1.187-3.748,3.693-7.913,3.693c-4.657,0-11.714-3.004-11.714-14.061
			c0-10.859,8.628-15.242,16.76-15.242c3.694,0,5.762,0.219,8.049,0.439v28.448h-4.963L233.378,125.291z M233.047,121.1v-16.927
			c-0.55-0.108-1.93-0.219-2.812-0.219c-6.506,0-10.751,3.195-10.751,10.97c0,7.995,4.329,9.814,7.085,9.814
			C230.125,124.739,232.356,122.396,233.047,121.1z"/>
		<path fill="#172E18" d="M266.591,128.57v-15.547c0-6.562-2.397-8.603-6.369-8.603c-3.197,0-5.566,1.271-7.304,2.785v21.363h-5.514
			v-28.448h5.101l0.386,3.089c3.058-2.399,6.562-3.528,9.29-3.528c6.616,0,9.924,3.666,9.924,13.342v15.547H266.591z"/>
		<path fill="#172E18" d="M298.729,87.551h5.487v41.02h-4.935l-0.222-3.279c-0.854,1.187-3.831,3.722-7.994,3.722
			c-4.659,0-11.715-3.031-11.715-14.088c0-10.859,8.627-15.242,16.76-15.242c0.992,0,1.817,0.055,2.618,0.108L298.729,87.551
			L298.729,87.551z M298.703,121.1v-16.953c-0.553-0.11-1.986-0.219-2.868-0.219c-6.506,0-10.75,3.223-10.75,10.996
			c0,7.995,4.328,9.844,7.084,9.844C295.725,124.768,298.014,122.396,298.703,121.1z"/>
		<path fill="#172E18" d="M319.18,102.962c1.129-1.269,3.939-3.279,7.662-3.279c4.658,0,11.715,2.922,11.715,13.977
			c0,10.86-8.627,15.326-16.759,15.326c-3.694,0-5.817-0.192-8.132-0.414V87.551h5.514V102.962z M319.205,107.565v16.953
			c0.551,0.108,1.984,0.221,2.867,0.221c6.504,0,10.75-3.31,10.75-11.081c0-7.995-4.326-9.729-7.086-9.729
			C322.182,103.928,319.893,106.27,319.205,107.565z"/>
		<path fill="#172E18" d="M358.482,129.012c-7.471,0-14.143-5.484-14.143-14.722c0-9.289,6.697-14.747,14.17-14.747
			c7.359,0,13.812,5.458,13.812,14.747C372.322,123.527,365.842,129.012,358.482,129.012z M358.482,124.768
			c5.844,0,8.104-5.211,8.104-10.478c0-5.319-2.453-10.504-8.076-10.504c-5.873,0-8.436,5.185-8.436,10.504
			C350.076,119.557,352.391,124.768,358.482,124.768z"/>
		<path fill="#172E18" d="M391.418,129.012c-7.471,0-14.141-5.484-14.141-14.722c0-9.289,6.697-14.747,14.17-14.747
			c7.357,0,13.811,5.458,13.811,14.747C405.258,123.527,398.777,129.012,391.418,129.012z M391.418,124.768
			c5.846,0,8.104-5.211,8.104-10.478c0-5.319-2.451-10.504-8.074-10.504c-5.873,0-8.436,5.185-8.436,10.504
			C383.012,119.557,385.326,124.768,391.418,124.768z"/>
		<path fill="#172E18" d="M417.988,114.07v14.5h-5.516V87.58h5.516v25.278l11.523-12.735h6.561l-12.268,12.901l12.9,15.547h-6.727
			L417.988,114.07z"/>
	</g>
</g>
<g>
	<path fill="#FFFFFF" d="M23.395,95.059c0,4.839-8.467,11.693-10.887,16.936c-1.209,3.628-2.822,8.87,0,11.289
		c2.823,2.42,7.818,2.219,10.641,0.202"/>
	<g>
		<path d="M22.186,95.059c-0.261,4.182-4.688,8.035-7.167,11.09c-2.62,3.227-4.183,6.271-5.012,10.368
			c-0.722,3.566-0.055,6.799,3.221,8.689c3.167,1.828,7.569,1.205,10.532-0.676c1.313-0.834,0.101-2.929-1.221-2.09
			c-3.482,2.21-10.087,2.134-10.388-3.131c-0.194-3.39,1.364-7.067,3.276-9.761c3.1-4.367,8.82-8.76,9.177-14.49
			C24.702,93.502,22.283,93.51,22.186,95.059L22.186,95.059z"/>
	</g>
</g>
<g>
	<g>
		<path d="M42.297,119.302c9.701,10.402,23.616,10.729,36.893,10.308c12.523-0.398,27.181-1.508,37.553-9.312
			c1.231-0.926,0.026-3.028-1.221-2.09c-9.627,7.246-22.944,8.375-34.575,8.915c-13.069,0.604-27.326,0.778-36.94-9.532
			C42.942,116.447,41.235,118.162,42.297,119.302L42.297,119.302z"/>
	</g>
</g>
<g>
	<g>
		<path d="M126.567,60.836c2.014,2.39,3.22,6.997,3.411,10.139c0.111,1.846-1.575,3.093-3.084,3.436
			c-1.432,0.325-3.357,1.132-3.812,2.707c-0.354,1.229-0.279,2.476-0.501,3.729c-0.563,3.208-4.726,3.401-6.211,1.104
			c-0.845-1.305-2.939-0.093-2.09,1.221c2.019,3.119,4.955,3.843,8.049,1.666c1.463-1.029,2.416-2.384,2.724-4.131
			c0.194-1.112-0.185-2.666,0.991-3.437c0.684-0.451,1.697-0.586,2.492-0.735c1.859-0.353,3.778-3.191,3.842-5.062
			c0.137-3.956-1.562-9.333-4.103-12.347C127.271,57.93,125.568,59.651,126.567,60.836L126.567,60.836z"/>
	</g>
</g>
<path fill="#B94800" d="M99.649,66.528c0,0,8.851,15.147-3.149,23.91c0,0-27.5,1.263-28.5,13.263s-42.949,0.211-18.975-36.145
	l6.14-1.188l19.084,2.833l17,0.25L99.649,66.528z"/>
<path fill="#B94800" d="M143.022,114.126c0,0-9.123,11.747-3.28,12.176S148.795,122.301,143.022,114.126z"/>
<g>
	<g>
		<path d="M132.225,121.677c2.441,3.982,8.921,8.496,13.361,5.054c2.508-1.943,1.955-6.186,1.344-8.811
			c-0.824-3.54-2.725-6.96-4.942-9.805c-0.958-1.229-2.657,0.496-1.711,1.71c2.749,3.528,5.532,8.908,4.548,13.49
			c-1.215,5.644-9.02-0.428-10.51-2.859C133.5,119.129,131.407,120.343,132.225,121.677L132.225,121.677z"/>
	</g>
</g>
<g>
	<g>
		<path d="M42.749,107.963c0.388,6.516-0.268,20.71-8.973,21.713c-8.546,0.984-10.674-9.957-11.052-16.115
			c-0.486-7.911,0.906-15.946,3.038-23.538c1.925-6.854,4.535-14.406,10.647-18.594c5.656-3.876,13.097-4.206,19.711-3.938
			c8.125,0.328,16.068,2.082,24.096,3.199c3.62,0.503,7.405,0.95,11.029,0.302c3.154-0.565,5.936-2.541,8.404-4.463
			c2.848-2.216,5.366-4.823,8.23-7.021c3.369-2.585,7.47-4.384,11.319-6.117c8.074-3.633,16.418-5.493,24.937-2.316
			c7.475,2.787,13.499,9.041,17.365,15.855c4.102,7.229,4.929,15.434,0.699,22.779c-2.17,3.769-5.521,6.431-8.969,8.95
			c-3.555,2.597-7.082,5.245-10.865,7.503c-3.539,2.111-9.466,4.312-10.583,8.811c-0.883,3.558-2.073,7.079-3.703,10.365
			c-1.582,3.188-5.882,8.798-8.988,3.546c-2.865-4.845-0.904-11.562-2.601-16.808c-0.479-1.479-2.814-0.846-2.333,0.643
			c1.73,5.348,0.333,11.286,2.474,16.584c1.374,3.403,5.182,5.126,8.496,3.415c3.531-1.825,5.385-6.584,6.749-10.038
			c1.195-3.029,1.468-6.95,3.772-9.352c2.308-2.403,5.71-3.747,8.531-5.431c4.225-2.521,8.12-5.592,12.097-8.478
			c5.719-4.15,9.98-9.96,11.058-17.04c2.083-13.683-9.608-28.338-21.713-33.292c-7.442-3.046-14.715-2.494-22.22,0.05
			c-7.303,2.477-14.436,6.091-20.259,11.168c-2.706,2.359-5.289,4.83-8.376,6.696c-4.045,2.447-8.593,1.959-13.091,1.457
			c-8.022-0.896-15.881-2.726-23.953-3.297c-6.355-0.449-12.97-0.156-18.929,2.283c-5.885,2.409-9.525,7.034-12.059,12.703
			c-5.566,12.449-8.704,28.512-5.129,41.913c1.705,6.392,8.306,12.081,15.114,9.321c8.016-3.25,8.877-16.2,8.448-23.419
			C45.077,106.413,42.656,106.403,42.749,107.963L42.749,107.963z"/>
	</g>
</g>
<circle cx="143.899" cy="74.601" r="4.156"/>
<g>
	<g>
		<path d="M160.366,88.363c1.395,0.501,2.898,0.19,4.157-0.525c1.356-0.771,0.138-2.86-1.222-2.09
			c-0.738,0.421-1.482,0.572-2.293,0.282c-0.621-0.223-1.323,0.246-1.488,0.845C159.336,87.548,159.746,88.14,160.366,88.363
			L160.366,88.363z"/>
	</g>
</g>
<path fill="#FFFFFF" d="M593.749,98.777l-4.834-18.5l-7.5-10.103c0,0-10.333-8.731-20.666-5.397l-26.167,3.333
	c0,0-13.358,0.965-19.666-5.833c0,0-32.405-30.045-53.452-6.106c0,0-16.048,9.102-8.881,32.437l21.344,17.916
	c0,0-10.01,19.121,1.323,18.187c0,0,8.251-3.075,8.626-9.088c0,0,4.374,15.486,10.874,15.153c0,0,4.833-2.666,5.167-12.166
	l11.666,4.848l15.667,2.904h16c0,0,18.615-1.198,22.167-2.904l7-6.348l2.333,7.601l6.833,4.232l7-0.817l3.936-5.516l1.898-9.868
	L593.749,98.777z"/>
<g>
	<path fill="#FFFFFF" d="M592.765,121.895c2.822,2.017,7.818,2.218,10.641-0.202c2.822-2.419,1.21-7.661,0-11.289
		c-2.419-5.242-10.887-12.097-10.887-16.936"/>
	<g>
		<path d="M593.729,93.469c-0.097-1.55-2.517-1.558-2.419,0c0.357,5.73,6.078,10.123,9.178,14.49
			c1.912,2.693,3.47,6.371,3.275,9.761c-0.3,5.265-6.904,5.341-10.387,3.131c-1.322-0.839-2.534,1.256-1.221,2.09
			c2.963,1.881,7.363,2.504,10.531,0.676c3.275-1.891,3.942-5.123,3.221-8.689c-0.83-4.098-2.393-7.142-5.012-10.368
			C598.417,101.504,593.989,97.65,593.729,93.469L593.729,93.469z"/>
	</g>
</g>
<g>
	<g>
		<path d="M573.617,117.711c1.062-1.14-0.646-2.854-1.71-1.711c-9.615,10.311-23.872,10.137-36.941,9.532
			c-11.63-0.54-24.947-1.669-34.574-8.915c-1.247-0.938-2.452,1.164-1.221,2.09c10.373,7.804,25.029,8.913,37.553,9.312
			C550.001,128.44,563.916,128.113,573.617,117.711L573.617,117.711z"/>
	</g>
</g>
<g>
	<g>
		<path d="M489.347,59.245c0.999-1.185-0.704-2.905-1.709-1.71c-2.54,3.014-4.239,8.391-4.103,12.347
			c0.063,1.87,1.982,4.709,3.842,5.062c0.795,0.149,1.809,0.284,2.492,0.735c1.176,0.771,0.797,2.324,0.991,3.437
			c0.308,1.747,1.261,3.102,2.724,4.131c3.094,2.177,6.03,1.453,8.049-1.666c0.85-1.313-1.245-2.525-2.09-1.221
			c-1.485,2.297-5.647,2.104-6.211-1.104c-0.222-1.253-0.146-2.5-0.501-3.729c-0.454-1.575-2.38-2.382-3.812-2.707
			c-1.509-0.343-3.195-1.59-3.084-3.436C486.127,66.242,487.333,61.635,489.347,59.245L489.347,59.245z"/>
	</g>
</g>
<path fill="#B94800" d="M516.265,64.937c0,0-8.851,15.147,3.149,23.91c0,0,27.5,1.263,28.5,13.263s42.949,0.211,18.975-36.145
	l-6.14-1.188l-19.085,2.833l-17,0.25L516.265,64.937z"/>
<path fill="#B94800" d="M472.892,112.535c0,0,9.123,11.747,3.279,12.176C470.328,125.139,467.119,120.71,472.892,112.535z"/>
<g>
	<g>
		<path d="M483.689,120.086c0.817-1.334-1.275-2.548-2.09-1.221c-1.49,2.432-9.295,8.503-10.51,2.859
			c-0.984-4.582,1.799-9.962,4.548-13.49c0.946-1.214-0.753-2.939-1.711-1.71c-2.218,2.845-4.118,6.265-4.942,9.805
			c-0.611,2.625-1.164,6.867,1.344,8.811C474.769,128.582,481.248,124.068,483.689,120.086L483.689,120.086z"/>
	</g>
</g>
<g>
	<g>
		<path d="M573.165,106.372c0.093-1.56-2.328-1.55-2.418,0.001c-0.43,7.219,0.432,20.169,8.448,23.419
			c6.809,2.76,13.409-2.93,15.114-9.321c3.574-13.401,0.438-29.464-5.129-41.913c-2.534-5.669-6.174-10.294-12.059-12.703
			c-5.959-2.439-12.574-2.732-18.93-2.283c-8.072,0.571-15.931,2.4-23.953,3.297c-4.498,0.502-9.046,0.99-13.092-1.457
			c-3.087-1.866-5.67-4.337-8.375-6.696c-5.824-5.077-12.957-8.691-20.26-11.168c-7.505-2.544-14.777-3.096-22.22-0.05
			c-12.104,4.954-23.796,19.609-21.713,33.292c1.077,7.08,5.339,12.89,11.058,17.04c3.977,2.886,7.872,5.956,12.097,8.478
			c2.821,1.684,6.224,3.027,8.531,5.431c2.305,2.401,2.577,6.322,3.772,9.352c1.364,3.454,3.218,8.213,6.749,10.038
			c3.314,1.711,7.122-0.012,8.496-3.415c2.141-5.298,0.743-11.236,2.474-16.584c0.481-1.488-1.854-2.121-2.333-0.643
			c-1.696,5.246,0.265,11.963-2.601,16.808c-3.106,5.252-7.406-0.357-8.988-3.546c-1.63-3.286-2.82-6.808-3.703-10.365
			c-1.117-4.498-7.044-6.699-10.583-8.811c-3.783-2.258-7.311-4.906-10.865-7.503c-3.448-2.52-6.799-5.182-8.969-8.95
			c-4.229-7.346-3.402-15.551,0.699-22.779c3.866-6.814,9.891-13.068,17.365-15.855c8.519-3.177,16.862-1.316,24.937,2.316
			c3.849,1.733,7.95,3.532,11.318,6.117c2.865,2.197,5.383,4.805,8.23,7.021c2.469,1.922,5.25,3.897,8.404,4.463
			c3.625,0.648,7.409,0.201,11.029-0.302c8.028-1.117,15.972-2.871,24.096-3.199c6.614-0.268,14.055,0.062,19.711,3.938
			c6.113,4.188,8.723,11.739,10.648,18.594c2.131,7.592,3.523,15.627,3.037,23.538c-0.379,6.158-2.506,17.1-11.053,16.115
			C573.433,127.082,572.777,112.887,573.165,106.372L573.165,106.372z"/>
	</g>
</g>
<circle cx="472.015" cy="73.01" r="4.156"/>
<g>
	<g>
		<path d="M455.548,86.772c0.62-0.223,1.03-0.815,0.846-1.488c-0.165-0.599-0.867-1.067-1.488-0.845
			c-0.811,0.29-1.555,0.139-2.293-0.282c-1.359-0.771-2.578,1.319-1.222,2.09C452.649,86.963,454.153,87.273,455.548,86.772
			L455.548,86.772z"/>
	</g>
</g>
<line fill="#FFFFFF" stroke="#000000" stroke-miterlimit="10" x1="164.25" y1="77.826" x2="162.295" y2="77.076"/>
<line fill="#FFFFFF" stroke="#000000" stroke-miterlimit="10" x1="451.643" y1="77.826" x2="453.597" y2="77.076"/>
</svg>
