<?xml version="1.0" encoding="utf-8"?>
<!-- Generator: Adobe Illustrator 16.0.4, SVG Export Plug-In . SVG Version: 6.00 Build 0)  -->
<!DOCTYPE svg PUBLIC "-//W3C//DTD SVG 1.1//EN" "http://www.w3.org/Graphics/SVG/1.1/DTD/svg11.dtd">
<svg version="1.1" id="Layer_1" xmlns="http://www.w3.org/2000/svg" xmlns:xlink="http://www.w3.org/1999/xlink" x="0px" y="0px"
	 width="300px" height="250px" viewBox="0 0 300 250" enable-background="new 0 0 300 250" xml:space="preserve">
<path fill="#FFFFFF" stroke="#000000" stroke-width="3" stroke-miterlimit="10" d="M58.214,167.5c0,0-2.768,13.004,3.807,19.578
	l27.335,17.646l5.144-10.38l-23.137-15.917c0,0-1.73-10.928,1.73-10.928"/>
<g>
	<path fill="#D300E7" d="M71.363,28.638c-6.92,5.537-3.806,16.955,1.038,22.492c4.844,6.228,13.495,9.688,21.107,9.688L94.5,41.095
		l-1.337-8.286L89.356,28.5L71.363,28.638z"/>
</g>
<g>
	<path fill="#D300E7" d="M74.824,148.361c-15.571-12.11,7.612-33.564,17.301-18.685l1.73,5.19l-0.346,9.712l-3.911,3.921
		L74.824,148.361z"/>
</g>
<g>
	<path fill="#D300E7" d="M41.952,82.271c-0.346-14.879,20.415-10.38,23.875,0.692c2.768,7.958,0.692,19.723-7.267,23.875
		c-5.19,2.422-14.879,1.73-16.955-4.498"/>
</g>
<path fill="#D300E7" stroke="#000000" stroke-width="3" stroke-miterlimit="10" d="M85.5,165.606c0,0.718-0.221,3.894-3.769,3.894
	H56.572c-3.548,0-9.072-3.176-9.072-3.894v-14.824c0-0.718,5.524,0.718,9.072,0.718h25.159c3.548,0,3.769-1.436,3.769-0.718V165.606
	z"/>
<path fill="none" stroke="#000000" stroke-width="3" stroke-miterlimit="10" d="M94.5,140.482c0,4.98-4.037,9.018-9.018,9.018
	H50.518c-4.98,0-9.018-4.037-9.018-9.018V37.518c0-4.98,4.037-9.018,9.018-9.018h34.965c4.98,0,9.018,4.037,9.018,9.018V140.482z"/>
<path fill="#FFFFFF" stroke="#000000" stroke-width="3" stroke-miterlimit="10" d="M247.785,154.5c0,0,2.768,13.004-3.807,19.578
	l-27.335,17.646l-5.144-10.38l23.137-15.917c0,0,1.73-10.928-1.73-10.928"/>
<g>
	<path fill="#73CAFF" d="M232.637,15.638c6.92,5.537,3.807,16.955-1.038,22.492c-4.845,6.228-13.495,9.688-21.107,9.688
		L209.5,28.095l1.338-8.286l3.806-4.309L232.637,15.638z"/>
</g>
<g>
	<path fill="#73CAFF" d="M229.176,135.361c15.572-12.11-7.611-33.564-17.301-18.685l-1.729,5.19l0.346,9.712l3.911,3.921
		L229.176,135.361z"/>
</g>
<g>
	<path fill="#73CAFF" d="M262.049,69.271c0.346-14.879-20.416-10.38-23.876,0.692c-2.769,7.958-0.692,19.723,7.267,23.875
		c5.19,2.422,14.879,1.73,16.955-4.498"/>
</g>
<path fill="#73CAFF" stroke="#000000" stroke-width="3" stroke-miterlimit="10" d="M216.5,152.606c0,0.718,4.221,3.894,7.77,3.894
	h25.158c3.549,0,5.072-3.176,5.072-3.894v-14.824c0-0.718-1.523,0.718-5.072,0.718H224.27c-3.549,0-7.77-1.436-7.77-0.718V152.606z"
	/>
<path fill="none" stroke="#000000" stroke-width="3" stroke-miterlimit="10" d="M209.5,127.482c0,4.98,4.037,9.018,9.018,9.018
	h34.965c4.98,0,9.018-4.037,9.018-9.018V24.518c0-4.98-4.037-9.018-9.018-9.018h-34.965c-4.98,0-9.018,4.037-9.018,9.018V127.482z"
	/>
</svg>
