<?xml version="1.0" encoding="utf-8"?>
<!-- Generator: Adobe Illustrator 16.0.4, SVG Export Plug-In . SVG Version: 6.00 Build 0)  -->
<!DOCTYPE svg PUBLIC "-//W3C//DTD SVG 1.1//EN" "http://www.w3.org/Graphics/SVG/1.1/DTD/svg11.dtd">
<svg version="1.1" id="Layer_1" xmlns="http://www.w3.org/2000/svg" xmlns:xlink="http://www.w3.org/1999/xlink" x="0px" y="0px"
	 width="300px" height="250px" viewBox="0 0 300 250" enable-background="new 0 0 300 250" xml:space="preserve">
<polyline fill="#A78E00" stroke="#000000" stroke-width="2" stroke-miterlimit="10" points="278.072,147.255 77.51,147.815 
	21.882,164.971 219.5,171.557 "/>
<polyline fill="#D0CB00" stroke="#000000" stroke-width="2" stroke-miterlimit="10" points="16.443,165.166 219.5,165.5 280,147 
	280,150 269.634,178.12 226.114,193.833 33.648,192.308 14.962,165.774 "/>
<polygon fill="none" stroke="#000000" stroke-width="3" stroke-miterlimit="10" points="219.5,165.5 16.5,165.5 16.5,148.068 
	16.5,61.5 219.5,61.5 "/>
<polygon fill="none" stroke="#000000" stroke-width="2" stroke-miterlimit="10" points="280,147 77,147 77,129.517 77,45 280,45 "/>
<line fill="none" stroke="#000000" stroke-width="3" stroke-miterlimit="10" x1="219" y1="147.5" x2="16" y2="147.5"/>
<line fill="none" stroke="#000000" stroke-width="3" stroke-miterlimit="10" x1="219" y1="130.5" x2="16" y2="130.5"/>
<line fill="none" stroke="#000000" stroke-width="3" stroke-miterlimit="10" x1="219" y1="114.5" x2="16" y2="114.5"/>
<line fill="none" stroke="#000000" stroke-width="3" stroke-miterlimit="10" x1="219" y1="97.5" x2="16" y2="97.5"/>
<line fill="none" stroke="#000000" stroke-width="3" stroke-miterlimit="10" x1="219" y1="78.5" x2="16" y2="78.5"/>
<polygon fill="none" stroke="#000000" stroke-width="2" stroke-miterlimit="10" points="77,147.815 16,165.774 16,148.068 
	16,61.612 77,45.449 "/>
<polygon fill="none" stroke="#000000" stroke-width="3" stroke-miterlimit="10" points="280.5,149.611 219.5,165.774 219.5,148.068 
	219.5,61.612 280.5,45.449 "/>
<line fill="none" stroke="#000000" stroke-width="3" stroke-miterlimit="10" x1="219" y1="147.5" x2="16" y2="147.5"/>
<line fill="none" stroke="#000000" stroke-width="3" stroke-miterlimit="10" x1="219" y1="130.5" x2="16" y2="130.5"/>
<line fill="none" stroke="#000000" stroke-width="3" stroke-miterlimit="10" x1="219" y1="114.5" x2="16" y2="114.5"/>
<line fill="none" stroke="#000000" stroke-width="3" stroke-miterlimit="10" x1="16" y1="97.5" x2="219" y2="97.5"/>
<line fill="none" stroke="#000000" stroke-width="3" stroke-miterlimit="10" x1="16" y1="78.5" x2="219" y2="78.5"/>
<line fill="none" stroke="#000000" stroke-width="2" stroke-miterlimit="10" x1="281" y1="114" x2="78" y2="114"/>
<line fill="none" stroke="#000000" stroke-width="2" stroke-miterlimit="10" x1="281" y1="98" x2="78" y2="98"/>
<line fill="none" stroke="#000000" stroke-width="2" stroke-miterlimit="10" x1="281" y1="81" x2="78" y2="81"/>
<line fill="none" stroke="#000000" stroke-width="2" stroke-miterlimit="10" x1="281" y1="62" x2="78" y2="62"/>
<line fill="none" stroke="#000000" stroke-width="2" stroke-miterlimit="10" x1="281" y1="131" x2="78" y2="131"/>
<line fill="none" stroke="#000000" stroke-width="2" stroke-miterlimit="10" x1="281" y1="114" x2="78" y2="114"/>
<line fill="none" stroke="#000000" stroke-width="2" stroke-miterlimit="10" x1="281" y1="98" x2="78" y2="98"/>
<line fill="none" stroke="#000000" stroke-width="2" stroke-miterlimit="10" x1="78" y1="81" x2="281" y2="81"/>
<line fill="none" stroke="#000000" stroke-width="2" stroke-miterlimit="10" x1="78" y1="62" x2="281" y2="62"/>
<line fill="none" stroke="#000000" stroke-width="1.7959" stroke-miterlimit="10" x1="77.51" y1="61.612" x2="17.759" y2="78.673"/>
<line fill="none" stroke="#000000" stroke-width="1.7959" stroke-miterlimit="10" x1="77.51" y1="78.673" x2="17.759" y2="97.53"/>
<line fill="none" stroke="#000000" stroke-width="1.7959" stroke-miterlimit="10" x1="77.51" y1="98.976" x2="17.759" y2="113.693"/>
<line fill="none" stroke="#000000" stroke-width="1.7959" stroke-miterlimit="10" x1="77.51" y1="114.591" x2="17.759" y2="130.754"/>
<line fill="none" stroke="#000000" stroke-width="1.7959" stroke-miterlimit="10" x1="77.51" y1="132.223" x2="17.759" y2="147.815"/>
<line fill="none" stroke="#000000" stroke-width="2.6939" stroke-miterlimit="10" x1="279.549" y1="61.612" x2="219.798" y2="78.673"/>
<line fill="none" stroke="#000000" stroke-width="2.6939" stroke-miterlimit="10" x1="279.549" y1="78.673" x2="219.798" y2="97.53"/>
<line fill="none" stroke="#000000" stroke-width="2.6939" stroke-miterlimit="10" x1="279.549" y1="98.976" x2="219.798" y2="113.693"/>
<line fill="none" stroke="#000000" stroke-width="2.6939" stroke-miterlimit="10" x1="279.549" y1="114.591" x2="219.798" y2="130.754"/>
<line fill="none" stroke="#000000" stroke-width="2.6939" stroke-miterlimit="10" x1="279.549" y1="132.223" x2="219.798" y2="147.815"/>
<line fill="#A78E00" stroke="#000000" stroke-miterlimit="10" x1="84.512" y1="164.971" x2="77.51" y2="148.016"/>
<line fill="#A78E00" stroke="#000000" stroke-miterlimit="10" x1="219.5" y1="165.774" x2="226.114" y2="193.833"/>
</svg>
