<?xml version="1.0" encoding="utf-8"?>
<!-- Generator: Adobe Illustrator 16.0.4, SVG Export Plug-In . SVG Version: 6.00 Build 0)  -->
<!DOCTYPE svg PUBLIC "-//W3C//DTD SVG 1.1//EN" "http://www.w3.org/Graphics/SVG/1.1/DTD/svg11.dtd">
<svg version="1.1" id="Layer_1" xmlns="http://www.w3.org/2000/svg" xmlns:xlink="http://www.w3.org/1999/xlink" x="0px" y="0px"
	 width="300px" height="250px" viewBox="0 0 300 250" enable-background="new 0 0 300 250" xml:space="preserve">
<g>
	<defs>
		<rect id="XMLID_2_" x="165" y="23" width="115" height="115"/>
	</defs>
	<use xlink:href="#XMLID_2_"  overflow="visible" fill="#4F53FF"/>
	<clipPath id="XMLID_5_">
		<use xlink:href="#XMLID_2_"  overflow="visible"/>
	</clipPath>
	<g id="_x31_zuS9d_1_" clip-path="url(#XMLID_5_)">
		<g>
			<path fill-rule="evenodd" clip-rule="evenodd" fill="#3C3DF5" d="M145.738-30.37c1.114,20.887,2.257,41.771,3.318,62.662
				c0.185,3.619,0.027,7.257,0.027,10.382c-3.684-23.917-10.64-47.965-8.204-73.044C142.499-30.37,144.119-30.37,145.738-30.37z"/>
			<path fill-rule="evenodd" clip-rule="evenodd" fill="#3C3DF5" d="M105.658,44.932c0.506-2.947,1.403-5.889,1.45-8.843
				c0.175-10.864,0.069-21.732,1.382-32.575c1.775,21.203,3.224,42.432-2.832,63.28C105.658,59.507,105.658,52.22,105.658,44.932z"
				/>
			<path fill-rule="evenodd" clip-rule="evenodd" fill="#3C3DF5" d="M166.386-30.37c1.396,13.598,4.799,27.096,2.027,40.908
				c-4.75-13.353-2.303-27.264-3.241-40.908C165.576-30.37,165.981-30.37,166.386-30.37z"/>
			<path fill-rule="evenodd" clip-rule="evenodd" fill="#3C3DF5" d="M341.281,8.496c-1.026-1.505-2.789-2.932-2.961-4.526
				c-1.219-11.428-2.113-22.889-3.112-34.34c0.405,0,0.81,0,1.214,0c1.62,4.453,3.239,8.907,4.859,13.36
				C341.281-8.509,341.281-0.006,341.281,8.496z"/>
			<path fill-rule="evenodd" clip-rule="evenodd" fill="#3C3DF5" d="M212.539-30.37c1.087,13.17,2.176,26.341,3.265,39.51
				c-0.613,0.055-1.229,0.112-1.842,0.169c-1.285-13.228-2.568-26.454-3.853-39.68C210.92-30.37,211.729-30.37,212.539-30.37z"/>
			<path fill-rule="evenodd" clip-rule="evenodd" fill="#3C3DF5" d="M244.117-30.37c0.958,6.143,2.099,12.264,2.824,18.434
				c1.046,8.881,1.786,17.799,1.786,26.804c-2.346-15.08-4.693-30.158-7.04-45.238C242.499-30.37,243.307-30.37,244.117-30.37z"/>
			<path fill-rule="evenodd" clip-rule="evenodd" fill="#3C3DF5" d="M115.375-30.37c0,15.673,0,31.345,0,47.017
				c-0.404-0.004-0.81-0.007-1.216-0.013c0-15.668,0-31.336,0-47.004C114.565-30.37,114.971-30.37,115.375-30.37z"/>
			<path fill-rule="evenodd" clip-rule="evenodd" fill="#3C3DF5" d="M190.677-30.37c1.015,7.491,2.03,14.98,3.046,22.469
				c-0.67,0.107-1.339,0.215-2.011,0.32c-1.155-7.595-2.309-15.193-3.465-22.789C189.059-30.37,189.866-30.37,190.677-30.37z"/>
			<path fill-rule="evenodd" clip-rule="evenodd" fill="#3C3DF5" d="M282.981-30.37c0.767,7.098,1.532,14.197,2.299,21.294
				c-0.28,0.025-0.562,0.052-0.844,0.077c-1.698-7.124-3.396-14.247-5.099-21.371C280.554-30.37,281.77-30.37,282.981-30.37z"/>
			<path fill-rule="evenodd" clip-rule="evenodd" fill="#3C3DF5" d="M223.47-30.37c0,6.744,0,13.489,0,20.234
				c-0.81,0.012-1.62,0.025-2.43,0.036c0-6.756,0-13.512,0-20.27C221.85-30.37,222.66-30.37,223.47-30.37z"/>
			<path fill-rule="evenodd" clip-rule="evenodd" fill="#3C3DF5" d="M235.616-30.37c0,5.181,0,10.36,0,15.54
				c-0.181,0.075-0.357,0.148-0.537,0.22c-1.44-5.252-2.882-10.507-4.322-15.759C232.376-30.37,233.996-30.37,235.616-30.37z"/>
			<path fill-rule="evenodd" clip-rule="evenodd" fill="#3C3DF5" d="M341.281,154.242c-1.709-7.688-3.422-15.375-5.131-23.062
				c0.254-0.034,0.508-0.068,0.762-0.104c1.455,3.674,2.914,7.346,4.369,11.02C341.281,146.145,341.281,150.192,341.281,154.242z"/>
			<path fill-rule="evenodd" clip-rule="evenodd" fill="#3C3DF5" d="M131.165-30.37c-0.351,4.46-0.701,8.919-1.052,13.38
				c-0.697-0.021-1.395-0.045-2.094-0.068c0.238-4.438,0.476-8.873,0.716-13.312C129.545-30.37,130.353-30.37,131.165-30.37z"/>
			<path fill-rule="evenodd" clip-rule="evenodd" fill="#3C3DF5" d="M341.281-17.01c-1.62-4.454-3.239-8.907-4.859-13.36
				c1.62,0,3.239,0,4.859,0C341.281-25.917,341.281-21.463,341.281-17.01z"/>
			<path fill-rule="evenodd" clip-rule="evenodd" fill="#3C3DF5" d="M141.898,105.555c-1.343-34.089-2.684-68.18-4.026-102.271
				c0.682-0.04,1.362-0.083,2.044-0.124c0.729,10.52,1.238,21.062,2.277,31.553c0.544,5.476,2.07,10.85,3.047,16.291
				c0.28,1.565,0.439,3.235,0.192,4.784c-0.173,1.101-1.639,2.075-1.646,3.112c-0.112,15.498-0.078,30.998-0.078,46.497
				C143.105,105.449,142.501,105.503,141.898,105.555z"/>
			<path fill-rule="evenodd" clip-rule="evenodd" fill="#3C3DF5" d="M315.723-1.506c3.926,19.59,7.875,39.179,11.729,58.786
				c0.248,1.268-0.251,2.684-0.4,4.028c-0.501,0.059-1.004,0.116-1.506,0.173c-4.303-20.806-8.608-41.616-12.911-62.422
				C313.663-1.131,314.693-1.319,315.723-1.506z"/>
			<path fill-rule="evenodd" clip-rule="evenodd" fill="#3C3DF5" d="M232.067-10.817c6.087,22.185,5.204,44.718,4.423,67.244
				c-0.637,0.028-1.273,0.058-1.907,0.086C233.744,34.07,232.905,11.627,232.067-10.817z"/>
			<path fill-rule="evenodd" clip-rule="evenodd" fill="#3C3DF5" d="M275.763-2.423c3.922,26.262,7.841,52.527,11.76,78.792
				c-0.808,0.117-1.616,0.239-2.424,0.359c-3.901-26.267-7.801-52.533-11.701-78.799C274.186-2.189,274.976-2.306,275.763-2.423z"/>
			<path fill-rule="evenodd" clip-rule="evenodd" fill="#3C3DF5" d="M281.698,78.57c2.695,21.939,5.388,43.879,8.082,65.819
				c-0.91,0.108-1.821,0.218-2.733,0.329c-2.6-21.971-5.195-43.94-7.791-65.909C280.067,78.729,280.885,78.65,281.698,78.57z"/>
			<path fill-rule="evenodd" clip-rule="evenodd" fill="#3C3DF5" d="M195.446,15.885c1.143,3.642,2.286,7.282,3.584,11.412
				c-1.712-0.504-2.85-0.839-3.984-1.175c-0.224,1.083-0.708,2.185-0.624,3.243c0.635,8.09,1.382,16.172,0.652,24.348
				c-2.74-15.23-5.483-30.46-8.226-45.688c0.418-0.122,0.837-0.243,1.255-0.365c1.851,4.503,3.701,9.007,5.552,13.51
				c0.4-0.082,0.799-0.167,1.199-0.25c0.224-1.698,0.448-3.396,0.674-5.095L195.446,15.885z"/>
			<path fill-rule="evenodd" clip-rule="evenodd" fill="#3C3DF5" d="M298.167-26.169c1.638,20.808,14.312,39.187,11.454,60.983
				c-4.423-20.193-8.844-40.388-13.267-60.583C296.958-25.901,297.562-26.035,298.167-26.169z"/>
			<path fill-rule="evenodd" clip-rule="evenodd" fill="#3C3DF5" d="M269.001,92.222c0.998,9.13,2.023,18.257,2.982,27.391
				c1.087,10.371,2.114,20.747,2.599,31.241c-4.022-9.059-2.896-19.131-4.509-28.646c-1.658-9.801-1.873-19.844-2.723-29.782
				C267.901,92.357,268.452,92.29,269.001,92.222z"/>
			<path fill-rule="evenodd" clip-rule="evenodd" fill="#3C3DF5" d="M216.665,179.793c-1.814-15.724-4.637-31.421-0.295-47.313
				c0.635,15.818,1.27,31.638,1.904,47.458C217.738,179.89,217.202,179.841,216.665,179.793z"/>
			<path fill-rule="evenodd" clip-rule="evenodd" fill="#3C3DF5" d="M308.691,108.823c-3.27-16.124-6.541-32.248-9.812-48.372
				C306.194,75.715,308.532,92.041,308.691,108.823z"/>
			<path fill-rule="evenodd" clip-rule="evenodd" fill="#3C3DF5" d="M192.539,82.466c-2.338-14.835-4.677-29.668-7.015-44.501
				c0.177-0.023,0.354-0.046,0.53-0.07c1.657,4.727,3.671,9.364,4.872,14.206c1.21,4.868,1.799,9.918,2.315,14.924
				c0.527,5.083,0.631,10.209,0.92,15.316C193.623,82.382,193.081,82.425,192.539,82.466z"/>
			<path fill-rule="evenodd" clip-rule="evenodd" fill="#3C3DF5" d="M173.837,105.287c1.026,16.71,2.049,33.417,3.073,50.126
				c-0.613,0.045-1.225,0.089-1.838,0.134c-1.344-16.655-2.69-33.309-4.036-49.963C171.969,105.485,172.904,105.387,173.837,105.287
				z"/>
			<path fill-rule="evenodd" clip-rule="evenodd" fill="#3C3DF5" d="M325.413,30.679c-2.982-17.429-5.963-34.86-8.944-52.291
				c0.254-0.087,0.506-0.175,0.76-0.261c1.401,5.543,2.893,11.068,4.185,16.639c1.364,5.882,2.87,11.764,3.706,17.731
				c0.835,5.95,0.919,12.003,1.334,18.01C326.106,30.565,325.76,30.622,325.413,30.679z"/>
			<path fill-rule="evenodd" clip-rule="evenodd" fill="#3C3DF5" d="M241.748,123.938c1.902,16.776,3.803,33.551,5.705,50.326
				c-0.714,0.076-1.425,0.153-2.139,0.23c-1.868-16.778-3.734-33.559-5.601-50.335C240.391,124.084,241.07,124.011,241.748,123.938z
				"/>
			<path fill-rule="evenodd" clip-rule="evenodd" fill="#3C3DF5" d="M316.523,70.355c-1.373-11.385-2.749-22.77-4.122-34.152
				c0.736-0.104,1.473-0.206,2.21-0.308c1.809,11.313,3.618,22.625,5.426,33.934C318.866,70.005,317.695,70.182,316.523,70.355z"/>
			<path fill-rule="evenodd" clip-rule="evenodd" fill="#3C3DF5" d="M144.584,114.612c0,17.098,0,34.198,0,51.297
				c-0.316-0.009-0.631-0.017-0.944-0.025c0-17.097,0-34.191,0-51.288C143.953,114.602,144.268,114.606,144.584,114.612z"/>
			<path fill-rule="evenodd" clip-rule="evenodd" fill="#3C3DF5" d="M297.974,26.49c2.203,10.877,4.407,21.754,6.611,32.633
				c-0.797,0.177-1.597,0.355-2.396,0.532c-2.424-10.864-4.847-21.727-7.271-32.591C295.936,26.873,296.955,26.682,297.974,26.49z"
				/>
			<path fill-rule="evenodd" clip-rule="evenodd" fill="#3C3DF5" d="M332.932,179.147c-1.326-10.526-2.519-19.964-3.711-29.403
				c0.88-0.115,1.759-0.228,2.639-0.344C329.775,159.339,341.094,167.466,332.932,179.147z"/>
			<path fill-rule="evenodd" clip-rule="evenodd" fill="#3C3DF5" d="M167.811,92.247c1.463,19.15,2.929,38.3,4.393,57.45
				c-0.474,0.037-0.945,0.075-1.418,0.112c-1.397-19.155-2.798-38.312-4.195-57.468C166.997,92.31,167.403,92.279,167.811,92.247z"
				/>
			<path fill-rule="evenodd" clip-rule="evenodd" fill="#3C3DF5" d="M260.012,191.74c-0.99-2.676-2.729-5.323-2.828-8.032
				c-0.349-9.579-0.136-19.176-0.136-28.768c0.521-0.024,1.039-0.053,1.559-0.078c0.442,12.314,0.884,24.632,1.323,36.946
				L260.012,191.74z"/>
			<path fill-rule="evenodd" clip-rule="evenodd" fill="#3C3DF5" d="M211.037,94.46c-1.397-15.339-2.798-30.678-4.197-46.018
				c0.711-0.061,1.421-0.121,2.131-0.181c1.147,15.422,2.294,30.842,3.439,46.261C211.955,94.501,211.497,94.481,211.037,94.46z"/>
			<path fill-rule="evenodd" clip-rule="evenodd" fill="#3C3DF5" d="M321.687,140.585c1.28,8.206,2.561,16.41,3.841,24.616
				c-4.291-7.605-8.544-15.205-6.59-24.087C319.854,140.936,320.771,140.76,321.687,140.585z"/>
			<path fill-rule="evenodd" clip-rule="evenodd" fill="#3C3DF5" d="M199.199,85.33c0-13.055,0-26.11,0-39.165
				c0.423-0.03,0.845-0.06,1.267-0.09c0,12.99,0,25.98,0,38.971C200.044,85.141,199.622,85.235,199.199,85.33z"/>
			<path fill-rule="evenodd" clip-rule="evenodd" fill="#3C3DF5" d="M242.64,124.754c0-11.701,0-23.4,0-35.1
				c0.324-0.03,0.647-0.061,0.973-0.089c0.746,11.67,1.489,23.339,2.235,35.01C244.778,124.636,243.709,124.695,242.64,124.754z"/>
			<path fill-rule="evenodd" clip-rule="evenodd" fill="#3C3DF5" d="M262.574,61.377c-1.425-11.282-2.852-22.565-4.28-33.848
				c0.566-0.066,1.136-0.134,1.7-0.202C264.686,38.275,262.699,50.03,262.574,61.377z"/>
			<path fill-rule="evenodd" clip-rule="evenodd" fill="#3C3DF5" d="M208.445,82.203c1.102,11.435,2.202,22.871,3.302,34.306
				c-0.711,0.068-1.421,0.136-2.133,0.202c-1.08-11.437-2.159-22.875-3.239-34.312C207.065,82.334,207.755,82.268,208.445,82.203z"
				/>
			<path fill-rule="evenodd" clip-rule="evenodd" fill="#3C3DF5" d="M155.276,69.572c0-11.288,0-22.576,0-33.862
				c0.379-0.011,0.756-0.02,1.137-0.029c0,11.293,0,22.587,0,33.88C156.032,69.565,155.655,69.568,155.276,69.572z"/>
			<path fill-rule="evenodd" clip-rule="evenodd" fill="#3C3DF5" d="M255.3,67.287c1.389,14.542,2.778,29.082,4.169,43.624
				c-0.533,0.05-1.065,0.099-1.599,0.148c-1.352-14.545-2.703-29.091-4.055-43.636C254.311,67.379,254.805,67.332,255.3,67.287z"/>
			<path fill-rule="evenodd" clip-rule="evenodd" fill="#3C3DF5" d="M108.921,114.142c1.08-13.729,2.16-27.456,3.239-41.185
				c0.579,0.048,1.157,0.095,1.736,0.143c-1.227,13.712-2.453,27.427-3.681,41.141C109.783,114.206,109.354,114.174,108.921,114.142
				z"/>
			<path fill-rule="evenodd" clip-rule="evenodd" fill="#3C3DF5" d="M292.689,141.976c-1.162-9.562-2.321-19.125-3.483-28.688
				c0.542-0.061,1.084-0.123,1.624-0.184c1.408,9.557,2.817,19.118,4.228,28.676C294.27,141.846,293.479,141.91,292.689,141.976z"/>
			<path fill-rule="evenodd" clip-rule="evenodd" fill="#3C3DF5" d="M215.666,57.242c0.527,9.463,1.053,18.926,1.58,28.388
				c-0.674,0.045-1.348,0.088-2.021,0.133c-0.527-9.404-1.057-18.806-1.586-28.208C214.314,57.449,214.99,57.346,215.666,57.242z"/>
			<path fill-rule="evenodd" clip-rule="evenodd" fill="#3C3DF5" d="M205.609,12.317c-1.689-12.083-3.38-24.167-5.069-36.251
				c0.434-0.066,0.866-0.136,1.301-0.202c1.775,12.073,3.549,24.144,5.324,36.215C206.646,12.158,206.128,12.238,205.609,12.317z"/>
			<path fill-rule="evenodd" clip-rule="evenodd" fill="#3C3DF5" d="M334.158,68.913c1.409,9.27,2.818,18.541,4.227,27.811
				c-0.729,0.091-1.459,0.184-2.188,0.277c-1.103-9.306-2.206-18.609-3.307-27.915C333.312,69.029,333.734,68.97,334.158,68.913z"/>
			<path fill-rule="evenodd" clip-rule="evenodd" fill="#3C3DF5" d="M309.24,5.21c-1.984-8.129-3.971-16.256-5.957-24.384
				c0.483-0.118,0.966-0.234,1.448-0.352c2.257,8.043,4.513,16.084,6.771,24.128C310.747,4.805,309.995,5.006,309.24,5.21z"/>
			<path fill-rule="evenodd" clip-rule="evenodd" fill="#3C3DF5" d="M129.454,19.638c0.827-7.321,1.653-14.642,2.481-21.965
				c0.53,0.047,1.062,0.09,1.593,0.134c-0.558,7.337-1.117,14.674-1.676,22.011C131.054,19.759,130.255,19.699,129.454,19.638z"/>
			<path fill-rule="evenodd" clip-rule="evenodd" fill="#3C3DF5" d="M189.164,103.049c1.153,11.738,2.306,23.477,3.461,35.216
				c-0.575,0.05-1.153,0.1-1.727,0.15c-0.977-11.757-1.953-23.514-2.927-35.27C188.368,103.113,188.766,103.081,189.164,103.049z"/>
			<path fill-rule="evenodd" clip-rule="evenodd" fill="#3C3DF5" d="M182.547,109.336c0.778,11.329,1.556,22.657,2.334,33.984
				c-0.481,0.034-0.964,0.064-1.445,0.097c-0.767-11.32-1.532-22.639-2.295-33.959C181.608,109.417,182.077,109.377,182.547,109.336
				z"/>
			<path fill-rule="evenodd" clip-rule="evenodd" fill="#3C3DF5" d="M253.335,130.539c-0.848-12.768-1.695-25.536-2.544-38.305
				c0.418-0.027,0.833-0.056,1.251-0.082c0.81,12.799,1.623,25.599,2.435,38.397C254.097,130.547,253.716,130.541,253.335,130.539z"
				/>
			<path fill-rule="evenodd" clip-rule="evenodd" fill="#3C3DF5" d="M199.807,139.727c0,7.543,0,15.084,0,22.628
				c-0.413,0-0.826,0-1.241,0.002c0-7.543,0-15.083,0-22.628C198.98,139.729,199.394,139.727,199.807,139.727z"/>
			<path fill-rule="evenodd" clip-rule="evenodd" fill="#3C3DF5" d="M198.648,93.005c0.455,8.701,0.911,17.404,1.365,26.105
				c-0.407,0.043-0.814,0.086-1.223,0.129c-0.799-8.714-1.6-17.428-2.399-26.144C197.143,93.067,197.896,93.035,198.648,93.005z"/>
			<path fill-rule="evenodd" clip-rule="evenodd" fill="#3C3DF5" d="M205.912,189.248c-0.609-8.872-1.22-17.743-1.831-26.616
				c0.312-0.016,0.62-0.03,0.93-0.047c1.085,8.877,2.171,17.753,3.258,26.628C207.481,189.226,206.696,189.237,205.912,189.248z"/>
			<path fill-rule="evenodd" clip-rule="evenodd" fill="#3C3DF5" d="M177.59,180.889c0-7.36,0-14.721,0-22.083
				c0.609,0.019,1.219,0.04,1.829,0.058c-0.383,7.356-0.764,14.714-1.145,22.068C178.046,180.917,177.818,180.903,177.59,180.889z"
				/>
			<path fill-rule="evenodd" clip-rule="evenodd" fill="#3C3DF5" d="M326.057,141.82c-1.5-6.788-3-13.574-4.502-20.363
				c0.417-0.095,0.833-0.189,1.248-0.282c1.793,6.715,3.586,13.43,5.377,20.145C327.473,141.486,326.765,141.654,326.057,141.82z"/>
			<path fill-rule="evenodd" clip-rule="evenodd" fill="#3C3DF5" d="M297.761,14.436c-1.896-7.55-3.795-15.102-5.693-22.651
				c0.579-0.141,1.158-0.279,1.735-0.418c1.707,7.663,3.417,15.327,5.126,22.989C298.539,14.382,298.149,14.409,297.761,14.436z"/>
			<path fill-rule="evenodd" clip-rule="evenodd" fill="#3C3DF5" d="M203.842,44.788c0-5.95,0-11.899,0-17.847
				c0.311-0.018,0.62-0.036,0.932-0.052c0.33,5.993,0.659,11.985,0.988,17.978C205.122,44.84,204.481,44.815,203.842,44.788z"/>
			<path fill-rule="evenodd" clip-rule="evenodd" fill="#3C3DF5" d="M120.486,4.916c-0.49,9.575-0.979,19.15-1.47,28.728
				c-0.42-0.023-0.842-0.044-1.264-0.066c0.568-9.57,1.135-19.136,1.702-28.707C119.798,4.887,120.142,4.901,120.486,4.916z"/>
			<path fill-rule="evenodd" clip-rule="evenodd" fill="#3C3DF5" d="M155.336,107.693c0-6.717,0-13.432,0-20.146
				c0.123-0.023,0.248-0.047,0.373-0.07c0,6.613,0,13.229,0,19.842C155.584,107.443,155.459,107.566,155.336,107.693z"/>
			<path fill-rule="evenodd" clip-rule="evenodd" fill="#3C3DF5" d="M153.496,13.102c0.788,4.852,1.575,9.702,2.363,14.554
				c-0.685,0.106-1.369,0.209-2.053,0.315c-0.729-4.92-1.46-9.84-2.189-14.76C152.242,13.177,152.868,13.137,153.496,13.102z"/>
			<path fill-rule="evenodd" clip-rule="evenodd" fill="#3C3DF5" d="M141.812,117.529c-0.396,4.702-0.795,9.404-1.192,14.106
				c-0.377-0.036-0.754-0.072-1.132-0.107c0-4.724,0-9.447,0-14.169C140.263,117.415,141.038,117.473,141.812,117.529z"/>
			<path fill-rule="evenodd" clip-rule="evenodd" fill="#3C3DF5" d="M312.759,86.576c1.378,5.973,2.757,11.944,4.137,17.917
				c-0.517,0.111-1.035,0.222-1.552,0.331c-1.251-5.995-2.503-11.987-3.754-17.98C311.979,86.753,312.369,86.664,312.759,86.576z"/>
			<path fill-rule="evenodd" clip-rule="evenodd" fill="#3C3DF5" d="M150.553,108.068c0-8.332,0-16.165,0-23.997
				c0.308-0.004,0.613-0.005,0.921-0.007c0,7.739,0.002,15.477-0.021,23.216C151.452,107.416,151.157,107.552,150.553,108.068z"/>
			<path fill-rule="evenodd" clip-rule="evenodd" fill="#3C3DF5" d="M171.036,164.96c-0.481,5.138-0.96,10.275-1.439,15.416
				c-0.138,0-0.275,0.001-0.413,0.001c0-5.168,0-10.337,0-15.505C169.801,164.9,170.417,164.931,171.036,164.96z"/>
			<path fill-rule="evenodd" clip-rule="evenodd" fill="#3C3DF5" d="M195.528,15.824c-1.033-4.212-2.066-8.422-3.1-12.632
				c1.006-0.124,2.011-0.247,3.02-0.368c0,4.353,0,8.707-0.002,13.062L195.528,15.824z"/>
			<path fill-rule="evenodd" clip-rule="evenodd" fill="#3C3DF5" d="M235.231,163.312c0-6.452,0-12.902,0-19.353
				c0.269,0.012,0.536,0.024,0.807,0.037c0,6.448,0,12.897,0,19.346C235.768,163.333,235.5,163.322,235.231,163.312z"/>
			<path fill-rule="evenodd" clip-rule="evenodd" fill="#3C3DF5" d="M315.353,115.799c0.85,4.908,1.698,9.817,2.548,14.727
				c-0.575,0.095-1.151,0.189-1.729,0.284c-0.768-4.922-1.534-9.846-2.301-14.766C314.364,115.962,314.857,115.88,315.353,115.799z"
				/>
			<path fill-rule="evenodd" clip-rule="evenodd" fill="#3C3DF5" d="M171.693,97.828c0-7.36,0-14.721,0-22.081
				c0.17-0.003,0.344-0.007,0.514-0.012c0,7.356,0,14.711,0,22.068C172.037,97.811,171.863,97.819,171.693,97.828z"/>
			<path fill-rule="evenodd" clip-rule="evenodd" fill="#3C3DF5" d="M192.532,102.117c0-3.456,0-6.911,0-10.367
				c0.293-0.013,0.586-0.025,0.881-0.036c0,3.512,0,7.021,0,10.53C193.118,102.203,192.825,102.16,192.532,102.117z"/>
			<path fill-rule="evenodd" clip-rule="evenodd" fill="#3C3DF5" d="M207.761,146.979c0.827,4.396,1.653,8.793,2.481,13.188
				c-0.236,0.038-0.473,0.073-0.708,0.109c-1.321-4.292-2.643-8.587-3.964-12.877C206.302,147.261,207.031,147.121,207.761,146.979z
				"/>
		</g>
	</g>
	<use xlink:href="#XMLID_2_"  overflow="visible" fill="none" stroke="#000000" stroke-width="2" stroke-miterlimit="10"/>
</g>
<circle cx="222.833" cy="80.445" r="7.602"/>
<g>
	<defs>
		<polygon id="XMLID_1_" points="95.124,4.642 119.724,54.488 174.733,62.482 134.929,101.283 144.325,156.068 95.124,130.203 
			45.922,156.068 55.319,101.283 15.514,62.482 70.523,54.488 		"/>
	</defs>
	<use xlink:href="#XMLID_1_"  overflow="visible" fill="#FF8264"/>
	<clipPath id="XMLID_6_">
		<use xlink:href="#XMLID_1_"  overflow="visible"/>
	</clipPath>
	<g id="_x31_zuS9d_3_" clip-path="url(#XMLID_6_)">
		<g>
			<path fill-rule="evenodd" clip-rule="evenodd" fill="#E47344" d="M17.393,1.929c1.114,20.887,2.256,41.771,3.318,62.662
				c0.184,3.619,0.027,7.257,0.027,10.382c-3.683-23.917-10.639-47.964-8.205-73.043C14.153,1.929,15.773,1.929,17.393,1.929z"/>
			<path fill-rule="evenodd" clip-rule="evenodd" fill="#E47344" d="M-22.688,77.23c0.506-2.946,1.403-5.889,1.45-8.842
				c0.175-10.864,0.07-21.732,1.382-32.575c1.775,21.203,3.224,42.431-2.832,63.281C-22.688,91.807-22.688,84.52-22.688,77.23z"/>
			<path fill-rule="evenodd" clip-rule="evenodd" fill="#E47344" d="M38.04,1.929c1.396,13.598,4.799,27.096,2.027,40.908
				c-4.75-13.353-2.302-27.264-3.241-40.908C37.23,1.929,37.636,1.929,38.04,1.929z"/>
			<path fill-rule="evenodd" clip-rule="evenodd" fill="#E47344" d="M212.936,40.795c-1.026-1.505-2.789-2.932-2.961-4.526
				c-1.22-11.428-2.113-22.889-3.112-34.34c0.405,0,0.81,0,1.214,0c1.619,4.453,3.239,8.907,4.859,13.36
				C212.936,23.79,212.936,32.293,212.936,40.795z"/>
			<path fill-rule="evenodd" clip-rule="evenodd" fill="#E47344" d="M84.193,1.929c1.087,13.17,2.176,26.341,3.264,39.51
				c-0.613,0.056-1.228,0.113-1.841,0.17c-1.285-13.228-2.569-26.454-3.853-39.68C82.573,1.929,83.383,1.929,84.193,1.929z"/>
			<path fill-rule="evenodd" clip-rule="evenodd" fill="#E47344" d="M115.771,1.929c0.958,6.143,2.099,12.264,2.825,18.434
				c1.046,8.882,1.786,17.799,1.786,26.804c-2.345-15.08-4.693-30.158-7.04-45.238C114.153,1.929,114.961,1.929,115.771,1.929z"/>
			<path fill-rule="evenodd" clip-rule="evenodd" fill="#E47344" d="M-12.971,1.929c0,15.673,0,31.345,0,47.017
				c-0.404-0.004-0.81-0.007-1.216-0.013c0-15.668,0-31.336,0-47.004C-13.781,1.929-13.375,1.929-12.971,1.929z"/>
			<path fill-rule="evenodd" clip-rule="evenodd" fill="#E47344" d="M62.331,1.929c1.015,7.491,2.031,14.98,3.046,22.469
				c-0.67,0.107-1.339,0.214-2.011,0.32c-1.155-7.594-2.308-15.192-3.465-22.789C60.712,1.929,61.521,1.929,62.331,1.929z"/>
			<path fill-rule="evenodd" clip-rule="evenodd" fill="#E47344" d="M154.636,1.929c0.767,7.098,1.532,14.197,2.299,21.294
				c-0.28,0.025-0.562,0.052-0.844,0.077c-1.698-7.125-3.397-14.247-5.099-21.371C152.207,1.929,153.424,1.929,154.636,1.929z"/>
			<path fill-rule="evenodd" clip-rule="evenodd" fill="#E47344" d="M95.124,1.929c0,6.744,0,13.489,0,20.234
				c-0.81,0.013-1.62,0.025-2.429,0.036c0-6.756,0-13.512,0-20.27C93.504,1.929,94.314,1.929,95.124,1.929z"/>
			<path fill-rule="evenodd" clip-rule="evenodd" fill="#E47344" d="M107.27,1.929c0,5.181,0,10.36,0,15.54
				c-0.181,0.075-0.358,0.148-0.537,0.22c-1.441-5.252-2.882-10.507-4.323-15.759C104.03,1.929,105.65,1.929,107.27,1.929z"/>
			<path fill-rule="evenodd" clip-rule="evenodd" fill="#E47344" d="M212.936,186.541c-1.71-7.688-3.422-15.375-5.132-23.062
				c0.254-0.034,0.508-0.067,0.762-0.104c1.456,3.674,2.914,7.346,4.37,11.02C212.936,178.444,212.936,182.492,212.936,186.541z"/>
			<path fill-rule="evenodd" clip-rule="evenodd" fill="#E47344" d="M2.819,1.929c-0.351,4.46-0.701,8.919-1.051,13.38
				c-0.697-0.021-1.395-0.045-2.094-0.068c0.238-4.438,0.476-8.873,0.715-13.312C1.199,1.929,2.007,1.929,2.819,1.929z"/>
			<path fill-rule="evenodd" clip-rule="evenodd" fill="#E47344" d="M212.936,15.289c-1.62-4.453-3.24-8.907-4.859-13.36
				c1.619,0,3.239,0,4.859,0C212.936,6.382,212.936,10.836,212.936,15.289z"/>
			<path fill-rule="evenodd" clip-rule="evenodd" fill="#E47344" d="M13.552,137.854c-1.342-34.09-2.683-68.181-4.026-102.272
				c0.681-0.04,1.362-0.083,2.043-0.124c0.729,10.52,1.239,21.062,2.278,31.553c0.543,5.476,2.07,10.85,3.046,16.29
				c0.28,1.566,0.439,3.236,0.193,4.784c-0.173,1.102-1.639,2.076-1.646,3.113c-0.113,15.499-0.079,30.999-0.079,46.497
				C14.759,137.749,14.155,137.803,13.552,137.854z"/>
			<path fill-rule="evenodd" clip-rule="evenodd" fill="#E47344" d="M187.377,30.793c3.926,19.59,7.875,39.179,11.728,58.786
				c0.249,1.268-0.25,2.684-0.4,4.028c-0.5,0.059-1.003,0.116-1.505,0.173c-4.304-20.806-8.608-41.616-12.911-62.422
				C185.317,31.168,186.348,30.98,187.377,30.793z"/>
			<path fill-rule="evenodd" clip-rule="evenodd" fill="#E47344" d="M103.721,21.482c6.087,22.185,5.204,44.718,4.423,67.244
				c-0.636,0.029-1.273,0.057-1.908,0.086C105.398,66.37,104.56,43.926,103.721,21.482z"/>
			<path fill-rule="evenodd" clip-rule="evenodd" fill="#E47344" d="M147.416,29.876c3.923,26.262,7.842,52.527,11.761,78.791
				c-0.809,0.118-1.616,0.239-2.425,0.359c-3.9-26.266-7.8-52.532-11.701-78.798C145.84,30.11,146.63,29.994,147.416,29.876z"/>
			<path fill-rule="evenodd" clip-rule="evenodd" fill="#E47344" d="M153.352,110.869c2.696,21.94,5.389,43.88,8.083,65.819
				c-0.91,0.109-1.822,0.218-2.733,0.329c-2.6-21.97-5.195-43.94-7.791-65.908C151.721,111.028,152.539,110.95,153.352,110.869z"/>
			<path fill-rule="evenodd" clip-rule="evenodd" fill="#E47344" d="M67.1,48.185c1.143,3.642,2.287,7.282,3.584,11.411
				c-1.712-0.504-2.85-0.838-3.985-1.174c-0.224,1.083-0.708,2.185-0.624,3.243c0.635,8.089,1.382,16.172,0.653,24.348
				c-2.741-15.23-5.483-30.46-8.226-45.688c0.418-0.122,0.836-0.243,1.255-0.365c1.85,4.503,3.701,9.007,5.551,13.51
				c0.401-0.083,0.799-0.167,1.2-0.25c0.224-1.698,0.449-3.396,0.674-5.095L67.1,48.185z"/>
			<path fill-rule="evenodd" clip-rule="evenodd" fill="#E47344" d="M169.821,6.13c1.638,20.808,14.311,39.187,11.454,60.983
				c-4.423-20.193-8.845-40.388-13.268-60.583C168.612,6.398,169.217,6.265,169.821,6.13z"/>
			<path fill-rule="evenodd" clip-rule="evenodd" fill="#E47344" d="M140.655,124.521c0.998,9.13,2.024,18.257,2.982,27.391
				c1.087,10.37,2.115,20.747,2.599,31.241c-4.022-9.059-2.896-19.131-4.509-28.646c-1.659-9.801-1.874-19.845-2.723-29.783
				C139.556,124.657,140.106,124.589,140.655,124.521z"/>
			<path fill-rule="evenodd" clip-rule="evenodd" fill="#E47344" d="M88.319,212.092c-1.814-15.724-4.638-31.42-0.295-47.313
				c0.635,15.818,1.27,31.639,1.904,47.459C89.392,212.188,88.856,212.141,88.319,212.092z"/>
			<path fill-rule="evenodd" clip-rule="evenodd" fill="#E47344" d="M180.346,141.122c-3.27-16.124-6.542-32.248-9.813-48.372
				C177.848,108.015,180.187,124.341,180.346,141.122z"/>
			<path fill-rule="evenodd" clip-rule="evenodd" fill="#E47344" d="M64.193,114.765c-2.338-14.835-4.677-29.668-7.016-44.501
				c0.177-0.023,0.354-0.046,0.531-0.07c1.657,4.727,3.67,9.364,4.872,14.206c1.21,4.868,1.799,9.919,2.315,14.925
				c0.527,5.082,0.631,10.208,0.92,15.315C65.277,114.681,64.735,114.724,64.193,114.765z"/>
			<path fill-rule="evenodd" clip-rule="evenodd" fill="#E47344" d="M45.491,137.586c1.026,16.711,2.049,33.418,3.073,50.126
				c-0.613,0.045-1.225,0.09-1.838,0.134c-1.344-16.654-2.69-33.308-4.037-49.963C43.623,137.784,44.558,137.687,45.491,137.586z"/>
			<path fill-rule="evenodd" clip-rule="evenodd" fill="#E47344" d="M197.066,62.979c-2.981-17.429-5.962-34.86-8.944-52.291
				c0.254-0.087,0.506-0.175,0.76-0.261c1.402,5.544,2.894,11.068,4.186,16.639c1.364,5.882,2.869,11.764,3.706,17.731
				c0.835,5.95,0.919,12.003,1.334,18.01C197.761,62.864,197.414,62.921,197.066,62.979z"/>
			<path fill-rule="evenodd" clip-rule="evenodd" fill="#E47344" d="M113.402,156.236c1.902,16.776,3.803,33.552,5.705,50.326
				c-0.713,0.077-1.425,0.153-2.138,0.23c-1.868-16.778-3.735-33.559-5.601-50.335C112.045,156.383,112.725,156.31,113.402,156.236z
				"/>
			<path fill-rule="evenodd" clip-rule="evenodd" fill="#E47344" d="M188.178,102.654c-1.373-11.384-2.749-22.769-4.122-34.152
				c0.736-0.104,1.473-0.206,2.209-0.307c1.81,11.313,3.619,22.624,5.426,33.934C190.52,102.305,189.349,102.481,188.178,102.654z"
				/>
			<path fill-rule="evenodd" clip-rule="evenodd" fill="#E47344" d="M16.238,146.911c0,17.099,0,34.198,0,51.297
				c-0.316-0.009-0.631-0.016-0.944-0.024c0-17.097,0-34.191,0-51.288C15.606,146.9,15.921,146.906,16.238,146.911z"/>
			<path fill-rule="evenodd" clip-rule="evenodd" fill="#E47344" d="M169.628,58.79c2.202,10.877,4.407,21.754,6.611,32.632
				c-0.798,0.177-1.597,0.356-2.396,0.533c-2.425-10.864-4.847-21.727-7.271-32.591C167.59,59.172,168.608,58.981,169.628,58.79z"/>
			<path fill-rule="evenodd" clip-rule="evenodd" fill="#E47344" d="M204.586,211.446c-1.326-10.526-2.519-19.964-3.711-29.403
				c0.879-0.114,1.759-0.227,2.639-0.343C201.429,191.638,212.747,199.766,204.586,211.446z"/>
			<path fill-rule="evenodd" clip-rule="evenodd" fill="#E47344" d="M39.465,124.546c1.462,19.151,2.928,38.3,4.393,57.45
				c-0.474,0.038-0.946,0.075-1.418,0.113c-1.398-19.156-2.798-38.312-4.196-57.469C38.651,124.608,39.057,124.578,39.465,124.546z"
				/>
			<path fill-rule="evenodd" clip-rule="evenodd" fill="#E47344" d="M131.666,224.04c-0.99-2.677-2.73-5.324-2.828-8.032
				c-0.349-9.579-0.136-19.176-0.136-28.768c0.521-0.025,1.039-0.054,1.559-0.079c0.441,12.314,0.883,24.633,1.323,36.946
				L131.666,224.04z"/>
			<path fill-rule="evenodd" clip-rule="evenodd" fill="#E47344" d="M82.691,126.76c-1.398-15.34-2.798-30.679-4.198-46.018
				c0.711-0.061,1.421-0.122,2.131-0.181c1.147,15.421,2.293,30.841,3.439,46.261C83.608,126.801,83.151,126.781,82.691,126.76z"/>
			<path fill-rule="evenodd" clip-rule="evenodd" fill="#E47344" d="M193.341,172.884c1.28,8.206,2.561,16.41,3.841,24.616
				c-4.291-7.605-8.544-15.205-6.59-24.087C191.509,173.234,192.426,173.06,193.341,172.884z"/>
			<path fill-rule="evenodd" clip-rule="evenodd" fill="#E47344" d="M70.853,117.629c0-13.054,0-26.11,0-39.165
				c0.424-0.031,0.846-0.059,1.268-0.089c0,12.99,0,25.979,0,38.97C71.698,117.439,71.276,117.534,70.853,117.629z"/>
			<path fill-rule="evenodd" clip-rule="evenodd" fill="#E47344" d="M114.294,157.054c0-11.701,0-23.4,0-35.1
				c0.324-0.03,0.647-0.062,0.973-0.09c0.746,11.671,1.489,23.34,2.235,35.011C116.432,156.936,115.363,156.994,114.294,157.054z"/>
			<path fill-rule="evenodd" clip-rule="evenodd" fill="#E47344" d="M134.228,93.676c-1.425-11.283-2.852-22.565-4.28-33.848
				c0.567-0.066,1.135-0.134,1.7-0.202C136.339,70.575,134.353,82.33,134.228,93.676z"/>
			<path fill-rule="evenodd" clip-rule="evenodd" fill="#E47344" d="M80.099,114.502c1.101,11.435,2.203,22.871,3.302,34.307
				c-0.712,0.067-1.421,0.136-2.133,0.201c-1.08-11.437-2.16-22.874-3.24-34.311C78.719,114.633,79.409,114.566,80.099,114.502z"/>
			<path fill-rule="evenodd" clip-rule="evenodd" fill="#E47344" d="M26.931,101.872c0-11.289,0-22.577,0-33.863
				c0.379-0.011,0.756-0.02,1.137-0.029c0,11.293,0,22.587,0,33.881C27.687,101.864,27.31,101.868,26.931,101.872z"/>
			<path fill-rule="evenodd" clip-rule="evenodd" fill="#E47344" d="M126.954,99.587c1.389,14.542,2.778,29.082,4.169,43.624
				c-0.533,0.05-1.065,0.098-1.598,0.148c-1.352-14.546-2.703-29.091-4.055-43.637C125.965,99.678,126.458,99.632,126.954,99.587z"
				/>
			<path fill-rule="evenodd" clip-rule="evenodd" fill="#E47344" d="M-19.425,146.441c1.08-13.729,2.16-27.457,3.239-41.186
				c0.579,0.048,1.157,0.095,1.736,0.143c-1.226,13.713-2.453,27.427-3.681,41.141C-18.563,146.506-18.992,146.474-19.425,146.441z"
				/>
			<path fill-rule="evenodd" clip-rule="evenodd" fill="#E47344" d="M164.343,174.275c-1.162-9.563-2.32-19.126-3.482-28.688
				c0.542-0.062,1.084-0.124,1.623-0.185c1.409,9.558,2.818,19.118,4.229,28.676C165.924,174.145,165.134,174.209,164.343,174.275z"
				/>
			<path fill-rule="evenodd" clip-rule="evenodd" fill="#E47344" d="M87.32,89.542c0.528,9.462,1.053,18.925,1.581,28.388
				c-0.674,0.045-1.348,0.088-2.022,0.132c-0.527-9.403-1.057-18.806-1.586-28.208C85.968,89.749,86.644,89.645,87.32,89.542z"/>
			<path fill-rule="evenodd" clip-rule="evenodd" fill="#E47344" d="M77.264,44.616c-1.689-12.084-3.381-24.167-5.07-36.251
				c0.435-0.066,0.867-0.136,1.302-0.202c1.775,12.073,3.549,24.144,5.324,36.215C78.301,44.457,77.782,44.538,77.264,44.616z"/>
			<path fill-rule="evenodd" clip-rule="evenodd" fill="#E47344" d="M205.812,101.212c1.409,9.27,2.817,18.541,4.227,27.811
				c-0.729,0.092-1.459,0.185-2.188,0.277c-1.103-9.306-2.206-18.609-3.308-27.914C204.965,101.328,205.389,101.27,205.812,101.212z
				"/>
			<path fill-rule="evenodd" clip-rule="evenodd" fill="#E47344" d="M180.895,37.51c-1.984-8.129-3.971-16.256-5.957-24.384
				c0.482-0.118,0.966-0.234,1.448-0.352c2.256,8.043,4.513,16.084,6.771,24.128C182.401,37.104,181.648,37.306,180.895,37.51z"/>
			<path fill-rule="evenodd" clip-rule="evenodd" fill="#E47344" d="M1.108,51.937c0.828-7.321,1.653-14.642,2.481-21.965
				c0.531,0.046,1.062,0.089,1.593,0.134c-0.558,7.337-1.117,14.674-1.675,22.011C2.708,52.059,1.909,51.998,1.108,51.937z"/>
			<path fill-rule="evenodd" clip-rule="evenodd" fill="#E47344" d="M60.818,135.348c1.153,11.739,2.306,23.478,3.461,35.216
				c-0.576,0.05-1.153,0.101-1.727,0.15c-0.976-11.757-1.953-23.513-2.927-35.27C60.022,135.412,60.419,135.38,60.818,135.348z"/>
			<path fill-rule="evenodd" clip-rule="evenodd" fill="#E47344" d="M54.201,141.636c0.778,11.329,1.556,22.656,2.333,33.983
				c-0.48,0.034-0.963,0.064-1.444,0.097c-0.767-11.32-1.532-22.639-2.295-33.959C53.263,141.716,53.731,141.677,54.201,141.636z"/>
			<path fill-rule="evenodd" clip-rule="evenodd" fill="#E47344" d="M124.989,162.839c-0.848-12.769-1.695-25.537-2.544-38.306
				c0.418-0.026,0.833-0.055,1.251-0.082c0.81,12.799,1.623,25.6,2.435,38.398C125.75,162.846,125.37,162.841,124.989,162.839z"/>
			<path fill-rule="evenodd" clip-rule="evenodd" fill="#E47344" d="M71.46,172.026c0,7.542,0,15.083,0,22.628
				c-0.413,0-0.826,0-1.241,0.002c0-7.543,0-15.084,0-22.628C70.635,172.028,71.048,172.026,71.46,172.026z"/>
			<path fill-rule="evenodd" clip-rule="evenodd" fill="#E47344" d="M70.302,125.304c0.456,8.701,0.912,17.404,1.366,26.105
				c-0.408,0.043-0.815,0.086-1.223,0.129c-0.799-8.714-1.6-17.428-2.399-26.143C68.797,125.366,69.549,125.335,70.302,125.304z"/>
			<path fill-rule="evenodd" clip-rule="evenodd" fill="#E47344" d="M77.566,221.548c-0.61-8.873-1.219-17.744-1.831-26.616
				c0.311-0.017,0.62-0.031,0.93-0.047c1.085,8.876,2.17,17.753,3.257,26.627C79.136,221.524,78.351,221.537,77.566,221.548z"/>
			<path fill-rule="evenodd" clip-rule="evenodd" fill="#E47344" d="M49.244,213.188c0-7.36,0-14.721,0-22.083
				c0.61,0.018,1.219,0.039,1.829,0.057c-0.383,7.357-0.764,14.714-1.144,22.068C49.7,213.217,49.473,213.202,49.244,213.188z"/>
			<path fill-rule="evenodd" clip-rule="evenodd" fill="#E47344" d="M197.71,174.119c-1.5-6.788-3-13.574-4.501-20.362
				c0.416-0.095,0.833-0.189,1.248-0.282c1.793,6.715,3.586,13.43,5.377,20.145C199.126,173.785,198.418,173.953,197.71,174.119z"/>
			<path fill-rule="evenodd" clip-rule="evenodd" fill="#E47344" d="M169.415,46.734c-1.896-7.55-3.796-15.101-5.694-22.651
				c0.579-0.142,1.159-0.279,1.736-0.418c1.707,7.663,3.416,15.327,5.125,22.989C170.192,46.681,169.803,46.708,169.415,46.734z"/>
			<path fill-rule="evenodd" clip-rule="evenodd" fill="#E47344" d="M75.496,77.087c0-5.95,0-11.899,0-17.847
				c0.311-0.018,0.621-0.036,0.932-0.052c0.331,5.993,0.66,11.985,0.988,17.978C76.776,77.14,76.136,77.114,75.496,77.087z"/>
			<path fill-rule="evenodd" clip-rule="evenodd" fill="#E47344" d="M-7.86,37.215c-0.49,9.575-0.979,19.15-1.47,28.728
				c-0.42-0.023-0.842-0.044-1.264-0.066c0.568-9.57,1.135-19.137,1.702-28.707C-8.548,37.186-8.205,37.2-7.86,37.215z"/>
			<path fill-rule="evenodd" clip-rule="evenodd" fill="#E47344" d="M26.989,139.992c0-6.717,0-13.432,0-20.146
				c0.124-0.022,0.249-0.046,0.374-0.069c0,6.613,0,13.228,0,19.841C27.238,139.742,27.113,139.865,26.989,139.992z"/>
			<path fill-rule="evenodd" clip-rule="evenodd" fill="#E47344" d="M25.15,45.401c0.789,4.852,1.575,9.702,2.363,14.554
				c-0.685,0.105-1.369,0.209-2.052,0.315c-0.729-4.92-1.46-9.84-2.19-14.76C23.896,45.476,24.522,45.437,25.15,45.401z"/>
			<path fill-rule="evenodd" clip-rule="evenodd" fill="#E47344" d="M13.467,149.829c-0.397,4.702-0.796,9.403-1.192,14.105
				c-0.377-0.036-0.755-0.071-1.132-0.107c0-4.724,0-9.446,0-14.168C11.917,149.715,12.692,149.771,13.467,149.829z"/>
			<path fill-rule="evenodd" clip-rule="evenodd" fill="#E47344" d="M184.413,118.875c1.378,5.974,2.757,11.944,4.137,17.917
				c-0.517,0.111-1.035,0.222-1.552,0.331c-1.252-5.994-2.503-11.987-3.755-17.979C183.634,119.052,184.023,118.963,184.413,118.875
				z"/>
			<path fill-rule="evenodd" clip-rule="evenodd" fill="#E47344" d="M22.207,140.368c0-8.333,0-16.165,0-23.998
				c0.308-0.003,0.613-0.005,0.921-0.007c0,7.739,0.001,15.477-0.021,23.216C23.106,139.716,22.812,139.852,22.207,140.368z"/>
			<path fill-rule="evenodd" clip-rule="evenodd" fill="#E47344" d="M42.69,197.259c-0.481,5.138-0.96,10.276-1.439,15.416
				c-0.138,0-0.275,0.002-0.413,0.002c0-5.169,0-10.337,0-15.506C41.455,197.2,42.071,197.23,42.69,197.259z"/>
			<path fill-rule="evenodd" clip-rule="evenodd" fill="#E47344" d="M67.183,48.124c-1.034-4.212-2.067-8.422-3.1-12.632
				c1.006-0.124,2.011-0.247,3.02-0.368c0,4.353,0,8.707-0.002,13.062L67.183,48.124z"/>
			<path fill-rule="evenodd" clip-rule="evenodd" fill="#E47344" d="M106.886,195.61c0-6.452,0-12.902,0-19.353
				c0.268,0.013,0.536,0.025,0.806,0.037c0,6.449,0,12.897,0,19.346C107.422,195.632,107.154,195.621,106.886,195.61z"/>
			<path fill-rule="evenodd" clip-rule="evenodd" fill="#E47344" d="M187.007,148.099c0.85,4.907,1.698,9.816,2.548,14.726
				c-0.576,0.095-1.151,0.189-1.729,0.284c-0.768-4.922-1.534-9.845-2.302-14.765C186.019,148.261,186.512,148.179,187.007,148.099z
				"/>
			<path fill-rule="evenodd" clip-rule="evenodd" fill="#E47344" d="M43.348,130.128c0-7.36,0-14.721,0-22.081
				c0.17-0.004,0.343-0.008,0.513-0.013c0,7.356,0,14.712,0,22.068C43.691,130.109,43.518,130.118,43.348,130.128z"/>
			<path fill-rule="evenodd" clip-rule="evenodd" fill="#E47344" d="M64.186,134.416c0-3.455,0-6.911,0-10.367
				c0.293-0.013,0.586-0.024,0.881-0.035c0,3.511,0,7.021,0,10.529C64.772,134.502,64.479,134.459,64.186,134.416z"/>
			<path fill-rule="evenodd" clip-rule="evenodd" fill="#E47344" d="M79.415,179.279c0.828,4.396,1.654,8.792,2.481,13.188
				c-0.236,0.037-0.472,0.073-0.708,0.108c-1.321-4.292-2.643-8.586-3.963-12.877C77.956,179.56,78.685,179.42,79.415,179.279z"/>
		</g>
	</g>
	<use xlink:href="#XMLID_1_"  overflow="visible" fill="none" stroke="#000000" stroke-width="1.8307" stroke-miterlimit="10"/>
</g>
<g>
	<defs>
		<circle id="XMLID_3_" cx="151.934" cy="187.673" r="56.378"/>
	</defs>
	<use xlink:href="#XMLID_3_"  overflow="visible" fill="#007E63"/>
	<clipPath id="XMLID_7_">
		<use xlink:href="#XMLID_3_"  overflow="visible"/>
	</clipPath>
	<g id="_x31_zuS9d_2_" clip-path="url(#XMLID_7_)">
		<g>
			<path fill-rule="evenodd" clip-rule="evenodd" fill="#005C63" d="M74.191,77.365c1.114,20.887,2.256,41.771,3.318,62.662
				c0.184,3.618,0.027,7.257,0.027,10.382c-3.683-23.917-10.639-47.965-8.204-73.044C70.952,77.365,72.572,77.365,74.191,77.365z"/>
			<path fill-rule="evenodd" clip-rule="evenodd" fill="#005C63" d="M34.111,152.667c0.506-2.946,1.403-5.89,1.45-8.843
				c0.175-10.864,0.07-21.732,1.382-32.575c1.775,21.203,3.223,42.432-2.832,63.28C34.111,167.242,34.111,159.955,34.111,152.667z"
				/>
			<path fill-rule="evenodd" clip-rule="evenodd" fill="#005C63" d="M94.839,77.365c1.396,13.598,4.798,27.096,2.027,40.908
				c-4.75-13.354-2.303-27.264-3.241-40.908C94.029,77.365,94.435,77.365,94.839,77.365z"/>
			<path fill-rule="evenodd" clip-rule="evenodd" fill="#005C63" d="M269.734,116.231c-1.026-1.505-2.789-2.932-2.961-4.526
				c-1.219-11.428-2.113-22.889-3.112-34.34c0.405,0,0.81,0,1.214,0c1.62,4.453,3.239,8.907,4.859,13.36
				C269.734,99.227,269.734,107.729,269.734,116.231z"/>
			<path fill-rule="evenodd" clip-rule="evenodd" fill="#005C63" d="M140.992,77.365c1.087,13.171,2.176,26.341,3.265,39.51
				c-0.613,0.056-1.229,0.113-1.842,0.17c-1.285-13.228-2.568-26.454-3.853-39.68C139.372,77.365,140.183,77.365,140.992,77.365z"/>
			<path fill-rule="evenodd" clip-rule="evenodd" fill="#005C63" d="M172.57,77.365c0.958,6.143,2.099,12.265,2.824,18.434
				c1.046,8.882,1.786,17.8,1.786,26.805c-2.346-15.08-4.693-30.158-7.04-45.238C170.952,77.365,171.76,77.365,172.57,77.365z"/>
			<path fill-rule="evenodd" clip-rule="evenodd" fill="#005C63" d="M43.828,77.365c0,15.674,0,31.346,0,47.017
				c-0.404-0.003-0.81-0.007-1.216-0.012c0-15.669,0-31.337,0-47.005C43.018,77.365,43.424,77.365,43.828,77.365z"/>
			<path fill-rule="evenodd" clip-rule="evenodd" fill="#005C63" d="M119.129,77.365c1.016,7.491,2.031,14.979,3.047,22.469
				c-0.67,0.107-1.339,0.215-2.012,0.32c-1.154-7.595-2.308-15.192-3.464-22.789C117.512,77.365,118.319,77.365,119.129,77.365z"/>
			<path fill-rule="evenodd" clip-rule="evenodd" fill="#005C63" d="M211.435,77.365c0.767,7.098,1.532,14.197,2.299,21.294
				c-0.28,0.025-0.562,0.052-0.844,0.077c-1.698-7.124-3.396-14.247-5.099-21.371C209.007,77.365,210.223,77.365,211.435,77.365z"/>
			<path fill-rule="evenodd" clip-rule="evenodd" fill="#005C63" d="M151.923,77.365c0,6.743,0,13.489,0,20.234
				c-0.81,0.013-1.62,0.024-2.43,0.035c0-6.756,0-13.512,0-20.27C150.303,77.365,151.113,77.365,151.923,77.365z"/>
			<path fill-rule="evenodd" clip-rule="evenodd" fill="#005C63" d="M164.069,77.365c0,5.181,0,10.36,0,15.539
				c-0.181,0.075-0.358,0.148-0.537,0.221c-1.44-5.253-2.882-10.507-4.322-15.76C160.829,77.365,162.449,77.365,164.069,77.365z"/>
			<path fill-rule="evenodd" clip-rule="evenodd" fill="#005C63" d="M269.734,261.978c-1.709-7.688-3.422-15.375-5.131-23.062
				c0.254-0.034,0.508-0.068,0.762-0.104c1.455,3.674,2.914,7.346,4.369,11.02C269.734,253.88,269.734,257.928,269.734,261.978z"/>
			<path fill-rule="evenodd" clip-rule="evenodd" fill="#005C63" d="M59.618,77.365c-0.351,4.461-0.701,8.919-1.051,13.38
				c-0.697-0.021-1.395-0.045-2.093-0.068c0.238-4.437,0.475-8.872,0.715-13.312C57.998,77.365,58.806,77.365,59.618,77.365z"/>
			<path fill-rule="evenodd" clip-rule="evenodd" fill="#005C63" d="M269.734,90.726c-1.62-4.453-3.239-8.907-4.859-13.36
				c1.62,0,3.239,0,4.859,0C269.734,81.818,269.734,86.272,269.734,90.726z"/>
			<path fill-rule="evenodd" clip-rule="evenodd" fill="#005C63" d="M70.352,213.29c-1.343-34.089-2.684-68.181-4.026-102.271
				c0.681-0.039,1.362-0.082,2.043-0.123c0.729,10.519,1.239,21.062,2.278,31.552c0.543,5.477,2.07,10.851,3.046,16.291
				c0.281,1.565,0.44,3.235,0.193,4.784c-0.173,1.101-1.639,2.075-1.646,3.112c-0.112,15.498-0.079,30.998-0.079,46.496
				C71.558,213.185,70.954,213.238,70.352,213.29z"/>
			<path fill-rule="evenodd" clip-rule="evenodd" fill="#005C63" d="M244.176,106.229c3.926,19.59,7.875,39.179,11.729,58.785
				c0.248,1.268-0.251,2.684-0.401,4.028c-0.5,0.059-1.003,0.116-1.505,0.173c-4.303-20.806-8.608-41.615-12.911-62.422
				C242.116,106.604,243.146,106.417,244.176,106.229z"/>
			<path fill-rule="evenodd" clip-rule="evenodd" fill="#005C63" d="M160.521,96.918c6.087,22.185,5.204,44.718,4.423,67.244
				c-0.637,0.028-1.273,0.058-1.908,0.086C162.197,141.806,161.358,119.362,160.521,96.918z"/>
			<path fill-rule="evenodd" clip-rule="evenodd" fill="#005C63" d="M204.216,105.312c3.922,26.263,7.841,52.527,11.76,78.792
				c-0.809,0.117-1.616,0.239-2.425,0.359c-3.9-26.267-7.8-52.532-11.7-78.799C202.639,105.546,203.429,105.43,204.216,105.312z"/>
			<path fill-rule="evenodd" clip-rule="evenodd" fill="#005C63" d="M210.15,186.306c2.696,21.939,5.389,43.88,8.083,65.819
				c-0.91,0.108-1.821,0.218-2.733,0.329c-2.6-21.971-5.195-43.94-7.791-65.909C208.521,186.465,209.338,186.386,210.15,186.306z"/>
			<path fill-rule="evenodd" clip-rule="evenodd" fill="#005C63" d="M123.899,123.62c1.143,3.643,2.286,7.282,3.584,11.412
				c-1.712-0.504-2.85-0.839-3.984-1.175c-0.224,1.083-0.708,2.185-0.624,3.243c0.635,8.09,1.382,16.172,0.652,24.348
				c-2.74-15.23-5.483-30.46-8.226-45.688c0.418-0.122,0.837-0.243,1.255-0.365c1.851,4.504,3.701,9.008,5.551,13.511
				c0.4-0.082,0.8-0.166,1.2-0.25c0.224-1.698,0.448-3.397,0.674-5.096L123.899,123.62z"/>
			<path fill-rule="evenodd" clip-rule="evenodd" fill="#005C63" d="M226.62,81.566c1.638,20.809,14.312,39.187,11.454,60.983
				c-4.423-20.193-8.844-40.388-13.268-60.583C225.411,81.835,226.016,81.7,226.62,81.566z"/>
			<path fill-rule="evenodd" clip-rule="evenodd" fill="#005C63" d="M197.454,199.957c0.997,9.131,2.023,18.257,2.981,27.391
				c1.088,10.371,2.115,20.747,2.6,31.242c-4.022-9.06-2.896-19.132-4.509-28.646c-1.659-9.801-1.873-19.844-2.723-29.782
				C196.354,200.093,196.905,200.025,197.454,199.957z"/>
			<path fill-rule="evenodd" clip-rule="evenodd" fill="#005C63" d="M145.118,287.528c-1.814-15.724-4.638-31.421-0.295-47.313
				c0.635,15.818,1.27,31.638,1.904,47.458C146.191,287.625,145.654,287.576,145.118,287.528z"/>
			<path fill-rule="evenodd" clip-rule="evenodd" fill="#005C63" d="M237.145,216.559c-3.27-16.124-6.541-32.248-9.813-48.372
				C234.647,183.45,236.985,199.776,237.145,216.559z"/>
			<path fill-rule="evenodd" clip-rule="evenodd" fill="#005C63" d="M120.992,190.201c-2.338-14.835-4.677-29.668-7.016-44.501
				c0.178-0.023,0.354-0.047,0.531-0.07c1.657,4.727,3.671,9.364,4.872,14.206c1.21,4.868,1.798,9.918,2.315,14.924
				c0.527,5.083,0.631,10.209,0.92,15.316C122.075,190.117,121.534,190.16,120.992,190.201z"/>
			<path fill-rule="evenodd" clip-rule="evenodd" fill="#005C63" d="M102.29,213.022c1.026,16.71,2.049,33.417,3.073,50.126
				c-0.613,0.045-1.225,0.089-1.838,0.134c-1.344-16.655-2.69-33.309-4.036-49.963C100.422,213.221,101.357,213.122,102.29,213.022z
				"/>
			<path fill-rule="evenodd" clip-rule="evenodd" fill="#005C63" d="M253.866,138.414c-2.982-17.429-5.963-34.859-8.944-52.29
				c0.254-0.088,0.506-0.176,0.76-0.262c1.401,5.544,2.893,11.068,4.185,16.64c1.364,5.882,2.87,11.763,3.706,17.73
				c0.835,5.95,0.919,12.004,1.334,18.011C254.56,138.3,254.213,138.357,253.866,138.414z"/>
			<path fill-rule="evenodd" clip-rule="evenodd" fill="#005C63" d="M170.201,231.673c1.902,16.776,3.803,33.551,5.705,50.326
				c-0.714,0.076-1.425,0.153-2.139,0.23c-1.868-16.778-3.734-33.559-5.601-50.335C168.844,231.819,169.523,231.746,170.201,231.673
				z"/>
			<path fill-rule="evenodd" clip-rule="evenodd" fill="#005C63" d="M244.977,178.091c-1.373-11.385-2.749-22.77-4.122-34.152
				c0.736-0.104,1.473-0.205,2.21-0.308c1.809,11.313,3.618,22.625,5.426,33.935C247.319,177.74,246.147,177.917,244.977,178.091z"
				/>
			<path fill-rule="evenodd" clip-rule="evenodd" fill="#005C63" d="M73.037,222.348c0,17.098,0,34.198,0,51.297
				c-0.316-0.009-0.631-0.017-0.944-0.025c0-17.097,0-34.191,0-51.288C72.406,222.337,72.72,222.342,73.037,222.348z"/>
			<path fill-rule="evenodd" clip-rule="evenodd" fill="#005C63" d="M226.427,134.226c2.202,10.877,4.407,21.754,6.611,32.633
				c-0.798,0.177-1.597,0.355-2.396,0.532c-2.425-10.864-4.847-21.727-7.271-32.591
				C224.389,134.608,225.408,134.417,226.427,134.226z"/>
			<path fill-rule="evenodd" clip-rule="evenodd" fill="#005C63" d="M261.385,286.883c-1.326-10.526-2.519-19.964-3.711-29.403
				c0.88-0.114,1.759-0.228,2.639-0.344C258.228,267.074,269.547,275.201,261.385,286.883z"/>
			<path fill-rule="evenodd" clip-rule="evenodd" fill="#005C63" d="M96.264,199.982c1.462,19.15,2.929,38.3,4.393,57.45
				c-0.474,0.038-0.945,0.075-1.418,0.112c-1.397-19.156-2.798-38.312-4.195-57.468C95.45,200.045,95.856,200.015,96.264,199.982z"
				/>
			<path fill-rule="evenodd" clip-rule="evenodd" fill="#005C63" d="M188.465,299.476c-0.99-2.676-2.729-5.323-2.828-8.032
				c-0.349-9.579-0.136-19.176-0.136-28.768c0.521-0.024,1.039-0.053,1.559-0.078c0.441,12.314,0.884,24.632,1.323,36.946
				L188.465,299.476z"/>
			<path fill-rule="evenodd" clip-rule="evenodd" fill="#005C63" d="M139.49,202.195c-1.397-15.339-2.798-30.678-4.197-46.018
				c0.711-0.061,1.421-0.121,2.131-0.181c1.147,15.422,2.294,30.842,3.439,46.261C140.407,202.236,139.95,202.217,139.49,202.195z"
				/>
			<path fill-rule="evenodd" clip-rule="evenodd" fill="#005C63" d="M250.14,248.32c1.28,8.206,2.561,16.41,3.841,24.616
				c-4.291-7.605-8.544-15.205-6.59-24.087C248.308,248.671,249.225,248.495,250.14,248.32z"/>
			<path fill-rule="evenodd" clip-rule="evenodd" fill="#005C63" d="M127.651,193.065c0-13.055,0-26.11,0-39.165
				c0.424-0.03,0.846-0.06,1.268-0.09c0,12.99,0,25.98,0,38.971C128.497,192.876,128.075,192.971,127.651,193.065z"/>
			<path fill-rule="evenodd" clip-rule="evenodd" fill="#005C63" d="M171.093,232.489c0-11.701,0-23.4,0-35.1
				c0.324-0.03,0.647-0.061,0.973-0.089c0.746,11.67,1.489,23.339,2.235,35.01C173.231,232.371,172.162,232.431,171.093,232.489z"/>
			<path fill-rule="evenodd" clip-rule="evenodd" fill="#005C63" d="M191.027,169.112c-1.425-11.282-2.852-22.565-4.28-33.848
				c0.566-0.066,1.135-0.135,1.7-0.202C193.139,146.011,191.152,157.766,191.027,169.112z"/>
			<path fill-rule="evenodd" clip-rule="evenodd" fill="#005C63" d="M136.898,189.938c1.101,11.435,2.202,22.871,3.302,34.306
				c-0.712,0.068-1.421,0.136-2.133,0.202c-1.08-11.437-2.159-22.875-3.239-34.312C135.518,190.069,136.208,190.003,136.898,189.938
				z"/>
			<path fill-rule="evenodd" clip-rule="evenodd" fill="#005C63" d="M83.729,177.308c0-11.288,0-22.576,0-33.862
				c0.379-0.011,0.756-0.02,1.137-0.028c0,11.293,0,22.587,0,33.88C84.485,177.301,84.108,177.304,83.729,177.308z"/>
			<path fill-rule="evenodd" clip-rule="evenodd" fill="#005C63" d="M183.752,175.023c1.39,14.541,2.778,29.081,4.17,43.623
				c-0.533,0.05-1.065,0.099-1.599,0.148c-1.352-14.545-2.703-29.091-4.055-43.636C182.764,175.114,183.257,175.067,183.752,175.023
				z"/>
			<path fill-rule="evenodd" clip-rule="evenodd" fill="#005C63" d="M37.374,221.877c1.08-13.729,2.16-27.456,3.239-41.185
				c0.58,0.048,1.157,0.095,1.736,0.143c-1.227,13.712-2.453,27.427-3.681,41.141C38.236,221.941,37.807,221.909,37.374,221.877z"/>
			<path fill-rule="evenodd" clip-rule="evenodd" fill="#005C63" d="M221.143,249.711c-1.162-9.562-2.321-19.125-3.483-28.688
				c0.542-0.061,1.084-0.123,1.624-0.184c1.408,9.558,2.817,19.118,4.228,28.676C222.723,249.581,221.933,249.646,221.143,249.711z"
				/>
			<path fill-rule="evenodd" clip-rule="evenodd" fill="#005C63" d="M144.119,164.978c0.527,9.463,1.053,18.926,1.58,28.388
				c-0.674,0.045-1.348,0.088-2.021,0.133c-0.527-9.404-1.057-18.806-1.586-28.208C142.768,165.185,143.443,165.081,144.119,164.978
				z"/>
			<path fill-rule="evenodd" clip-rule="evenodd" fill="#005C63" d="M134.062,120.052c-1.689-12.083-3.381-24.167-5.07-36.251
				c0.435-0.065,0.867-0.136,1.302-0.201c1.775,12.072,3.549,24.144,5.324,36.215C135.1,119.893,134.581,119.974,134.062,120.052z"
				/>
			<path fill-rule="evenodd" clip-rule="evenodd" fill="#005C63" d="M262.611,176.648c1.409,9.27,2.817,18.541,4.227,27.811
				c-0.729,0.091-1.459,0.184-2.188,0.277c-1.103-9.306-2.206-18.609-3.308-27.915C261.765,176.765,262.188,176.705,262.611,176.648
				z"/>
			<path fill-rule="evenodd" clip-rule="evenodd" fill="#005C63" d="M237.693,112.945c-1.984-8.129-3.971-16.256-5.957-24.383
				c0.483-0.118,0.966-0.234,1.448-0.353c2.256,8.043,4.513,16.085,6.771,24.128C239.2,112.54,238.448,112.742,237.693,112.945z"/>
			<path fill-rule="evenodd" clip-rule="evenodd" fill="#005C63" d="M57.907,127.373c0.828-7.321,1.654-14.642,2.481-21.965
				c0.531,0.047,1.062,0.09,1.593,0.135c-0.558,7.337-1.117,14.674-1.675,22.011C59.507,127.495,58.708,127.434,57.907,127.373z"/>
			<path fill-rule="evenodd" clip-rule="evenodd" fill="#005C63" d="M117.617,210.784c1.153,11.738,2.306,23.477,3.461,35.216
				c-0.576,0.05-1.153,0.1-1.727,0.15c-0.977-11.757-1.953-23.514-2.927-35.27C116.821,210.849,117.219,210.816,117.617,210.784z"/>
			<path fill-rule="evenodd" clip-rule="evenodd" fill="#005C63" d="M111,217.071c0.778,11.329,1.556,22.657,2.333,33.984
				c-0.48,0.034-0.963,0.064-1.444,0.097c-0.767-11.32-1.532-22.639-2.295-33.959C110.062,217.152,110.53,217.113,111,217.071z"/>
			<path fill-rule="evenodd" clip-rule="evenodd" fill="#005C63" d="M181.788,238.274c-0.848-12.768-1.695-25.536-2.544-38.305
				c0.418-0.026,0.833-0.056,1.251-0.082c0.81,12.799,1.623,25.599,2.435,38.397C182.549,238.282,182.168,238.276,181.788,238.274z"
				/>
			<path fill-rule="evenodd" clip-rule="evenodd" fill="#005C63" d="M128.26,247.462c0,7.543,0,15.084,0,22.628
				c-0.413,0-0.826,0-1.241,0.002c0-7.543,0-15.083,0-22.628C127.434,247.464,127.847,247.462,128.26,247.462z"/>
			<path fill-rule="evenodd" clip-rule="evenodd" fill="#005C63" d="M127.102,200.74c0.455,8.701,0.911,17.404,1.365,26.105
				c-0.407,0.043-0.815,0.086-1.223,0.129c-0.799-8.714-1.6-17.428-2.399-26.144C125.596,200.803,126.349,200.771,127.102,200.74z"
				/>
			<path fill-rule="evenodd" clip-rule="evenodd" fill="#005C63" d="M134.365,296.983c-0.61-8.872-1.22-17.743-1.831-26.616
				c0.312-0.016,0.62-0.03,0.93-0.047c1.085,8.877,2.17,17.753,3.257,26.628C135.935,296.961,135.149,296.973,134.365,296.983z"/>
			<path fill-rule="evenodd" clip-rule="evenodd" fill="#005C63" d="M106.043,288.624c0-7.36,0-14.721,0-22.083
				c0.609,0.019,1.219,0.04,1.829,0.058c-0.383,7.356-0.764,14.714-1.145,22.068C106.499,288.652,106.271,288.639,106.043,288.624z"
				/>
			<path fill-rule="evenodd" clip-rule="evenodd" fill="#005C63" d="M254.51,249.556c-1.5-6.788-3-13.574-4.502-20.363
				c0.416-0.095,0.833-0.189,1.248-0.282c1.793,6.715,3.586,13.43,5.377,20.145C255.926,249.222,255.218,249.39,254.51,249.556z"/>
			<path fill-rule="evenodd" clip-rule="evenodd" fill="#005C63" d="M226.214,122.171c-1.896-7.55-3.795-15.102-5.694-22.651
				c0.58-0.142,1.159-0.279,1.736-0.418c1.707,7.662,3.417,15.326,5.126,22.988C226.992,122.117,226.602,122.144,226.214,122.171z"
				/>
			<path fill-rule="evenodd" clip-rule="evenodd" fill="#005C63" d="M132.295,152.523c0-5.949,0-11.899,0-17.848
				c0.311-0.018,0.62-0.035,0.932-0.052c0.33,5.993,0.659,11.985,0.988,17.979C133.574,152.575,132.935,152.551,132.295,152.523z"/>
			<path fill-rule="evenodd" clip-rule="evenodd" fill="#005C63" d="M48.939,112.65c-0.49,9.576-0.979,19.151-1.469,28.729
				c-0.42-0.023-0.842-0.045-1.264-0.066c0.569-9.57,1.135-19.137,1.702-28.706C48.251,112.622,48.594,112.637,48.939,112.65z"/>
			<path fill-rule="evenodd" clip-rule="evenodd" fill="#005C63" d="M83.788,215.429c0-6.717,0-13.432,0-20.146
				c0.124-0.023,0.249-0.047,0.374-0.069c0,6.612,0,13.228,0,19.84C84.037,215.179,83.912,215.302,83.788,215.429z"/>
			<path fill-rule="evenodd" clip-rule="evenodd" fill="#005C63" d="M81.949,120.837c0.788,4.853,1.574,9.702,2.363,14.555
				c-0.685,0.105-1.369,0.209-2.053,0.314c-0.729-4.92-1.461-9.84-2.189-14.76C80.695,120.912,81.321,120.873,81.949,120.837z"/>
			<path fill-rule="evenodd" clip-rule="evenodd" fill="#005C63" d="M70.266,225.265c-0.397,4.702-0.795,9.404-1.192,14.106
				c-0.377-0.036-0.754-0.072-1.132-0.107c0-4.724,0-9.447,0-14.168C68.716,225.15,69.492,225.208,70.266,225.265z"/>
			<path fill-rule="evenodd" clip-rule="evenodd" fill="#005C63" d="M241.212,194.312c1.378,5.973,2.757,11.944,4.137,17.917
				c-0.517,0.111-1.035,0.222-1.552,0.331c-1.251-5.995-2.503-11.987-3.754-17.98C240.433,194.488,240.822,194.399,241.212,194.312z
				"/>
			<path fill-rule="evenodd" clip-rule="evenodd" fill="#005C63" d="M79.006,215.804c0-8.332,0-16.165,0-23.997
				c0.308-0.004,0.613-0.005,0.921-0.007c0,7.739,0.002,15.477-0.021,23.216C79.905,215.151,79.61,215.287,79.006,215.804z"/>
			<path fill-rule="evenodd" clip-rule="evenodd" fill="#005C63" d="M99.489,272.695c-0.481,5.138-0.961,10.275-1.439,15.416
				c-0.138,0-0.275,0.002-0.413,0.002c0-5.169,0-10.338,0-15.506C98.254,272.636,98.87,272.666,99.489,272.695z"/>
			<path fill-rule="evenodd" clip-rule="evenodd" fill="#005C63" d="M123.981,123.56c-1.033-4.212-2.066-8.422-3.1-12.632
				c1.006-0.124,2.011-0.247,3.02-0.369c0,4.354,0,8.707-0.002,13.062L123.981,123.56z"/>
			<path fill-rule="evenodd" clip-rule="evenodd" fill="#005C63" d="M163.685,271.047c0-6.452,0-12.902,0-19.354
				c0.269,0.013,0.536,0.025,0.807,0.038c0,6.448,0,12.897,0,19.346C164.221,271.068,163.953,271.058,163.685,271.047z"/>
			<path fill-rule="evenodd" clip-rule="evenodd" fill="#005C63" d="M243.806,223.534c0.85,4.908,1.698,9.817,2.548,14.727
				c-0.576,0.095-1.151,0.189-1.729,0.284c-0.768-4.922-1.534-9.846-2.301-14.766C242.817,223.697,243.311,223.615,243.806,223.534z
				"/>
			<path fill-rule="evenodd" clip-rule="evenodd" fill="#005C63" d="M100.146,205.563c0-7.36,0-14.721,0-22.081
				c0.17-0.003,0.344-0.007,0.514-0.012c0,7.356,0,14.711,0,22.068C100.49,205.546,100.316,205.555,100.146,205.563z"/>
			<path fill-rule="evenodd" clip-rule="evenodd" fill="#005C63" d="M120.985,209.853c0-3.456,0-6.911,0-10.367
				c0.293-0.013,0.586-0.025,0.881-0.036c0,3.512,0,7.021,0,10.53C121.571,209.938,121.278,209.896,120.985,209.853z"/>
			<path fill-rule="evenodd" clip-rule="evenodd" fill="#005C63" d="M136.214,254.715c0.827,4.396,1.653,8.793,2.481,13.188
				c-0.236,0.038-0.473,0.073-0.708,0.109c-1.321-4.292-2.643-8.587-3.964-12.877C134.755,254.996,135.484,254.856,136.214,254.715z
				"/>
		</g>
	</g>
	<use xlink:href="#XMLID_3_"  overflow="visible" fill="none" stroke="#000000" stroke-width="1.8307" stroke-miterlimit="10"/>
</g>
<circle cx="152.377" cy="187.673" r="7.602"/>
<circle cx="95.124" cy="80.355" r="7.602"/>
</svg>
