<?xml version="1.0" encoding="utf-8"?>
<!-- Generator: Adobe Illustrator 16.0.4, SVG Export Plug-In . SVG Version: 6.00 Build 0)  -->
<!DOCTYPE svg PUBLIC "-//W3C//DTD SVG 1.1//EN" "http://www.w3.org/Graphics/SVG/1.1/DTD/svg11.dtd">
<svg version="1.1" id="Layer_1" xmlns="http://www.w3.org/2000/svg" xmlns:xlink="http://www.w3.org/1999/xlink" x="0px" y="0px"
	 width="300px" height="250px" viewBox="0 0 300 250" enable-background="new 0 0 300 250" xml:space="preserve">
<path fill="#C7ABA8" stroke="#000000" stroke-width="1.5" stroke-miterlimit="10" d="M128.919,176.266
	c1.988,7.553,11.532-7.557,14.315-10.341c6.361-7.155,16.7-16.303,18.29-26.243c-2.781,0.397-4.373,3.184-6.76,4.375
	c-0.396-4.375,3.579-7.953,2.387-12.328c-4.373,1.592-4.373,7.953-8.749,10.737c-1.989-3.182,0.795-9.146,0.795-12.725
	c-3.976,1.59-6.361,12.725-9.146,16.7c-3.578,6.76-9.145,14.711-11.133,22.268"/>
<g>
	<path fill="#C3A651" stroke="#000000" stroke-miterlimit="10" d="M196.162,45.046c-1.59-1.988-11.133-4.772-14.712-6.363
		c-9.544-3.578-19.484-5.566-29.028-7.555c-21.869-5.169-37.774,0.398-57.257,8.351c-19.086,7.952-42.547,13.122-50.5,34.593
		c-6.362,16.701-9.543,34.196-10.735,51.691c-1.193,17.1,4.374,41.752,17.893,53.281c14.314,12.327,40.558,3.977,57.656,0.796
		c4.374-0.796,10.339-0.397,14.315-1.987c4.771-1.988,8.35-6.763,11.531-9.94c4.771-4.374,8.747-7.156,8.747-13.519
		c0-5.965-4.373-10.34-3.977-16.306c1.989-21.471,36.98-15.906,50.102-13.121c10.339,2.386,18.291,4.771,28.631,2.386
		c12.326-2.386,13.52-8.748,14.711-19.88c0.396-5.169,0.796-8.747-1.988-13.519c-2.385-4.374-6.759-6.759-7.156-11.929
		c-0.795-9.542,9.543-15.507-0.795-21.074c-7.557-4.374-9.94-5.169-14.313-12.725c-2.782-4.771-12.326-12.326-13.521-1.988"/>
	<g>
		<path stroke="#000000" stroke-miterlimit="10" d="M196.568,44.64c-1.131-1.231-2.885-1.866-4.387-2.5
			c-2.388-1.007-4.845-1.845-7.277-2.728c-6.487-2.352-12.912-4.496-19.643-6.095c-7.195-1.709-14.527-3.479-21.877-4.345
			c-6.619-0.781-13.304-0.429-19.856,0.712c-12.937,2.252-24.896,7.984-37.086,12.602C76.34,46.113,65.954,49.84,57.265,56.438
			c-4.04,3.067-7.48,6.819-10.13,11.144c-3.509,5.729-5.379,12.6-7.219,19c-4.012,13.955-6.597,29.001-6.719,43.549
			c-0.095,11.24,2.247,22.704,6.732,33.002c4.189,9.615,10.963,18.412,21.339,21.52c10.904,3.266,23.102,0.93,33.977-1.27
			c5.684-1.148,11.391-2.783,17.172-3.339c2.935-0.282,5.875-0.354,8.785-0.866c2.827-0.494,5.188-1.898,7.399-3.672
			c2.288-1.833,4.206-4.109,6.208-6.238c2.125-2.26,4.628-4.113,6.673-6.457c3.62-4.146,3.718-9.361,1.939-14.35
			c-1.05-2.943-2.458-5.688-2.755-8.848c-0.225-2.401,0.516-4.992,1.574-7.129c1.774-3.582,5.195-5.916,8.818-7.35
			c7.939-3.137,17.227-2.668,25.551-1.791c10.021,1.056,19.625,4.33,29.615,5.375c9.193,0.963,22.123-0.58,25.896-10.425
			c1.748-4.563,2.044-9.998,2.254-14.821c0.262-5.961-2.373-10.432-6.111-14.83c-3.097-3.64-3.965-7.407-2.645-12.018
			c0.833-2.912,2.495-5.547,3.062-8.538c1.229-6.446-7.629-8.986-11.757-11.77c-5.259-3.546-7.091-9.899-12.093-13.721
			c-1.548-1.182-3.885-2.506-5.925-2.035c-2.578,0.595-3.373,3.179-3.7,5.522c-0.102,0.725,1.006,1.037,1.107,0.306
			c0.328-2.347,1.162-5.117,4.072-4.692c2.154,0.314,4.116,1.976,5.639,3.413c3.295,3.114,4.845,7.535,8.252,10.604
			c1.459,1.314,3.164,2.34,4.85,3.332c2.624,1.544,5.998,2.808,7.801,5.361c2.493,3.534-1.84,9.542-2.729,13.073
			c-1.33,5.267,0.793,9.098,4.116,12.99c2.227,2.605,3.955,5.434,4.67,8.824c0.688,3.251,0.135,6.87-0.239,10.129
			c-0.521,4.562-1.187,9.568-4.483,13.037c-4.16,4.372-12.089,5.19-17.697,5.306c-7.234,0.146-14.197-2.113-21.205-3.56
			c-3.402-0.702-6.832-1.27-10.277-1.721c-8.285-1.083-17.005-1.517-25.178,0.539c-7.127,1.793-13.021,6.337-14.241,13.893
			c-0.97,5.998,3.278,10.916,3.81,16.705c0.654,7.119-5.701,10.813-9.945,15.329c-2.169,2.307-4.263,4.66-6.809,6.568
			c-3.069,2.297-6.614,2.785-10.335,3.078c-5.669,0.445-11.054,1.471-16.61,2.659c-11.747,2.515-24.312,5.333-36.292,2.769
			c-12.075-2.584-19.273-13.117-23.588-23.946c-4.283-10.748-6.138-22.779-5.39-34.317c1.036-15.983,3.91-31.876,9.086-47.048
			c2.114-6.197,4.685-11.8,9.152-16.661c3.757-4.088,8.435-7.218,13.287-9.854c10.052-5.46,21.191-8.903,31.773-13.178
			c12.98-5.243,26.268-9.697,40.443-9.283c5.685,0.166,11.173,1.348,16.716,2.501c5.801,1.207,11.587,2.467,17.295,4.057
			c4.604,1.282,9.012,3.02,13.495,4.638c3.071,1.108,7.716,2.025,10.003,4.515C196.258,45.999,197.068,45.184,196.568,44.64
			L196.568,44.64z"/>
	</g>
</g>
<g>
	<g>
		<path stroke="#000000" stroke-miterlimit="10" d="M184.873,100.562c-1.753,4.698-6.482,7.709-7.844,12.699
			c-1.377,5.049,3.955,7.322,8.043,7.381c3.205,0.046,6.426-0.228,9.617-0.502c2.479-0.213,5.412-0.176,7.729-1.19
			c2.121-0.928,4.184-2.708,4.279-5.211c0.119-3.122-1.893-5.41-4.282-7.157c-0.601-0.438-1.172,0.56-0.58,0.992
			c2.632,1.922,4.914,4.999,2.942,8.212c-1.413,2.306-4.455,2.642-6.881,2.898c-4.57,0.483-9.213,0.922-13.812,0.788
			c-2.342-0.068-4.945-1.069-5.895-3.404c-0.779-1.931,0.471-4.19,1.428-5.806c1.898-3.208,5.046-5.867,6.359-9.394
			C186.24,100.171,185.129,99.874,184.873,100.562L184.873,100.562z"/>
	</g>
</g>
<g>
	<g>
		<path stroke="#000000" stroke-miterlimit="10" d="M197.256,135.598c2.21,5.062,0.674,11.777-0.415,16.92
			c-1.124,5.312-2.549,10.926-5.007,15.795c-3.094,6.127-8.379,11.168-13.834,15.201c-5.607,4.146-12.24,7.545-19.216,8.479
			c0.19,0.19,0.383,0.383,0.573,0.573c-0.312-2.811,0.043-5.479,0.774-8.198c0.194-0.72-0.885-1.009-1.106-0.306
			c-1.232,3.888-4.121,8.646-1.906,12.674c1.503,2.731,6.404,2.373,8.932,3.481c0.672,0.296,1.258-0.694,0.58-0.991
			c-2.531-1.11-5.504-1.076-7.939-2.418c-3.569-1.968,0.627-9.865,1.442-12.44c-0.368-0.103-0.737-0.203-1.106-0.306
			c-0.762,2.826-1.144,5.58-0.815,8.504c0.03,0.276,0.239,0.619,0.574,0.574c13.498-1.811,27.123-11.918,33.735-23.68
			c2.92-5.191,4.35-11.536,5.569-17.309c1.128-5.326,2.427-11.941,0.157-17.139C197.952,134.339,196.962,134.925,197.256,135.598
			L197.256,135.598z"/>
	</g>
</g>
<g>
	<g>
		<path stroke="#000000" stroke-miterlimit="10" d="M70.61,12.149c-0.381-0.65-0.757-1.161-1.283-1.706
			c-0.187,0.32-0.373,0.64-0.559,0.96c5.765,2.378,11.979,3.257,17.894,5.168c-0.046-0.35-0.091-0.7-0.137-1.05
			c-4.658,3.159-7.224,8.557-8.614,13.863c-0.188,0.718,0.92,1.022,1.108,0.306c1.308-4.994,3.688-10.193,8.086-13.176
			c0.415-0.281,0.352-0.892-0.137-1.05c-5.914-1.911-12.129-2.79-17.894-5.168c-0.562-0.231-0.927,0.58-0.559,0.96
			c0.455,0.421,0.823,0.913,1.104,1.474C69.993,13.368,70.986,12.79,70.61,12.149L70.61,12.149z"/>
	</g>
</g>
<g>
	<g>
		<path stroke="#000000" stroke-miterlimit="10" d="M85.469,14.271C62.977,19.426,42.813,32.533,28.585,50.65
			c-6.924,8.816-12.265,18.827-15.753,29.478c-3.484,10.64-5.436,22.873-3.895,34.042c0.871,6.313,2.495,12.389,5.012,18.246
			c0.292,0.68,1.282,0.093,0.992-0.58c-10.203-23.74-4.398-51.258,8.955-72.545c12.681-20.213,32.92-35.446,55.734-42.309
			c2.027-0.61,4.081-1.129,6.144-1.602C86.497,15.214,86.19,14.106,85.469,14.271L85.469,14.271z"/>
	</g>
</g>
<path d="M212.094,111.822c0,2.056-2.205,3.72-4.926,3.72s-1.754-0.016-1.275-2.042c0.578-2.453-0.162-2.921-2.326-4.846
	C206.287,108.654,212.094,109.767,212.094,111.822z"/>
<g enable-background="new    ">
	<path d="M212.975,167.828v24.789h-4.077v-24.789h-8.542v-3.588h21.161v3.588H212.975z"/>
	<path d="M230.341,171.579v11.497c0,5.26,1.427,6.361,4.362,6.361c2.202,0,4.057-0.856,5.342-1.978v-15.881h4.076v21.038h-3.669
		l-0.367-2.222c-2.12,1.794-4.79,2.548-6.666,2.548c-5.097,0-7.155-2.508-7.155-9.663v-11.701H230.341z"/>
	<path d="M255.045,177.898v14.719h-4.076v-21.038h3.914l0.162,2.915c0.897-1.08,3.547-3.241,6.728-3.241
		c0.815,0,1.569,0.021,2.283,0.204v3.853c-0.836-0.244-1.794-0.326-3.017-0.326C257.777,174.983,255.718,176.879,255.045,177.898z"
		/>
	<path d="M282.258,192.617v-11.498c0-4.852-1.773-6.359-4.709-6.359c-2.364,0-4.117,0.938-5.402,2.059v15.799h-4.076v-21.038h3.771
		l0.285,2.283c2.263-1.773,4.852-2.609,6.869-2.609c4.893,0,7.34,2.711,7.34,9.866v11.498H282.258z"/>
</g>
<g enable-background="new    ">
	<path d="M216.686,221.932c0-2.896-2.243-4.526-9.398-4.526h-2.039v-1.631l8.135-9.724h-11.11v-3.588h17.715v1.631l-8.542,9.826
		v0.061c7.686,0.489,9.5,4.281,9.5,7.951c0,4.647-3.384,8.439-11.986,8.439c-2.202,0-5.933-0.204-7.277-0.53v-3.853
		c1.182,0.387,4.24,0.774,7.277,0.774C214.3,226.763,216.686,224.969,216.686,221.932z"/>
	<path d="M245.467,202.688v3.954c-0.855-0.265-2.895-0.611-4.912-0.611c-6.993,0-10.214,3.955-10.214,9.397
		c1.835-1.365,4.771-2.568,7.971-2.568c5.729,0,9.663,2.997,9.663,8.685c0,6.156-5.524,8.97-10.662,8.97
		c-7.318,0-11.049-5.117-11.049-12.965v-1.244c0-8.419,5.789-13.842,14.291-13.842C242.062,202.463,244.285,202.463,245.467,202.688
		z M244.02,221.748c0-3.507-2.568-5.749-6.646-5.749c-3.099,0-5.933,1.468-6.992,2.508c0,4.729,2.059,8.908,7.094,8.908
		C241.125,227.415,244.02,225.377,244.02,221.748z"/>
	<path d="M265.055,230.514c-7.013,0-11.539-4.954-11.539-13.984c0-9.031,4.526-14.066,11.539-14.066
		c6.891,0,11.334,5.035,11.334,14.066C276.389,225.56,271.945,230.514,265.055,230.514z M265.055,227.415
		c5.504,0,7.053-4.893,7.053-10.865c0-6.015-1.549-10.988-7.053-10.988c-5.484,0-7.258,4.974-7.258,10.947
		C257.797,222.522,259.408,227.415,265.055,227.415z"/>
</g>
<g enable-background="new    ">
	<path d="M287.455,202.698c3.119,0,5.646,2.446,5.646,5.483c0,3.038-2.527,5.464-5.646,5.464c-3.14,0-5.627-2.426-5.627-5.464
		C281.828,205.145,284.315,202.698,287.455,202.698z M287.455,211.179c1.59,0,2.834-1.305,2.834-2.956
		c0-1.672-1.244-3.018-2.834-3.018c-1.57,0-2.813,1.346-2.813,3.018C284.642,209.874,285.885,211.179,287.455,211.179z"/>
</g>
</svg>
