<?xml version="1.0" encoding="utf-8"?>
<!-- Generator: Adobe Illustrator 16.0.4, SVG Export Plug-In . SVG Version: 6.00 Build 0)  -->
<!DOCTYPE svg PUBLIC "-//W3C//DTD SVG 1.1//EN" "http://www.w3.org/Graphics/SVG/1.1/DTD/svg11.dtd">
<svg version="1.1" id="Layer_1" xmlns="http://www.w3.org/2000/svg" xmlns:xlink="http://www.w3.org/1999/xlink" x="0px" y="0px"
	 width="300px" height="250px" viewBox="0 0 300 250" enable-background="new 0 0 300 250" xml:space="preserve">
<polygon fill="#FFC52E" points="50.309,62.171 60.016,49.127 89.44,45.487 98.844,53.829 59.712,138.512 52.591,132.604 "/>
<g>
	<path fill="#FFC52E" d="M55.263,43.868C32.614,45.486,9.964,64.091,17.245,87.55c6.471,21.841,7.799,36.403,19.124,54.199
		c0,0,23.344,11.729,23.344,19.009c0,13.751-0.81,28.312,4.044,41.255l4.449,8.19c0,0.91,0.303,2.123,0.606,3.033
		c6.067-3.337,8.19,0.91,14.257,2.427c6.977,1.517,13.954-0.91,20.627-2.123c7.887-1.214,15.167,3.337,23.054,3.033
		c7.887-0.606,14.561-3.64,22.448-2.427c6.977,0.91,13.044,2.73,20.021,0.304c9.403-3.641,16.381-6.37,26.391-3.034
		c9.404,3.034,19.111,7.584,29.121,7.584c7.888,0,13.954-3.943,21.841-2.123c4.247,0.91,8.494,2.123,13.044,2.123
		c4.551,0,7.584-2.73,12.134-3.943c5.764-1.517,12.134,0.606,20.021-9.404c6.066-3.336,0.102-35.997,0.102-35.997
		c-13.753-28.312-3.236-63.096-38.828-78.465c-35.594-15.369-77.612,5.562-117.497-13.852c0,0-13.65-9.404-19.414-13.347
		c-6.977-4.247-12.437-9.707-18.201-15.471"/>
	<g>
		<path d="M55.263,42.655C34.126,44.326,11.059,60.784,15.19,84.321c0.568,3.238,1.724,6.397,2.596,9.562
			c0.943,3.426,1.824,6.869,2.708,10.31c1.537,5.983,3.09,11.963,5.086,17.812c1.987,5.826,4.526,11.445,7.579,16.789
			c0.727,1.273,1.504,3.441,2.867,4.139c0.946,0.484,1.882,0.988,2.815,1.498c4.899,2.68,9.75,5.604,14.094,9.127
			c1.917,1.556,3.849,3.302,5.062,5.479c0.745,1.339,0.503,2.889,0.496,4.362c-0.013,2.669-0.041,5.339-0.042,8.008
			c-0.006,9.855,0.475,19.828,3.549,29.266c0.704,2.162,1.854,4.056,2.936,6.047c0.617,1.135,1.233,2.27,1.85,3.404
			c0.552,1.017,0.499,2.254,0.859,3.434c0.238,0.779,1.075,1.087,1.782,0.726c3.162-1.615,5.381-0.94,8.367,0.574
			c2.868,1.454,5.698,2.277,8.917,2.479c7.49,0.47,14.543-3.293,21.987-2.674c7.145,0.594,13.417,3.791,20.741,2.827
			c3.262-0.43,6.467-1.206,9.701-1.796c4.233-0.771,8.192-0.638,12.427,0.014c3.251,0.5,6.479,1.062,9.774,1.162
			c3.813,0.117,7.268-0.897,10.789-2.245c7.018-2.687,13.843-4.485,21.317-2.595c7.454,1.886,14.43,5.309,21.947,7.055
			c6.978,1.622,13.301,0.976,20.194-0.574c3.562-0.801,7.054-1.207,10.663-0.464c3.559,0.733,7.05,1.638,10.67,2.033
			c3.044,0.332,5.851-0.04,8.664-1.244c2.88-1.233,5.611-2.577,8.737-3.046c4.414-0.663,8.417-1.016,12.279-3.517
			c1.103-0.714,2.105-1.59,3.068-2.478c1.072-0.991,1.911-2.482,3.064-3.331c0.964-0.709,1.486-1.759,1.903-2.851
			c1.185-3.102,1.104-6.812,1.062-10.074c-0.054-4.231-0.462-8.459-0.958-12.658c-0.377-3.194-0.835-6.38-1.355-9.554
			c-0.455-2.772-1.795-5.102-2.789-7.736c-6.932-18.356-5.383-39.687-16.215-56.588c-13.798-21.529-42.326-23.721-65.413-22.991
			c-23.4,0.74-47.236,3.208-69.408-6.166c-6.009-2.541-11.241-6.957-16.59-10.633c-3.491-2.399-7.093-4.67-10.518-7.159
			c-4.976-3.616-9.324-8.057-13.661-12.393c-1.107-1.107-2.824,0.608-1.716,1.716c4.908,4.908,9.857,9.756,15.543,13.769
			c4.188,2.956,8.517,5.742,12.743,8.648c3.108,2.138,6.216,4.277,9.323,6.417c1.888,1.3,4.367,2.055,6.496,2.897
			c3.612,1.43,7.348,2.532,11.121,3.442c27.737,6.688,56.234-1.437,84.118,3.103c12.104,1.971,24.256,6.863,32.547,16.181
			c6.592,7.407,9.535,17.135,11.562,26.637c2.11,9.896,3.354,19.967,6.331,29.667c0.729,2.37,1.587,4.699,2.547,6.985
			c0.477,1.137,1.189,2.229,1.402,3.447c0.462,2.648,0.859,5.308,1.212,7.973c0.988,7.457,2.438,16.097,0.56,23.513
			c-0.229,0.902-0.578,2.032-1.421,2.546c-1.183,0.722-2.192,2.479-3.206,3.475c-1.251,1.229-2.678,2.233-4.21,3.076
			c-3.811,2.096-8.214,1.719-12.315,2.731c-3.126,0.771-5.888,2.563-8.958,3.498c-3.853,1.172-8.368-0.064-12.172-0.914
			c-3.211-0.717-6.244-1.409-9.556-1.229c-3.286,0.178-6.506,1.117-9.707,1.803c-7.858,1.682-15.486-0.109-22.97-2.581
			c-6.916-2.285-13.718-5.606-21.117-5.768c-4.745-0.104-9.395,1.363-13.8,2.965c-2.6,0.945-5.085,2.02-7.818,2.528
			c-2.703,0.502-5.544,0.246-8.25-0.078c-5.333-0.638-10.331-1.812-15.736-1.188c-5.437,0.628-10.764,2.562-16.274,2.432
			c-5.172-0.122-10.139-2.24-15.23-2.979c-5.257-0.765-10.206,0.849-15.317,1.842c-5.715,1.11-10.845,0.91-16.072-1.741
			c-3.596-1.824-6.571-2.166-10.251-0.287c0.594,0.242,1.188,0.483,1.782,0.726c-0.514-1.687-0.594-3.076-1.424-4.604
			c-0.958-1.762-1.915-3.524-2.872-5.286c-2.815-5.184-3.668-11.548-4.254-17.342c-0.747-7.396-0.56-14.861-0.515-22.282
			c0.012-1.91,0.106-3.532-0.675-5.284c-0.68-1.523-1.917-2.845-3.074-4.016c-5.298-5.365-12.341-9.262-18.957-12.761
			c-1.091-0.577-1.032-0.57-1.693-1.64c-1.808-2.924-3.417-5.967-4.884-9.074c-2.662-5.643-4.596-11.595-6.29-17.589
			c-2.256-7.987-4.125-16.077-6.418-24.054c-2.155-7.498-2.601-14.584,0.764-21.825c6.175-13.291,21.508-20.963,35.571-22.076
			C56.812,44.959,56.824,42.531,55.263,42.655L55.263,42.655z"/>
	</g>
</g>
<g>
	<g>
		<path fill="#FFA300" d="M54.859,45.688c0.782,0,0.782-1.214,0-1.214S54.077,45.688,54.859,45.688L54.859,45.688z"/>
	</g>
</g>
<g>
	<g>
		<path d="M73.51,60.561c2.146,4.953,0.72,11.01,2.843,16.115c2.263,5.442,7.377,4.914,11.781,2.335
			c-0.83-0.218-1.66-0.436-2.49-0.653c3.603,5.572,10.526,18.404,16.896,8.089c1.237-2.003-1.913-3.83-3.144-1.837
			c-3.661,5.928-8.705-5.145-10.608-8.089c-0.538-0.832-1.605-1.171-2.49-0.653c-2.159,1.264-4.709,2.635-6.319,0.001
			c-1.132-1.853-1.352-4.438-1.607-6.539c-0.425-3.507-0.291-7.314-1.717-10.605C75.723,56.575,72.587,58.43,73.51,60.561
			L73.51,60.561z"/>
	</g>
</g>
<g>
	<g>
		<path d="M17.851,81.281c0,0.202,0,0.405,0,0.607c0,0.783,1.214,0.783,1.214,0c0-0.202,0-0.405,0-0.607
			C19.064,80.499,17.851,80.499,17.851,81.281L17.851,81.281z"/>
	</g>
</g>
<g>
	<g>
		<path d="M16.314,82.755c3.997,1.389,8.952,1.336,10.593-3.274c0.526-1.478-1.819-2.108-2.34-0.646
			c-1.146,3.217-5.084,2.456-7.608,1.58C15.478,79.9,14.846,82.245,16.314,82.755L16.314,82.755z"/>
	</g>
</g>
<ellipse cx="68.203" cy="70.209" rx="4.553" ry="5.309"/>
<g>
	<g>
		<path fill="#E8A700" d="M82.767,143.771c0,13.591-0.066,27.555,3.987,40.667c0.46,1.49,2.803,0.854,2.34-0.645
			c-3.991-12.912-3.899-26.64-3.9-40.022C85.193,142.205,82.767,142.205,82.767,143.771L82.767,143.771z"/>
	</g>
</g>
<g>
	<g>
		<path fill="#E8A700" d="M117.816,92.196c-6.907,12.16-9.096,27.073-10.639,40.782c-2.007,17.829-0.461,35.824,1.677,53.563
			c0.185,1.533,2.614,1.552,2.427,0c-2.025-16.805-3.418-33.717-1.967-50.629c0.637-7.425,1.851-14.852,3.443-22.13
			c1.535-7.018,3.59-14.085,7.156-20.362C120.686,92.058,118.589,90.836,117.816,92.196L117.816,92.196z"/>
	</g>
</g>
<g>
	<g>
		<path fill="#E8A700" d="M144.953,120.413c-0.042,11.492-1.375,22.931-0.753,34.429c0.594,10.972,2.832,21.781,4.437,32.629
			c0.228,1.544,2.566,0.886,2.34-0.645c-1.621-10.959-3.801-21.843-4.4-32.926c-0.604-11.173,0.763-22.318,0.804-33.487
			C147.385,118.848,144.958,118.849,144.953,120.413L144.953,120.413z"/>
	</g>
</g>
<g>
	<g>
		<path fill="#E8A700" d="M192.629,101.25c1.741,2.031,2.493,5.4,3.304,7.909c1.128,3.495,2.217,7.002,3.223,10.535
			c2.096,7.365,3.83,14.984,4.123,22.659c0.598,15.633-3.229,30.985-5.804,46.293c-0.258,1.53,2.081,2.186,2.34,0.645
			c2.671-15.882,6.474-31.68,5.854-47.896c-0.3-7.854-2.287-15.714-4.428-23.237c-1.056-3.71-2.13-7.468-3.462-11.09
			c-0.933-2.533-1.642-5.443-3.434-7.534C193.325,98.344,191.616,100.069,192.629,101.25L192.629,101.25z"/>
	</g>
</g>
<g>
	<g>
		<path fill="#E8A700" d="M239.59,97.8c2.273,1.05,3.44,4.153,4.39,6.286c1.454,3.269,2.517,6.721,3.577,10.132
			c2.647,8.518,5.292,16.99,7.208,25.713c2.45,11.156,3.446,22.349,3.789,33.747c0.177,5.858,0.163,11.72-0.088,17.576
			c-0.237,5.538-1.469,10.998-1.579,16.521c-0.032,1.565,2.395,1.562,2.426,0c0.11-5.51,1.313-10.995,1.58-16.521
			c0.298-6.18,0.244-12.372,0.059-18.554c-0.349-11.606-1.551-22.964-4.044-34.314c-1.964-8.942-4.746-17.642-7.495-26.363
			c-1.091-3.459-2.283-6.893-3.803-10.19c-1.027-2.228-2.442-5.043-4.795-6.13C239.404,95.053,238.17,97.144,239.59,97.8
			L239.59,97.8z"/>
	</g>
</g>
<g>
	<path fill="#FFC52E" d="M98.844,49.43c-4.55-9.707-14.864-18.201-25.784-18.808c-17.291-0.606-16.684,16.381-26.391,25.785
		c5.157,1.82,10.01,1.82,15.471,1.82"/>
	<g>
		<path d="M99.892,48.818C94.089,36.819,78.917,25.244,65.043,30.66C54.61,34.733,53.149,48.258,45.811,55.549
			c-0.675,0.671-0.314,1.744,0.535,2.028c5.139,1.72,10.423,1.861,15.793,1.863c1.565,0,1.565-2.426,0-2.427
			c-5.159-0.002-10.208-0.123-15.148-1.776c0.178,0.676,0.357,1.352,0.535,2.028c3.464-3.442,5.711-7.737,7.911-12.042
			c2.192-4.288,4.481-8.82,8.71-11.432c5.53-3.416,12.864-1.999,18.373,0.639c6.682,3.199,12.074,8.992,15.275,15.612
			C98.477,51.451,100.569,50.22,99.892,48.818L99.892,48.818z"/>
	</g>
</g>
<g>
	<g>
		<path d="M61.272,59.157c1.037,2.942,2.918,5.337,6.241,3.847c1.586-0.711,2.998-1.752,4.679-2.245
			c1.606-0.471,2.594,0.786,3.42,1.963c2.44,3.475,5.421,11.959,10.742,6.98c1.145-1.071-0.575-2.784-1.716-1.716
			c-2.072,1.939-3.321-0.397-4.389-2.181c-1.191-1.991-2.195-4.087-3.737-5.843c-1.473-1.678-3.364-2.013-5.452-1.4
			c-1.243,0.364-2.387,1.093-3.508,1.718c-2.211,1.233-3.094,0.631-3.94-1.769C63.096,57.046,60.751,57.677,61.272,59.157
			L61.272,59.157z"/>
	</g>
</g>
<g>
	<g>
		<path fill="#E8A700" d="M83.321,37.349c-8.394-9.901-24.706,1.345-26.035,11.778c-0.197,1.549,2.232,1.53,2.427,0
			c1.092-8.571,15.053-18.13,21.893-10.062C82.618,40.26,84.326,38.535,83.321,37.349L83.321,37.349z"/>
	</g>
</g>
<g>
	<g>
		<path fill="#E8A700" d="M84.534,41.595c-3.215-2.908-8.136-1.036-9.792,2.672c-0.632,1.416,1.458,2.651,2.096,1.225
			c0.959-2.148,3.872-4.088,5.981-2.181C83.976,44.358,85.697,42.647,84.534,41.595L84.534,41.595z"/>
	</g>
</g>
<g>
	<g>
		<path fill="#E8A700" d="M84.335,44.629c-5.525,5.267-2.939,13.794,2.123,18.4c1.154,1.051,2.875-0.661,1.716-1.716
			c-4.07-3.703-6.694-10.61-2.123-14.968C87.186,45.263,85.467,43.55,84.335,44.629L84.335,44.629z"/>
	</g>
</g>
<g>
	<g>
		<path fill="#E8A700" d="M88.27,43.079c0.823,4.609,5.229,7.897,9.644,8.734c1.529,0.29,2.182-2.049,0.646-2.34
			c-3.656-0.693-7.263-3.195-7.95-7.04C90.335,40.895,87.997,41.549,88.27,43.079L88.27,43.079z"/>
	</g>
</g>
<g>
	<g>
		<path fill="#E8A700" d="M87.151,39.122c0.269-0.588,0.342-1.241,0.607-1.82c0.275-0.602,0.177-1.301-0.436-1.66
			c-0.527-0.309-1.385-0.166-1.66,0.436c-0.269,0.588-0.342,1.242-0.607,1.82c-0.275,0.601-0.177,1.301,0.436,1.66
			C86.018,39.866,86.875,39.724,87.151,39.122L87.151,39.122z"/>
	</g>
</g>
<g>
	<g>
		<path fill="#E8A700" d="M30.591,101.708c0.238,2.177,1.509,4.272,2.066,6.39c0.397,1.512,2.738,0.87,2.34-0.646
			c-0.299-1.137-0.715-2.243-1.112-3.348c-0.187-0.52-0.374-1.039-0.558-1.559c-0.07-0.199-0.138-0.399-0.204-0.6
			c-0.028-0.085-0.153-0.675-0.105-0.238C32.85,100.169,30.421,100.153,30.591,101.708L30.591,101.708z"/>
	</g>
</g>
<g>
	<g>
		<path fill="#E8A700" d="M67.562,113.633c-5.665,12.393-8.695,27.126-5.38,40.572c0.375,1.52,2.714,0.875,2.34-0.645
			c-3.149-12.776-0.25-26.92,5.136-38.703C70.304,113.445,68.212,112.211,67.562,113.633L67.562,113.633z"/>
	</g>
</g>
<g>
	<g>
		<path d="M20.803,68.902c1.148-0.412,2.098-1.21,3.235-1.618c0.622-0.223,1.033-0.818,0.847-1.493
			c-0.165-0.601-0.87-1.071-1.493-0.847c-1.148,0.412-2.098,1.209-3.235,1.618c-0.622,0.223-1.033,0.818-0.847,1.493
			C19.475,68.656,20.18,69.126,20.803,68.902L20.803,68.902z"/>
	</g>
</g>
<g>
	<g>
		<path fill="#E8A700" d="M44.104,102.318c2.86,4.806,3.554,10.578,3.677,16.072c0.127,5.697-0.562,11.5-2.181,16.968
			c-0.445,1.504,1.897,2.142,2.34,0.645c1.685-5.689,2.327-11.692,2.268-17.613c-0.059-5.888-0.954-12.164-4.008-17.296
			C45.4,99.75,43.302,100.97,44.104,102.318L44.104,102.318z"/>
	</g>
</g>
</svg>
