<?xml version="1.0" encoding="utf-8"?>
<!-- Generator: Adobe Illustrator 16.0.4, SVG Export Plug-In . SVG Version: 6.00 Build 0)  -->
<!DOCTYPE svg PUBLIC "-//W3C//DTD SVG 1.1//EN" "http://www.w3.org/Graphics/SVG/1.1/DTD/svg11.dtd">
<svg version="1.1" id="Layer_1" xmlns="http://www.w3.org/2000/svg" xmlns:xlink="http://www.w3.org/1999/xlink" x="0px" y="0px"
	 width="300px" height="250px" viewBox="0 0 300 250" enable-background="new 0 0 300 250" xml:space="preserve">
<g>
	<g>
		<path fill="#004A00" d="M113.312,25.736c-7.42,24.633-13.86,49.341-17.107,74.9c-3.509,27.615-4.562,55.484-5.438,83.284
			c-0.061,1.936,2.939,1.93,3,0c0.835-26.528,1.928-53.062,4.972-79.443c3.072-26.625,9.75-52.331,17.465-77.943
			C116.764,24.676,113.868,23.889,113.312,25.736L113.312,25.736z"/>
	</g>
</g>
<g>
	<g>
		<path fill="#004A00" d="M121.075,36.104c-27.497,39.531-47.081,84.471-52.454,132.591c-0.214,1.921,2.788,1.9,3,0
			c5.311-47.57,24.875-92.016,52.044-131.076C124.773,36.026,122.171,34.529,121.075,36.104L121.075,36.104z"/>
	</g>
</g>
<g>
	<g>
		<path fill="#004A00" d="M91.858,28.61c1.603,10.939-0.383,22.013-1.562,32.896c-1.317,12.158-1.479,24.507-2.094,36.719
			c-1.234,24.512-2.252,49.039-2.281,73.585c-0.002,1.935,2.998,1.935,3,0c0.029-25.212,1.113-50.398,2.381-75.574
			c0.611-12.15,0.874-24.386,2.184-36.484c1.153-10.645,2.832-21.247,1.264-31.94C94.471,25.904,91.581,26.718,91.858,28.61
			L91.858,28.61z"/>
	</g>
</g>
<g>
	<g>
		<path fill="#004A00" d="M128.341,51.329c-26.722,34.645-36.762,77.715-37.229,120.826c-0.021,1.936,2.979,1.934,3,0
			c0.461-42.64,10.394-85.052,36.82-119.312C132.114,51.312,129.505,49.821,128.341,51.329L128.341,51.329z"/>
	</g>
</g>
<g>
	<g>
		<path fill="#004A00" d="M59.332,37.953c1.667,6.171,1.793,12.548,2.32,18.883c0.519,6.249,1.304,12.499,2.09,18.72
			c1.542,12.21,3.823,24.286,5.875,36.415c4.4,25.999,8.327,52.125,9.039,78.524c0.052,1.931,3.052,1.936,3,0
			c-0.702-26.025-4.528-51.784-8.825-77.421c-2.201-13.133-4.659-26.196-6.328-39.414c-1.514-11.983-1.123-24.827-4.278-36.505
			C61.721,35.289,58.827,36.082,59.332,37.953L59.332,37.953z"/>
	</g>
</g>
<g>
	<g>
		<path fill="#006500" d="M73.173,34.041c-14.344,40.558-13.532,84.282-15.278,126.697c-0.08,1.936,2.921,1.928,3,0
			c1.735-42.164,0.913-85.583,15.171-125.899C76.712,33.01,73.813,32.23,73.173,34.041L73.173,34.041z"/>
	</g>
</g>
<g>
	<g>
		<path fill="#006500" d="M120.231,36.809c-7.486,21.406-20.31,40.521-28.375,61.757c-8.306,21.869-13.288,44.9-16.315,68.054
			c-0.25,1.914,2.753,1.89,3,0c3-22.938,8.147-45.55,16.208-67.256c7.916-21.316,20.878-40.32,28.375-61.756
			C123.765,35.775,120.866,34.995,120.231,36.809L120.231,36.809z"/>
	</g>
</g>
<g>
	<g>
		<path fill="#006500" d="M71.735,27.865c1.969,22.521,7.946,44.279,12.981,66.239c4.925,21.474,9.703,43.043,17.868,63.57
			c0.706,1.775,3.608,1.002,2.893-0.797c-7.938-19.956-12.69-40.905-17.46-61.789c-5.09-22.284-11.285-44.373-13.282-67.224
			C74.568,25.954,71.567,25.937,71.735,27.865L71.735,27.865z"/>
	</g>
</g>
<g>
	<g>
		<path fill="#006500" d="M99.817,26.88c2.208,5.27,1.061,10.822,0.429,16.295c-0.829,7.182-2.515,14.267-4.327,21.253
			c-3.272,12.618-7.467,24.973-10.472,37.663c-6.252,26.4-12.461,52.855-21.962,78.317c-0.678,1.816,2.223,2.593,2.893,0.797
			c9.723-26.055,16.002-53.148,22.4-80.162c3.143-13.27,7.626-26.186,10.953-39.411c1.531-6.084,2.698-12.239,3.516-18.458
			c0.75-5.698,1.755-11.625-0.536-17.093C101.974,24.326,99.069,25.096,99.817,26.88L99.817,26.88z"/>
	</g>
</g>
<g>
	<g>
		<path fill="#006500" d="M53.05,39.284c-6.486,48.784-2.674,98.663,11.818,145.727c0.567,1.844,3.463,1.057,2.893-0.797
			C53.34,137.379,49.597,87.825,56.05,39.284C56.305,37.371,53.301,37.395,53.05,39.284L53.05,39.284z"/>
	</g>
</g>
<g>
	<g>
		<path fill="#2D7C00" d="M90.128,43.037c-4.874,20.365-6.466,41.327-8.06,62.152c-1.669,21.814-2.362,43.771-0.298,65.582
			c0.181,1.908,3.182,1.926,3,0c-2.007-21.209-1.358-42.516,0.161-63.734c1.516-21.163,3.139-42.519,8.089-63.202
			C93.471,41.954,90.578,41.156,90.128,43.037L90.128,43.037z"/>
	</g>
</g>
<g>
	<g>
		<path fill="#2D7C00" d="M102.531,38.938c2.51,42.654,8.961,84.932,15.971,127.042c0.317,1.905,3.208,1.095,2.893-0.797
			c-6.965-41.849-13.369-83.856-15.863-126.245C105.418,37.015,102.417,37.004,102.531,38.938L102.531,38.938z"/>
	</g>
</g>
<g>
	<g>
		<path fill="#2D7C00" d="M62.739,39.63c-1.004,21.283,0.178,42.589-1.159,63.866c-1.373,21.84-3.799,43.624-7.784,65.147
			c-0.35,1.891,2.541,2.698,2.893,0.797c3.917-21.161,6.302-42.551,7.765-64.014c1.494-21.92,0.25-43.867,1.286-65.796
			C65.83,37.695,62.83,37.704,62.739,39.63L62.739,39.63z"/>
	</g>
</g>
<g>
	<g>
		<path fill="#2D7C00" d="M116.119,52.064c-15.388,16.982-26.953,36.846-40.373,55.321c-13.179,18.144-28.233,35.644-36.483,56.76
			c-0.705,1.804,2.197,2.578,2.893,0.797c7.96-20.372,22.565-37.259,35.265-54.766c13.556-18.688,25.266-38.825,40.82-55.99
			C119.536,52.755,117.42,50.627,116.119,52.064L116.119,52.064z"/>
	</g>
</g>
<g>
	<g>
		<path fill="#2D7C00" d="M118.542,76.286c-14.95,13.24-23.529,32.058-30.931,50.213c-8.786,21.553-17.646,43.986-18.99,67.456
			c-0.111,1.934,2.89,1.923,3,0c1.301-22.733,9.952-44.366,18.329-65.286c7.261-18.132,15.821-37.073,30.713-50.262
			C122.114,77.122,119.984,75.008,118.542,76.286L118.542,76.286z"/>
	</g>
</g>
<g>
	<g>
		<path fill="#2D7C00" d="M55.18,42.451c7.262,46.621,15.314,93.176,27.682,138.754c0.506,1.865,3.4,1.073,2.893-0.797
			C73.388,134.829,65.335,88.274,58.073,41.653C57.776,39.746,54.885,40.559,55.18,42.451L55.18,42.451z"/>
	</g>
</g>
<g>
	<g>
		<path fill="#2D7C00" d="M80.732,41.014c2.553,22.791-1.108,45.96-2.357,68.738c-1.323,24.13-5.351,48.019-7.331,72.093
			c-0.159,1.93,2.843,1.914,3,0c1.98-24.08,5.87-47.966,7.331-72.093c1.377-22.737,4.906-45.988,2.357-68.738
			C83.519,39.113,80.517,39.093,80.732,41.014L80.732,41.014z"/>
	</g>
</g>
<g>
	<g>
		<path fill="#2D7C00" d="M77.325,37.155C65.53,84.368,60.378,132.942,58.586,181.498c-0.071,1.936,2.929,1.929,3,0
			c1.783-48.297,6.899-96.584,18.631-143.545C80.687,36.075,77.794,35.279,77.325,37.155L77.325,37.155z"/>
	</g>
</g>
<g>
	<g>
		<path fill="#2D5200" d="M72.427,37.899c2.2,21.874-2.328,43.781-1.163,65.726c1.157,21.804,5.886,43.246,10.905,64.431
			c0.446,1.883,3.338,1.084,2.893-0.797c-4.969-20.978-9.466-42.066-10.797-63.634c-1.355-21.955,3.364-43.829,1.163-65.726
			C75.236,35.994,72.234,35.975,72.427,37.899L72.427,37.899z"/>
	</g>
</g>
<g>
	<g>
		<path fill="#2D5200" d="M76.633,43.037c-1.658,8.864,0.187,17.566,2.842,26.046c3.265,10.425,7.587,20.619,11.62,30.763
			c8.927,22.456,18.507,44.652,26.368,67.518c0.625,1.818,3.523,1.037,2.893-0.797c-7.242-21.066-15.913-41.587-24.25-62.233
			c-3.993-9.89-7.864-19.834-11.582-29.831c-3.6-9.68-6.945-20.267-4.999-30.668C79.88,41.944,76.989,41.137,76.633,43.037
			L76.633,43.037z"/>
	</g>
</g>
<g>
	<g>
		<path fill="#2D5200" d="M117.615,53.405c-9.064,21.361-26.642,37.768-38.427,57.562c-12.56,21.092-22.338,43.804-29.198,67.365
			c-0.542,1.861,2.353,2.65,2.893,0.797c6.975-23.955,17.054-46.762,29.815-68.192c11.5-19.312,28.648-35.139,37.508-56.017
			C120.952,53.161,118.369,51.63,117.615,53.405L117.615,53.405z"/>
	</g>
</g>
<g>
	<g>
		<path fill="#1A5200" d="M70.405,36.223c6.621,16.465,7.791,34.556,11.873,51.712c4.572,19.215,10.426,38.098,15.117,57.284
			c0.459,1.879,3.352,1.082,2.893-0.797C95.748,125.855,90.195,107.557,85.622,89c-4.372-17.736-5.469-36.528-12.324-53.575
			C72.585,33.654,69.682,34.426,70.405,36.223L70.405,36.223z"/>
	</g>
</g>
<g>
	<g>
		<path fill="#1A5200" d="M109.105,37.899c0.437,5.688-1.25,11.044-2.368,16.556c-1.106,5.453-2.375,10.88-3.641,16.297
			c-2.577,11.031-5.803,21.852-9.15,32.669c-6.906,22.323-14.176,44.533-20.773,66.951c-0.548,1.86,2.348,2.648,2.893,0.797
			c6.782-23.044,14.253-45.876,21.353-68.823c3.337-10.786,6.421-21.596,8.99-32.594c1.255-5.373,2.463-10.763,3.56-16.171
			c1.067-5.263,2.553-10.261,2.137-15.683C111.958,35.983,108.957,35.969,109.105,37.899L109.105,37.899z"/>
	</g>
</g>
<g>
	<g>
		<path fill="#1A5200" d="M53.45,40.615c-4.37,23.212-4.685,46.938-5.347,70.478c-0.662,23.551-0.924,47.29,3.963,70.458
			c0.399,1.893,3.291,1.09,2.893-0.797c-4.831-22.906-4.494-46.382-3.855-69.661c0.638-23.262,0.922-46.744,5.239-69.68
			C56.698,39.522,53.807,38.715,53.45,40.615L53.45,40.615z"/>
	</g>
</g>
<g>
	<g>
		<path fill="#1A5200" d="M36.441,42.744c3.899,48.631,5.175,98.977,25.118,144.355c0.777,1.768,3.361,0.239,2.591-1.514
			c-19.708-44.845-20.855-94.79-24.708-142.842C39.288,40.83,36.287,40.814,36.441,42.744L36.441,42.744z"/>
	</g>
</g>
<g>
	<g>
		<path fill="#1A5200" d="M71.043,44.128c-0.359,10.626-5.014,21.505-7.923,31.655c-3.179,11.088-6.333,22.188-9.72,33.215
			c-6.343,20.654-13.296,41.161-15.229,62.812c-0.172,1.928,2.83,1.911,3,0c1.961-21.971,9.228-42.823,15.663-63.776
			c3.4-11.07,6.534-22.227,9.725-33.359c2.833-9.882,7.133-20.185,7.484-30.546C74.109,42.192,71.109,42.199,71.043,44.128
			L71.043,44.128z"/>
	</g>
</g>
<g>
	<g>
		<path fill="#1A5200" d="M26.114,37.606c2.466,6.078,3.542,12.58,5.854,18.717c2.264,6.009,4.797,11.917,7.334,17.814
			c5.654,13.14,11.135,26.244,15.814,39.768c8.515,24.612,16.208,49.642,28.933,72.502c0.941,1.69,3.532,0.178,2.591-1.514
			c-12.887-23.15-20.595-48.557-29.217-73.479c-4.151-12-8.98-23.672-14.028-35.317c-2.953-6.813-5.866-13.641-8.535-20.571
			c-2.358-6.124-3.387-12.636-5.854-18.718C28.29,35.041,25.386,35.812,26.114,37.606L26.114,37.606z"/>
	</g>
</g>
<g>
	<g>
		<path fill="#1A6900" d="M77.271,32.709c0.117,12.85-2.063,25.483-4.283,38.097c-2.196,12.472-3.818,24.946-5.052,37.55
			c-2.658,27.158-4.182,54.437-8.604,81.394c-0.311,1.892,2.58,2.703,2.893,0.797c4.259-25.96,5.93-52.222,8.351-78.392
			c1.258-13.606,2.938-27.093,5.305-40.552c2.264-12.873,4.51-25.779,4.391-38.894C80.254,30.776,77.254,30.774,77.271,32.709
			L77.271,32.709z"/>
	</g>
</g>
<g>
	<g>
		<path fill="#1A6900" d="M25.422,47.641c4.366,24.421,7.812,48.912,13.691,73.039c2.933,12.035,5.891,24.063,8.656,36.137
			c2.756,12.034,4.457,24.555,8.794,36.152c0.671,1.795,3.572,1.019,2.893-0.797c-4.111-10.993-5.789-22.812-8.357-34.228
			c-2.722-12.097-5.692-24.137-8.634-36.182C36.418,97,32.797,71.911,28.315,46.843C27.975,44.941,25.084,45.75,25.422,47.641
			L25.422,47.641z"/>
	</g>
</g>
<g>
	<g>
		<path fill="#1A6900" d="M104.261,53.471c2.093,22.488-2.41,44.559-4.925,66.802c-1.314,11.618-2.855,23.206-3.814,34.862
			c-0.855,10.406-2.796,21.636-0.55,31.952c0.412,1.891,3.303,1.089,2.893-0.797c-2.178-10.004-0.111-21.057,0.657-31.155
			c0.887-11.657,2.474-23.252,3.814-34.862c2.564-22.226,7.018-44.328,4.925-66.802C107.083,51.562,104.082,51.544,104.261,53.471
			L104.261,53.471z"/>
	</g>
</g>
<g>
	<g>
		<path fill="#1A6900" d="M125.422,58.608c-14.494,45.304-26.923,91.28-35.64,138.063c-0.353,1.891,2.539,2.697,2.893,0.797
			c8.717-46.782,21.146-92.758,35.64-138.062C128.906,57.558,126.009,56.773,125.422,58.608L125.422,58.608z"/>
	</g>
</g>
<g>
	<g>
		<path fill="#1A6900" d="M54.488,53.072c-4.965,22.2-5.962,45.044-10.79,67.282c-5.051,23.272-9.632,46.673-11.063,70.487
			c-0.116,1.934,2.884,1.922,3,0c1.416-23.554,5.979-46.671,10.957-69.689c4.81-22.241,5.825-45.083,10.789-67.282
			C57.802,51.985,54.91,51.184,54.488,53.072L54.488,53.072z"/>
	</g>
</g>
<g>
	<g>
		<path fill="#1A6900" d="M40.593,55.893c-1.114,21.023,3.333,42.064,6.327,62.782c3.064,21.205,6.75,42.379,13.104,62.876
			c0.571,1.842,3.467,1.056,2.893-0.797c-5.994-19.339-9.582-39.268-12.573-59.261c-3.229-21.591-7.912-43.687-6.751-65.601
			C43.696,53.958,40.695,53.968,40.593,55.893L40.593,55.893z"/>
	</g>
</g>
<g>
	<g>
		<path fill="#004200" d="M57.642,50.379c2.965,3.227,3.61,9.971,4.574,14.084c1.127,4.806,1.916,9.69,2.664,14.566
			c1.625,10.598,3.06,21.183,5.058,31.723c3.971,20.95,8.849,41.719,11.886,62.839c0.274,1.909,3.165,1.095,2.893-0.797
			c-3.22-22.391-8.454-44.409-12.599-66.633C70.161,95.673,68.88,85.1,67.199,74.568c-0.875-5.479-2.003-10.906-3.433-16.267
			c-0.935-3.506-1.477-7.295-4.003-10.044C58.452,46.831,56.335,48.958,57.642,50.379L57.642,50.379z"/>
	</g>
</g>
<g>
	<g>
		<path fill="#004200" d="M108.467,50.996c-5.019,23.188-13.29,45.706-20.457,68.292c-7.499,23.633-15.991,46.965-25.759,69.758
			c-0.753,1.758,1.831,3.287,2.591,1.514c9.622-22.451,17.995-45.396,25.477-68.645c7.448-23.142,15.893-46.336,21.041-70.122
			C111.768,49.907,108.876,49.105,108.467,50.996L108.467,50.996z"/>
	</g>
</g>
<g>
	<g>
		<path fill="#004200" d="M26.407,45.166c-0.407,47.18-4.804,94.844,3.86,141.575c0.352,1.9,3.243,1.094,2.893-0.797
			c-8.61-46.446-4.157-93.888-3.752-140.778C29.423,43.231,26.423,43.232,26.407,45.166L26.407,45.166z"/>
	</g>
</g>
<g>
	<g>
		<path fill="#004200" d="M61.213,48.562c-8.301,18.083-8.298,39.146-10.613,58.592c-3.048,25.6-4.833,51.344-5.508,77.113
			c-0.051,1.936,2.949,1.931,3,0c0.623-23.788,2.239-47.527,4.83-71.181c1.125-10.27,2.297-20.53,3.393-30.803
			c1.169-10.962,2.854-22.108,7.49-32.207C64.605,48.331,62.02,46.805,61.213,48.562L61.213,48.562z"/>
	</g>
</g>
<g>
	<g>
		<path fill="#004200" d="M12.797,134.785c2.175-16.493,14.437-32.001,25.019-44.219c10.677-12.327,23.475-22.651,36.523-32.34
			c1.534-1.14,0.041-3.746-1.515-2.591C58.611,66.19,44.965,77.461,33.492,91.018c-10.438,12.333-21.532,27.368-23.694,43.768
			C9.545,136.699,12.548,136.675,12.797,134.785L12.797,134.785z"/>
	</g>
</g>
<g>
	<g>
		<path fill="#004200" d="M81.77,51.048c1.395,11.208,0.479,22.426-0.275,33.646c-0.751,11.183-0.419,22.159,0.382,33.327
			c1.587,22.11,4.473,44.277,10.673,65.605c0.539,1.854,3.434,1.064,2.893-0.797c-6.134-21.103-8.927-42.943-10.566-64.809
			c-0.837-11.167-1.103-22.146-0.382-33.327c0.723-11.229,1.67-22.429,0.275-33.646C84.535,49.155,81.532,49.132,81.77,51.048
			L81.77,51.048z"/>
	</g>
</g>
<g>
	<g>
		<path fill="#004200" d="M103.428,62.187c8.089,16.922,7.373,37.729,9.322,56.054c2.396,22.525,2.891,45.205,5.006,67.755
			c0.179,1.909,3.181,1.927,3,0c-2.176-23.193-2.746-46.508-5.21-69.676c-1.951-18.333-1.424-38.696-9.527-55.648
			C105.185,58.927,102.598,60.45,103.428,62.187L103.428,62.187z"/>
	</g>
</g>
<g>
	<g>
		<path fill="#005600" d="M55.872,41.413c7.224,18.668,8.454,39.471,11.41,59.118c3.352,22.277,6.782,44.542,10.043,66.833
			c0.279,1.909,3.169,1.095,2.893-0.797c-3.165-21.636-6.485-43.248-9.747-64.869c-3.057-20.263-4.253-41.826-11.706-61.084
			C58.074,38.831,55.173,39.605,55.872,41.413L55.872,41.413z"/>
	</g>
</g>
<g>
	<g>
		<path fill="#005600" d="M113.604,52.086c0.772,9.428-0.496,18.75-1.916,28.059c-1.423,9.332-2.462,18.601-3.195,28.014
			c-1.57,20.159-2.716,40.351-3.886,60.536c-0.112,1.934,2.889,1.923,3,0c1.17-20.187,2.341-40.374,3.886-60.536
			c0.747-9.748,1.889-19.353,3.363-29.017c1.367-8.963,2.491-17.982,1.748-27.056C116.447,50.172,113.446,50.157,113.604,52.086
			L113.604,52.086z"/>
	</g>
</g>
<g>
	<g>
		<path fill="#005600" d="M128.23,81.822c-4.966,5.205-5.805,14.306-7.652,20.975c-2.733,9.863-5.477,19.718-8.46,29.508
			c-5.739,18.835-11.167,37.776-18.529,56.062c-0.723,1.796,2.18,2.568,2.893,0.797c6.886-17.102,12.104-34.782,17.426-52.416
			c2.579-8.547,5.083-17.101,7.488-25.699c1.22-4.36,2.43-8.723,3.633-13.088c1.25-4.534,1.976-10.508,5.324-14.017
			C131.687,82.544,129.568,80.419,128.23,81.822L128.23,81.822z"/>
	</g>
</g>
<g>
	<g>
		<path fill="#005600" d="M42.028,63.94c-3.955,2.13-2.184,11.407-1.9,14.754c0.815,9.632,2.471,19.209,4.146,28.722
			c4.958,28.162,10.516,56.225,14.712,84.516c0.283,1.908,3.173,1.095,2.893-0.797c-3.932-26.51-8.927-52.867-13.759-79.225
			c-1.609-8.776-3.123-17.577-4.253-26.429c-0.503-3.943-0.907-7.905-1.066-11.878c-0.049-1.225-0.622-6.337,0.743-7.072
			C45.246,65.613,43.731,63.023,42.028,63.94L42.028,63.94z"/>
	</g>
</g>
<g>
	<g>
		<path fill="#005600" d="M30.045,147.189c-3.882-9.431,3.726-21.444,8.389-29.396c5.16-8.8,11.437-16.91,17.412-25.158
			c13.107-18.091,27.673-35.068,40.138-53.633c-0.914-0.12-1.828-0.239-2.742-0.358c2.132,11.279-0.164,22.92-1.681,34.129
			c-1.493,11.029-2.477,22.174-3.42,33.263c-2.011,23.636-2.135,47.605,4.063,70.669c0.501,1.867,3.396,1.074,2.893-0.797
			c-6.306-23.467-5.84-47.723-3.796-71.739c1.008-11.851,2.183-23.731,3.832-35.51c1.427-10.197,2.936-20.584,1.002-30.813
			c-0.26-1.374-2.082-1.341-2.742-0.358c-13.072,19.471-28.29,37.368-42.085,56.314c-6.37,8.748-12.794,17.443-18.003,26.953
			c-4.235,7.731-9.797,18.379-6.152,27.231C27.878,149.75,30.782,148.979,30.045,147.189L30.045,147.189z"/>
	</g>
</g>
<g>
	<g>
		<path fill="#003500" d="M90.82,49.266c-7.37,42.453-14.825,85.006-17.355,128.08c-0.114,1.934,2.887,1.923,3,0
			c2.515-42.809,9.924-85.091,17.248-127.282C94.042,48.172,91.15,47.362,90.82,49.266L90.82,49.266z"/>
	</g>
</g>
<g>
	<g>
		<path fill="#003500" d="M22.946,53.471c-0.622,46.533,3.76,92.915,8.997,139.101c0.215,1.899,3.218,1.921,3,0
			c-5.236-46.186-9.619-92.567-8.997-139.101C25.972,51.535,22.972,51.538,22.946,53.471L22.946,53.471z"/>
	</g>
</g>
<g>
	<g>
		<path fill="#003500" d="M74.157,63.851c2.786,21.891,3.062,43.999,6.141,65.864c2.534,17.992,5.647,36.921,15.518,52.54
			c1.03,1.631,3.627,0.127,2.591-1.514c-9.735-15.404-12.683-34.091-15.215-51.823c-3.084-21.592-3.282-43.442-6.034-65.067
			C76.917,61.959,73.914,61.936,74.157,63.851L74.157,63.851z"/>
	</g>
</g>
<g>
	<g>
		<path fill="#003500" d="M45.837,65.875c-1.419,5.743-0.162,11.329,1.079,16.989c1.639,7.477,3.479,14.816,5.978,22.06
			c4.438,12.863,11.141,24.609,18.122,36.225c11.836,19.696,26.578,39.988,49.226,47.679c1.837,0.624,2.619-2.274,0.798-2.893
			c-21.908-7.439-35.942-27.348-47.433-46.3c-6.282-10.36-12.229-20.846-16.602-32.175c-2.35-6.086-4.179-12.363-5.729-18.696
			c-1.697-6.933-4.298-15.002-2.546-22.091C49.194,64.794,46.301,63.997,45.837,65.875L45.837,65.875z"/>
	</g>
</g>
<g>
	<g>
		<path fill="#005500" d="M86.473,35.889c4.647,6.235,2.716,16.994,2.571,24.293c-0.252,12.677-0.326,25.344-0.768,38.019
			c-0.912,26.149-2.318,52.282-2.353,78.454c-0.002,1.935,2.998,1.935,3,0c0.037-27.475,1.56-54.911,2.487-82.363
			c0.42-12.421,0.34-24.85,0.716-37.268c0.211-6.964,1.394-16.669-3.062-22.649C87.921,32.842,85.315,34.335,86.473,35.889
			L86.473,35.889z"/>
	</g>
</g>
<g>
	<g>
		<path fill="#005500" d="M36.787,46.896c-0.034,46.484-2.368,92.967-0.692,139.447c0.069,1.929,3.07,1.936,3,0
			c-1.676-46.479,0.658-92.962,0.692-139.447C39.789,44.961,36.789,44.961,36.787,46.896L36.787,46.896z"/>
	</g>
</g>
<g>
	<g>
		<path fill="#005500" d="M17.438,156.304c9.615-13.217,15.777-28.99,23.065-43.54C48.559,96.68,56.711,80.645,64.15,64.263
			c0.793-1.748-1.792-3.274-2.591-1.515c-7.173,15.798-15.002,31.279-22.785,46.782c-7.579,15.097-13.948,31.542-23.928,45.26
			C13.707,156.357,16.311,157.852,17.438,156.304L17.438,156.304z"/>
	</g>
</g>
<g>
	<g>
		<path fill="#005500" d="M65.507,54.854c3.294,25.757,7.882,51.361,10.803,77.162c2.94,25.98,3.741,52.147,5.806,78.201
			c0.152,1.915,3.153,1.93,3,0c-2.065-26.059-2.968-52.205-5.806-78.201c-2.818-25.809-7.509-51.409-10.803-77.162
			C68.265,52.963,65.262,52.939,65.507,54.854L65.507,54.854z"/>
	</g>
</g>
<g>
	<g>
		<path fill="#005500" d="M112.62,70.132c2.539,10.608,2.229,21.529,1.902,32.354c-0.332,10.984-0.02,21.849,0.619,32.819
			c1.361,23.378,3.623,46.693,5.038,70.068c0.116,1.922,3.117,1.934,3,0c-1.454-24.023-3.751-47.986-5.151-72.013
			c-0.635-10.914-0.782-21.71-0.452-32.635c0.317-10.514,0.401-21.102-2.062-31.392C115.062,67.454,112.169,68.251,112.62,70.132
			L112.62,70.132z"/>
	</g>
</g>
<g>
	<g>
		<path fill="#004B00" d="M99.275,7.039c-2.946,4.158-3.279,10.018-3.319,14.944c-0.016,1.935,2.984,1.934,3,0
			c0.036-4.438,0.255-9.684,2.91-13.43C102.987,6.971,100.384,5.474,99.275,7.039L99.275,7.039z"/>
	</g>
</g>
<g>
	<g>
		<path fill="#004B00" d="M98.779,8.887c1.359,8.359-0.638,16.52-1.092,24.861c-0.105,1.934,2.895,1.924,3,0
			c0.471-8.655,2.395-16.988,0.984-25.659C101.361,6.183,98.471,6.995,98.779,8.887L98.779,8.887z"/>
	</g>
</g>
<g>
	<g>
		<path fill="#004B00" d="M95.665,12.587c-1.684,7.463-0.056,14.925,2.768,21.905c0.716,1.769,3.619,0.997,2.893-0.798
			c-2.608-6.447-4.331-13.382-2.768-20.309C98.982,11.501,96.09,10.701,95.665,12.587L95.665,12.587z"/>
	</g>
</g>
<g>
	<g>
		<path fill="#004B00" d="M96.995,32.709c1.716,18.833,2.726,38.249-3.752,56.348c-0.654,1.826,2.246,2.605,2.893,0.798
			c6.565-18.34,5.599-38.058,3.86-57.146C99.82,30.799,96.819,30.782,96.995,32.709L96.995,32.709z"/>
	</g>
</g>
<g>
	<g>
		<path fill="#224B00" d="M29.521,20.945c-6.398,53.141,4.604,111.117,39.54,152.963c1.241,1.487,3.352-0.647,2.121-2.121
			C36.754,130.549,26.224,73.245,32.521,20.945C32.752,19.027,29.749,19.049,29.521,20.945L29.521,20.945z"/>
	</g>
</g>
<g>
	<g>
		<path fill="#224B00" d="M78.86,54.573c4.227,6.103,2.531,15.292,1.496,22.136c-1.194,7.897-2.461,15.768-3.599,23.677
			c-3.243,22.547-7.499,44.941-12.235,67.219c-0.401,1.887,2.49,2.689,2.893,0.797c5.01-23.563,9.417-47.248,12.79-71.104
			c1.137-8.047,2.605-16.053,3.65-24.11c0.84-6.48,1.525-14.457-2.403-20.128C80.357,51.481,77.756,52.979,78.86,54.573
			L78.86,54.573z"/>
	</g>
</g>
<g>
	<g>
		<path fill="#224B00" d="M32.147,187.1c5.211,8.34,15.025,5.754,22.556,2.352c10.034-4.534,19.096-11.811,27.922-18.315
			c24.824-18.294,44.043-44.758,48.458-75.744c0.27-1.892-2.621-2.707-2.893-0.798c-4.059,28.489-20.623,52.489-42.57,70.449
			c-7.684,6.287-16.168,12.288-24.606,17.548c-6.656,4.149-20.449,12.32-26.276,2.995C33.716,183.949,31.119,185.454,32.147,187.1
			L32.147,187.1z"/>
	</g>
</g>
<g>
	<g>
		<path fill="#224B00" d="M121.962,53.523c5.429,19.015,4,39.957,3.563,59.525c-0.485,21.703-2.036,43.373-3.962,64.99
			c-0.172,1.928,2.83,1.911,3,0c1.927-21.624,3.417-43.283,3.962-64.99c0.499-19.835,1.835-41.041-3.67-60.323
			C124.324,50.869,121.43,51.659,121.962,53.523L121.962,53.523z"/>
	</g>
</g>
<g>
	<g>
		<path fill="#224B00" d="M37.737,219.005c1.312,8.494,1.456,17.11,2.768,25.605c0.294,1.907,3.185,1.095,2.893-0.797
			c-1.312-8.494-1.456-17.11-2.768-25.605C40.335,216.301,37.444,217.113,37.737,219.005L37.737,219.005z"/>
	</g>
</g>
<g>
	<g>
		<path fill="#224B00" d="M41.259,233.255c3.599,0.212,6.867-1.284,10.381-1.729c1.892-0.24,1.916-3.243,0-3
			c-3.482,0.441-6.839,1.938-10.381,1.729C39.326,230.141,39.337,233.142,41.259,233.255L41.259,233.255z"/>
	</g>
</g>
<g>
	<g>
		<path fill="#224B00" d="M47.372,213.762c-0.278,9.436,1.119,19.902,6.087,28.093c1.002,1.651,3.597,0.145,2.591-1.514
			c-4.707-7.76-5.941-17.65-5.678-26.579C50.429,211.826,47.429,211.832,47.372,213.762L47.372,213.762z"/>
	</g>
</g>
<g>
	<g>
		<path fill="#224B00" d="M64.354,226.846c-1.624-2.953-4.814-4.887-7.61-2.098c-2.232,2.228-2.116,6.221-1.187,8.987
			c1.015,3.022,3.553,4.528,6.529,3.121c2.482-1.173,2.444-6.299,2.473-8.562c0.024-1.952-2.867-1.909-3,0
			c-0.285,4.084,2.136,7.489,6.344,7.729c1.934,0.11,1.923-2.891,0-3c-2.627-0.149-3.507-2.393-3.344-4.729c-1,0-2,0-3,0
			c-0.019,1.516-0.176,3.025-0.492,4.508c-0.359,1.686-1.465,2.278-2.422,0.574c-0.658-1.171-0.8-2.733-0.66-4.044
			c0.105-0.98,0.399-2.166,1.227-2.8c1.126-0.861,2.145,1.086,2.552,1.826C62.696,230.055,65.287,228.542,64.354,226.846
			L64.354,226.846z"/>
	</g>
</g>
<g>
	<g>
		<path fill="#224B00" d="M68.133,224.835c0.341,4.841,3.219,10.393,8.756,9.563c5.846-0.876,4.961-10.949,4.225-14.807
			c-0.321-1.686-2.976-1.267-2.946,0.398c0.157,8.933,2.339,17.889,6.779,25.671c0.958,1.68,3.551,0.169,2.591-1.514
			c-4.179-7.324-6.223-15.752-6.37-24.157c-0.982,0.133-1.964,0.266-2.946,0.398c0.521,2.73,0.562,5.474,0,8.199
			c-0.688,3.337-3.9,3.329-5.666,0.813c-0.917-1.307-1.312-3.006-1.422-4.566C70.998,222.917,67.997,222.903,68.133,224.835
			L68.133,224.835z"/>
	</g>
</g>
<g>
	<g>
		<path fill="#5F2B1D" d="M172.491,205.868c2.264,4.067,1.317,10.902,1.608,15.437c0.444,6.909,1.304,14.041,2.393,20.884
			c0.303,1.907,3.193,1.095,2.893-0.797c-1.215-7.636-2.091-15.624-2.466-23.354c-0.205-4.231,0.302-9.84-1.838-13.684
			C174.141,202.664,171.549,204.177,172.491,205.868L172.491,205.868z"/>
	</g>
</g>
<g>
	<g>
		<path fill="#5F2B1D" d="M174.54,206.895c0.616-2.587,2.776-2.748,5.031-2.216c2.561,0.604,4.393,2.225,5.316,4.673
			c2.146,5.688-2.879,11.619-8.68,10.869c-1.915-0.248-1.891,2.756,0,3c8.266,1.069,14.696-8.242,11.149-15.745
			c-2.645-5.595-13.744-9.642-15.71-1.378C171.2,207.979,174.093,208.776,174.54,206.895L174.54,206.895z"/>
	</g>
</g>
<g>
	<g>
		<path fill="#5F2B1D" d="M187.884,235.626c1.74-3.511,6.3-2.872,9.379-1.732c0.935,0.346,1.891-0.536,1.898-1.446
			c0.035-3.974-2.276-7.064-6.298-7.537c-3.894-0.458-7.584,3.776-7.814,7.408c-0.482,7.63,11.068,9.608,16.471,7.457
			c1.775-0.707,1.002-3.609-0.797-2.893c-3.588,1.429-8.81,0.838-11.703-1.838c-1.987-1.836-0.564-4.517,0.98-6.099
			c2.875-2.944,6.189,0.363,6.161,3.501c0.633-0.482,1.266-0.964,1.898-1.446c-4.365-1.616-10.414-1.635-12.766,3.111
			C184.438,235.839,187.025,237.359,187.884,235.626L187.884,235.626z"/>
	</g>
</g>
<g>
	<g>
		<path fill="#5F2B1D" d="M199.621,214.108c0.12,9.195,2.093,17.727,6.088,26.016c0.84,1.742,3.426,0.221,2.59-1.514
			c-3.767-7.816-5.564-15.832-5.678-24.502C202.596,212.176,199.596,212.173,199.621,214.108L199.621,214.108z"/>
	</g>
</g>
<g>
	<g>
		<path fill="#5F2B1D" d="M206.941,213.469c0.893,4.22,0.937,8.559,1.854,12.782c1.022,4.715,4.311,8.516,6.257,12.835
			c0.793,1.762,3.378,0.234,2.59-1.514c-1.871-4.153-4.692-7.684-5.954-12.119c-1.176-4.136-0.964-8.578-1.854-12.781
			C209.434,210.779,206.542,211.582,206.941,213.469L206.941,213.469z"/>
	</g>
</g>
<g>
	<g>
		<path fill="#5F2B1D" d="M219.718,232.858c1.755-2.317,5.678-1.884,7.995-1.041c1.069,0.39,2.176-0.808,1.845-1.845
			c-1.586-4.972-6.064-8.162-10.466-4.122c-2.41,2.211-3.828,6.261-1.529,9.011c4.332,5.183,15.578,5.641,21.34,3.033
			c1.761-0.796,0.234-3.381-1.514-2.59c-3.721,1.684-8.945,1.042-12.762,0.117c-1.794-0.435-3.905-1.173-4.975-2.778
			c-0.648-0.972-0.129-2.15,0.352-3.05c0.344-0.583,0.747-1.124,1.209-1.622c2.896-3.407,4.938,1.189,5.452,2.798
			c0.615-0.614,1.23-1.229,1.845-1.845c-3.842-1.398-8.779-1.02-11.382,2.42C215.959,232.889,218.566,234.381,219.718,232.858
			L219.718,232.858z"/>
	</g>
</g>
<g>
	<g>
		<path fill="#5F2B1D" d="M235.812,210.237c-4.458,9.389,7.178,20.126,9.884,28.49c0.593,1.833,3.49,1.049,2.893-0.797
			c-1.32-4.082-3.688-7.751-5.805-11.451c-2.189-3.828-6.549-10.164-4.382-14.729C239.228,210.014,236.642,208.49,235.812,210.237
			L235.812,210.237z"/>
	</g>
</g>
<g>
	<g>
		<path fill="#5F2B1D" d="M232.493,226.564c0.012,2.521,3.874,1.808,5.387,1.673c3.234-0.287,6.449-0.8,9.661-1.265
			c1.909-0.276,1.095-3.166-0.797-2.893c-2.021,0.292-4.041,0.593-6.067,0.848c-1.267,0.159-2.535,0.295-3.808,0.395
			c-0.436,0.034-0.871,0.053-1.308,0.066c-1.5,0.049-0.075-0.317-0.068,1.176C235.483,224.63,232.483,224.63,232.493,226.564
			L232.493,226.564z"/>
	</g>
</g>
<g>
	<g>
		<path fill="#734000" d="M209.399,177.419c4.791-1.812,7.453-6.467,12.015-8.558c2.929-1.342,0.386-5.65-2.523-4.316
			c-4.137,1.896-6.604,6.457-10.821,8.052C205.084,173.727,206.377,178.562,209.399,177.419L209.399,177.419z"/>
	</g>
</g>
<g>
	<g>
		<path fill="#734000" d="M178.642,128.268c1.664,5.082,4.535,9.725,8.256,13.56c2.248,2.317,5.78-1.221,3.535-3.535
			c-3.112-3.208-5.576-7.098-6.969-11.354C182.465,123.888,177.636,125.194,178.642,128.268L178.642,128.268z"/>
	</g>
</g>
<g>
	<g>
		<path fill="#5F2B1D" d="M248.537,119.326c-1.291,5.613-4.718,10.489-7.705,15.32c-1.702,2.75,2.625,5.259,4.316,2.523
			c3.215-5.196,6.821-10.475,8.211-16.514C254.081,117.517,249.26,116.184,248.537,119.326L248.537,119.326z"/>
	</g>
</g>
<g>
	<g>
		<path fill="#5F2B1D" d="M199.31,134.4c2.565,3.357,4.682,7.15,8.003,9.849c2.479,2.015,6.039-1.501,3.535-3.535
			c-3.004-2.44-4.9-5.801-7.222-8.837c-0.825-1.08-2.135-1.65-3.42-0.896C199.14,131.604,198.479,133.314,199.31,134.4L199.31,134.4
			z"/>
	</g>
</g>
<g>
	<g>
		<path fill="#5F2B1D" d="M210.453,108.89c1.527-4.492,3.368-8.876,4.498-13.495c0.765-3.132-4.057-4.46-4.822-1.329
			c-1.129,4.619-2.97,9.002-4.498,13.495C204.59,110.622,209.421,111.925,210.453,108.89L210.453,108.89z"/>
	</g>
</g>
<g>
	<g>
		<path fill="#5F2B1D" d="M236.684,177.083c-0.138,3.813-2.257,7.16-2.076,11.073c0.148,3.21,5.148,3.225,5,0
			c-0.177-3.821,1.938-7.253,2.076-11.073C241.801,173.857,236.8,173.868,236.684,177.083L236.684,177.083z"/>
	</g>
</g>
<g>
	<g>
		<path fill="#735000" d="M217.693,114.491c3.451,2.762,6.886,5.541,10.034,8.65c2.295,2.268,5.832-1.267,3.535-3.535
			c-3.147-3.11-6.582-5.889-10.034-8.65C218.738,108.963,215.176,112.477,217.693,114.491L217.693,114.491z"/>
	</g>
</g>
<g>
	<g>
		<path fill="#735000" d="M234.994,163.973c2.945,2.924,6.063,5.669,9.502,8.003c2.676,1.817,5.174-2.518,2.523-4.316
			c-3.086-2.096-5.847-4.599-8.49-7.222C236.239,158.164,232.703,161.699,234.994,163.973L234.994,163.973z"/>
	</g>
</g>
<g>
	<g>
		<path fill="#735000" d="M198.045,169.779c-1.045-1.007-1.244-3.427-1.543-4.783c-0.48-2.179-0.808-4.389-1.273-6.57
			c-0.674-3.152-5.493-1.814-4.822,1.33c0.878,4.104,0.884,10.457,4.104,13.559C196.831,175.551,200.371,172.02,198.045,169.779
			L198.045,169.779z"/>
	</g>
</g>
<g>
	<g>
		<path fill="#735034" d="M175.899,180.927c3.449-3.153,6.467-6.833,10.221-9.644c2.549-1.907,0.061-6.251-2.523-4.316
			c-4.118,3.082-7.451,6.968-11.232,10.425C169.979,179.571,173.525,183.098,175.899,180.927L175.899,180.927z"/>
	</g>
</g>
<g>
	<g>
		<path fill="#735034" d="M258.918,154.219c0.802,4.248-0.631,8.552-0.435,12.83c0.147,3.21,5.148,3.225,5,0
			c-0.22-4.787,1.158-9.377,0.257-14.16C263.143,149.723,258.324,151.067,258.918,154.219L258.918,154.219z"/>
	</g>
</g>
<g>
	<g>
		<path fill="#735034" d="M227.408,151.797c0.699-3.271,1.861-6.383,3.207-9.438c1.288-2.922-3.02-5.469-4.316-2.523
			c-1.521,3.449-2.921,6.935-3.713,10.631C221.913,153.611,226.733,154.948,227.408,151.797L227.408,151.797z"/>
	</g>
</g>
<g>
	<g>
		<path fill="#735034" d="M179.68,110.966c0.888,3.747,1.282,7.619,1.641,11.446c0.298,3.182,5.301,3.211,5,0
			c-0.398-4.263-0.83-8.603-1.818-12.775C183.759,106.5,178.938,107.831,179.68,110.966L179.68,110.966z"/>
	</g>
</g>
<g>
	<g>
		<path fill="#735034" d="M208.031,127.575c1.421-3.494,3.076-6.886,4.498-10.381c1.215-2.988-3.624-4.275-4.822-1.329
			c-1.421,3.494-3.076,6.886-4.498,10.38C201.994,129.233,206.833,130.521,208.031,127.575L208.031,127.575z"/>
	</g>
</g>
<g>
	<g>
		<path fill="#734000" d="M209.399,108.418c4.791-1.812,7.453-6.466,12.015-8.557c2.929-1.342,0.386-5.65-2.523-4.317
			c-4.137,1.896-6.604,6.458-10.821,8.053C205.084,104.726,206.377,109.561,209.399,108.418L209.399,108.418z"/>
	</g>
</g>
<g>
	<g>
		<path fill="#734000" d="M178.642,59.267c1.664,5.083,4.535,9.725,8.256,13.56c2.248,2.318,5.78-1.221,3.535-3.535
			c-3.112-3.208-5.576-7.098-6.969-11.354C182.465,54.888,177.636,56.194,178.642,59.267L178.642,59.267z"/>
	</g>
</g>
<g>
	<g>
		<path fill="#5F2B1D" d="M248.537,50.326c-1.291,5.613-4.718,10.489-7.705,15.32c-1.702,2.75,2.625,5.259,4.316,2.523
			c3.215-5.197,6.821-10.475,8.211-16.514C254.081,48.517,249.26,47.184,248.537,50.326L248.537,50.326z"/>
	</g>
</g>
<g>
	<g>
		<path fill="#5F2B1D" d="M199.31,65.4c2.565,3.357,4.682,7.15,8.003,9.849c2.479,2.014,6.039-1.501,3.535-3.535
			c-3.004-2.441-4.9-5.801-7.222-8.837c-0.825-1.081-2.135-1.65-3.42-0.897C199.14,62.605,198.479,64.315,199.31,65.4L199.31,65.4z"
			/>
	</g>
</g>
<g>
	<g>
		<path fill="#5F2B1D" d="M210.453,39.89c1.527-4.492,3.368-8.876,4.498-13.495c0.765-3.132-4.057-4.46-4.822-1.329
			c-1.129,4.619-2.97,9.002-4.498,13.495C204.59,41.622,209.421,42.925,210.453,39.89L210.453,39.89z"/>
	</g>
</g>
<g>
	<g>
		<path fill="#5F2B1D" d="M236.684,108.083c-0.138,3.814-2.257,7.16-2.076,11.073c0.148,3.21,5.148,3.225,5,0
			c-0.177-3.821,1.938-7.253,2.076-11.073C241.801,104.857,236.8,104.869,236.684,108.083L236.684,108.083z"/>
	</g>
</g>
<g>
	<g>
		<path fill="#735000" d="M217.693,45.491c3.451,2.762,6.886,5.541,10.034,8.65c2.295,2.268,5.832-1.267,3.535-3.535
			c-3.147-3.11-6.582-5.889-10.034-8.65C218.738,39.963,215.176,43.477,217.693,45.491L217.693,45.491z"/>
	</g>
</g>
<g>
	<g>
		<path fill="#735000" d="M234.994,94.973c2.945,2.924,6.063,5.669,9.502,8.003c2.676,1.816,5.174-2.518,2.523-4.317
			c-3.086-2.095-5.847-4.598-8.49-7.221C236.239,89.164,232.703,92.699,234.994,94.973L234.994,94.973z"/>
	</g>
</g>
<g>
	<g>
		<path fill="#735000" d="M198.045,100.779c-1.045-1.007-1.244-3.426-1.543-4.783c-0.48-2.179-0.808-4.388-1.273-6.57
			c-0.674-3.152-5.493-1.815-4.822,1.329c0.878,4.105,0.884,10.457,4.104,13.559C196.831,106.551,200.371,103.02,198.045,100.779
			L198.045,100.779z"/>
	</g>
</g>
<g>
	<g>
		<path fill="#735034" d="M175.899,111.927c3.449-3.153,6.467-6.833,10.221-9.643c2.549-1.908,0.061-6.251-2.523-4.317
			c-4.118,3.083-7.451,6.968-11.232,10.425C169.979,110.571,173.525,114.097,175.899,111.927L175.899,111.927z"/>
	</g>
</g>
<g>
	<g>
		<path fill="#735034" d="M258.918,85.218c0.802,4.249-0.631,8.552-0.435,12.831c0.147,3.21,5.148,3.225,5,0
			c-0.22-4.787,1.158-9.377,0.257-14.16C263.143,80.723,258.324,82.068,258.918,85.218L258.918,85.218z"/>
	</g>
</g>
<g>
	<g>
		<path fill="#735034" d="M227.408,82.796c0.699-3.27,1.861-6.382,3.207-9.437c1.288-2.921-3.02-5.469-4.316-2.523
			c-1.521,3.449-2.921,6.935-3.713,10.631C221.913,84.611,226.733,85.949,227.408,82.796L227.408,82.796z"/>
	</g>
</g>
<g>
	<g>
		<path fill="#735034" d="M179.68,41.966c0.888,3.747,1.282,7.619,1.641,11.446c0.298,3.182,5.301,3.211,5,0
			c-0.398-4.263-0.83-8.603-1.818-12.775C183.759,37.5,178.938,38.831,179.68,41.966L179.68,41.966z"/>
	</g>
</g>
<g>
	<g>
		<path fill="#735034" d="M208.031,58.575c1.421-3.494,3.076-6.886,4.498-10.38c1.215-2.988-3.624-4.275-4.822-1.329
			c-1.421,3.494-3.076,6.886-4.498,10.38C201.994,60.234,206.833,61.521,208.031,58.575L208.031,58.575z"/>
	</g>
</g>
</svg>
