<?xml version="1.0" encoding="utf-8"?>
<!-- Generator: Adobe Illustrator 16.0.4, SVG Export Plug-In . SVG Version: 6.00 Build 0)  -->
<!DOCTYPE svg PUBLIC "-//W3C//DTD SVG 1.1//EN" "http://www.w3.org/Graphics/SVG/1.1/DTD/svg11.dtd">
<svg version="1.1" id="Layer_1" xmlns="http://www.w3.org/2000/svg" xmlns:xlink="http://www.w3.org/1999/xlink" x="0px" y="0px"
	 width="300px" height="250px" viewBox="0 0 300 250" enable-background="new 0 0 300 250" xml:space="preserve">
<path fill="#5C3100" d="M51.199,162.303c0,0,21.734,15.818,35.394-4.413s24.414-19.802,29.577-17.221s12.906-12.019,0-15.258
	l-22.801-1.374l-19.733,4.237L61.19,138.519L51.199,162.303z"/>
<path fill="#5C3100" d="M185.001,217.696c0,0-24.091,2.561-27.963-15.078s9.465-28.822,19.359-21.939
	c9.894,6.883,36.57-0.86,32.912,15.057c-3.659,15.917-12.693,14.071-12.693,14.071L185.001,217.696z"/>
<g>
	<path fill="#FFFFFF" d="M49.488,170.138c0,7.744-13.551,18.714-17.423,27.103c-1.936,5.808-4.517,14.197,0,18.068
		c4.517,3.872,12.512,3.55,17.029,0.323"/>
	<g>
		<path d="M47.552,170.138c-0.418,6.693-7.502,12.86-11.469,17.748c-4.193,5.165-6.694,10.036-8.022,16.594
			c-1.155,5.708-0.088,10.882,5.155,13.907c5.069,2.925,12.113,1.927,16.855-1.083c2.101-1.334,0.161-4.686-1.954-3.344
			c-5.573,3.537-16.144,3.416-16.625-5.011c-0.31-5.423,2.184-11.31,5.244-15.621c4.961-6.988,14.115-14.019,14.688-23.19
			C51.58,167.644,47.708,167.658,47.552,170.138L47.552,170.138z"/>
	</g>
</g>
<g>
	<g>
		<path d="M79.739,208.935c15.525,16.648,37.795,17.173,59.043,16.497c20.043-0.637,43.501-2.412,60.102-14.903
			c1.969-1.481,0.042-4.846-1.955-3.344c-15.408,11.596-36.72,13.404-55.334,14.267c-20.915,0.969-43.731,1.246-59.119-15.255
			C80.771,204.367,78.039,207.111,79.739,208.935L79.739,208.935z"/>
	</g>
</g>
<g>
	<g>
		<path d="M80.462,190.788c0.621,10.429-0.428,33.145-14.361,34.75c-13.676,1.575-17.082-15.935-17.688-25.791
			c-0.778-12.661,1.45-25.52,4.862-37.67c3.08-10.97,7.257-23.055,17.04-29.759c9.052-6.203,20.961-6.731,31.546-6.303
			c13.002,0.526,25.715,3.333,38.564,5.121c5.793,0.806,11.85,1.521,17.651,0.482c5.048-0.904,9.499-4.066,13.45-7.142
			c4.557-3.547,8.587-7.718,13.171-11.235c5.392-4.137,11.955-7.017,18.116-9.79c12.922-5.814,26.275-8.792,39.908-3.708
			c11.963,4.461,21.604,14.47,27.791,25.375c6.564,11.569,7.889,24.701,1.119,36.457c-3.472,6.03-8.834,10.291-14.354,14.324
			c-5.688,4.156-11.333,8.394-17.389,12.007c-5.663,3.379-15.148,6.902-16.936,14.101c-1.413,5.694-3.318,11.33-5.927,16.588
			c-2.532,5.104-9.413,14.082-14.385,5.677c-4.586-7.754-1.447-18.505-4.161-26.901c-0.766-2.365-4.504-1.354-3.734,1.029
			c2.768,8.559,0.532,18.062,3.958,26.542c2.199,5.446,8.293,8.203,13.598,5.464c5.651-2.919,8.618-10.537,10.801-16.064
			c1.914-4.849,2.348-11.124,6.037-14.966c3.693-3.847,9.138-5.998,13.654-8.692c6.761-4.035,12.996-8.95,19.359-13.567
			c9.152-6.643,15.974-15.94,17.698-27.272c3.333-21.898-15.377-45.352-34.75-53.28c-11.911-4.875-23.55-3.992-35.561,0.08
			c-11.688,3.962-23.104,9.748-32.423,17.873c-4.33,3.776-8.463,7.729-13.405,10.717c-6.475,3.915-13.752,3.134-20.951,2.331
			c-12.84-1.434-25.416-4.362-38.335-5.276c-10.172-0.719-20.758-0.25-30.295,3.654c-9.419,3.856-15.244,11.257-19.299,20.329
			c-8.908,19.925-13.929,45.631-8.209,67.079c2.728,10.229,13.293,19.336,24.189,14.918c12.829-5.202,14.208-25.927,13.52-37.48
			C84.187,188.308,80.314,188.293,80.462,190.788L80.462,190.788z"/>
	</g>
</g>
<g>
	<g>
		<path d="M214.605,115.366c3.224,3.826,5.154,11.199,5.459,16.227c0.18,2.953-2.52,4.949-4.934,5.498
			c-2.292,0.521-5.373,1.811-6.101,4.332c-0.566,1.965-0.447,3.962-0.8,5.968c-0.903,5.132-7.564,5.442-9.942,1.766
			c-1.351-2.087-4.704-0.148-3.344,1.955c3.23,4.992,7.93,6.149,12.881,2.666c2.341-1.647,3.867-3.815,4.359-6.611
			c0.312-1.78-0.294-4.267,1.586-5.501c1.095-0.72,2.718-0.937,3.989-1.177c2.977-0.563,6.046-5.107,6.149-8.1
			c0.219-6.33-2.501-14.936-6.565-19.76C215.732,110.716,213.008,113.47,214.605,115.366L214.605,115.366z"/>
	</g>
</g>
<g>
	<g>
		<path d="M223.66,212.737c3.906,6.372,14.277,13.596,21.383,8.088c4.014-3.111,3.13-9.9,2.151-14.1
			c-1.319-5.667-4.361-11.139-7.91-15.693c-1.533-1.968-4.253,0.794-2.738,2.738c4.399,5.646,8.855,14.255,7.278,21.589
			c-1.943,9.032-14.435-0.684-16.82-4.577C225.701,208.658,222.352,210.602,223.66,212.737L223.66,212.737z"/>
	</g>
</g>
<g>
	<g>
		<path d="M268.697,159.422c2.233,0.801,4.639,0.305,6.655-0.841c2.17-1.233,0.22-4.579-1.955-3.344
			c-1.182,0.673-2.373,0.916-3.671,0.45c-0.994-0.356-2.117,0.394-2.382,1.353C267.049,158.116,267.705,159.065,268.697,159.422
			L268.697,159.422z"/>
	</g>
</g>
<g>
	<g>
		<path d="M248.504,133.669c-1.147,1.489-3.726,2.465-5.329,3.339c-2.287,1.248-4.636,2.39-6.883,3.711
			c-2.149,1.265-0.202,4.612,1.955,3.344c4.323-2.542,10.456-4.362,13.601-8.438C253.372,133.646,250.006,131.723,248.504,133.669
			L248.504,133.669z"/>
	</g>
</g>
<circle fill="none" stroke="#000000" stroke-width="2.5812" stroke-miterlimit="10" cx="205.489" cy="74.473" r="6.292"/>
<circle fill="none" stroke="#000000" stroke-width="2.5812" stroke-miterlimit="10" cx="173.87" cy="63.825" r="8.55"/>
<g>
	<g>
		<path d="M61.149,71.064c-2.232,6.422,0.014,13.941,5.756,17.832c5.712,3.871,11.865,2.543,14.671-3.932
			c-0.786-0.332-1.572-0.663-2.359-0.995c-3.087,22.502,36.086,13.233,26.88-0.954c-0.371,0.647-0.743,1.294-1.114,1.942
			c7.679,0.444,14.734-4.98,18.12-11.59c3.264-6.371,0.03-11.82-6.806-12.885c0,0.83,0,1.66,0,2.489
			c11.138-3.41,12.645-14.32,6.935-23.437c-4.941-7.889-14.88-10.988-19.362-1.045c0.786,0.103,1.572,0.206,2.359,0.308
			c-1.862-11.016-11.986-16.133-22.458-14.553c-9.317,1.406-15.412,9.39-10.23,18.128c0.743-0.434,1.486-0.869,2.229-1.303
			c-5.776-8.268-18.097-5.299-24.445,0.674c-10.071,9.476,1.497,22.181,8.867,28.638c1.246,1.092,3.08-0.726,1.825-1.825
			c-6.165-5.4-15.383-13.785-10.561-22.823c3.667-6.873,17.123-10.463,22.085-3.361c0.939,1.344,3.09,0.15,2.229-1.303
			c-4.779-8.061,2.095-13.603,9.885-14.495c8.823-1.01,16.582,4.007,18.085,12.908c0.18,1.066,1.913,1.297,2.359,0.308
			c3.918-8.69,11.354-4.625,15.317,1.702c4.675,7.464,3.18,16.237-5.804,18.987c-1.122,0.344-1.338,2.28,0,2.489
			c6.979,1.087,7.308,6.214,3.886,11.462c-3.092,4.742-8.789,8.274-14.513,7.943c-0.96-0.056-1.632,1.145-1.114,1.942
			c4.146,6.391-4.156,9.869-9.334,10.523c-6.884,0.869-13.915-2.271-12.829-10.186c0.179-1.302-1.722-2.464-2.359-0.995
			c-2.372,5.473-7.137,6.158-11.662,2.59c-4.4-3.469-5.845-9.331-4.048-14.501C64.187,70.174,61.692,69.502,61.149,71.064
			L61.149,71.064z"/>
	</g>
</g>
<g>
	<g>
		<path fill="#0B8E00" d="M92.801,46.319c0.373-0.36-0.501,0.156-0.85,0.175c-0.557-0.319-1.114-0.639-1.671-0.958
			c-0.067-0.438-0.133-0.875-0.2-1.312c0.117-0.263,0.121-0.28,0.012-0.053c-0.096,0.195-0.207,0.384-0.314,0.573
			c-0.263,0.463-0.546,0.915-0.829,1.366c-0.366,0.583-0.742,1.162-1.123,1.735c-1.166,1.751,1.037,3.419,2.648,2.648
			c1.479-0.707,3.038-1.229,4.517-1.936c-0.782-1.013-1.564-2.027-2.346-3.04c-0.722,0.792-1.243,1.727-2.189,2.278
			c-1.871,1.089-0.629,4.227,1.492,3.538c2.1-0.682,4.26-1.2,6.27-2.131c-0.883-0.883-1.766-1.766-2.648-2.648
			c-1.269,2.33-3.689,3.588-5.759,5.113c-1.987,1.463-0.06,4.826,1.954,3.343c2.621-1.93,5.541-3.55,7.147-6.502
			c0.981-1.801-0.929-3.444-2.648-2.648c-1.688,0.781-3.58,1.167-5.345,1.74c0.497,1.179,0.995,2.359,1.492,3.538
			c1.279-0.745,2.003-1.818,2.973-2.884c1.525-1.676-0.375-3.982-2.346-3.04c-1.479,0.707-3.038,1.229-4.517,1.936
			c0.883,0.883,1.766,1.766,2.648,2.648c0.795-1.195,1.599-2.402,2.267-3.674c1.353-2.572-1.262-4.582-3.371-2.544
			C88.265,45.319,91.006,48.054,92.801,46.319L92.801,46.319z"/>
	</g>
</g>
<polygon fill="#FF8E00" points="87.13,44.305 75.945,74.473 97.24,52.049 "/>
</svg>
