<?xml version="1.0" encoding="utf-8"?>
<!-- Generator: Adobe Illustrator 16.0.4, SVG Export Plug-In . SVG Version: 6.00 Build 0)  -->
<!DOCTYPE svg PUBLIC "-//W3C//DTD SVG 1.1//EN" "http://www.w3.org/Graphics/SVG/1.1/DTD/svg11.dtd">
<svg version="1.1" id="Layer_1" xmlns="http://www.w3.org/2000/svg" xmlns:xlink="http://www.w3.org/1999/xlink" x="0px" y="0px"
	 width="300px" height="250px" viewBox="0 0 300 250" enable-background="new 0 0 300 250" xml:space="preserve">
<g>
	<path fill="#8B2A00" d="M18.542,95.153c0,0,3.5-10.839,10.274-1.355c6.774,9.483,17.16,0.79,17.838,1.016
		c0.677,0.226,5.765,2.236,1.246,7.045l-2.149,3.791l-13.152-0.983l-8.411-1.498l-3.726-2.936L18.542,95.153z"/>
	<path fill="#8B2A00" d="M24.414,33.377c0,0,17.736-10.767,25.125,5.04c7.389,15.805,19.188,19.263,26.865,20.683
		c7.677,1.419,11.77,8.181,0.028,17.212c-11.742,9.032,3.672,10.832,11.778,6.768c8.106-4.064,6.758-3.114,8.113,2.054
		c1.355,5.168,13.552-9.865,5.423-26.059c-8.128-16.193,0.905-36.064,9.937-33.806s21.226,14.641,17.614,22.223
		c-3.613,7.583,5.419,5.775,5.419,5.775l-3.222-13.473l-4.711-9.634l-5.535-8.183l-6.632-7.33l-6.564-5.288l-6.581-3.215L95.879,5
		h-8.58L76.234,9.714L65.938,13.62l-6.412,0.736l-19.917,2.782l-9.212,3.271l-4.516,1.589c0,0-4.516,3.191-5.419,5.825
		c-0.903,2.634-0.283,0.769-0.283,0.769l2.089,3.223L24.414,33.377z"/>
	<g>
		<g>
			<path d="M59.706,35.179c2.287-0.573,5.151-1.736,7.515-1.016c2.431,0.74,4.003,4.393,5.279,6.31
				c1.376,2.068,3.174,3.835,4.489,5.939c1.752,2.806-3.297,3.851-5.111,4.395c-0.834,0.25-0.479,1.558,0.36,1.307
				c2.207-0.662,6.259-1.534,6.558-4.393c0.247-2.365-3.191-5.291-4.422-6.938c-1.891-2.531-3.347-6.26-6.336-7.741
				c-2.559-1.268-6.175,0.2-8.691,0.831C58.498,34.084,58.858,35.391,59.706,35.179L59.706,35.179z"/>
		</g>
	</g>
	<g>
		<g>
			<path d="M30.739,22.425c-2.549-1.082-5.324-1.771-7.712,0.024c-2.347,1.764-3.272,5.182-4.121,7.832
				c-0.125,0.392,0.22,0.9,0.653,0.857c5.315-0.528,0.646,8.583-0.395,10.698c-2.702,5.492-6.697,10.215-9.194,15.819
				c-1.201,2.694-1.998,5.77-1.5,8.729c0.515,3.062,1.907,5.785,3.186,8.582c1.641,3.588,1.991,6.998,1.728,10.906
				c-0.249,3.698-0.167,6.954,1.12,10.477c0.297,0.813,1.607,0.462,1.307-0.36c-1.428-3.91-1.208-7.487-0.984-11.547
				c0.202-3.662-0.523-6.83-2-10.16c-1.663-3.751-3.595-7.299-3.007-11.548c0.631-4.564,3.47-8.729,5.922-12.508
				c1.835-2.828,13.541-21.408,3.819-20.441c0.218,0.286,0.436,0.571,0.653,0.857c0.723-2.257,1.447-4.646,2.985-6.5
				c1.802-2.171,4.596-1.506,6.857-0.547C30.85,23.932,31.541,22.765,30.739,22.425L30.739,22.425z"/>
		</g>
	</g>
	<g>
		<g>
			<path d="M91.363,69.073c-0.197,12.734-9.696,24.801-18.104,33.556c-4.717,4.912-10.419,9.463-17.475,10.012
				c-3.438,0.268-7.375-1.087-8.513-4.613c-0.982-3.04,1.044-6.12,3.25-7.994c0.667-0.566-0.296-1.52-0.958-0.958
				c-4.269,3.626-5.56,10.12-0.299,13.489c6.62,4.239,15.758-0.78,20.902-5.08c5.731-4.791,10.619-10.991,14.712-17.199
				c4.125-6.256,7.722-13.578,7.84-21.214C92.731,68.199,91.376,68.2,91.363,69.073L91.363,69.073z"/>
		</g>
	</g>
	<g>
		<g>
			<path d="M17.865,94.814c0.167,5.905,6.039,8.465,10.992,9.764c5.762,1.512,11.869,1.747,17.798,1.751
				c0.874,0.001,0.874-1.354,0-1.354c-5.149-0.004-10.315-0.252-15.379-1.237c-4.778-0.929-11.888-2.995-12.056-8.924
				C19.195,93.942,17.84,93.94,17.865,94.814L17.865,94.814z"/>
		</g>
	</g>
	<g>
		<g>
			<path d="M14.677,95.351c-2.66,2.691-6.684,7.453-2.417,10.574c3.752,2.744,9.056-2.065,12.561-3.006
				c0.843-0.227,0.485-1.533-0.36-1.307c-2.798,0.751-5.181,2.589-7.976,3.402c-2.431,0.706-5.346-0.393-4.636-3.424
				c0.482-2.06,2.357-3.833,3.788-5.281C16.249,95.688,15.292,94.729,14.677,95.351L14.677,95.351z"/>
		</g>
	</g>
	<g>
		<g>
			<path d="M28.505,22.472c4.868-3.835,12.103-5.054,18.039-6.321c7.236-1.544,14.76-0.473,21.967-2.311
				c6.044-1.542,11.254-5.235,17.241-6.956c6.349-1.825,13.535-1.35,19.447,1.598c5.536,2.759,10.209,7.511,14.144,12.199
				c4.368,5.204,7.94,11.115,10.687,17.321c2.667,6.027,4.439,12.706,3.879,19.332c-0.605,7.17-3.791,14.431-6.301,21.109
				c-3.773,10.04-17.128,13.973-26.317,16.742c-5.354,1.613-10.287,3.485-15.109,6.332c-5.337,3.15-10.248,5.82-16.655,4.837
				c-0.854-0.131-1.222,1.174-0.36,1.307c6.176,0.947,11.069-1.06,16.305-4.146c3.145-1.854,6.206-3.611,9.636-4.904
				c3.497-1.317,7.128-2.262,10.687-3.394c5.634-1.792,11.394-4.23,16.203-7.712c4.75-3.439,6.539-7.87,8.468-13.182
				c2.36-6.5,5.004-13.129,4.92-20.155c-0.07-5.82-1.918-11.549-4.186-16.848c-4.75-11.101-12.743-21.897-22.896-28.603
				c-5.393-3.562-11.603-4.611-17.957-3.996c-7.343,0.71-13.207,4.714-19.996,7.145c-7.737,2.771-16.188,1.501-24.167,2.98
				c-6.179,1.145-13.608,2.707-18.637,6.669C26.861,22.055,27.827,23.006,28.505,22.472L28.505,22.472z"/>
		</g>
	</g>
	<g>
		<g>
			<path d="M25.881,83.75c0.874,0,0.874-1.354,0-1.354S25.007,83.75,25.881,83.75L25.881,83.75z"/>
		</g>
	</g>
	<g>
		<g>
			<path d="M26.061,82.419c-4.001-0.568-7.089-3.407-7.632-7.476c-0.113-0.846-1.304-0.896-1.354,0
				c-0.122,2.167-1.63,3.314-2.617,5.078c-0.427,0.763,0.743,1.446,1.17,0.684c1.145-2.045,2.662-3.276,2.802-5.761
				c-0.452,0-0.903,0-1.354,0c0.618,4.631,3.966,8.12,8.626,8.782C26.555,83.847,26.923,82.542,26.061,82.419L26.061,82.419z"/>
		</g>
	</g>
	<g>
		<g>
			<path d="M16.876,69.497c-0.734-0.735-1.29-1.415-1.631-2.411c-0.282-0.821-1.59-0.469-1.307,0.36
				c0.418,1.221,1.076,2.104,1.98,3.008C16.537,71.073,17.495,70.115,16.876,69.497L16.876,69.497z"/>
		</g>
	</g>
	<g>
		<g>
			<path d="M23.305,70.317c0.528-0.85,0.149-1.695-0.878-1.734c-1.013-0.039-2.104,0.425-3.048,0.739
				c-0.825,0.274-0.471,1.583,0.36,1.307c0.583-0.194,1.168-0.384,1.764-0.538c0.271-0.07,0.544-0.132,0.824-0.151
				c-0.016,0.001,0.257,0.021,0.171,0.002c-0.461-0.097-0.143-0.661-0.362-0.309C21.672,70.378,22.845,71.058,23.305,70.317
				L23.305,70.317z"/>
		</g>
	</g>
	<circle cx="45.444" cy="51.698" r="4.208"/>
	<g>
		<g>
			<path d="M20.595,46.383c0.078-0.162,0.176-0.336,0.163-0.523c-0.034-0.469-0.405-0.73-0.858-0.653
				c-0.433,0.074-0.767,0.742-0.996,1.055c-0.381,0.522-0.734,1.089-1.179,1.56c0.377,0.22,0.755,0.439,1.132,0.659
				c0.162-0.816,0.29-1.646,0.53-2.444c0.086-0.288,0.55-1.392,0.74-1.369c-0.16-0.066-0.319-0.132-0.479-0.198
				c-0.316-0.265-0.058-0.628-0.231-0.15c-0.057,0.157-0.119,0.311-0.152,0.475c-0.088,0.434,0.101,0.895,0.565,0.999
				c0.851,0.191,1.212-1.115,0.36-1.307c0.625,0.141,0.285,0.904,0.457,0.398c0.035-0.103,0.076-0.204,0.113-0.306
				c0.084-0.233,0.134-0.497,0.055-0.738c-0.256-0.789-1.092-0.51-1.598-0.189c-0.541,0.342-0.879,1.303-1.089,1.882
				c-0.299,0.825-0.407,1.731-0.577,2.587c-0.125,0.629,0.637,1.184,1.132,0.659c0.384-0.407,0.701-0.885,1.029-1.336
				c0.175-0.241,0.35-0.482,0.526-0.723c0.053-0.072,0.106-0.146,0.162-0.216c0.182-0.233,0.157-0.042-0.14,0.009
				c-0.286-0.218-0.572-0.436-0.857-0.653c0.082-0.258,0.089-0.312,0.022-0.16C19.047,46.482,20.215,47.169,20.595,46.383
				L20.595,46.383z"/>
		</g>
	</g>
</g>
<g>
	<g>
		<path d="M238.718,217.247c-3.677,4.891-7.466,9.694-11.453,14.336c-3.955,4.606-8.206,9.713-13.456,12.873
			c-10.143,6.105-15.017-8.234-17.68-15.32c-0.329-0.876-1.745-0.497-1.412,0.389c2.712,7.216,7.064,20.608,17.292,17.367
			c5.919-1.876,10.622-7.888,14.599-12.338c4.729-5.293,9.111-10.896,13.374-16.568C240.55,217.23,239.277,216.502,238.718,217.247
			L238.718,217.247z"/>
	</g>
</g>
<g>
	<g>
		<path d="M229.559,228.871c4.595,5.249,12.063,6.928,17.921,2.654c6.099-4.451,4.989-12.106,0.686-17.356
			c-0.599-0.73-1.629,0.312-1.035,1.035c3.936,4.802,4.67,11.364-0.782,15.343c-5.186,3.785-11.814,1.789-15.754-2.711
			C229.971,227.124,228.939,228.164,229.559,228.871L229.559,228.871z"/>
	</g>
</g>
<g>
	<g>
		<path d="M293.525,110.483c0.944,0,0.944-1.464,0-1.464S292.581,110.483,293.525,110.483L293.525,110.483z"/>
	</g>
</g>
<g>
	<g>
		<path d="M290.228,123.074c2.003,1.251,3.892,0.199,4.907-1.727c0.44-0.834-0.823-1.574-1.264-0.739
			c-0.647,1.227-1.581,2.029-2.905,1.202C290.163,121.308,289.429,122.575,290.228,123.074L290.228,123.074z"/>
	</g>
</g>
<g>
	<path fill="#A26C00" d="M106.131,124.285c1.288-6.87,8.158-8.588,13.74-9.017c9.875-0.429,18.463-1.717,28.339-3.005
		c7.299-1.288,16.745-3.006,19.75,5.582c3.007,7.728-3.435,14.169-3.435,21.468c0.43,7.299,7.299,9.446,11.163,15.458
		c3.007,5.152,6.44,23.614-3.864,24.474c-3.005,0-7.299-6.44-9.875-8.588c-6.44-4.293-14.169-7.3-21.039-2.576
		c-6.87,4.293-9.875,17.604-19.751,18.462c-9.446,0.431-11.164-12.021-10.734-19.321c0-3.864,3.175-9.344,0.858-12.021
		C105.812,148.874,104.843,130.297,106.131,124.285z"/>
</g>
<path fill="#A26C00" d="M236.229,90.365c0,0-13.08,14.425,3.12,30.613c16.201,16.188,17.683,34.65,11.789,46.243
	c-5.893,11.593,31.067,17.299,33.841-13.677l5.617-16.981c0,0-26.028-35.893-11.43-42.333l-1.378-1.171l-12.792-0.546l-6.124-1.863
	l-8.298-2.86C250.575,87.789,238.785,86.49,236.229,90.365z"/>
<g>
	<g>
		<path d="M234.839,124.25c-4.647-2.901-12.396,1.138-12.699,6.646c-0.142,2.57,1.116,4.556,2.484,6.618
			c0.753,1.136,1.481,2.328,1.134,3.733c-0.438,1.773-2.229,2.66-3.837,3.023c-2.195,0.496-4.47,0.286-6.557,1.242
			c-2.159,0.99-2.494,3.639-2.197,5.722c0.778,5.459,7.999,8.951,12.886,6.491c0.844-0.424,0.103-1.688-0.738-1.264
			c-4.873,2.452-13.499-3.11-10.252-8.807c1.713-3.005,7.689-0.812,10.163-3.222c3.269-3.185,1.836-5.792-0.298-9.119
			c-1.549-2.415-1.873-5.075,0-7.448c2.004-2.54,6.255-4.174,9.173-2.353C234.903,126.016,235.638,124.749,234.839,124.25
			L234.839,124.25z"/>
	</g>
</g>
<circle cx="253.541" cy="121.915" r="5.332"/>
<g>
	<g>
		<path d="M240.031,218.322c10.114-3.655,19.56-8.938,26.906-16.905c7.899-8.566,12.127-19.373,14.752-30.559
			c1.808-7.702,3.306-15.467,5.732-23.009c2.172-6.746,4.98-13.282,7.021-20.066c2.848-9.471,3.092-22.627-4.22-30.309
			c-3.438-3.611-8.345-4.786-13.128-5.213c-7.184-0.642-14.346-1.073-21.275-3.234c-1.941-0.606-3.911-2.034-5.958-1.937
			c-1.88,0.089-3.76,0.179-5.64,0.269c-4.711,0.224-9.115,1.404-13.768,2.234c-7.055,1.26-13.987,2.521-20.619,5.336
			c-6.193,2.629-11.868,6.297-16.895,10.753c-1.773,1.571-3.301,4.213-5.59,5.065c-2.696,1.004-3.88-5.435-3.934-7.153
			c-0.113-3.549-0.486-5.657-3.87-7.471c-5.87-3.146-12.857-2.5-19.26-2.28c-7.001,0.242-14.006,0.145-21.009,0.32
			c-11.416,0.285-22.607,2.018-31.626,9.514c-7.627,6.339-12.247,15.631-15.2,24.921c-1.59,5.003-2.654,10.166-3.434,15.353
			c-0.762,5.064-1.601,10.487-1.171,15.607c0.476,5.675,4.204,10.29,6.572,15.265c2.89,6.069,2.122,12.873,3.497,19.281
			c1.318,6.141,5.945,10.715,8.043,16.501c1.602,4.415,2.415,9.591,6.015,12.895c3.916,3.593,9.962,1.56,14.469,0.627
			c7.178-1.485,13.508,1.797,20.25,3.758c7.117,2.069,14.638,0.937,21.922,0.653c3.742-0.146,7.499-0.167,11.198,0.469
			c3.297,0.567,6.524,1.396,9.882,1.523c1.871,0.071,3.709-0.279,5.436-0.982c0.862-0.352,0.486-1.769-0.389-1.412
			c-6.436,2.62-13.945-0.93-20.611-1.121c-7.851-0.225-15.975,1.52-23.757,0.23c-6.566-1.088-12.533-4.754-19.25-5.101
			c-5.811-0.3-12.286,4.06-17.716,0.624c-4.357-2.756-4.826-9.987-6.729-14.347c-1.184-2.711-2.966-5.163-4.448-7.717
			c-2.02-3.482-3.071-6.993-3.479-10.986c-0.611-5.976-1-11.667-3.797-17.11c-1.351-2.63-2.947-5.124-4.193-7.81
			c-1.437-3.098-1.671-6.391-1.454-9.755c1.281-19.878,6.561-44.378,25.724-54.58c11.898-6.334,26.612-4.744,39.604-5.005
			c7.089-0.143,14.677-1.281,21.56,0.845c2.156,0.666,5.012,1.822,5.628,4.241c0.404,1.585,0.018,3.336,0.289,4.956
			c0.518,3.082,2.699,8.266,6.578,6.238c1.899-0.993,3.321-3.088,4.811-4.57c2.571-2.56,5.621-4.691,8.686-6.609
			c6.393-4,13.378-6.561,20.733-8.098c3.509-0.733,7.055-1.286,10.579-1.939c2.582-0.479,5.216-1.438,7.832-1.562
			c1.784-0.085,3.567-0.17,5.351-0.255c1.383-0.066,3.112-0.467,4.384,0.091c6.092,2.673,12.62,3.727,19.196,4.348
			c6.277,0.593,13.044,0.327,18.14,4.623c4.057,3.42,5.513,8.941,6.1,13.996c1.343,11.562-3.877,21.464-7.294,32.145
			c-1.936,6.054-3.672,12.07-5.068,18.276c-1.318,5.859-2.444,11.804-4.365,17.503c-2.905,8.614-7.554,16.545-14.043,22.94
			c-6.731,6.634-15.269,11.095-24.086,14.281C238.762,217.229,239.142,218.644,240.031,218.322L240.031,218.322z"/>
	</g>
</g>
</svg>
