<?xml version="1.0" encoding="utf-8"?>
<!-- Generator: Adobe Illustrator 16.0.4, SVG Export Plug-In . SVG Version: 6.00 Build 0)  -->
<!DOCTYPE svg PUBLIC "-//W3C//DTD SVG 1.1//EN" "http://www.w3.org/Graphics/SVG/1.1/DTD/svg11.dtd">
<svg version="1.1" id="Layer_1" xmlns="http://www.w3.org/2000/svg" xmlns:xlink="http://www.w3.org/1999/xlink" x="0px" y="0px"
	 width="300px" height="250px" viewBox="0 0 300 250" enable-background="new 0 0 300 250" xml:space="preserve">
<g>
	<path fill="#FFCB8B" d="M90.51,36.507c-0.592,1.261-0.889,1.892-1.481,3.153l0,0c7.854-10.167,16.787-14.438,29.877-14.449
		c-0.592,1.261-1.519,1.596-1.815,2.227c17.647-4.797,32.333-3.289,49.245,0.035c17.841,2.99,34.225-2.4,51.176,2.481
		c27.93,7.728,63.503,22.125,75.17,53.005c8.994,23.466,1.496,60.74,0.256,86.327c-0.918,13.426-3.057,27.814-6.161,40.98
		c-2.034,5.974-3.401,13.799-7.327,18.881c-2.743,2.562-6.486,2.343-9.822,6.165c-2.008-5.562-7.348-7.299-10.014-1.623
		c-4.349-12.049-16.836-0.209-25.549,0.315c-15.279-0.246-28.188-5.54-43.093-3.303c-15.24,1.311-31.226-2.35-45.501,0.184
		c-8.082,0.823-10.748,9.065-19.166,8.96c-7.492-0.438-18.295-2.947-21.957-8.26c-7.897-11.454-11.765-29.071-25.445-37.604
		c-19.388,16.425-54.979-3.571-64.374-12.074C-9.034,161.604,7.336,94.861,31.493,73.207c7.281-6.528,0.486-8.767-18.718-3.932
		c0.955-11.867,20.665-34.168,32.493-34.771c3.411-0.708,7.864,2.923,10.979,2.847c4.042-0.412,8.934-4.271,13.605-4.386
		c6.526-0.785,18.689-0.46,17.659,8.292"/>
	<g>
		<path d="M89.11,35.689c-0.494,1.051-0.987,2.102-1.481,3.153c-0.727,1.547,1.323,3.503,2.546,1.965
			c7.483-9.41,16.727-13.805,28.73-13.974c-0.467-0.813-0.933-1.626-1.4-2.44c-0.524,0.63-1.045,1.263-1.562,1.898
			c-0.985,1.208-0.1,3.147,1.578,2.71c15.605-4.068,30.863-3.248,46.58-0.314c14.744,2.753,29.556-0.232,44.372,1.149
			c11.934,1.114,24.499,6.24,35.445,10.915c10.746,4.588,21.013,10.485,29.824,18.2c8.983,7.865,15.749,17.969,19.008,29.483
			c3.498,12.357,2.955,25.811,2.177,38.493c-0.784,12.794-2.464,25.515-3.372,38.299c-1.07,15.056-2.932,29.888-6.343,44.61
			c-1.151,4.971-2.821,10.266-4.961,14.894c-2.344,5.07-8.054,5.689-11.771,9.437c0.849,0.109,1.697,0.219,2.547,0.328
			c-2.7-6.22-9.131-8.114-12.814-1.623c0.988,0.129,1.976,0.258,2.964,0.388c-2.21-5.318-5.922-7.315-11.569-6.132
			c-3.366,0.705-6.562,2.407-9.737,3.675c-4.913,1.962-9.548,1.517-14.724,0.929c-10.874-1.234-21.367-3.92-32.396-2.883
			c-11.677,1.098-23.253-0.362-34.94-0.5c-8.757-0.103-16.017,0.752-22.943,6.22c-7.557,5.966-18.813,3.424-26.536-1.393
			c-3.416-2.129-5.284-6.686-7.069-10.133c-2.085-4.025-3.965-8.154-6.068-12.172c-3.787-7.234-8.581-13.763-15.473-18.289
			c-0.653-0.428-1.413-0.191-1.965,0.254c-16.605,13.391-42.391,1.769-57.555-8.565C4.723,173.722,3.528,154.412,5.348,137.245
			c2.092-19.729,9.106-40.752,21.38-56.525c2.31-2.968,5.193-5.314,7.631-8.139c1.3-1.507,2.189-3.56,1.042-5.397
			c-3.507-5.615-18.708-0.538-23.058,0.528c0.684,0.521,1.368,1.042,2.053,1.563c0.804-7.108,5.933-13.761,10.408-19.019
			c4.844-5.692,11.098-11.637,18.432-13.789c4.224-1.239,7.58,1.306,11.495,2.345c3.621,0.962,8.136-2.112,11.317-3.365
			c5.445-2.145,20.322-2.79,19.841,5.808c-0.117,2.09,3.127,2.079,3.243,0c0.457-8.173-7.808-10.058-14.418-10.192
			c-4.529-0.092-8.579,0.783-12.719,2.583c-3.796,1.65-6.115,2.395-10.054,0.752c-2.57-1.072-4.703-1.693-7.473-1.444
			c-8.293,0.746-15.831,8.277-21.104,14.042c-5.557,6.076-11.26,13.868-12.211,22.278c-0.123,1.088,1.123,1.791,2.053,1.563
			c5.551-1.36,11.303-2.767,17.06-2.499c5.352,0.25-1.004,4.683-2.594,6.333c-6.154,6.387-10.654,14.351-14.367,22.338
			c-8.236,17.717-13.002,38.196-11.603,57.782c0.565,7.907,2.476,15.912,6.799,22.638c3.801,5.914,10.079,9.922,16.029,13.388
			c15.386,8.962,38.201,17.027,54.241,5.33c0.433-0.332,0.859-0.672,1.279-1.021c-0.655,0.085-1.31,0.169-1.965,0.254
			c7.664,5.031,12.177,12.787,16.191,20.803c3.114,6.218,5.738,14.221,11.153,18.857c5.193,4.446,13.105,5.702,19.667,6.339
			c7.875,0.763,11.647-5.884,18.297-8.404c4.823-1.828,11.139-1.424,16.227-1.364c5.528,0.064,11.053,0.53,16.572,0.809
			c10.733,0.539,21.286-1.246,31.986,0.027c9.011,1.072,19.234,4.497,28.311,2.832c6.37-1.17,17.715-10.418,21.561-1.16
			c0.505,1.216,2.202,1.73,2.964,0.388c2.339-4.122,5.795-1.646,7.213,1.623c0.424,0.975,1.877,1.004,2.547,0.328
			c3.743-3.772,8.736-4.101,11.611-8.826c3.096-5.089,4.128-11.342,5.955-16.936c2.199-6.733,2.987-14.311,4.034-21.295
			c1.064-7.103,1.88-14.277,2.255-21.45c1.301-24.923,6.752-50.077,2.456-74.992c-3.827-22.197-20.281-38.366-39.222-48.994
			c-9.54-5.354-19.844-9.339-30.233-12.695c-5.544-1.791-11.158-3.505-16.923-4.398c-7.289-1.128-14.746-0.661-22.076-0.327
			c-6.181,0.282-12.326,0.4-18.493-0.176c-5.983-0.559-11.901-2.066-17.874-2.819c-11.985-1.511-23.924-0.723-35.604,2.322
			c0.526,0.903,1.052,1.807,1.578,2.71c0.722-0.885,1.427-1.596,2.068-2.555c0.69-1.031-0.222-2.456-1.4-2.44
			c-12.784,0.18-23.028,4.87-31.023,14.924c0.849,0.655,1.698,1.31,2.546,1.965c0.494-1.051,0.987-2.102,1.481-3.153
			C92.793,35.445,89.998,33.797,89.11,35.689L89.11,35.689z"/>
	</g>
</g>
<g>
	<g>
		<path d="M38.017,61.725c4.892-3.78,6.174-15.192-2.032-15.771c-8.183-0.577-12.015,10.372-14.79,16.339
			c-0.875,1.883,1.919,3.531,2.8,1.637c2.228-4.792,4.376-11.032,8.927-14.121c2.557-1.735,5.499-0.109,5.822,2.793
			c0.292,2.621-0.978,5.25-3.021,6.829C34.071,60.708,36.385,62.986,38.017,61.725L38.017,61.725z"/>
	</g>
</g>
<g>
	<g>
		<path d="M99.683,98.789c8.7-5.329,17.803-9.933,26.291-1.352c4.051,4.096,6.819,9.759,13.134,10.604
			c2.92,0.391,5.336-0.009,7.815-1.605c1.737-1.119,2.807-2.329,5.122-2.012c3.183,0.436,5.374,3.025,7.01,5.533
			c4.198,6.438,3.133,25.929-8.394,18.44c-1.759-1.143-3.383,1.666-1.637,2.801c7.928,5.149,14.71-0.411,15.731-9.024
			c1.028-8.667-3.896-21.368-14.306-21.054c-1.393,0.042-2.682,0.785-3.803,1.535c-2.736,1.829-4.767,2.743-8.164,1.958
			c-4.846-1.119-7.718-6.942-10.968-10.228c-9.14-9.241-20.159-4.097-29.468,1.605C96.267,97.079,97.894,99.885,99.683,98.789
			L99.683,98.789z"/>
	</g>
</g>
<ellipse transform="matrix(0.9052 0.4251 -0.4251 0.9052 60.8805 -13.3932)" cx="60.453" cy="129.729" rx="8.709" ry="10.8"/>
<g>
	<g>
		<g>
			<path fill="#D2B487" d="M53.492,57.196c2.537,4.566,1.614,10.001,0.302,14.802c-1.333,4.88-3.47,9.498-5.472,14.127
				c-0.353,0.815,0.848,1.526,1.203,0.703c3.773-8.727,10.38-20.956,5.169-30.336C54.259,55.708,53.055,56.41,53.492,57.196
				L53.492,57.196z"/>
		</g>
	</g>
	<g>
		<g>
			<path fill="#D2B487" d="M67.039,49.822c-0.754,13.278-3.713,26.007-8.931,38.241c-0.349,0.817,0.852,1.527,1.203,0.703
				c5.32-12.47,8.353-25.409,9.122-38.944C68.483,48.924,67.09,48.929,67.039,49.822L67.039,49.822z"/>
		</g>
	</g>
	<g>
		<g>
			<path fill="#D2B487" d="M74.646,56.692c-1.444,10.646-5.455,21.732-12.767,29.771c-0.603,0.663,0.379,1.651,0.985,0.985
				c7.468-8.21,11.648-19.505,13.125-30.386C76.109,56.185,74.767,55.805,74.646,56.692L74.646,56.692z"/>
		</g>
	</g>
	<g>
		<g>
			<path fill="#D2B487" d="M89.685,62.611c-12.302,6.042-21.377,15.888-28.012,27.744c-0.439,0.785,0.764,1.487,1.203,0.703
				c6.53-11.667,15.407-21.298,27.512-27.244C91.195,63.418,90.488,62.217,89.685,62.611L89.685,62.611z"/>
		</g>
	</g>
	<g>
		<g>
			<path fill="#D2B487" d="M107.066,34.239c-2.719,8.104-5.532,16.242-10.121,23.511c-0.481,0.762,0.725,1.461,1.203,0.703
				c4.651-7.367,7.506-15.63,10.261-23.844C108.696,33.755,107.35,33.391,107.066,34.239L107.066,34.239z"/>
		</g>
	</g>
	<g>
		<g>
			<path fill="#D2B487" d="M129.75,34.514c-4.26,5.145-9.496,9.521-14.884,13.431c-5.415,3.929-11.526,7.782-18.145,9.21
				c-0.878,0.189-0.506,1.533,0.37,1.344c6.762-1.459,12.924-5.384,18.478-9.35c5.504-3.931,10.841-8.426,15.166-13.649
				C131.303,34.813,130.323,33.821,129.75,34.514L129.75,34.514z"/>
		</g>
	</g>
	<g>
		<g>
			<path fill="#D2B487" d="M100.018,58.345c9.595-1.273,19.345-1.714,28.767-4.066c10.083-2.517,18.849-7.874,26.187-15.172
				c0.639-0.634-0.348-1.62-0.984-0.985c-7.406,7.365-16.093,12.448-26.233,14.979c-9.065,2.263-18.503,2.627-27.735,3.852
				C99.14,57.068,99.129,58.462,100.018,58.345L100.018,58.345z"/>
		</g>
	</g>
	<g>
		<g>
			<path fill="#D2B487" d="M117.029,61.116c18.744-2.427,38.476,11.699,44.108,29.382c0.271,0.853,1.617,0.488,1.344-0.37
				c-5.803-18.218-26.09-32.913-45.452-30.405C116.151,59.836,116.14,61.231,117.029,61.116L117.029,61.116z"/>
		</g>
	</g>
	<g>
		<g>
			<path fill="#D2B487" d="M142.731,65.248c12.269-2.05,22.498,6.471,27.363,17.105c0.373,0.816,1.574,0.107,1.203-0.703
				c-5.157-11.271-16.055-19.898-28.936-17.746C141.476,64.052,141.853,65.395,142.731,65.248L142.731,65.248z"/>
		</g>
	</g>
	<g>
		<g>
			<path fill="#D2B487" d="M135.858,62.147c9.262-4.142,20.619-0.829,29.081,3.717c8.639,4.641,17.373,12.806,17.95,23.201
				c0.049,0.894,1.443,0.898,1.393,0c-0.61-11.004-9.559-19.379-18.64-24.404c-8.866-4.906-20.802-8.049-30.487-3.717
				C134.335,61.311,135.045,62.511,135.858,62.147L135.858,62.147z"/>
		</g>
	</g>
	<g>
		<g>
			<path fill="#D2B487" d="M203.398,110.655c-2.703,0.67-2.997,2.809-2.473,5.252c0.396,1.84,1.142,3.604,1.645,5.416
				c0.764,2.752,1.05,5.819,1.355,8.646c1.195,11.046-0.882,21.975-4.408,32.417c-3.44,10.188-8.872,19.158-15.639,27.468
				c-6.462,7.934-13.702,15.195-20.193,23.106c-0.565,0.688,0.414,1.68,0.984,0.984c11.994-14.614,26.651-27.463,34.001-45.307
				c3.896-9.462,6.542-19.559,6.951-29.809c0.217-5.438-0.826-10.543-1.321-15.904c-0.238-2.571-4.413-9.965-0.531-10.927
				C204.641,111.783,204.271,110.439,203.398,110.655L203.398,110.655z"/>
		</g>
	</g>
	<g>
		<g>
			<path fill="#D2B487" d="M197.688,58.443c0.726,3.046,4.465,5.253,6.821,6.924c4.284,3.038,8.818,5.706,13.136,8.696
				c1.835,1.271,3.643,2.61,5.212,4.205c2.352,2.391,3.945,5.877,5.308,8.896c3.122,6.917,4.502,14.595,5.189,22.105
				c0.081,0.887,1.475,0.895,1.393,0c-0.611-6.682-1.807-13.286-4.085-19.612c-1.932-5.365-4.651-10.821-9.15-14.456
				c-4.03-3.256-8.559-5.895-12.885-8.729c-2.12-1.39-4.229-2.812-6.207-4.399c-1.268-1.017-2.991-2.336-3.388-4.001
				C198.824,57.199,197.48,57.57,197.688,58.443L197.688,58.443z"/>
		</g>
	</g>
	<g>
		<g>
			<path fill="#D2B487" d="M238.599,105.105c10.349,10.028,11.338,24.899,8.221,38.248c-3.009,12.888-9.822,25.729-19.59,34.759
				c-0.661,0.61,0.326,1.594,0.984,0.984c10.306-9.525,17.208-23.053,20.241-36.651c2.996-13.429,1.422-28.352-8.872-38.325
				C238.938,103.495,237.952,104.479,238.599,105.105L238.599,105.105z"/>
		</g>
	</g>
	<g>
		<g>
			<path fill="#D2B487" d="M265.127,107.579c-3.108,7.841,1.485,17.074,2.497,24.929c1.37,10.641-4.664,21.491-10.839,29.689
				c-0.541,0.719,0.67,1.411,1.203,0.703c5.961-7.914,11.578-18.104,11.207-28.33c-0.159-4.369-1.407-8.679-2.376-12.916
				c-1.014-4.435-2.087-9.318-0.349-13.705C266.802,107.113,265.454,106.754,265.127,107.579L265.127,107.579z"/>
		</g>
	</g>
	<g>
		<g>
			<path fill="#D2B487" d="M233.955,53.797c15.385,1.212,26.878,12.951,34.015,25.776c7.008,12.591,11.066,28.056,9.187,42.482
				c-0.116,0.889,1.278,0.878,1.393,0c1.974-15.134-2.544-31.16-9.986-44.271c-7.303-12.868-19.244-24.17-34.607-25.38
				C233.059,52.333,233.065,53.727,233.955,53.797L233.955,53.797z"/>
		</g>
	</g>
	<g>
		<g>
			<path fill="#D2B487" d="M275.681,144.738c-3.172,16.505-13.204,33.302-26.826,43.271c-0.717,0.524-0.023,1.734,0.703,1.203
				c13.916-10.185,24.223-27.221,27.467-44.104C277.193,144.231,275.851,143.856,275.681,144.738L275.681,144.738z"/>
		</g>
	</g>
	<g>
		<g>
			<path fill="#D2B487" d="M211.248,31.855c-2.717,4.384-5.86,8.526-7.98,13.252c-0.364,0.812,0.836,1.522,1.203,0.703
				c2.12-4.726,5.264-8.868,7.98-13.252C212.926,31.792,211.72,31.093,211.248,31.855L211.248,31.855z"/>
		</g>
	</g>
	<g>
		<g>
			<path fill="#D2B487" d="M219.862,36.518c-1.856,5.733-7.136,9.602-11.188,13.764c-0.627,0.644,0.357,1.63,0.984,0.985
				c4.249-4.364,9.6-8.366,11.547-14.379C221.483,36.031,220.138,35.667,219.862,36.518L219.862,36.518z"/>
		</g>
	</g>
	<g>
		<g>
			<path fill="#D2B487" d="M97.325,142.139c10.169-0.341,20.457,1.252,30.069,4.577c10.095,3.492,19.009,9.401,23.611,19.309
				c4.581,9.863,4.481,21.521,2.429,31.989c-2.052,10.467-6.453,20.839-13.281,29.09c-0.568,0.687,0.412,1.678,0.985,0.984
				c13.47-16.275,19.75-42.245,11.337-62.165c-4.212-9.972-12.965-15.99-22.755-19.83c-10.159-3.985-21.506-5.712-32.395-5.347
				C96.429,140.775,96.426,142.169,97.325,142.139L97.325,142.139z"/>
		</g>
	</g>
	<g>
		<g>
			<path fill="#D2B487" d="M116.593,174.004c17.731,10.854,20.801,36.123,12.563,53.863c-0.376,0.81,0.825,1.518,1.203,0.703
				c8.562-18.437,5.358-44.494-13.063-55.77C116.527,172.33,115.828,173.536,116.593,174.004L116.593,174.004z"/>
		</g>
	</g>
	<g>
		<g>
			<path fill="#D2B487" d="M98.016,158.878c5.41-3.898,13.112-3.326,19.25-1.843c6.19,1.496,13.295,4.869,15.918,11.071
				c0.349,0.825,1.549,0.114,1.203-0.703c-2.785-6.585-10.235-10.026-16.751-11.712c-6.416-1.659-14.677-2.086-20.323,1.983
				C96.591,158.195,97.286,159.404,98.016,158.878L98.016,158.878z"/>
		</g>
	</g>
	<g>
		<g>
			<path fill="#D2B487" d="M95.614,183.121c8.237-0.002,15.766,5.281,18.519,13.058c0.298,0.841,1.645,0.479,1.344-0.371
				c-2.959-8.36-10.979-14.082-19.862-14.079C94.716,181.729,94.716,183.122,95.614,183.121L95.614,183.121z"/>
		</g>
	</g>
</g>
<g>
	<g>
		<path d="M18.007,186.274c3.997,0.074,7.775-1.081,10.45-4.172c1.17-1.352-0.792-3.332-1.971-1.971
			c-2.224,2.57-5.164,3.417-8.479,3.355C16.209,183.454,16.212,186.241,18.007,186.274L18.007,186.274z"/>
	</g>
</g>
<g>
	<g>
		<path d="M8.994,165.134c1.329-0.786,2.741-1.316,4.189-1.839c1.676-0.605,0.953-3.3-0.741-2.688
			c-1.666,0.603-3.324,1.216-4.854,2.12C6.042,163.642,7.444,166.051,8.994,165.134L8.994,165.134z"/>
	</g>
</g>
</svg>
