<?xml version="1.0" encoding="utf-8"?>
<!-- Generator: Adobe Illustrator 16.0.4, SVG Export Plug-In . SVG Version: 6.00 Build 0)  -->
<!DOCTYPE svg PUBLIC "-//W3C//DTD SVG 1.1//EN" "http://www.w3.org/Graphics/SVG/1.1/DTD/svg11.dtd">
<svg version="1.1" id="Layer_1" xmlns="http://www.w3.org/2000/svg" xmlns:xlink="http://www.w3.org/1999/xlink" x="0px" y="0px"
	 width="300px" height="250px" viewBox="0 0 300 250" enable-background="new 0 0 300 250" xml:space="preserve">
<path fill="#733300" d="M46.522,77.75c-0.274,0.75,13.039,2.629,13.039,2.629l12.562,2.055l9.502-1.684l11.896-3l11.254-1.682
	c0,0,9.475,9.182-16.525,15.182s-26.75,3.5-28.375,11.5s-40.001-3.875-13.75-24.25"/>
<g>
	<path d="M162.901,208.798c0,0,6.959,8.174,2.853,10.979c-4.107,2.805-10.17-3.683-10.17-3.683S154.943,209.754,162.901,208.798z"/>
	<path fill="#733300" d="M279.942,190.645l-3.445,14.332l-4.034,10.214c0,0-14.575,2.479-7.522-13.899
		C264.94,201.291,263.529,180.408,279.942,190.645z"/>
	<polyline fill="#FFBCA2" points="130.876,178.573 136.136,174.268 132.236,172.468 	"/>
	<path fill="#733300" d="M147.93,170.334c0,0-0.307-9.271,8.394-6.713c0,0,6.96,4.417,10.338,1.748l0.502,6.646l0.829,3.582
		c0,0-0.05,5.63-5.092,1.843c0,0-7.294-1.023-12.72,3.48C144.756,185.425,147.93,170.334,147.93,170.334z"/>
	<g>
		<path fill="#733300" d="M213.067,226.575c2.55-3.613,0-8.076-3.825-9.563c-4.25-1.487-8.926-0.426-12.964-2.125
			c-2.976-1.063-4.888-3.4-6.588-5.951c-2.976-3.824-7.65-9.138-12.538-4.463c-4.676,4.676-2.338,11.901,1.486,16.151
			c2.126,2.338,5.102,4.888,8.502,4.888l2.125-4.421l11.756,4.247L213.067,226.575z"/>
	</g>
	<g>
		<g>
			<path d="M166.368,207.275c3.37,6.8,4.16,16.993,11.308,21.463c6.771,4.234,9.39-0.267,12.386-5.949
				c0.554-1.05-1.037-1.981-1.592-0.93c-1.06,2.011-1.908,4.19-3.419,5.921c-3.362,3.854-8.593-2.564-10.104-4.901
				c-3.367-5.207-4.288-11.088-6.986-16.533C167.432,205.281,165.843,206.215,166.368,207.275L166.368,207.275z"/>
		</g>
	</g>
	<g>
		<g>
			<path d="M184.788,218.938c8.308,7.127,19.655,8.186,30.122,9.269c12.332,1.275,25.02-0.712,35.812-6.999
				c1.026-0.598,0.099-2.19-0.93-1.592c-10.146,5.91-21.927,7.826-33.537,6.888c-10.222-0.827-22.065-1.92-30.165-8.868
				C185.194,216.866,183.885,218.164,184.788,218.938L184.788,218.938z"/>
		</g>
	</g>
	<g>
		<g>
			<path d="M245.124,224.7c5.844,2.007,8.217,8.834,15.083,8.68c5.077-0.113,5.71-6.706,5.636-10.418
				c-0.023-1.187-1.865-1.188-1.842,0c0.044,2.256-0.062,4.481-1.036,6.561c-1.508,3.22-5.52,1.963-7.812,0.554
				c-3.507-2.155-5.486-5.762-9.538-7.153C244.487,222.536,244.008,224.316,245.124,224.7L245.124,224.7z"/>
		</g>
	</g>
	<g>
		<g>
			<path d="M187.141,161.19c3.676,0.037,7.172-0.542,10.848,0.021c3.02,0.464,5.977,1.758,8.841,2.767
				c4.872,1.717,9.907,2.879,15.055,3.308c5.072,0.422,10.148-0.563,15.018-1.878c7.625-2.06,15.423-2.684,23.132-0.789
				c5.573,1.369,10.853,4.639,14.807,8.736c4.572,4.738,4.404,11.442,3.931,17.562c-0.46,5.936-2.065,11.799-4.007,17.402
				c-1.211,3.494-3.097,6.925-5.455,9.783c-1.544,1.871-3.506,3.278-4.97,5.243c-0.71,0.954,0.891,1.871,1.592,0.93
				c3.644-4.894,7.856-8.01,10.081-14.033c2.1-5.688,3.775-11.62,4.423-17.667c0.524-4.891,1.2-11.176-1.099-15.769
				c-2.462-4.921-6.619-8.277-11.34-10.94c-12.002-6.768-24.242-3.529-36.834-0.993c-7.494,1.51-14.904,0.085-22.101-2.093
				c-3.557-1.076-6.956-2.497-10.584-3.346c-3.728-0.872-7.57-0.05-11.337-0.087C185.952,159.336,185.953,161.179,187.141,161.19
				L187.141,161.19z"/>
		</g>
	</g>
	<ellipse cx="159.932" cy="170.334" rx="2.969" ry="2.885"/>
	<g>
		<g>
			<path d="M187.18,159.261c-11.099-5.594-25.002-11.324-37.356-6.556c-9.496,3.665-18.487,14.094-19.71,24.353
				c-2.327,19.515,23.374,24.336,36.584,30.549c1.068,0.502,2.005-1.086,0.93-1.592c-11.759-5.529-32.593-8.948-35.686-24.031
				c-2.261-11.03,8.438-22.435,17.324-27.022c11.512-5.943,26.502,0.607,36.984,5.892
				C187.308,161.386,188.241,159.796,187.18,159.261L187.18,159.261z"/>
		</g>
	</g>
	<g>
		<g>
			<path d="M166.242,165.369c-0.096,2.455,0.237,4.673,0.883,7.046c0.391,1.434,0.182,3.414,1.291,4.602
				c0.978,1.049,1.799,1.514,3.219,1.394c2.534-0.214,3.472-1.445,5.947,0.934c2.438,2.344,4.346,3.843,7.849,2.95
				c3.022-0.771,4.204-4.25,4.543-6.937c0.148-1.177-1.695-1.162-1.842,0c-0.381,3.018-2.351,6.879-6.622,4.98
				c-0.986-0.438-1.872-1.531-2.625-2.297c-1.004-1.022-1.99-1.7-3.325-2.188c-1.227-0.447-2.452-0.006-3.557,0.47
				c-3.396,1.462-3.955-10.011-3.919-10.954C168.13,164.181,166.287,164.185,166.242,165.369L166.242,165.369z"/>
		</g>
	</g>
	<g>
		<g>
			<path d="M132.49,187.297c1.287,0.253,2.624,0.452,3.891,0c1.11-0.396,0.632-2.178-0.49-1.777c-0.959,0.343-1.934,0.192-2.91,0
				C131.82,185.291,131.325,187.067,132.49,187.297L132.49,187.297z"/>
		</g>
	</g>
	<g>
		<g>
			<path d="M268.733,220.638c3.015,2.998,8.435,7.146,11.329,1.762c2.538-4.72-0.386-11.804-1.714-16.472
				c-0.325-1.141-2.103-0.655-1.777,0.49c0.989,3.474,2.072,6.905,2.402,10.521c0.191,2.108,0.08,4.689-1.767,6.076
				c-2.12,1.593-5.842-2.359-7.171-3.681C269.193,218.496,267.89,219.799,268.733,220.638L268.733,220.638z"/>
		</g>
	</g>
	<g>
		<g>
			<path d="M166.493,206.771c-3.706,0.752-13.846,3.815-11.951,9.271c1.972,5.678,12.95,4.61,17.509,5.077
				c1.182,0.121,1.17-1.723,0-1.842c-4.733-0.485-10.035,0.024-14.335-2.356c-5.914-3.273,6.78-7.869,9.268-8.373
				C168.147,208.312,167.653,206.536,166.493,206.771L166.493,206.771z"/>
		</g>
	</g>
	<g>
		<path d="M210.518,165.157c-5.525,0.851-8.289,8.926-4.039,12.538c3.188,2.764,7.864,2.125,11.052,4.251
			c3.4,2.337,4.038,6.376,6.8,9.138c4.676,4.676,21.039,3.188,20.189-5.525c-0.425-2.975-2.338-4.676-1.7-8.075
			c0.638-3.188,2.55-7.014,5.101-9.139c2.338-1.7,5.312-1.7,6.164-4.888"/>
	</g>
	<g>
		<g>
			<path d="M242.215,164.983c3.354-0.601,6.778-0.405,10.168-0.393c1.188,0.005,1.188-1.838,0-1.842
				c-3.565-0.015-7.132-0.174-10.658,0.457C240.557,163.416,241.053,165.191,242.215,164.983L242.215,164.983z"/>
		</g>
	</g>
</g>
<polyline fill="#FFBCA2" points="165.904,94.573 160.645,90.268 164.544,88.468 "/>
<g>
	<g>
		<path d="M128.821,122.346c-2.504,5.054-3.526,10.474-6.341,15.447c-1.795,3.173-3.888,5.698-7.483,6.816
			c-3.748,1.167-5.463-4.429-6.687-6.75c-0.554-1.052-2.145-0.12-1.591,0.93c2.782,5.276,4.818,9.591,11.342,6.602
			c7.958-3.646,8.988-15.33,12.35-22.115C130.938,122.215,129.348,121.281,128.821,122.346L128.821,122.346z"/>
	</g>
</g>
<g>
	<g>
		<path d="M110.689,133.636c-8.227,7.058-19.856,7.803-30.165,8.868c-11.479,1.187-23.545-1.067-33.537-6.888
			c-1.029-0.599-1.956,0.994-0.93,1.592c10.794,6.287,23.479,8.273,35.812,6.999c10.467-1.082,21.814-2.142,30.122-9.269
			C112.896,134.164,111.586,132.866,110.689,133.636L110.689,133.636z"/>
	</g>
</g>
<g>
	<g>
		<path d="M51.166,138.923c-3.381,1.161-5.601,3.752-8.184,6.094c-2.145,1.944-5.866,3.752-8.434,1.53
			c-1.936-1.674-1.814-5.282-1.769-7.585c0.023-1.188-1.819-1.187-1.843,0c-0.082,4.13,0.526,9.484,5.391,10.386
			c6.563,1.215,9.966-6.806,15.328-8.647C52.773,140.316,52.293,138.536,51.166,138.923L51.166,138.923z"/>
	</g>
</g>
<g>
	<g>
		<path d="M109.64,75.348c-3.174,0.032-6.438-0.664-9.595-0.18c-3.675,0.563-7.089,1.803-10.584,3.034
			c-6.734,2.372-13.677,3.705-20.819,3.11c-7.21-0.6-13.995-3.321-21.29-3.713c-6.497-0.349-12.826,1.317-18.567,4.268
			c-4.361,2.241-8.165,5.552-10.735,9.729c-2.687,4.367-2.259,10.459-1.882,15.321c0.473,6.106,2.074,12.126,4.072,17.892
			c0.962,2.777,2.324,5.307,3.88,7.795c1.852,2.96,4.666,4.899,6.73,7.672c0.701,0.941,2.301,0.024,1.591-0.93
			c-3.147-4.226-6.847-7.349-9.301-12.202c-2.619-5.179-3.843-11.471-4.761-17.151c-0.985-6.099-1.359-13.207,1.979-18.632
			c3.422-5.562,10.4-8.905,16.389-10.742c12.467-3.825,24.215,2.74,36.603,2.733c5.054-0.003,10.063-1.342,14.859-2.793
			c2.968-0.898,5.844-2.06,8.822-2.934c4.205-1.233,8.344-0.391,12.608-0.434C110.827,77.179,110.828,75.336,109.64,75.348
			L109.64,75.348z"/>
	</g>
</g>
<ellipse cx="136.848" cy="86.334" rx="2.969" ry="2.885"/>
<g>
	<g>
		<path d="M110.53,76.852c10.954-5.521,24.944-11.326,36.984-5.891c9.54,4.306,18.816,16.123,17.323,27.023
			c-2.035,14.854-24.625,18.83-35.686,24.031c-1.075,0.505-0.139,2.093,0.93,1.591c13.211-6.212,38.911-11.034,36.584-30.548
			c-1.223-10.259-10.213-20.688-19.709-24.353c-12.354-4.769-26.257,0.961-37.356,6.556
			C108.539,75.796,109.472,77.385,110.53,76.852L110.53,76.852z"/>
	</g>
</g>
<g>
	<g>
		<path d="M128.696,81.369c0.116,2.998-0.653,5.755-1.14,8.674c-0.568,3.403-4.158,1.549-6.09,1.777
			c-1.14,0.134-2.057,0.89-2.911,1.586c-0.709,0.579-1.329,1.315-1.983,1.955c-3.613,3.531-7.452-0.268-7.923-4.004
			c-0.147-1.163-1.991-1.177-1.843,0c0.339,2.687,1.521,6.167,4.543,6.937c3.435,0.875,5.493-0.552,7.848-2.95
			c3.261-3.319,6.182,0.872,9.167-2.327c1.03-1.104,1.102-3.22,1.29-4.602c0.335-2.464,0.981-4.514,0.884-7.046
			C130.493,80.185,128.65,80.181,128.696,81.369L128.696,81.369z"/>
	</g>
</g>
<g>
	<g>
		<path d="M163.8,101.52c-0.977,0.192-1.95,0.342-2.91,0c-1.122-0.401-1.601,1.38-0.49,1.776c1.267,0.452,2.604,0.253,3.891,0
			C165.455,103.067,164.96,101.292,163.8,101.52L163.8,101.52z"/>
	</g>
</g>
<g>
	<g>
		<path d="M26.744,135.335c-1.494,1.486-3.064,2.912-5.039,3.728c-3.448,1.425-3.949-3.242-3.939-5.327
			c0.018-3.851,1.4-7.654,2.442-11.317c0.326-1.146-1.452-1.631-1.776-0.49c-1.419,4.986-3.831,11.124-1.808,16.251
			c2.351,5.956,8.626,1.24,11.422-1.541C28.89,135.799,27.587,134.496,26.744,135.335L26.744,135.335z"/>
	</g>
</g>
<g>
	<g>
		<path d="M129.797,124.548c2.612,0.53,13.694,4,9.986,7.847c-3.286,3.408-10.74,2.44-15.053,2.883c-1.17,0.119-1.182,1.963,0,1.842
			c5.086-0.521,14.524,0.565,17.416-4.856c2.825-5.299-8.567-8.824-11.858-9.492C129.127,122.537,128.633,124.312,129.797,124.548
			L129.797,124.548z"/>
	</g>
</g>
<polyline fill="#FFBCA2" points="170.876,60.573 176.136,56.268 172.236,54.468 "/>
<g>
	<g>
		<path d="M206.368,89.275c3.37,6.8,4.16,16.993,11.308,21.463c6.771,4.235,9.39-0.267,12.386-5.949
			c0.554-1.05-1.037-1.981-1.592-0.93c-1.06,2.011-1.908,4.19-3.419,5.921c-3.362,3.854-8.593-2.565-10.104-4.901
			c-3.367-5.208-4.288-11.089-6.986-16.534C207.432,87.281,205.843,88.215,206.368,89.275L206.368,89.275z"/>
	</g>
</g>
<path d="M224.788,100.938c8.308,7.127,19.655,8.186,30.122,9.269c12.332,1.275,25.02-0.712,35.812-7
	c1.026-0.598,0.099-2.19-0.93-1.591c-10.146,5.91-21.927,7.826-33.537,6.887c-10.222-0.827-22.065-1.919-30.165-8.868
	C225.194,98.867,223.885,100.164,224.788,100.938L224.788,100.938z"/>
<ellipse cx="199.932" cy="52.334" rx="2.969" ry="2.885"/>
<g>
	<g>
		<path d="M227.18,41.261c-11.099-5.595-25.002-11.325-37.355-6.556c-9.497,3.665-18.487,14.094-19.71,24.353
			c-2.327,19.514,23.373,24.336,36.584,30.548c1.068,0.502,2.005-1.085,0.93-1.591c-11.759-5.53-32.594-8.949-35.686-24.031
			c-2.262-11.031,8.438-22.436,17.323-27.023c11.513-5.943,26.503,0.608,36.984,5.891C227.308,43.385,228.241,41.796,227.18,41.261
			L227.18,41.261z"/>
	</g>
</g>
<g>
	<g>
		<path d="M206.242,47.369c-0.096,2.456,0.237,4.673,0.883,7.046c0.391,1.434,0.182,3.414,1.291,4.602
			c0.978,1.048,1.799,1.514,3.219,1.394c2.534-0.215,3.472-1.446,5.947,0.934c2.438,2.344,4.346,3.842,7.849,2.95
			c3.022-0.77,4.204-4.25,4.543-6.937c0.148-1.177-1.695-1.163-1.842,0c-0.381,3.018-2.351,6.879-6.622,4.98
			c-0.986-0.439-1.872-1.531-2.625-2.297c-1.004-1.022-1.99-1.7-3.325-2.188c-1.227-0.448-2.452-0.006-3.557,0.47
			c-3.396,1.462-3.955-10.011-3.919-10.954C208.13,46.181,206.287,46.185,206.242,47.369L206.242,47.369z"/>
	</g>
</g>
<g>
	<g>
		<path d="M172.49,69.296c1.287,0.253,2.624,0.452,3.891,0c1.11-0.396,0.632-2.177-0.49-1.776c-0.96,0.342-1.934,0.192-2.91,0
			C171.82,67.292,171.325,69.067,172.49,69.296L172.49,69.296z"/>
	</g>
</g>
<g>
	<g>
		<path d="M206.493,88.772c-3.706,0.751-13.846,3.815-11.951,9.271c1.972,5.678,12.95,4.61,17.509,5.077
			c1.182,0.121,1.17-1.723,0-1.843c-4.733-0.485-10.035,0.025-14.335-2.356c-5.914-3.274,6.78-7.869,9.268-8.374
			C208.147,90.312,207.653,88.537,206.493,88.772L206.493,88.772z"/>
	</g>
</g>
<path d="M271.162,46.875c-7.494,1.509-14.904,0.085-22.101-2.093c-3.557-1.076-6.956-2.497-10.584-3.346
	c-3.728-0.873-7.57-0.05-11.337-0.087c-1.188-0.012-1.188,1.831,0,1.843c3.676,0.037,7.172-0.542,10.848,0.021
	c3.02,0.463,5.977,1.757,8.841,2.767c4.872,1.716,9.907,2.879,15.055,3.307c5.072,0.422,10.148-0.563,15.018-1.878
	c7.614-2.056,15.4-2.681,23.099-0.796v-1.879C290.564,42.499,280.971,44.899,271.162,46.875z"/>
<path d="M295.152,112.076c-3.507-2.155-5.486-5.761-9.538-7.152c-1.127-0.387-1.606,1.393-0.49,1.776
	c5.782,1.986,8.174,8.681,14.876,8.672v-1.843C298.35,113.639,296.469,112.885,295.152,112.076z"/>
<path d="M244.726,45.403c0,0-16.226,29.815-6.226,43.504s15.555,3.102,16.655,11.374c1.101,8.271,17.671,1.078,19.508-9.589
	s10.175-28.372,16.506-22.026L300,88.468V47l-8.831-3.159L277.5,46.5l-6.833,2.167l-6,0.667L258.5,48.5L244.726,45.403z"/>
</svg>
