<?xml version="1.0" encoding="utf-8"?>
<!-- Generator: Adobe Illustrator 16.0.4, SVG Export Plug-In . SVG Version: 6.00 Build 0)  -->
<!DOCTYPE svg PUBLIC "-//W3C//DTD SVG 1.1//EN" "http://www.w3.org/Graphics/SVG/1.1/DTD/svg11.dtd">
<svg version="1.1" id="Layer_1" xmlns="http://www.w3.org/2000/svg" xmlns:xlink="http://www.w3.org/1999/xlink" x="0px" y="0px"
	 width="300px" height="250px" viewBox="0 0 300 250" enable-background="new 0 0 300 250" xml:space="preserve">
<g>
	<path fill="#36290A" d="M238.768,159.268c17.202-3.974,33.42-7.378,45.705-23.268c6.881-9.079,12.286-22.699,10.812-35.182
		c-1.966-15.89-17.202-23.266-28.013-31.779c-10.812-7.944-21.623-13.62-34.401-17.025c-8.354-1.702-25.062-1.134-25.062-1.134
		c-11.304,1.702-22.116,15.322-32.437,20.996c-11.794,6.81-27.03,7.377-40.298,9.08c-20.641,2.27-67.819-5.107-67.819-5.107
		c-11.795-4.54-41.72,3.405-46.928,24.117c-39.893,76.346,8.594,125.128,22.354,121.724c8.356-2.269,61.195-0.519,80.854-1.086
		c16.708-0.569,90.17,13.004,103.931-0.616c7.371-6.809,4.423-24.4,4.914-34.615c0.491-8.514,2.457-16.458,6.388-24.402"/>
	<g>
		<path d="M239.162,160.699c11.261-2.597,22.561-5.199,32.573-11.206c10.294-6.174,17.467-16.045,21.863-27.049
			c4.281-10.715,5.129-23.288-1.054-33.383c-5.265-8.596-14.675-13.975-22.573-19.812c-10.793-7.977-22.124-14.392-35.05-18.21
			c-8.323-2.458-17.891-1.877-26.484-1.662c-9.424,0.236-18.03,9.275-24.812,14.83c-11.617,9.515-24.469,12.496-39.118,14.177
			c-20.259,2.325-39.984,0.81-60.183-1.674c-12.254-1.506-24.282-5.055-36.519-2.017c-8.612,2.139-16.864,6.667-22.78,13.326
			c-2.686,3.022-4.575,6.61-5.821,10.436c-2.294,7.04-6.354,13.647-8.889,20.666c-7.39,20.461-9.323,43.057-3.185,64.078
			c3.854,13.195,11.344,26.639,22.456,35.072c3.247,2.464,6.941,4.677,11.082,5.053c1.556,0.142,3.082-0.403,4.611-0.593
			c3.257-0.403,6.565-0.478,9.843-0.576c19.53-0.591,39.09,0.077,58.624,0.055c14.363-0.018,28.28,1.187,42.582,2.646
			c11.567,1.18,23.158,2.223,34.783,2.601c9.631,0.312,19.73,0.382,29.107-2.146c8.335-2.246,12.491-8.168,13.417-16.731
			c0.713-6.595,0.249-13.204,0.172-19.817c-0.11-9.409,2.197-18.583,6.242-27.04c0.822-1.718-1.738-3.226-2.564-1.498
			c-5.386,11.258-6.853,22.577-6.501,34.908c0.253,8.835,1.36,21.546-8.047,26.074c-6.565,3.161-14.863,3.2-21.98,3.356
			c-9.496,0.21-19.013-0.415-28.473-1.174c-15.783-1.266-31.656-4.073-47.5-4.283c-18.216-0.242-36.484-0.106-54.706-0.099
			c-7.932,0.003-15.924-0.06-23.833,0.634c-4.035,0.354-6.64,1.104-10.479-0.792c-12.18-6.017-20.196-20.156-24.64-32.371
			c-7.851-21.582-5.561-45.224,1.853-66.565c1.284-3.697,2.793-7.312,4.383-10.886c1.242-2.792,3.391-5.74,4.198-8.663
			c1.482-5.372,4.442-9.702,8.525-13.447c7.184-6.59,17.494-10.145,27.106-10.765c4.861-0.313,9.503,1.159,14.279,1.844
			c8.038,1.154,16.098,2.154,24.173,3.003c21.437,2.255,42.271,2.375,63.517-1.837c12.465-2.471,21.512-8.86,31.115-16.762
			c4.95-4.074,10.171-8.186,16.475-9.847c3.153-0.831,7.045-0.29,10.258-0.255c5.09,0.055,10.256,0.217,15.27,1.152
			c7.373,1.375,14.712,5.039,21.236,8.591c10.385,5.655,20.966,13.325,29.833,21.174c6.815,6.035,10.461,13.386,10.492,22.536
			c0.034,10.096-4.315,20.124-9.959,28.293c-10.59,15.327-28.627,19.855-45.706,23.795
			C236.507,158.266,237.298,161.13,239.162,160.699L239.162,160.699z"/>
	</g>
</g>
<g>
	<g>
		<path d="M232.915,79.648c1.198,4.409,2.83,9.891-3.309,9.575c-3.409-0.175-6.679-0.899-10.061-0.031
			c-4.027,1.034-5.648,4.888-7.027,8.393c-1.515,3.85-5.189,9.106-9.107,3.856c-1.871-2.507-2.118-6.145-1.981-9.136
			c0.087-1.916-2.884-1.907-2.971,0c-0.225,4.943,1.273,13.562,7.545,14.235c8.276,0.888,8.039-8.506,12.055-13.177
			c3.261-3.792,10.822-0.549,15.083-1.376c5.856-1.138,3.639-9.445,2.637-13.128C235.276,77.013,232.411,77.797,232.915,79.648
			L232.915,79.648z"/>
	</g>
</g>
<ellipse cx="240.243" cy="91.335" rx="7.863" ry="8.348"/>
<g>
	<g>
		<path d="M292.176,115.318c-3.178,1.888-6.148,4.341-10.049,3.176c-2.808-0.838-3.999,3.537-1.205,4.371
			c5.226,1.561,9.225-1.067,13.541-3.633C296.973,117.74,294.694,113.821,292.176,115.318L292.176,115.318z"/>
	</g>
</g>
<g>
	<g>
		<path d="M288.793,100.276c0.72,0.735,1.802,0.152,1.591-0.851c-0.186-0.881-0.815-1.687-1.556-2.169
			c-0.716-0.467-1.57,0.444-1.148,1.148c0.956,1.597,2.353,2.764,3.571,4.142c0.72,0.812,1.902-0.38,1.188-1.188
			c-1.123-1.268-2.43-2.333-3.31-3.802c-0.383,0.383-0.766,0.766-1.148,1.148c0.245,0.16,0.408,0.373,0.561,0.618
			c0.056,0.094,0.106,0.19,0.152,0.29c0.182,0.367-0.268,0.138,0.262-0.411c0.197-0.082,0.396-0.164,0.594-0.246
			c0.144,0.044,0.287,0.089,0.432,0.133C289.223,98.314,288.036,99.502,288.793,100.276L288.793,100.276z"/>
	</g>
</g>
<g>
	<g>
		<g>
			<path fill="#2E2000" d="M201.265,79.997c-11.23,5.738-17.573,17.502-21.246,29.092c-4.141,13.068-5.307,27.396-3.75,40.993
				c0.11,0.966,1.638,0.977,1.525,0c-1.477-12.897-0.401-26.186,3.125-38.678c3.354-11.881,9.688-24.25,21.115-30.09
				C202.911,80.867,202.139,79.55,201.265,79.997L201.265,79.997z"/>
		</g>
	</g>
	<g>
		<g>
			<path fill="#2E2000" d="M233.166,151.531c-3.01,1.03-4.414,4.286-5.451,7.043c-1.567,4.163-2.306,8.652-2.997,13.028
				c-0.865,5.468-1.885,10.875-2.108,16.422c-0.29,7.174,0.688,14.357,2.449,21.302c0.242,0.953,1.715,0.549,1.473-0.406
				c-1.586-6.249-2.439-12.59-2.435-19.039c0.005-5.557,1.041-10.928,1.865-16.394c0.567-3.761,1.211-7.511,2.185-11.19
				c0.795-3.001,2.066-8.144,5.426-9.293C234.498,152.687,234.1,151.212,233.166,151.531L233.166,151.531z"/>
		</g>
	</g>
	<g>
		<g>
			<path fill="#2E2000" d="M224.375,132.373c-4.885-0.384-8.494,3.861-11.029,7.477c-3.59,5.12-6.048,11.058-8.272,16.869
				c-2.473,6.456-4.442,12.94-5.344,19.82c-1.21,9.237-0.733,18.76,1.185,27.867c0.202,0.963,1.673,0.554,1.471-0.406
				c-3.201-15.206-1.863-30.438,3.445-44.965c2.014-5.511,4.302-10.956,7.294-16.014c2.305-3.896,6.053-9.53,11.251-9.123
				C225.356,133.976,225.35,132.449,224.375,132.373L224.375,132.373z"/>
		</g>
	</g>
	<g>
		<g>
			<path fill="#2E2000" d="M178.067,75.624c-17.706,12.589-29.158,31.189-36.577,51.309c-4.513,12.238-7.059,24.864-8.467,37.808
				c-1.482,13.626-1.972,27.342-4.069,40.9c-0.149,0.963,1.322,1.376,1.472,0.406c1.927-12.461,2.57-25.053,3.75-37.594
				c1.249-13.278,3.594-26.229,7.976-38.849c7.139-20.559,18.706-39.878,36.686-52.664
				C179.632,76.376,178.871,75.052,178.067,75.624L178.067,75.624z"/>
		</g>
	</g>
	<g>
		<g>
			<path fill="#2E2000" d="M128.357,84.917c-11.408,8.623-17.996,21.916-22.118,35.309c-4.519,14.683-6.213,30.384-5.719,45.709
				c0.032,0.981,1.558,0.984,1.526,0c-0.469-14.548,1.125-29.229,5.062-43.254c3.838-13.671,10.431-27.688,22.02-36.447
				C129.902,85.648,129.143,84.322,128.357,84.917L128.357,84.917z"/>
		</g>
	</g>
	<g>
		<g>
			<path fill="#2E2000" d="M89.536,82.184c-8.125,3.763-12.826,12.924-16.581,20.565c-5.027,10.23-9.419,20.844-13.066,31.641
				c-4.102,12.145-7.233,25.008-7.335,37.887c-0.103,12.981,3.263,25.679,4.884,38.487c0.122,0.963,1.65,0.975,1.526,0
				c-1.51-11.929-4.411-23.686-4.845-35.737c-0.469-13.042,2.685-26.112,6.652-38.447c3.431-10.664,7.815-21.015,12.581-31.145
				c3.767-8.007,8.478-18.008,16.953-21.933C91.199,83.088,90.423,81.772,89.536,82.184L89.536,82.184z"/>
		</g>
	</g>
	<g>
		<g>
			<path fill="#2E2000" d="M54.823,80.116c-20.066,15.508-23.049,42.67-25.317,66.139c-0.095,0.979,1.433,0.971,1.526,0
				c2.23-23.087,5.127-49.801,24.87-65.06C56.68,80.594,55.591,79.522,54.823,80.116L54.823,80.116z"/>
		</g>
	</g>
	<g>
		<g>
			<path fill="#2E2000" d="M100.151,85.19c-9.29,14.551-16.102,30.409-19.474,47.371c-3.471,17.455-3.181,35.417-1.462,53.055
				c0.095,0.971,1.622,0.979,1.526,0c-1.686-17.287-1.939-34.771,1.264-51.904c3.196-17.098,10.13-33.13,19.463-47.75
				C102,85.128,100.679,84.363,100.151,85.19L100.151,85.19z"/>
		</g>
	</g>
	<g>
		<g>
			<path fill="#2E2000" d="M149.505,81.756c-14.943,12.026-22.202,30.527-25.862,48.852c-3.929,19.664-4.013,39.966-3.238,59.928
				c0.038,0.98,1.564,0.984,1.526,0c-0.753-19.396-0.627-39.004,2.919-58.149c3.435-18.545,10.645-37.407,25.734-49.551
				C151.352,82.218,150.264,81.145,149.505,81.756L149.505,81.756z"/>
		</g>
	</g>
	<g>
		<g>
			<path fill="#2E2000" d="M166.354,105.053c-12.556,33.684-17.196,73.473-2.289,107.188c0.397,0.898,1.712,0.121,1.318-0.77
				c-14.734-33.323-9.955-72.755,2.443-106.013C168.17,104.535,166.694,104.14,166.354,105.053L166.354,105.053z"/>
		</g>
	</g>
</g>
</svg>
