<?xml version="1.0" encoding="utf-8"?>
<!-- Generator: Adobe Illustrator 16.0.4, SVG Export Plug-In . SVG Version: 6.00 Build 0)  -->
<!DOCTYPE svg PUBLIC "-//W3C//DTD SVG 1.1//EN" "http://www.w3.org/Graphics/SVG/1.1/DTD/svg11.dtd">
<svg version="1.1" id="Layer_1" xmlns="http://www.w3.org/2000/svg" xmlns:xlink="http://www.w3.org/1999/xlink" x="0px" y="0px"
	 width="300px" height="250px" viewBox="0 0 300 250" enable-background="new 0 0 300 250" xml:space="preserve">
<polygon fill="#FFCCB9" points="147.016,211.25 170.5,195 171.5,124.706 144,75.375 132.25,81.885 118.5,172.5 121.5,208 "/>
<g>
	<g>
		<path d="M199,39c0.522-15.439-30.449,3.878-34.79,7.071c-2.517,1.851-4.482,3.73-5.641,6.733
			c-1.597,4.14-2.938,7.891-5.825,11.361c-2.449,2.943-5.291,5.453-7.54,8.578c-2.193,3.047-3.82,8.247-1.684,11.665
			c2.162,3.459,7.601,2.613,10.877,2.038c1.903-0.334,1.095-3.225-0.797-2.893c-4.319,0.758-9.157,0.695-7.696-5.016
			c1.428-5.582,6.42-9.2,9.943-13.434c3.148-3.784,4.052-8.193,6.116-12.514c1.003-2.098,3.133-3.493,4.96-4.8
			C170.104,45.519,196.3,30.148,196,39C195.935,40.936,198.935,40.929,199,39L199,39z"/>
	</g>
</g>
<g>
	<path fill="#FFCCB9" d="M228.5,34c6.5-3-3.5-10-7-11.5c-7.5-2-17,1.5-23.5,5.5"/>
	<g>
		<path d="M229.257,35.295c6.645-3.764-0.189-9.832-4.14-12.5c-8.32-5.623-20.199-0.642-27.874,3.91
			c-1.662,0.986-0.154,3.58,1.514,2.591c5.637-3.343,11.729-5.739,18.347-5.874c2.937-0.06,5.025,0.967,7.334,2.527
			c1.437,0.971,6.798,4.778,3.306,6.756C226.061,33.658,227.571,36.25,229.257,35.295L229.257,35.295z"/>
	</g>
</g>
<g>
	<g>
		<path d="M136.243,72.705c-4.489,3.06-9.507,6.68-11.564,11.938c-2.049,5.239-0.939,10.53,0.927,15.658
			c6.078,16.7,20.018,30.518,19.894,49.199c-0.013,1.936,2.987,1.934,3,0c0.097-14.593-8.083-26.979-14.878-39.303
			c-3.286-5.959-6.844-12.541-7.111-19.485c-0.272-7.072,6.021-11.854,11.247-15.417C139.345,74.213,137.846,71.612,136.243,72.705
			L136.243,72.705z"/>
	</g>
</g>
<g>
	<path fill="#FFCCB9" d="M138,73.5C111.5,79,81.5,84,57,95.5c-14,7-29,14-39.5,26.5c-8,9.5-8.5,23.5-8.5,35
		c0,19,19.5,46.5,19.5,46.5c7.5,12,21,18,34.5,19.5c22,2.5,45.5,1.5,68,1.5c7.5,0,31,0.5,22-14.5c-4.5-7-21.5-9-29-10"/>
	<g>
		<path d="M137.601,72.054c-27.503,5.684-55.671,10.286-81.358,22.151c-11.604,5.36-23.239,11.537-33.008,19.851
			c-9.446,8.039-13.845,17.688-15.214,29.879c-1.236,11.002-0.325,21.167,3.601,31.519c3.291,8.679,7.872,16.894,12.852,24.705
			c3.983,6.248,8.338,11.818,14.522,16.093c10.323,7.136,22.966,8.396,35.117,9.229c17.673,1.212,35.431,0.62,53.128,0.529
			c7.968-0.041,16.524,0.545,23.997-2.709c7.283-3.172,6.018-11.718,0.973-16.443c-6.958-6.517-19.269-7.172-28.211-8.356
			c-1.914-0.254-1.889,2.75,0,3c8.599,1.14,23.506,1.797,28.293,10.303c5.53,9.826-9.456,10.908-15.601,11.141
			c-12.624,0.479-25.341,0.268-37.973,0.252c-14.881-0.019-30.911,0.389-45.352-3.634c-19.175-5.342-29.256-23.456-36.97-40.405
			c-5.05-11.097-6.425-21.648-5.515-33.735c0.502-6.667,2.023-13.22,5.344-19.062c3.684-6.479,10.429-11.619,16.438-15.776
			c31.328-21.674,69.245-28.096,105.734-35.637C140.293,74.555,139.489,71.664,137.601,72.054L137.601,72.054z"/>
	</g>
</g>
<g>
	<path fill="#FFCCB9" d="M154,201c5,7,12.5,15,21,18.5c14.5,6,11.5-7,10.5-17c-1.5-15,6-13,16-21c3.5-3,7.5-7,8.5-11l-10,11
		c4,8.5,20.5,25,31.5,19c12.5-7-10.5-17-13.5-23.5c-7.5-15.5,6.5-16.5,12.5-27c5.5-8.5-2.5-19.5,1-29.5c3.5-12,17-10,27.5-11
		c12-1.5,22.5-5,27.5-17.5s12.5-23.5,0-33.5c-10-8.5-21-10-33-13.5c-7.5-2-15-8.5-23-8.5c0,0-10-4-16-6c-12-4.5-15.5-1-27,3
		c-8,3.5-18.5-0.5-26,5.5c-5.5,5-7,14.5-5.5,21.5v-8c-5.5,2.5-12,7.5-15.5,13c-6.5,10.5,1,18,4.5,28c3.5,9.5,1.5,19,5,28
		c4.5,13,11.5,22,12.5,36.5"/>
	<g>
		<path d="M152.705,201.757c6.306,8.653,14.148,16.759,24.568,20.143c6.748,2.191,10.434-1.81,10.672-8.274
			c0.289-7.858-4.521-18.515,3.344-23.929c7.71-5.309,16.953-9.09,20.157-18.798c0.468-1.416-1.507-2.56-2.507-1.459
			c-3.333,3.667-6.667,7.333-10,11c-0.479,0.527-0.55,1.186-0.234,1.817c3.903,7.834,11.116,14.646,18.817,18.673
			c5.646,2.952,15.612,3.987,18.757-3.188c2.626-5.988-6.437-11.847-10.141-14.803c-3.378-2.695-6.244-4.964-7.854-9.08
			c-2.141-5.474-0.073-9.443,3.979-13.097c7.446-6.711,12.775-12.009,11.336-22.793c-0.876-6.562-2.657-12.674,0.093-19.076
			c2.46-5.725,9.201-6.836,14.684-7.294c10.029-0.839,19.845-0.812,28.836-6.06c9.128-5.328,12.916-16.996,16.175-26.438
			c5.69-16.487-9.114-26.193-22.958-30.914c-4.395-1.499-8.943-2.554-13.423-3.76c-4.995-1.345-9.448-3.419-14.062-5.723
			c-5.894-2.941-12.266-3.774-18.377-6.124c-7.138-2.745-14.79-6.43-22.607-5.479c-8.411,1.023-15.383,6.186-24.045,6.588
			c-6.866,0.319-15.059,0.206-19.487,6.494c-4.248,6.033-5.198,13.569-3.874,20.716c0.314,1.699,2.946,1.254,2.946-0.399
			c0-2.667,0-5.333,0-8c0-1.205-1.257-1.778-2.257-1.295c-7.825,3.777-15.404,9.974-18.23,18.438
			c-2.94,8.805,4.504,18.154,7.135,26.038c1.835,5.497,1.718,11.542,2.346,17.251c0.579,5.255,2.355,10.092,4.376,14.939
			c4.157,9.969,9.181,19.165,10.129,30.13c0.165,1.912,3.167,1.929,3,0c-0.706-8.159-3.306-15.551-6.648-22.969
			c-2.076-4.606-4.201-9.167-5.905-13.93c-1.962-5.483-2.23-11.191-2.749-16.94c-0.839-9.289-5.139-16.343-8.251-24.873
			c-4.234-11.605,6.959-20.979,16.311-25.493c-0.752-0.432-1.505-0.864-2.257-1.295c0,2.667,0,5.333,0,8
			c0.982-0.133,1.964-0.266,2.946-0.399c-1.221-6.592-0.219-13.852,4.186-19.113c4.638-5.542,14.163-3.942,20.534-4.612
			c5.415-0.569,10.5-3.307,15.575-5.125c6.589-2.359,12.258-0.75,18.621,1.474c4.333,1.515,8.612,3.193,12.882,4.88
			c1.699,0.672,3.522,0.554,5.308,0.954c3.929,0.879,7.575,3.088,11.145,4.878c11.608,5.821,24.943,6.256,36.083,13.369
			c6.509,4.156,11.069,9.733,9.724,17.727c-1.056,6.272-4.413,12.31-6.899,18.112c-5.132,11.976-18.462,15.097-30.249,15.649
			c-8.269,0.387-17.637,0.399-22.696,8.053c-7.008,10.601,3.38,23.352-3.038,33.853c-3.916,6.407-12.589,9.207-14.121,17.12
			c-1.494,7.716,4.125,13.422,9.518,17.74c3.095,2.479,6.503,4.915,8.775,8.22c3.691,5.367-5.149,7.38-8.844,6.774
			c-9.332-1.528-18.599-11.176-22.653-19.312c-0.078,0.605-0.156,1.212-0.234,1.817c3.333-3.667,6.667-7.333,10-11
			c-0.836-0.486-1.671-0.973-2.507-1.459c-2.993,9.068-12.305,12.547-19.472,17.481c-5.078,3.496-5.55,9.211-5.082,14.917
			c0.341,4.153,3.732,16.842-3.118,17.019c-5.03,0.13-10.477-3.922-14.196-6.881c-4.389-3.491-8.103-7.883-11.391-12.395
			C154.168,198.696,151.563,200.19,152.705,201.757L152.705,201.757z"/>
	</g>
</g>
<g>
	<g>
		<path d="M155.054,203.602c-0.32,1.17-0.979,1.716-2.155,1.452c-1.884-0.423-2.685,2.469-0.797,2.893
			c2.769,0.621,5.098-0.815,5.845-3.548C158.458,202.529,155.563,201.737,155.054,203.602L155.054,203.602z"/>
	</g>
</g>
<g>
	<g>
		<path d="M191.705,46.243c-2.556,4.681-3.378,9.521-3.661,14.797c-0.316,5.896,0.66,13.4-4.721,17.35
			c-4.075,2.992-9.973,2.055-14.674,2.146c-5.581,0.108-11.069,1.618-16.548,2.518c-1.906,0.313-1.095,3.204,0.797,2.893
			c6.821-1.12,13.303-2.5,20.258-2.363c4.372,0.085,8.901-0.562,12.495-3.201c2.886-2.118,4.501-5.904,4.849-9.382
			c0.792-7.924-0.158-16.002,3.795-23.243C195.223,46.059,192.632,44.544,191.705,46.243L191.705,46.243z"/>
	</g>
</g>
<g>
	<g>
		<path d="M170.898,83.446c3.164-0.76,7.973,8.209,9.313,10.287c2.255,3.495,4.103,7.327,6.655,10.619
			c3.473,4.48,7.462,7.792,12.857,9.628c5.656,1.925,12.028,1.969,17.877,2.966c1.892,0.323,2.701-2.568,0.797-2.893
			c-5.942-1.014-12.077-1.255-17.877-2.966c-6.203-1.83-10.514-6.9-13.698-12.266c-2.659-4.481-5.309-9.052-8.592-13.114
			c-1.887-2.334-4.673-5.984-8.13-5.154C168.221,81.005,169.019,83.898,170.898,83.446L170.898,83.446z"/>
	</g>
</g>
<g>
	<g>
		<path d="M198.939,92.061c4.679,5.196,7.222,11.751,13.173,15.802c4.711,3.207,10.92,3.369,16.388,3.138
			c1.927-0.082,1.936-3.082,0-3c-5.911,0.25-11.689-0.127-16.518-3.92c-4.691-3.686-6.98-9.764-10.922-14.141
			C199.764,88.499,197.648,90.627,198.939,92.061L198.939,92.061z"/>
	</g>
</g>
<g>
	<g>
		<path d="M220.036,96.766c1.29,6.511,6.756,10.929,12.698,13.199c1.207,0.461,1.724-1.473,0.531-1.929
			c-5.318-2.031-10.149-5.993-11.302-11.801C221.714,94.97,219.786,95.506,220.036,96.766L220.036,96.766z"/>
	</g>
</g>
<g>
	<g>
		<path d="M41.137,179.505c1.625,2.279,4.937,2.693,7.485,3.175c4.674,0.884,9.458,1.317,14.162,2.015
			c13.602,2.016,26.32,8.198,35.509,18.513c0.859,0.965,2.269-0.455,1.414-1.414c-7.729-8.676-17.665-14.275-28.787-17.411
			c-4.518-1.273-9.228-1.97-13.881-2.552c-3.293-0.412-11.948-0.211-14.175-3.335C42.122,177.455,40.386,178.452,41.137,179.505
			L41.137,179.505z"/>
	</g>
</g>
<g>
	<g>
		<path d="M58.5,172c6.689,0.238,13.077,3.665,18.495,7.363c1.069,0.729,2.068-1.005,1.01-1.727
			C72.296,173.74,65.539,170.251,58.5,170C57.209,169.954,57.214,171.954,58.5,172L58.5,172z"/>
	</g>
</g>
<g>
	<g>
		<path d="M75.995,167.363c9.56,7.198,18.359,14.812,24.642,25.142c0.669,1.1,2.399,0.096,1.727-1.01
			c-6.452-10.607-15.537-18.462-25.358-25.858C75.974,164.86,74.979,166.598,75.995,167.363L75.995,167.363z"/>
	</g>
</g>
<g>
	<g>
		<path d="M83.293,163.207c12.349,10.069,21.817,22.788,30.844,35.798c0.729,1.052,2.464,0.053,1.727-1.01
			c-9.117-13.141-18.679-26.028-31.156-36.202C83.717,160.985,82.293,162.392,83.293,163.207L83.293,163.207z"/>
	</g>
</g>
<g>
	<g>
		<path d="M61,133c5.902,0.299,10.894,5.846,14.684,9.831c4.786,5.034,8.961,10.639,13.095,16.207
			c4.594,6.188,9.306,12.208,13.322,18.807c4.951,8.135,9.062,16.762,13.536,25.16c0.606,1.139,2.333,0.128,1.727-1.01
			c-4.741-8.9-9.16-17.972-14.407-26.593c-4.242-6.97-9.405-13.308-14.282-19.833c-4.368-5.844-8.904-11.591-14.1-16.728
			C70.945,135.255,66.341,131.271,61,131C59.71,130.935,59.717,132.935,61,133L61,133z"/>
	</g>
</g>
<g>
	<g>
		<path d="M74.293,127.207c11.403,11.124,19.521,25.388,28.128,38.674c7.568,11.683,12.307,25.384,22.372,35.326
			c0.918,0.907,2.333-0.507,1.414-1.414c-10.212-10.089-15.119-24.21-22.812-36.085c-8.46-13.061-16.473-26.976-27.688-37.915
			C74.784,124.892,73.369,126.306,74.293,127.207L74.293,127.207z"/>
	</g>
</g>
<g>
	<g>
		<path d="M90.5,119c1.052,21.356,19.484,36.338,29.137,54.005c0.618,1.132,2.345,0.123,1.727-1.01
			C111.938,154.744,93.526,139.831,92.5,119C92.437,117.716,90.437,117.71,90.5,119L90.5,119z"/>
	</g>
</g>
<g>
	<g>
		<path d="M120.637,164.005c2.427,3.858,3.215,8.11,4.188,12.487c0.817,3.676,2.287,6.601,4.275,9.772
			c3.861,6.16,8.649,12.22,14.193,16.942c0.976,0.831,2.397-0.576,1.414-1.414c-5.801-4.941-10.561-11.242-14.589-17.67
			c-4.101-6.543-3.646-14.6-7.754-21.128C121.679,161.907,119.947,162.909,120.637,164.005L120.637,164.005z"/>
	</g>
</g>
<g>
	<g>
		<path d="M108.036,112.266c3.18,10.054,6.898,19.906,10.979,29.628c3.242,7.725,7.221,15.152,9.477,23.238
			c1.888,6.764,3.57,13.577,6.006,20.174c1.771,4.796,4.067,10.156,8.498,13.058c1.083,0.709,2.083-1.023,1.01-1.727
			c-4.937-3.233-7.039-10.115-8.827-15.396c-2.079-6.137-3.558-12.46-5.334-18.687c-2.26-7.922-6.435-15.318-9.619-22.902
			c-3.839-9.147-7.269-18.46-10.261-27.918C109.577,110.509,107.646,111.033,108.036,112.266L108.036,112.266z"/>
	</g>
</g>
<g>
	<g>
		<path d="M118.036,110.266c6.417,31.832,20.083,61.669,26.5,93.5c0.255,1.264,2.183,0.728,1.929-0.531
			c-6.417-31.832-20.083-61.669-26.5-93.5C119.709,108.47,117.782,109.007,118.036,110.266L118.036,110.266z"/>
	</g>
</g>
<g>
	<g>
		<path d="M117.536,91.266c9.112,24.876,24.628,47.856,24.464,75.234c-0.008,1.29,1.992,1.289,2,0
			c0.165-27.601-15.352-50.694-24.536-75.766C119.024,89.534,117.091,90.052,117.536,91.266L117.536,91.266z"/>
	</g>
</g>
<g>
	<g>
		<path d="M153.464,199.734c-1.142-6.257-3.437-12.224-4.5-18.5c-0.215-1.27-2.142-0.729-1.929,0.531
			c1.063,6.276,3.358,12.244,4.5,18.5C151.768,201.533,153.694,200.995,153.464,199.734L153.464,199.734z"/>
	</g>
</g>
<g>
	<g>
		<path d="M155.464,201.266c1.912-5.05,2.589-10.449,4.5-15.5c0.458-1.208-1.477-1.726-1.928-0.531
			c-1.912,5.05-2.589,10.449-4.5,15.5C153.078,201.942,155.013,202.46,155.464,201.266L155.464,201.266z"/>
	</g>
</g>
<g>
	<g>
		<path d="M159.505,204.137c-0.009-0.004-0.018-0.008-0.025-0.012c0.165,0.287,0.33,0.575,0.495,0.863
			c0.027,0.457-0.08,0.315,0.165-0.021c0.236-0.326,0.504-0.632,0.762-0.941c0.671-0.806,1.362-1.596,2.05-2.387
			c1.324-1.525,2.687-3.027,3.912-4.634c0.783-1.026-0.955-2.021-1.727-1.01c-1.348,1.766-2.883,3.399-4.336,5.077
			c-0.729,0.843-2.903,2.643-2.826,3.916c0.021,0.332,0.171,0.71,0.495,0.863c0.009,0.004,0.017,0.008,0.025,0.012
			C159.655,206.41,160.671,204.687,159.505,204.137L159.505,204.137z"/>
	</g>
</g>
<g>
	<g>
		<path d="M163,209c2.746-0.075,5.082-1.572,6.363-3.995c0.603-1.14-1.124-2.15-1.727-1.01c-0.952,1.801-2.571,2.948-4.637,3.005
			C161.713,207.035,161.71,209.035,163,209L163,209z"/>
	</g>
</g>
<g>
	<g>
		<path d="M163.637,85.005c6.681,11.913,13.425,23.897,24.281,32.546c8.885,7.079,20.068,9.98,30.816,12.913
			c1.246,0.341,1.774-1.589,0.531-1.928c-11.006-3.004-21.943-6.034-31.021-13.266c-10.245-8.162-16.593-20.062-22.882-31.275
			C164.732,82.871,163.005,83.878,163.637,85.005L163.637,85.005z"/>
	</g>
</g>
<g>
	<g>
		<path d="M153.536,89.234c-2.267,16.116,8.908,30.964,17.101,43.771c0.692,1.082,2.424,0.08,1.727-1.01
			c-7.829-12.24-19.066-26.816-16.899-42.229C155.642,88.505,153.715,87.961,153.536,89.234L153.536,89.234z"/>
	</g>
</g>
<ellipse cx="224.324" cy="57.125" rx="6.324" ry="6.625"/>
<g>
	<g>
		<path d="M271.743,99.295c7.325,3.647,13.278-2.914,16.302-9.039c0.854-1.728-1.733-3.249-2.59-1.514
			c-2.16,4.375-6.56,10.769-12.198,7.961C271.531,95.845,270.011,98.433,271.743,99.295L271.743,99.295z"/>
	</g>
</g>
<g>
	<g>
		<path d="M281.637,74.005c0.658,1.122,1.166,2.305,1.649,3.511c0.473,1.182,2.408,0.667,1.928-0.531
			c-0.546-1.365-1.104-2.719-1.851-3.989C282.711,71.884,280.982,72.89,281.637,74.005L281.637,74.005z"/>
	</g>
</g>
</svg>
