<?xml version="1.0" encoding="utf-8"?>
<!-- Generator: Adobe Illustrator 16.0.4, SVG Export Plug-In . SVG Version: 6.00 Build 0)  -->
<!DOCTYPE svg PUBLIC "-//W3C//DTD SVG 1.1//EN" "http://www.w3.org/Graphics/SVG/1.1/DTD/svg11.dtd">
<svg version="1.1" id="Layer_1" xmlns="http://www.w3.org/2000/svg" xmlns:xlink="http://www.w3.org/1999/xlink" x="0px" y="0px"
	 width="300px" height="250px" viewBox="0 0 300 250" enable-background="new 0 0 300 250" xml:space="preserve">
<g>
	<path fill="#A24300" d="M35.086,224.555"/>
	<g>
		<path d="M35.086,226.007c1.875,0,1.875-2.905,0-2.905S33.211,226.007,35.086,226.007L35.086,226.007z"/>
	</g>
</g>
<g>
	<path fill="#A24300" d="M203.648,216.157c4.845,11.141,8.72,15.5,23.25,13.077c15.5-2.905,14.531-17.438,21.312-29.062
		c6.781-12.108,15.5-20.344,27.609-27.608c10.656-6.781,14.531-13.562,16.953-26.156c1.938-11.143,2.422-21.797-6.781-29.547
		c-9.688-8.719-20.344-14.531-29.547-23.735c-9.203-9.688-14.531-17.438-28.578-22.281c-10.172-3.391-18.891-4.844-30.031-1.938
		c-18.891,5.328-43.109,18.406-62.485,10.172c-11.625-5.328-22.281-9.688-34.875-8.234c-11.625,1.453-25.672,3.875-36.329,8.234
		c-10.656,4.844-20.828,13.562-31,19.86c-12.594,7.75-14.047,16.953-16.469,30.515c-3.875,22.767-10.172,46.017-4.359,68.298
		c1.379,4.484,3.742,15.602,7.262,21.807c0,0,2.102,4.879,4.363,4.834c10.182-0.195,27.125,3.392,30.516-10.172"/>
	<g>
		<path d="M202.395,216.891c2.946,6.674,6.689,13.37,14.668,14.254c8.946,0.991,18.035-1.451,23.225-9.134
			c2.339-3.465,3.621-7.688,5.018-11.587c2.043-5.704,4.715-10.865,8.141-15.865c3.438-5.018,7.729-9.375,12.373-13.271
			c4.857-4.075,10.607-6.84,15.488-10.847c7.926-6.51,11.442-15.153,13.114-25.098c1.731-10.312,1.457-20.636-6.252-28.484
			c-9.918-10.094-22.978-16.455-32.681-26.882c-7.221-7.758-14.141-15.431-24.25-19.411c-11.965-4.71-24.057-6.028-36.456-2.271
			c-12.271,3.717-24.007,8.96-36.699,11.218c-6.539,1.163-13.224,1.055-19.609-0.824c-6.767-1.991-12.977-5.69-19.808-7.673
			c-12.473-3.622-25.509-0.997-37.922,1.628c-5.783,1.224-11.954,2.644-17.327,5.178C56.839,80.925,50.864,85,44.932,89.171
			c-8.981,6.312-19.756,11.37-24.851,21.601c-5.11,10.263-5.72,23.431-7.77,34.535c-2.657,14.387-4.84,28.965-3.143,43.604
			c0.938,8.091,3.437,16.338,6.019,24.05c1.125,3.363,3.989,12.929,8.758,12.888c11.439-0.103,27.794,2.995,31.917-11.24
			c0.523-1.804-2.281-2.567-2.803-0.771c-3.2,11.048-16.167,9.502-25.274,9.159c-2.89-0.109-4.711-0.142-6.32-2.906
			c-0.99-1.704-1.814-3.563-2.552-5.381c-2.061-5.065-3.29-10.456-4.723-15.72c-4.111-15.096-2.858-30.414-0.354-45.672
			c2.065-12.588,3.526-26.151,7.612-38.278c1.838-5.455,5.412-9.812,9.984-13.22c5.711-4.257,11.916-8.017,17.769-12.1
			c5.717-3.988,11.622-7.895,18.188-10.333c6.674-2.478,13.724-3.958,20.71-5.232c6.822-1.244,13.748-2.424,20.699-2.003
			c7.892,0.477,15.53,3.608,22.673,6.758c11.139,4.91,21.65,4.934,33.423,2.154c12.519-2.955,24.182-8.921,36.771-11.53
			c13.445-2.785,29.264,1.95,39.844,10.436c4.042,3.242,7.477,7.224,10.967,11.029c4.596,5.006,9.682,9.319,15.097,13.407
			c5.862,4.428,11.878,8.613,17.394,13.483c5.629,4.969,7.567,11.209,7.488,18.551c-0.122,11.396-3.471,23.461-12.229,31.144
			c-4.324,3.796-9.647,6.321-14.191,9.851c-4.928,3.826-9.312,8.111-13.16,13.025c-6.609,8.445-9.105,17.784-13.539,27.273
			c-4.379,9.379-18.182,14.432-27.309,8.563c-3.598-2.312-5.475-7.14-7.122-10.872C204.148,213.713,201.646,215.193,202.395,216.891
			L202.395,216.891z"/>
	</g>
</g>
<g>
	<g>
		<path d="M19.485,220.859c0.295,0.285,0.544,0.49,0.941,0.608c-0.12-0.155-0.238-0.311-0.356-0.467c0,0.08,0,0.162,0,0.242
			c0.162-0.162,0.323-0.322,0.484-0.484c-0.871-0.045-1.718-0.431-2.535-0.709c0.119,0.155,0.237,0.312,0.355,0.468
			c0-0.315-0.134,0.094,0.163-0.205c0.222-0.223,0.443-0.442,0.664-0.664c0.171-0.172,0.207-0.521,0-0.687
			c-0.24-0.19-0.495-0.338-0.761-0.489c-0.171-0.1-0.265-0.455-0.389-0.64c-0.369-0.549-1.043-0.84-1.612-1.126
			c-0.557-0.278-1.047,0.557-0.489,0.836c0.565,0.284,1.229,0.532,1.474,1.164c0.202,0.521,0.685,0.613,1.093,0.939
			c0-0.228,0-0.457,0-0.686c-0.464,0.465-1.11,0.857-1.11,1.555c0,0.225,0.15,0.397,0.355,0.467c0.91,0.311,1.821,0.695,2.793,0.744
			c0.264,0.015,0.484-0.229,0.484-0.483c0-0.08,0-0.162,0-0.242c0-0.219-0.148-0.406-0.355-0.467
			c-0.17-0.119-0.342-0.24-0.513-0.359C19.721,219.741,19.035,220.425,19.485,220.859L19.485,220.859z"/>
	</g>
</g>
<g>
	<g>
		<path d="M17.164,214.462c-0.502-0.021-1.003-0.203-1.451-0.418c-0.561-0.269-1.052,0.565-0.489,0.836
			c0.609,0.291,1.259,0.524,1.939,0.55C17.789,215.455,17.787,214.486,17.164,214.462L17.164,214.462z"/>
	</g>
</g>
<g>
	<g>
		<path d="M16.197,212.591c-0.484-0.241-0.969-0.483-1.453-0.727c-0.557-0.278-1.048,0.556-0.489,0.836
			c0.484,0.241,0.969,0.483,1.453,0.727C16.266,213.705,16.756,212.869,16.197,212.591L16.197,212.591z"/>
	</g>
</g>
<g>
	<g>
		<path d="M15.471,210.652c-0.587-0.4-1.096-0.877-1.598-1.377c-0.442-0.442-1.127,0.242-0.685,0.686
			c0.56,0.561,1.138,1.08,1.793,1.528C15.5,211.842,15.983,211.003,15.471,210.652L15.471,210.652z"/>
	</g>
</g>
<g>
	<g>
		<path d="M15.227,208.648c-0.037-1.061-0.633-2.02-1.353-2.765c-0.435-0.45-1.119,0.234-0.685,0.687
			c0.534,0.551,1.042,1.281,1.069,2.078C14.279,209.271,15.248,209.275,15.227,208.648L15.227,208.648z"/>
	</g>
</g>
<g>
	<g>
		<path d="M14.358,205.4c-0.727-0.728-1.453-1.453-2.18-2.181c-0.442-0.442-1.127,0.242-0.685,0.687
			c0.727,0.727,1.453,1.453,2.18,2.18C14.115,206.527,14.8,205.844,14.358,205.4L14.358,205.4z"/>
	</g>
</g>
<g>
	<g>
		<path d="M12.497,203.077c-0.338-0.654-0.776-1.267-1.287-1.794c-0.435-0.45-1.119,0.234-0.685,0.686
			c0.456,0.471,0.833,1.014,1.135,1.596C11.948,204.12,12.783,203.63,12.497,203.077L12.497,203.077z"/>
	</g>
</g>
<g>
	<g>
		<path d="M12.739,199.93c-0.76-1.457-1.904-2.662-2.664-4.117c-0.29-0.556-1.125-0.064-0.836,0.487
			c0.761,1.456,1.904,2.662,2.665,4.117C12.191,200.971,13.027,200.48,12.739,199.93L12.739,199.93z"/>
	</g>
</g>
<g>
	<g>
		<path d="M11.818,195.441c-0.566-1.877-1.554-3.543-2.788-5.058c-0.396-0.483-1.076,0.204-0.685,0.685
			c1.126,1.383,2.021,2.92,2.54,4.631C11.065,196.296,12,196.042,11.818,195.441L11.818,195.441z"/>
	</g>
</g>
<g>
	<g>
		<path d="M8.816,189.291c0.107,0.146,0.145,0.143,0.114-0.018c-0.006-0.625-0.975-0.627-0.969,0
			c0.004,0.431,0.117,0.862,0.598,0.951C9.169,190.34,9.43,189.405,8.816,189.291L8.816,189.291z"/>
	</g>
</g>
<g>
	<g>
		<path d="M7.961,179.829c0.021,0.769,0.22,1.489,0.55,2.182c0.271,0.563,1.105,0.071,0.836-0.487
			c-0.255-0.534-0.401-1.104-0.417-1.693C8.912,179.204,7.943,179.202,7.961,179.829L7.961,179.829z"/>
	</g>
</g>
<g>
	<g>
		<path d="M6.892,184.53c0.568,0.569,1.144,1.058,1.909,1.336c0.588,0.216,0.839-0.722,0.257-0.935
			c-0.597-0.219-1.039-0.646-1.481-1.087C7.135,183.402,6.449,184.088,6.892,184.53L6.892,184.53z"/>
	</g>
</g>
<g>
	<g>
		<path d="M7.252,188.191c0.329,0.892,0.979,1.304,1.92,1.324c0.625,0.014,0.624-0.955,0-0.969
			c-0.479-0.011-0.811-0.141-0.986-0.613C7.972,187.354,7.035,187.604,7.252,188.191L7.252,188.191z"/>
	</g>
</g>
<g>
	<g>
		<path d="M7.494,190.855c0.382,0.977,1.298,1.354,2.291,1.064c0.599-0.175,0.344-1.109-0.257-0.936
			c-0.437,0.13-0.912,0.095-1.1-0.387C8.203,190.023,7.267,190.273,7.494,190.855L7.494,190.855z"/>
	</g>
</g>
<g>
	<g>
		<path d="M8.103,194.46c0.581,0.562,1.228,0.851,2.038,0.869c0.625,0.015,0.624-0.954,0-0.97c-0.553-0.014-0.957-0.203-1.353-0.584
			C8.338,193.342,7.652,194.025,8.103,194.46L8.103,194.46z"/>
	</g>
</g>
<g>
	<g>
		<path d="M10.383,198.72c0.603-0.001,1.143-0.061,1.697-0.309c0.569-0.255,0.077-1.088-0.489-0.836
			c-0.385,0.172-0.793,0.175-1.208,0.176C9.758,197.752,9.758,198.721,10.383,198.72L10.383,198.72z"/>
	</g>
</g>
<g>
	<g>
		<path d="M10.141,199.688c-0.126-0.012-0.112,0.004,0.045,0.047c0.081,0.142,0.16,0.279,0.24,0.418c0-0.002,0-0.006,0-0.008
			c-0.081,0.139-0.16,0.277-0.24,0.418c-0.117,0.084,0.021-0.002,0.094-0.021c0.105-0.026,0.214-0.044,0.321-0.062
			c0.167-0.03,0.338-0.062,0.509-0.065c0.623-0.021,0.625-0.99,0-0.969c-0.427,0.016-1.686,0.06-1.653,0.706
			c0.008,0.156,0.083,0.35,0.24,0.42c0.148,0.062,0.283,0.082,0.444,0.085C10.766,200.667,10.765,199.698,10.141,199.688
			L10.141,199.688z"/>
	</g>
</g>
<g>
	<g>
		<path d="M9.999,199.547c0.267-0.27,0.547-0.552,0.608-0.939c0.097-0.611-0.837-0.873-0.934-0.258
			c-0.036,0.224-0.208,0.356-0.36,0.512C8.874,199.305,9.558,199.991,9.999,199.547L9.999,199.547z"/>
	</g>
</g>
<g>
	<g>
		<path d="M8.93,198.234c0.354-0.021,0.646-0.236,0.709-0.598c0.107-0.611-0.826-0.873-0.934-0.258
			c0.061-0.074,0.137-0.111,0.225-0.113C8.309,197.307,8.305,198.273,8.93,198.234L8.93,198.234z"/>
	</g>
</g>
<g>
	<g>
		<path d="M11.35,204.708c0.561,0.351,0.735,0.729,1.455,0.793c-0.156-0.204-0.311-0.409-0.467-0.612
			c-0.065,0.379-0.222,0.705-0.26,1.098c-0.026,0.271,0.24,0.475,0.484,0.483c0.161,0.06,0.322,0.117,0.482,0.177
			c-0.058-0.222-0.116-0.44-0.173-0.662c-0.116,0.224-0.244,0.434-0.409,0.627c-0.265,0.312-0.105,0.828,0.342,0.828
			c0.242,0,0.484,0,0.727,0c-0.114-0.275-0.229-0.551-0.343-0.828c-0.242,0.242-0.484,0.484-0.727,0.728
			c-0.167,0.167-0.167,0.384-0.076,0.586c0.19,0.425,0.733,0.476,1.145,0.482c-0.082-0.302-0.163-0.603-0.244-0.903
			c-0.485,0.29-0.667,0.643-0.9,1.145c-0.152,0.324,0.025,0.729,0.417,0.729c0.323,0,0.646,0,0.969,0c0.625,0,0.625-0.969,0-0.969
			c-0.323,0-0.646,0-0.969,0c0.14,0.242,0.279,0.486,0.418,0.729c0.153-0.326,0.222-0.598,0.553-0.795
			c0.417-0.249,0.236-0.894-0.244-0.902c-0.06,0-0.327-0.045-0.308-0.002c-0.025,0.194-0.05,0.391-0.076,0.588
			c0.242-0.242,0.484-0.484,0.727-0.728c0.299-0.301,0.081-0.828-0.343-0.828c-0.242,0-0.484,0-0.727,0
			c0.114,0.275,0.229,0.552,0.343,0.828c0.219-0.258,0.404-0.526,0.56-0.825c0.13-0.25,0.05-0.506-0.173-0.664
			c-0.323-0.227-0.581-0.295-0.971-0.308c0.162,0.162,0.323,0.322,0.484,0.483c0.029-0.303,0.174-0.545,0.225-0.84
			c0.054-0.328-0.134-0.582-0.469-0.611c-0.387-0.034-0.651-0.465-0.967-0.66C11.307,203.541,10.821,204.378,11.35,204.708
			L11.35,204.708z"/>
	</g>
</g>
<g>
	<g>
		<path d="M9.639,180.926c0.419-2.049-0.077-3.613-1.577-5.072c-0.114,0.276-0.229,0.553-0.343,0.828c0.323,0,0.646,0,0.969,0
			c0.402,0,0.668-0.541,0.343-0.828c-0.314-0.272-0.421-0.332-0.827-0.383c0.162,0.161,0.323,0.322,0.484,0.484
			c0-0.441,0.627-0.662,0.627-1.114c0-0.838,0.79-1.573,1.244-2.274c0.138-0.211,0.055-0.547-0.173-0.664
			c-0.323-0.159-0.646-0.32-0.969-0.483c-0.082,0.304-0.163,0.603-0.244,0.904c0.242,0,0.484,0,0.727,0
			c0.369,0,0.602-0.411,0.418-0.729c-0.364-0.635-0.667-1.271-0.969-1.938c-0.221,0.22-0.442,0.441-0.663,0.662
			c0.314,0.141,0.492,0.197,0.843,0.291c0.45,0.119,0.846-0.478,0.471-0.81c-0.409-0.341-0.788-0.711-1.135-1.112
			c-0.14,0.242-0.279,0.485-0.418,0.729c0.526-0.041,0.542-0.056,1.097-0.26c0.369-0.138,0.515-0.673,0.117-0.886
			c-0.434-0.231-0.179-1.642-0.263-2.133c-0.157,0.202-0.312,0.406-0.468,0.611c0.242,0,0.484,0,0.727,0
			c0.39,0,0.685-0.551,0.343-0.827c-0.12-0.172-0.24-0.343-0.36-0.513c-0.269,0.156-0.54,0.312-0.809,0.471
			c0.162,0.161,0.322,0.322,0.484,0.484c0.144,0.145,0.409,0.199,0.587,0.076c0.53-0.369,0.525-1.131,0.416-0.901
			c0.268-0.562-0.567-1.054-0.836-0.488c-0.321,0.673,0.477,0.585,0.034,0.144c-0.323-0.323-0.989,0.002-0.809,0.471
			c0.146,0.385,0.286,0.68,0.608,0.939c0.114-0.273,0.228-0.549,0.343-0.826c-0.242,0-0.484,0-0.727,0
			c-0.338,0-0.52,0.308-0.467,0.613c0.048,0.584-0.032,1.146-0.242,1.681c-0.047,0.157,0,0.358,0.124,0.471
			c0.329,0.294,0.405,0.337,0.824,0.56c0.039-0.295,0.078-0.59,0.116-0.885c-0.28,0.075-0.56,0.149-0.84,0.225
			c-0.325,0.023-0.658,0.408-0.419,0.729c0.385,0.519,0.802,0.879,1.287,1.31c0.157-0.271,0.314-0.539,0.47-0.81
			c-0.203-0.063-0.407-0.13-0.61-0.192c-0.455-0.203-0.869,0.205-0.663,0.662c0.302,0.666,0.604,1.303,0.969,1.938
			c0.139-0.242,0.279-0.485,0.418-0.729c-0.242,0-0.484,0-0.727,0c-0.463,0-0.687,0.682-0.244,0.902
			c0.323,0.163,0.646,0.322,0.969,0.484c-0.058-0.221-0.116-0.441-0.174-0.662c-0.383,0.59-1.698,1.601-1.501,2.31
			c0.169,0.615-0.502,0.877-0.502,1.567c0,0.288,0.222,0.451,0.484,0.484c0.047,0.032,0.095,0.065,0.141,0.1
			c0.115-0.274,0.229-0.551,0.343-0.826c-0.323,0-0.646,0-0.969,0c-0.418,0-0.647,0.53-0.343,0.826
			c1.222,1.188,1.673,2.447,1.33,4.132C8.58,181.277,9.514,181.539,9.639,180.926L9.639,180.926z"/>
	</g>
</g>
<g>
	<g>
		<path d="M10.123,164.686c-0.052-0.209-0.153-0.361-0.209-0.56c-0.156,0.205-0.312,0.409-0.467,0.613
			c0.188,0.019,0.376,0.038,0.564,0.057c0.275,0.049,0.654-0.127,0.613-0.466c-0.082-0.686-0.249-1.174-0.502-1.824
			c-0.156,0.204-0.311,0.408-0.467,0.613c0.242,0,0.484,0,0.727,0c0.357,0,0.617-0.416,0.418-0.729
			c-0.246-0.332-0.392-0.697-0.436-1.097c-0.269,0.157-0.54,0.312-0.809,0.47c0.242,0.195,0.394,0.258,0.698,0.367
			c0.375,0.139,0.661-0.265,0.596-0.595c-0.099-0.506-0.261-0.897-0.533-1.326c-0.182,0.235-0.364,0.474-0.546,0.71
			c0.408,0.059,0.812,0.139,1.211,0.242c0.493,0.115,0.78-0.444,0.471-0.811c-0.713-0.844-1.225-1.819-1.938-2.664
			c-0.157,0.271-0.314,0.541-0.471,0.811c0.242,0.081,0.484,0.161,0.727,0.242c0.325,0.107,0.736-0.254,0.596-0.596
			c-0.138-0.334-0.349-0.641-0.484-0.969c-0.237,0.184-0.474,0.364-0.711,0.547c0.388,0.221,0.662,0.174,1.099,0.049
			c0.259-0.072,0.403-0.338,0.338-0.596c-0.081-0.322-0.162-0.646-0.242-0.969c-0.156,0.204-0.311,0.408-0.467,0.613
			c0.472-0.04,0.552-0.063,0.971-0.309c0.17-0.101,0.303-0.35,0.222-0.547c-0.138-0.335-0.349-0.641-0.484-0.969
			c-0.112,0.197-0.225,0.396-0.338,0.596c2.296-0.525,2.191-2.267,1.259-4.102c-0.221,0.221-0.442,0.441-0.663,0.662
			c0.404,0.242,0.807,0.484,1.211,0.727c0.388,0.233,0.788-0.146,0.711-0.546c-0.149-0.781-0.268-0.849-0.484-1.694
			c-0.112,0.197-0.225,0.396-0.338,0.594c0.323-0.08,0.646-0.16,0.969-0.241c0.271-0.067,0.387-0.343,0.338-0.595
			c-0.126-0.67-0.357-1.27-0.484-1.938c-0.156,0.204-0.311,0.408-0.467,0.612c0.162,0,0.323,0,0.484,0
			c0.373,0,0.596-0.409,0.418-0.729c-0.317-0.57-0.652-1.127-0.969-1.695c-0.14,0.242-0.279,0.484-0.418,0.729
			c1.586-0.039,1.538-0.833,1.695-2.18c-0.162,0.162-0.323,0.322-0.484,0.484c0.717-0.035,0.65-0.019,1.339-0.261
			c0.3-0.104,0.448-0.424,0.29-0.71c-0.503-0.917-0.483-1.831-0.678-2.791c-0.123-0.611-1.057-0.354-0.934,0.257
			c0.228,1.128,0.217,2.005,0.775,3.021c0.097-0.236,0.193-0.474,0.29-0.71c-0.361,0.074-0.722,0.148-1.082,0.224
			c-0.288,0.015-0.452,0.211-0.484,0.483c-0.051,0.441-0.104,1.195-0.727,1.212c-0.37,0.011-0.6,0.403-0.418,0.729
			c0.317,0.57,0.652,1.127,0.969,1.695c0.139-0.242,0.279-0.485,0.418-0.729c-0.162,0-0.323,0-0.484,0
			c-0.334,0-0.525,0.309-0.467,0.613c0.125,0.669,0.357,1.27,0.484,1.938c0.112-0.196,0.225-0.396,0.338-0.594
			c-0.322,0.08-0.646,0.16-0.969,0.241c-0.259,0.063-0.403,0.345-0.338,0.595c0.136,0.533,0.387,1.193,0.484,1.695
			c0.237-0.182,0.473-0.363,0.711-0.546c-0.404-0.242-0.807-0.483-1.211-0.728c-0.437-0.263-0.875,0.246-0.663,0.662
			c0.819,1.01,0.593,1.902-0.679,2.681c-0.234,0.055-0.436,0.358-0.338,0.596c-0.03-0.071,0.249,0.597,0.225,0.599
			c-0.316,0.026-0.548,0.289-0.467,0.612c0.08,0.324,0.162,0.647,0.242,0.97c0.112-0.199,0.225-0.397,0.338-0.597
			c-0.113,0.054-0.231,0.069-0.354,0.05c-0.335-0.189-0.883,0.133-0.711,0.547c0.138,0.334,0.349,0.641,0.484,0.969
			c0.199-0.198,0.397-0.397,0.595-0.596c-0.242-0.08-0.484-0.162-0.727-0.242c-0.498-0.166-0.76,0.468-0.471,0.81
			c0.713,0.847,1.225,1.819,1.938,2.664c0.157-0.269,0.314-0.539,0.471-0.81c-0.398-0.104-0.802-0.186-1.211-0.242
			c-0.389-0.066-0.794,0.32-0.546,0.711c0.247,0.33,0.392,0.695,0.437,1.096c0.199-0.197,0.397-0.396,0.595-0.596
			c-0.09-0.038-0.18-0.078-0.27-0.117c-0.38-0.303-0.907-0.025-0.809,0.471c0.099,0.508,0.26,0.897,0.532,1.326
			c0.14-0.242,0.279-0.484,0.419-0.729c-0.242,0-0.484,0-0.727,0c-0.291,0-0.583,0.313-0.467,0.612
			c0.225,0.503,0.38,1.023,0.467,1.566c0.204-0.155,0.409-0.31,0.613-0.468c-0.318-0.055-0.524-0.114-0.822-0.09
			c-0.307,0.025-0.56,0.289-0.467,0.612c0.054,0.19,0.161,0.367,0.209,0.558C9.342,165.547,10.277,165.29,10.123,164.686
			L10.123,164.686z"/>
	</g>
</g>
<g>
	<g>
		<path d="M20.184,115.147c0.19,0.037,0.332,0.065,0.521,0.021c0.307-0.072,0.444-0.45,0.29-0.711
			c-0.398-0.675-1.466-1.058-2.037-1.572c-0.196,0.254-0.391,0.507-0.587,0.761c0.431,0.22,0.828,0.431,1.211,0.727
			c0.369,0.285,0.788-0.182,0.711-0.546c-0.117-0.565-0.547-0.928-0.727-1.453c-0.112,0.199-0.225,0.397-0.338,0.596
			c0.382-0.138,0.749,0.266,1.105-0.055c0.498-0.448,0.051-1.388,0.201-1.979c-0.294,0.039-0.59,0.078-0.885,0.116
			c0.276,0.449,0.533,0.562,1.031,0.464c0.147-0.028,0.316-0.186,0.338-0.338c0.06-0.409,0.182-0.802,0.242-1.211
			c-0.317-0.042-0.634-0.085-0.951-0.128c0,0.08,0,0.162,0,0.242c0,0.625,0.969,0.625,0.969,0c0-0.405,0.549-1.938,0.384-2.079
			c0.274,0.235,0.701,0.155,0.809-0.214c0.041-0.136-0.63-0.227-0.075-0.093c0.163,0.04,0.304-0.013,0.463-0.053
			c0.605-0.155,0.348-1.09-0.258-0.934c-0.667,0.171-0.809-0.05-1.064,0.823c0.269-0.072,0.539-0.143,0.809-0.214
			c-1.417-1.214-2.039,1.904-2.039,2.765c0,0.625,0.969,0.625,0.969,0c0-0.081,0-0.162,0-0.242c0-0.531-0.87-0.681-0.951-0.129
			c-0.022,0.206-0.063,0.407-0.121,0.605c-0.201,0.386-0.107,0.468,0.28,0.247c-0.215-0.349-0.779-0.301-0.886,0.116
			c-0.06,0.172-0.101,0.349-0.12,0.53c0.017,0.646-0.138,0.757,0.444,0.862c-0.367-0.066-0.598-0.164-0.956-0.035
			c-0.236,0.085-0.428,0.331-0.338,0.595c0.178,0.525,0.611,0.899,0.727,1.453c0.237-0.182,0.474-0.364,0.711-0.546
			c-0.383-0.295-0.78-0.506-1.211-0.727c-0.471-0.24-1.013,0.376-0.587,0.761c0.479,0.432,1.578,0.856,1.884,1.375
			c0.097-0.237,0.193-0.475,0.289-0.712c-0.001-0.006-0.004-0.014-0.007-0.02C19.831,114.097,19.57,115.031,20.184,115.147
			L20.184,115.147z"/>
	</g>
</g>
<g>
	<g>
		<path d="M18.131,116.683c-0.688,0.426-1.417,0.757-2.035,1.287c-0.121,0.104-0.178,0.321-0.124,0.471
			c0.13,0.374,0.336,0.654,0.608,0.941c0.114-0.276,0.229-0.551,0.343-0.827c-0.484,0-0.969,0-1.453,0
			c-0.371,0-0.599,0.41-0.418,0.729c0.228,0.404,0.479,0.736,0.802,1.066c-0.025-0.196-0.05-0.391-0.076-0.587
			c-0.304,0.578-0.829,0.491-0.333,1.337c0.568,0.972-0.205,1.437-0.802,2.198c-0.382,0.486,0.299,1.177,0.685,0.685
			c0.351-0.446,0.568-0.871,1.113-1.135c0.15-0.073,0.24-0.259,0.24-0.418c0-0.392,0.145-1.094-0.066-1.455
			c-0.146-0.25-0.633-0.178-0.249-0.404c0.128-0.076,0.182-0.191,0.249-0.318c0.103-0.196,0.082-0.426-0.076-0.587
			c-0.262-0.268-0.466-0.544-0.651-0.871c-0.139,0.243-0.279,0.485-0.418,0.729c0.484,0,0.969,0,1.453,0
			c0.43,0,0.63-0.524,0.343-0.827c-0.406-0.426,1.08-1.007,1.355-1.177C19.149,117.192,18.663,116.354,18.131,116.683
			L18.131,116.683z"/>
	</g>
</g>
<g>
	<g>
		<path d="M13.597,130.904c-0.43,0.826-0.336,1.302,0.416,1.873c-0.033-0.254-0.065-0.506-0.098-0.76
			c-0.292,0.354-0.815,0.774-0.885,1.263c-0.075,0.524,0.343,1.064,0.567,1.504c0.058-0.22,0.116-0.441,0.173-0.663
			c-0.859,0.51-0.709,1.084-1.142,1.871c-0.302,0.545,0.535,1.035,0.836,0.486c0.293-0.529,0.23-1.185,0.795-1.52
			c0.236-0.143,0.294-0.427,0.173-0.663c-0.151-0.299-0.342-0.594-0.454-0.909c0.021,0.062,0.505-0.545,0.62-0.686
			c0.215-0.262,0.166-0.561-0.098-0.762c-0.205-0.185-0.228-0.369-0.069-0.547C14.722,130.841,13.886,130.352,13.597,130.904
			L13.597,130.904z"/>
	</g>
</g>
<g>
	<g>
		<path d="M231.448,100.051c2.722-8.928-9.798-12.556-16.037-9.553c-3.718,1.788-6.377,6.524-6.599,10.541
			c-0.271,4.865-5.431,3.123-8.797,3.469c-1.851,0.189-3.844,1.225-5.258,2.395c-6.115,5.062-9.361,15.183-1.287,19.947
			c6.092,3.594,16.428,2.51,20.635-3.444c1.086-1.533-1.438-2.983-2.508-1.466c-3.455,4.886-11.81,4.75-16.658,2.401
			c-9.133-4.418,0.467-17.357,7.861-16.996c3.799,0.186,8.555,0.345,8.848-4.468c0.254-4.159,1.596-7.531,5.229-9.869
			c3.811-2.451,13.609,0.232,11.768,6.271C228.1,101.076,230.904,101.838,231.448,100.051L231.448,100.051z"/>
	</g>
</g>
<ellipse cx="244.7" cy="123.035" rx="6.659" ry="6.418"/>
<g>
	<g>
		<path d="M41.802,93.369c0.796-1.285,0.991-2.627,1.034-4.119c-0.204,0.156-0.409,0.311-0.613,0.467
			c0.55,0.167,1.077,0.394,1.579,0.678c0.17,0.109,0.453,0.084,0.587-0.076c1.172-1.4,2.969-1.69,4.503-2.588
			c0.306-0.18,0.367-0.788,0.435-1.017c0.455-1.561,1.742-1.479,2.953-1.34c0.165,0.02,0.339-0.105,0.419-0.24
			c0.934-1.577,1.6-0.75,3.343-1.231c0.716-0.197,1.415-0.886,2.054-1.259c0.695-0.407,0.675-2.121,0.725-2.841
			c-0.322,0-0.646,0-0.969,0c0,0.775-2.346,0.669-2.051,0.744c-0.387-0.098-0.653,0.236-0.596,0.596
			c0.696,4.397,7.243,0.778,7.715-2.18c-0.27,0.072-0.54,0.143-0.809,0.214c0.242,0.193,0.394,0.256,0.699,0.366
			c0.266,0.097,0.506-0.108,0.596-0.338c0.159-0.479,0.383-0.924,0.678-1.337c-0.221,0.058-0.442,0.116-0.663,0.174
			c0.551,0.343,1.055,0.466,1.696,0.551c0.196,0.026,0.435-0.166,0.467-0.354c0.111-0.646,0.39-1.235,0.678-1.821
			c0.274-0.559-0.562-1.05-0.836-0.489c-0.481,0.983-0.339,2.008-1.517,1.28c-0.241-0.149-0.511-0.036-0.663,0.173
			c-0.372,0.516-0.544,0.974-0.775,1.57c0.199-0.114,0.397-0.226,0.596-0.338c-0.09-0.04-0.18-0.079-0.27-0.118
			c-0.25-0.2-0.746-0.186-0.809,0.214c-0.31,1.936-5.317,5.522-5.848,2.18c-0.198,0.199-0.396,0.397-0.595,0.595
			c1.224,0.307,3.275,0.022,3.275-1.679c0-0.63-0.926-0.617-0.969,0c-0.084,1.217-0.176,1.928-1.212,2.609
			c-0.847,0.556-1.301,0.13-2.188,0.273c-0.74,0.119-1.184,0.351-1.771,0.811c-0.862,0.675-1.295,0.756-2.404,0.956
			c-1.897,0.341-1.628,2.159-2.932,2.925c-0.85,0.501-1.797,0.694-2.638,1.234c-1.031,0.663-1.007,0.59-2.226,0.17
			c-0.308-0.105-0.604,0.168-0.613,0.467c-0.039,1.312-0.201,2.5-0.903,3.631C40.635,93.413,41.473,93.899,41.802,93.369
			L41.802,93.369z"/>
	</g>
</g>
<g>
	<g>
		<path d="M72.383,76.414c1.082-0.115,2.982-0.693,3.567-1.693c0.312-0.534,0.102-1.459,0.88-1.446
			c1.261,0.021,2.613,0.151,3.785,0.651c0.567,0.242,1.062-0.592,0.489-0.836c-1.285-0.548-3.593-1.156-4.974-0.775
			c-0.441,0.121-0.672,0.83-0.831,1.182c-0.526,1.16-1.574,1.807-2.916,1.949C71.769,75.51,71.762,76.48,72.383,76.414
			L72.383,76.414z"/>
	</g>
</g>
<g>
	<g>
		<path d="M139.293,79.803c0.01,0.046,0.021,0.094,0.029,0.141c0.199,0.112,0.397,0.226,0.596,0.338
			c-0.109-0.614,0.019-1.31,0.035-1.93c-0.317,0.043-0.635,0.085-0.951,0.129c0.331,1.344,1.078,1.479,2.16,2.228
			c0.309,0.214,0.728-0.073,0.728-0.419c0-0.162,0-0.322,0-0.484c-0.243,0.14-0.485,0.279-0.728,0.419
			c0.412,0.248,0.784,0.545,1.113,0.893c0.123,0.119,0.304,0.173,0.471,0.124c0.732-0.214,2.446-0.582,2.92-0.124
			c0.144,0.139,0.413,0.205,0.587,0.076c0.517-0.385,0.878-0.801,1.309-1.287c-0.254-0.033-0.507-0.065-0.761-0.098
			c0.242,0.484,0.484,0.969,0.727,1.453c0.228,0.457,0.881,0.207,0.903-0.244c-0.042,0.886,1.915,1.437,2.907,1.453
			c0.169,0.003,0.334-0.094,0.419-0.24c1.427-2.467,3.927-0.014,5.736-1.839c0.438-0.444-0.245-1.13-0.685-0.685
			c-0.49,0.494-3.486-0.175-4.533,0.375c-0.387,0.203-0.803,0.703-1.017,1.071c-0.661,1.143-2.239-0.719-2.727-1.204
			c-0.181-0.179-0.507-0.197-0.686,0c-0.299,0.331-0.363,0.622-0.384,1.069c0.301-0.081,0.602-0.163,0.903-0.244
			c-0.242-0.484-0.484-0.969-0.726-1.453c-0.136-0.271-0.562-0.322-0.761-0.098c-0.49,0.552-0.36,1.249-0.987,0.802
			c-0.206-0.147-0.36-0.288-0.623-0.227c-1.603,0.374-2.292,0.439-3.615-0.409c-0.312-0.202-0.729,0.062-0.729,0.418
			c0,0.162,0,0.323,0,0.484c0.243-0.14,0.485-0.279,0.729-0.418c-0.662-0.458-1.489-0.734-1.716-1.647
			c-0.133-0.543-0.937-0.409-0.951,0.128c-0.019,0.726-0.128,1.469,0,2.187c0.047,0.263,0.359,0.401,0.596,0.339
			c0.337-0.089,0.396-0.273,0.549-0.585C140.404,79.733,139.569,79.242,139.293,79.803L139.293,79.803z"/>
	</g>
</g>
<g>
	<g>
		<path d="M246.032,81.742c0.688-0.089,1.229-0.398,1.629-0.967c-0.302-0.081-0.603-0.163-0.902-0.244
			c-0.002,0.482-0.017,0.921-0.104,1.398c-0.028,0.147-0.197,0.474-0.119,0.668c0.199,0.503,0.404,1.003,0.624,1.497
			c0.462,1.042,1.069,2.017,2.021,2.667c0.519,0.354,1.002-0.486,0.488-0.836c-0.814-0.556-1.268-1.45-1.674-2.32
			c-0.188-0.403-0.542-0.952-0.406-1.418c0.15-0.53,0.139-1.112,0.141-1.656c0.004-0.512-0.637-0.62-0.902-0.244
			c-0.202,0.272-0.467,0.434-0.792,0.486C245.421,80.852,245.414,81.822,246.032,81.742L246.032,81.742z"/>
	</g>
</g>
<g>
	<g>
		<path d="M218.113,67.936c-0.139-0.483-0.277-0.968-0.418-1.451c-0.274,0.115-0.551,0.229-0.826,0.343
			c0.388,0.355,0.474,0.415,0.939,0.608c0.153,0.064,0.359-0.014,0.473-0.124c0.16-0.162,0.32-0.323,0.484-0.484
			c-0.256-0.033-0.509-0.065-0.762-0.098c1.23,2.038,3.453,2.413,5.665,2.658c0.739,0.083,3.294-0.054,3.447,0.716
			c0.233,1.194,0.882,1.831,1.96,2.37c0.557,0.278,1.048-0.558,0.488-0.836c-0.932-0.318-1.416-1.068-1.455-2.246
			c0.016-0.203-0.158-0.424-0.355-0.467c-2.812-0.609-7.207,0.141-8.914-2.685c-0.16-0.266-0.537-0.321-0.761-0.098
			c-0.162,0.323-0.337,0.323-0.524,0c-0.281-0.257-0.875-0.108-0.828,0.343c0.08,0.73,0.237,1.277,0.551,1.939
			C217.545,68.989,218.38,68.497,218.113,67.936L218.113,67.936z"/>
	</g>
</g>
<g>
	<g>
		<path d="M95.149,70.359c-0.036-0.717-0.019-0.65-0.26-1.339c-0.156,0.204-0.311,0.409-0.467,0.613
			c0.387-0.055,0.677,0.141,0.868,0.585c0.289,0.359,0.803,0.031,0.828-0.343c0.034-0.127,0.066-0.256,0.101-0.383
			c-0.254-0.033-0.506-0.065-0.761-0.098c0.99,1.321,1.468,0.688,3.04,1.037c-0.063-0.015,1.17,0.764,1.625,0.639
			c0.958-0.262,1.085-0.667,2.165-0.484c0.231,0.04,0.411-0.028,0.546-0.222c0.421-0.602,0.878-1.045,1.211-1.695
			c-0.221,0.058-0.442,0.116-0.663,0.174c1.604,1.042,3.371,1.884,5.285,2.119c0.764,0.092,1.501-0.121,2.131-0.536
			c0.4-0.266,1.1-1.518,0.821-1.518c-0.162-0.162-0.323-0.322-0.484-0.484c0,0.404,0,0.807,0,1.211c0,0.625,0.969,0.625,0.969,0
			c0-0.404,0-0.807,0-1.211c0-0.263-0.221-0.484-0.484-0.484c-0.081,0-0.162,0-0.242,0c-0.211,0-0.416,0.147-0.467,0.356
			c-0.84,3.386-5.238,0.879-7.039-0.29c-0.212-0.139-0.546-0.053-0.663,0.173c-0.874,1.709-1.074,0.932-2.393,1.455
			c-0.695,0.275-4.008-0.043-4.521-0.729c-0.165-0.221-0.55-0.369-0.761-0.098c-0.331,0.427-0.346,0.507-0.383,1.069
			c0.276-0.114,0.551-0.229,0.827-0.343c-0.491-0.614-0.782-0.868-1.554-0.868c-0.298,0-0.572,0.312-0.467,0.613
			c0.075,0.361,0.15,0.722,0.225,1.082C94.211,70.981,95.18,70.984,95.149,70.359L95.149,70.359z"/>
	</g>
</g>
<g>
	<g>
		<g>
			<path d="M76.399,203.906c0.521,0.582,0.798,1.273,0.828,2.078c0.033,0.354,0.389,0.621,0.729,0.418
				c0.894-0.531,1.191-1.182,1.626-2.11c-0.221,0.06-0.442,0.116-0.663,0.174c0.546,0.394,0.672,1.151,1.45,0.868
				c0.404-0.146-0.141-0.479,0.292-0.189c0.388,0.258,0.777,0.518,1.166,0.776c0.168,0.111,0.454,0.081,0.587-0.076
				c1.268-1.51,2.424-0.624,3.772,0.076c0.554,0.287,1.044-0.549,0.489-0.836c-1.146-0.594-2.288-1.44-3.622-1.045
				c-0.235,0.067-1.331,0.649-0.818,0.989c-0.458-0.305-0.916-0.609-1.373-0.913c-0.188-0.125-0.43-0.063-0.587,0.075
				c-0.167,0.146-0.562-0.342-0.866-0.561c-0.2-0.146-0.558-0.052-0.663,0.174c-0.35,0.747-0.503,1.301-1.279,1.764
				c0.243,0.14,0.485,0.277,0.729,0.418c-0.101-1.074-0.415-1.928-1.11-2.764C76.685,202.74,76.003,203.43,76.399,203.906
				L76.399,203.906z"/>
		</g>
	</g>
	<g>
		<g>
			<path d="M163.316,192.405c1.002,0.196,1.895,1.766,2.955,1.344c0.761-0.304,1.338-1.419,1.517-2.166
				c-0.238,0.096-0.476,0.192-0.711,0.289c0.909,0.58,1.468,1.292,2.537,1.502c0.226,0.046,0.419-0.029,0.547-0.222
				c1.627-2.465,4.202-3.215,6.976-3.653c0.615-0.097,0.354-1.03-0.258-0.935c-1.874,0.297-3.64,0.737-5.275,1.719
				c-0.732,0.441-1.322,1.087-1.852,1.748c-0.406,0.511-1.751-0.719-2.188-0.995c-0.26-0.165-0.642-0.009-0.711,0.29
				c-0.562,2.363-1.895,0.419-3.279,0.145C162.965,191.352,162.704,192.284,163.316,192.405L163.316,192.405z"/>
		</g>
	</g>
	<g>
		<g>
			<path d="M41.933,139.866c-0.374,0.696-0.821,1.278-1.377,1.839c-0.204,0.204-0.19,0.626,0.098,0.761
				c0.893,0.412,1.688,0.546,2.666,0.55c-0.156-0.205-0.311-0.408-0.467-0.613c-0.386,1.393-0.094,2.5,0.533,3.765
				c0.278,0.56,1.113,0.067,0.836-0.488c-0.507-1.022-0.752-1.878-0.436-3.019c0.084-0.305-0.153-0.612-0.467-0.612
				c-0.798-0.003-1.442-0.079-2.178-0.42c0.033,0.255,0.065,0.508,0.098,0.761c0.617-0.621,1.113-1.262,1.529-2.035
				C43.064,139.807,42.229,139.314,41.933,139.866L41.933,139.866z"/>
		</g>
	</g>
	<g>
		<g>
			<path d="M19.243,183.077c0.494,0.562,0.581,1.394,1.246,1.799c0.545,0.331,1.5-0.442,1.518,0.281
				c0.01,0.395,0.397,0.565,0.729,0.418c1.324-0.593,1.878,0.563,3.018,1.018c0.58,0.233,0.83-0.704,0.257-0.935
				c-0.68-0.271-1.099-0.941-1.779-1.186c-0.704-0.254-1.331-0.027-1.985,0.267c0.243,0.139,0.485,0.276,0.729,0.418
				c-0.017-0.627-0.191-1.241-0.84-1.438c-0.504-0.149-1.057,0.675-1.419-0.02c-0.245-0.472-0.434-0.903-0.789-1.31
				C19.515,181.923,18.833,182.611,19.243,183.077L19.243,183.077z"/>
		</g>
	</g>
	<g>
		<g>
			<path d="M111.005,155.593c0.779,0.115,1.413,1.324,2.31,0.921c1.792-0.812,3.671-0.447,5.568-0.42
				c0.625,0.008,0.625-0.961,0-0.969c-1.391-0.021-2.868-0.29-4.248-0.036c-0.488,0.089-1.617,0.675-2.086,0.28
				c-0.443-0.371-0.694-0.624-1.288-0.711C110.651,154.566,110.388,155.502,111.005,155.593L111.005,155.593z"/>
		</g>
	</g>
	<g>
		<g>
			<path d="M69.01,92.77c0.171,0.516-0.397,0.967-0.121,1.438c0.21,0.359,0.841,0.446,1.201,0.354
				c0.756-0.195,2.008-0.459,2.276-1.307c-0.317-0.043-0.634-0.086-0.951-0.129c0.078,0.605,0.285,1.15,0.55,1.697
				c0.122,0.252,0.439,0.28,0.663,0.174c1.21-0.575,2.491-0.981,3.759-1.405c0.589-0.197,0.337-1.132-0.257-0.934
				c-1.35,0.45-2.705,0.892-3.991,1.501c0.221,0.058,0.442,0.117,0.663,0.174c-0.184-0.381-0.361-0.782-0.417-1.208
				c-0.068-0.522-0.776-0.684-0.952-0.128c-0.104,0.33-1.236,0.533-1.562,0.621c-0.041,0.262-0.018,0.265,0.068,0.01
				c0.052-0.105,0.086-0.217,0.102-0.334c0.067-0.273-0.012-0.525-0.097-0.78C69.747,91.922,68.812,92.176,69.01,92.77L69.01,92.77z
				"/>
		</g>
	</g>
	<g>
		<g>
			<path d="M136.462,102.47c-0.362,0.359-0.71,0.772-1.239,0.845c-0.258,0.035-0.408,0.368-0.338,0.596
				c0.306,1.008,0.097,2.053,0.533,3.022c0.256,0.569,1.091,0.076,0.836-0.489c-0.19-0.421-0.174-0.84-0.179-1.291
				c-0.005-0.514-0.108-1.011-0.257-1.5c-0.112,0.199-0.225,0.397-0.338,0.596c0.694-0.094,1.191-0.622,1.667-1.093
				C137.592,102.714,136.906,102.03,136.462,102.47L136.462,102.47z"/>
		</g>
	</g>
	<g>
		<g>
			<path d="M174.831,144.889c0.907-0.47,1.493-0.742,2.532-0.437c0.506,0.147,0.758-0.458,0.473-0.81
				c-0.357-0.441-0.342-1.061-0.344-1.596c-0.162,0.162-0.322,0.323-0.484,0.484c1.146-0.033,1.707-0.516,2.666-1.033
				c0.551-0.299,0.061-1.134-0.488-0.837c-0.785,0.425-1.228,0.874-2.178,0.901c-0.262,0.008-0.484,0.217-0.484,0.484
				c0.004,0.835,0.088,1.614,0.625,2.28c0.158-0.269,0.314-0.539,0.473-0.81c-1.303-0.384-2.125-0.062-3.279,0.533
				C173.787,144.338,174.277,145.175,174.831,144.889L174.831,144.889z"/>
		</g>
	</g>
	<g>
		<g>
			<path d="M86.19,120.669c0.121-0.061,0.243-0.118,0.368-0.17c0.088-0.036,0.305-0.03,0.167-0.084
				c-0.113-0.112-0.226-0.225-0.338-0.338c0.122-0.332,0.111-0.412-0.035-0.236c-0.19,0.184-0.433,0.328-0.651,0.476
				c-0.207,0.142-0.328,0.433-0.174,0.663c0.218,0.323,1.641,2.207,1.854,0.852c0.08-0.499-0.63-0.91-0.886-0.373
				c-0.455,0.96-0.758,1.994-1.017,3.022c-0.153,0.605,0.781,0.863,0.934,0.257c0.238-0.943,0.503-1.909,0.92-2.79
				c-0.295-0.124-0.59-0.249-0.885-0.373c0.027-0.039,0.055-0.078,0.082-0.116c0.157-0.042,0.313-0.083,0.471-0.124
				c-0.118-0.018-0.502-0.642-0.637-0.844c-0.058,0.221-0.116,0.442-0.173,0.663c0.38-0.26,1.452-0.819,1.082-1.45
				c-0.329-0.56-1.179-0.06-1.571,0.128C85.139,120.104,85.631,120.939,86.19,120.669L86.19,120.669z"/>
		</g>
	</g>
	<g>
		<g>
			<path d="M237.557,173.532c0.965-0.083,1.594-0.437,2.279-1.111c-0.27-0.069-0.539-0.142-0.811-0.214
				c0.162,0.484,0.324,0.969,0.484,1.453c0.083,0.248,0.333,0.417,0.596,0.339c1.402-0.414,2.701-0.414,4.103,0
				c0.601,0.179,0.854-0.757,0.258-0.935c-1.565-0.465-3.05-0.465-4.616,0c0.198,0.111,0.396,0.227,0.596,0.34
				c-0.162-0.484-0.323-0.969-0.483-1.453c-0.114-0.344-0.541-0.479-0.812-0.215c-0.496,0.486-0.832,0.763-1.594,0.828
				C236.938,172.616,236.934,173.585,237.557,173.532L237.557,173.532z"/>
		</g>
	</g>
	<g>
		<g>
			<path d="M196.628,166.686c1.149-0.554,2.25-0.681,3.388,0c-0.033-0.254-0.066-0.506-0.1-0.762
				c-0.671,0.729-1.076,1.504-1.006,2.512c0.061,0.854,0.621,1.688,0.396,2.547c-0.156,0.605,0.775,0.861,0.936,0.258
				c0.166-0.645,0.051-1.236-0.131-1.865c-0.314-1.092-0.332-1.876,0.49-2.766c0.211-0.229,0.178-0.596-0.101-0.762
				c-1.437-0.855-2.899-0.703-4.362,0C195.577,166.119,196.066,166.954,196.628,166.686L196.628,166.686z"/>
		</g>
	</g>
	<g>
		<g>
			<path d="M107.4,190.343c0.675,0.535,1.437,0.624,2.28,0.627c-0.156-0.204-0.311-0.409-0.467-0.612
				c-0.466,1.639-0.052,3.308-0.018,4.973c0.013,0.624,0.981,0.626,0.969,0c-0.032-1.566-0.456-3.173-0.018-4.716
				c0.087-0.304-0.154-0.61-0.467-0.612c-0.539-0.003-1.146,0.014-1.595-0.343C107.601,189.275,106.911,189.956,107.4,190.343
				L107.4,190.343z"/>
		</g>
	</g>
</g>
<g>
	<path fill="#A24300" d="M54.461,214.22l-2.422-2.905c6.297,10.655,22.766,8.719,32.938,9.203
		c13.078,0.969,25.188,1.938,37.781,1.452c20.828-0.483,41.172-0.969,61.516-2.905c7.75-0.484,16.953,0,21.797-7.75"/>
	<g>
		<path d="M55.489,213.191c-0.807-0.969-1.615-1.938-2.422-2.905c-1.062-1.275-3.168,0.386-2.282,1.76
			c5.769,8.938,16.845,9.64,26.528,9.792c15.175,0.237,30.245,2.086,45.446,1.584c17.438-0.578,34.859-0.843,52.267-2.12
			c10.779-0.791,25.351,0.791,32.302-9.256c1.069-1.546-1.452-2.996-2.511-1.467c-3.955,5.718-10.342,6.483-16.784,6.837
			c-6.81,0.372-13.603,1.055-20.412,1.482c-14.935,0.943-29.903,1.27-44.861,1.617c-13.709,0.318-27.226-1.303-40.897-1.539
			c-9.667-0.17-22.571,0.893-28.568-8.397c-0.761,0.587-1.521,1.174-2.282,1.76c0.807,0.97,1.615,1.938,2.422,2.906
			C54.635,216.688,56.68,214.621,55.489,213.191L55.489,213.191z"/>
	</g>
</g>
<path fill="none" stroke="#000000" stroke-width="2" stroke-miterlimit="10" d="M280.142,156.833c-0.529,3.889,3.137,4.2,6,4.333"/>
</svg>
