<?xml version="1.0" encoding="utf-8"?>
<!-- Generator: Adobe Illustrator 16.0.4, SVG Export Plug-In . SVG Version: 6.00 Build 0)  -->
<!DOCTYPE svg PUBLIC "-//W3C//DTD SVG 1.1//EN" "http://www.w3.org/Graphics/SVG/1.1/DTD/svg11.dtd">
<svg version="1.1" id="Layer_1" xmlns="http://www.w3.org/2000/svg" xmlns:xlink="http://www.w3.org/1999/xlink" x="0px" y="0px"
	 width="300px" height="250px" viewBox="0 0 300 250" enable-background="new 0 0 300 250" xml:space="preserve">
<g>
	<path fill="#C39500" d="M272.282,222.123c7.01-3.839-5.54-11.166-7.651-17.156c-2.901-8.714,8.706-1.905,12.134-1.634
		c0-6.535-2.111-14.705-5.275-20.422c-1.582-2.996-5.804-5.447-6.595-8.169c-0.792-2.45,0.791-5.991,0.265-8.714
		c-1.584-7.625-8.44-10.075-11.608-16.61c-3.429-7.897,4.485-16.338,5.541-23.964c3.24-21.463-34.797-27.203-33.501-11.437
		l-0.235,0.514l0,0c-4.486-4.628-18.202,1.362-14.772-10.347c1.053-2.996,2.9-7.897-2.64-6.808c-3.957,0.817-4.219,6.808-9.232,5.99
		c-4.221-0.544-5.276-3.812-9.761-3.267c-3.692,0.544-7.385,3.812-10.552,2.178c-1.582-1.089-1.319-3.813-3.956-4.084
		c-2.375-0.272-2.64,1.361-4.221,2.45c-2.902,2.179-5.013,3.54-8.707,4.356c-7.121,1.09-13.454-3.267-20.576-2.995
		c-4.749,0-7.913,1.362-12.663,0.545c-2.637-0.545-5.011-0.816-7.913-0.545c-7.122,1.089-12.926,1.906-20.048,1.089
		c-5.275-0.817-15.3,7.897-17.938,6.263c-1.847-1.09-0.528-3.812-3.43-4.358c-1.32-0.271-3.43,0.817-4.749,1.633
		c-2.902,1.362-5.012,3.541-6.858,5.991c-4.485,5.173-10.815,8.442-17.411,5.446c-6.066-2.723-10.815-8.441-18.465-5.99
		c-6.068,1.906-6.068,7.081-8.442,11.982l-0.762,1.301c-2.64,7.081-8.471,18.305-11.637,27.563
		c-4.484,13.343-5.275,26.142,4.221,37.306c5.803,7.082,12.134,13.617,17.674,20.969l2.024,1.301
		c5.803,5.719,12.134,5.99,19.52,7.625c0,0,19.088,2.93,28.972,0.603c9.885-2.325,16.709,9.705,38.482,0
		c21.773-9.705,106.474,1.09,106.474,1.09S260.147,228.768,272.282,222.123z"/>
	<g>
		<path d="M272.859,223.142c5.492-3.571,0.694-8.733-2.416-12.175c-1.469-1.625-8.68-10.212-2.421-9.048
			c2.891,0.537,5.529,2.128,8.439,2.553c0.707,0.103,1.468-0.295,1.448-1.139c-0.172-7.091-1.657-16.765-6.316-22.356
			c-1.208-1.45-2.547-2.744-3.872-4.078c-2.291-2.309-1.664-4.961-1.429-7.947c0.298-3.774-0.967-6.787-3.155-9.764
			c-1.904-2.59-4.423-4.668-6.506-7.101c-4.803-5.609-2.07-11.875,0.567-17.72c2.422-5.364,4.197-10.672,2.436-16.528
			c-2.655-8.819-12.572-13.146-20.733-13.908c-3.742-0.351-7.829,0.242-10.999,2.428c-1.162,0.802-2.045,1.925-2.691,3.19
			c-0.717,1.399-0.274,3.143-0.843,4.387c0.599-0.079,1.197-0.159,1.796-0.239c-2.114-1.867-4.702-2.22-7.394-2.484
			c-1.794-0.177-3.571-0.27-5.32-0.754c-3.582-0.994-1.986-5.233-1.159-7.736c0.784-2.371,1.116-5.222-1.432-6.413
			c-3.285-1.535-6.156,1.529-7.943,3.841c-3.674,4.747-9.266-1.4-13.964-1.231c-2.402,0.086-4.85,1.637-7.101,2.394
			c-4.326,1.455-3.307-3.147-6.006-3.937c-4.168-1.218-6.346,2.563-9.683,4.621c-7.297,4.499-14.514-0.3-21.985-1.006
			c-3.236-0.305-6.354,0-9.568,0.412c-3.269,0.418-6.176-0.283-9.422-0.54c-7.656-0.604-15.225,1.686-22.961,1.233
			c-4.397-0.256-7.45,0.812-11.389,2.854c-2.114,1.096-4.163,2.327-6.392,3.166c-2.082,0.784-2.303-2.802-3.788-3.699
			c-3.068-1.854-7.603,1.06-9.925,2.996c-2.378,1.982-4.162,4.478-6.396,6.613c-4.307,4.117-9.872,4.957-15.112,2.4
			c-4.244-2.07-8.234-6.01-13.201-6.086c-4.78-0.075-8.761,1.659-11.153,6.013c-2.042,3.716-3.413,8.113-5.062,12.055
			c-2.555,6.101-5.508,12.018-7.987,18.154c-4.414,10.927-8.224,24.127-3.26,35.604c2.743,6.343,7.377,11.242,11.835,16.343
			c2.576,2.946,5.151,5.89,7.657,8.9c1.85,2.223,3.2,4.37,5.596,5.911c2.334,1.5,4.185,3.342,6.761,4.556
			c2.296,1.083,4.809,1.633,7.265,2.166c3.377,0.729,6.731,1.349,10.152,1.764c4.713,0.571,9.449,0.91,14.192,0.999
			c4.781,0.087,9.436-1.222,14.138-1.191c3.393,0.024,6.804,1.656,10.008,2.642c4.307,1.323,8.677,1.726,13.144,1.269
			c8.304-0.853,15.75-5.358,24.096-6.497c8.396-1.146,16.94-1.217,25.395-1.146c21.682,0.187,43.393,2.114,64.93,4.608
			c4.95,0.573,8.97,1.486,14.39,2.265C248.978,226.312,262.619,228.347,272.859,223.142c1.322-0.672,0.163-2.707-1.154-2.038
			c-8.542,4.339-19.853,2.89-28.989,1.878c-4.996-0.553-9.893-1.735-14.864-2.36c-11.244-1.417-22.537-2.487-33.831-3.384
			c-18.297-1.449-36.854-2.581-55.186-1.144c-6.684,0.523-13.142,1.585-19.353,4.238c-5.676,2.425-11.856,3.602-17.97,2.751
			c-3.865-0.539-7.501-2.109-11.243-3.159c-2.92-0.818-5.654-0.728-8.591-0.11c-5.64,1.19-11.758,0.68-17.451,0.26
			c-9.662-0.707-21.4-1.569-28.874-8.405c-4.377-4.004-8.074-8.814-12.049-13.359c-5.764-6.589-11.841-12.736-14.046-21.581
			c-3.646-14.626,4.978-30.24,10.722-43.014c1.753-3.899,3.623-7.814,5.176-11.795c1.508-3.864,2.436-7.076,6.615-8.701
			c4.531-1.761,8.843,0.741,12.609,3.064c3.983,2.458,8.417,5.062,13.26,3.851c6.124-1.531,9.203-5.797,13.546-10.078
			c2.047-2.018,7.45-5.373,9.142-1.596c0.494,1.104,1.09,1.786,2.198,2.206c2.672,1.01,7.339-2.545,9.468-3.677
			c2.355-1.253,4.817-2.543,7.499-2.768c3.23-0.271,6.682,0.43,9.969,0.283c3.113-0.14,6.213-0.624,9.297-1.072
			c4.432-0.644,8.457,0.425,12.836,0.557c3.103,0.094,6.239-0.701,9.347-0.804c4.213-0.139,8.276,1.342,12.315,2.367
			c5.462,1.386,10.372,0.759,15.194-2.215c1.444-0.892,5.594-5.514,7.38-2.812c1.177,1.779,1.42,2.613,3.478,3.288
			c1.832,0.604,4.193-0.556,5.821-1.216c4.312-1.75,6.747-0.9,10.591,1.094c3.325,1.728,6.467,0.919,8.812-1.872
			c1.535-1.827,6.938-5.905,5.823-0.665c-0.462,2.163-1.334,4.062-1.46,6.316c-0.454,8.131,11.897,4.584,15.652,7.896
			c0.514,0.454,1.461,0.498,1.798-0.239c1.366-2.999,0.397-5.406,3.776-7.411c3.424-2.032,8.089-1.703,11.807-0.991
			c10.045,1.919,18.469,10.026,15.435,21.137c-1.771,6.478-6.153,11.703-5.724,18.747c0.386,6.311,6.959,10.282,10.312,14.842
			c4.105,5.589-0.513,11.853,4.152,17.116c3.046,3.437,5.212,6.062,6.876,10.513c1.693,4.526,2.527,9.42,2.644,14.253
			c0.482-0.379,0.964-0.758,1.447-1.137c-3.565-0.521-10.955-5.521-13.706-1.17c-3.961,6.261,14.295,16.206,8.341,20.078
			C270.461,221.913,271.606,223.955,272.859,223.142z"/>
	</g>
</g>
<ellipse cx="41.621" cy="167.903" rx="4.88" ry="4.629"/>
<g>
	<g>
		<path fill="#D0A300" d="M102.218,125.485c-0.525,2.29-3.879,4.685-5.442,6.239c-1.822,1.813-3.834,3.611-5.33,5.735
			c-4.859,6.896,1.23,15.271-0.122,22.738c-2.266,12.525-18.496,29.472-31.694,26.007c-0.954-0.249-1.357,1.269-0.405,1.519
			c13.255,3.479,26.497-10.809,31.765-21.824c1.119-2.338,1.812-4.834,2.123-7.417c0.723-6.002-2.895-11.426-1.662-17.539
			c1.316-6.521,10.805-8.792,12.238-15.039C103.915,124.916,102.445,124.497,102.218,125.485L102.218,125.485z"/>
	</g>
</g>
<g>
	<g>
		<path fill="#D0A300" d="M64.846,135.635c-4.191,2.883-1.068,9.479-0.798,13.891c0.446,7.275-4.5,13.586-3.945,21.079
			c0.51,6.863,4.75,12.813,5.612,19.648c1.091,8.62-4.337,17.378-8.53,24.361c-0.52,0.866,0.8,1.655,1.316,0.795
			c3.434-5.719,6.557-11.509,8.184-18.067c1.561-6.295-0.246-12.04-2.487-17.857c-1.324-3.439-2.413-6.771-2.689-10.492
			c-0.319-4.296,1.55-8.455,2.851-12.426c0.958-2.927,1.293-5.734,1.106-8.795c-0.187-3.033-2.763-8.774,0.15-10.777
			C66.43,136.433,65.667,135.07,64.846,135.635L64.846,135.635z"/>
	</g>
</g>
<g>
	<g>
		<path fill="#D0A300" d="M68.385,130.335c2.175,2.805,4.435,5.547,3.809,9.421c-0.399,2.482-2.458,4.788-3.781,6.798
			c-1.126,1.711-1.947,4.188-1.546,6.27c0.482,2.493,1.774,4.476,3.118,6.57c2.708,4.226,3.402,8.141,2.297,13.158
			c-1.49,6.768-4.331,12.404-0.041,18.726c2.314,3.412,5.008,6.197,6.173,10.305c1.488,5.255-1.456,10.666-2.575,15.672
			c-0.221,0.989,1.25,1.408,1.471,0.418c1.9-8.5,4.913-14.899-0.437-22.753c-3.398-4.989-6.435-8.237-5.096-14.854
			c0.805-3.981,2.348-7.639,2.677-11.732c0.652-8.101-8.966-12.949-4.724-20.983c1.801-3.412,4.188-5.684,4.143-9.774
			c-0.035-3.159-2.627-6.052-4.411-8.352C68.849,128.43,67.777,129.551,68.385,130.335L68.385,130.335z"/>
	</g>
</g>
<g>
	<g>
		<path fill="#D0A300" d="M116.964,131.686c-0.321,3.223-6.65,5.074-8.733,6.997c-2.402,2.22-3.13,5.003-3.197,8.266
			c-0.209,10.008,10.245,22.245-0.909,29.848c-5.25,3.578-14.905,2.87-18.851,8.225c-4.425,6.006-1.03,14.617,0.061,21.213
			c0.165,1,1.635,0.574,1.471-0.419c-0.652-3.945-1.685-7.803-2.076-11.796c-0.656-6.675,2.792-9.542,8.541-11.425
			c5.91-1.937,12.621-3.222,16.073-9.109c4.297-7.326-0.971-16.598-2.496-23.864c-1.562-7.447,2.841-10.186,8.101-13.451
			c1.729-1.073,3.324-2.321,3.539-4.483C118.589,130.676,117.063,130.686,116.964,131.686L116.964,131.686z"/>
	</g>
</g>
<g>
	<g>
		<path fill="#D0A300" d="M99.58,129.715c3.297,14.071-7.288,24.54-11.079,37.16c-0.292,0.972,1.18,1.385,1.471,0.419
			c3.92-13.055,14.49-23.44,11.079-37.997C100.82,128.311,99.349,128.729,99.58,129.715L99.58,129.715z"/>
	</g>
</g>
<g>
	<g>
		<path fill="#D0A300" d="M124.849,161.336c5.962-0.173,10.408,11.968,9.649,16.989c-1.021,6.763-11.067,10.765-16.367,13.132
			c-0.899,0.403-0.123,1.759,0.771,1.36c6.338-2.832,17.292-7.538,17.257-16.177c-0.023-5.631-4.729-17.07-11.311-16.877
			C123.867,159.791,123.865,161.366,124.849,161.336L124.849,161.336z"/>
	</g>
</g>
<g>
	<g>
		<path fill="#D0A300" d="M123.53,158.068c13.408-0.459,18.115,26.079,6.21,31.483c-0.898,0.408-0.122,1.764,0.77,1.358
			c13.333-6.054,7.923-34.926-6.98-34.415C122.549,156.527,122.545,158.103,123.53,158.068L123.53,158.068z"/>
	</g>
</g>
<g>
	<g>
		<path fill="#D0A300" d="M131.444,154.527c6.309-0.651,8.255,8.086,8.398,12.975c0.168,5.804-2.513,11.491-6.563,15.365
			c-0.722,0.69,0.358,1.801,1.078,1.112c5.078-4.856,8.049-12.525,6.789-19.704c-0.893-5.075-3.708-11.939-9.701-11.319
			C130.475,153.055,130.465,154.63,131.444,154.527L131.444,154.527z"/>
	</g>
</g>
<g>
	<g>
		<path fill="#D0A300" d="M129.8,149.055c7.479-1.321,12.003,6.876,13.573,13.116c1.871,7.437-1.229,15.183-4.938,21.399
			c-0.517,0.867,0.803,1.657,1.317,0.795c4.855-8.14,7.163-16.928,4.034-26.204c-2.06-6.108-7.834-11.782-14.392-10.625
			C128.426,147.707,128.838,149.225,129.8,149.055L129.8,149.055z"/>
	</g>
</g>
<g>
	<g>
		<path fill="#D0A300" d="M135.076,142.791c6.221-1.463,12.386,9.885,13.828,14.651c2.597,8.574-3.12,16.629-9.294,21.613
			c-0.774,0.625,0.313,1.73,1.079,1.113c7.99-6.45,12.691-15.858,8.649-26.119c-2.021-5.133-8.431-14.242-14.667-12.775
			C133.711,141.499,134.118,143.017,135.076,142.791L135.076,142.791z"/>
	</g>
</g>
<g>
	<g>
		<path fill="#D0A300" d="M140.878,144.154c4.068-1.528,8.181,3.196,10.043,6.223c1.742,2.83,1.664,6.417,1.133,9.574
			c-0.97,5.751-4.528,11.072-7.961,15.562c-0.602,0.788,0.47,1.91,1.079,1.114c4.731-6.189,9.172-13.515,8.686-21.702
			c-0.35-5.863-7.088-14.652-13.385-12.291C139.557,142.979,139.952,144.501,140.878,144.154L140.878,144.154z"/>
	</g>
</g>
<g>
	<g>
		<path fill="#D0A300" d="M136.253,132.832c-5.203,1.783-8.827,7.648-12.334,11.712c-3.685,4.271-7.198,10.179-6.31,16.17
			c1.122,7.566,6.786,12.647,9.045,19.702c3.041,9.497-5.74,20.939-12.478,26.289c-0.768,0.61-0.01,1.979,0.771,1.359
			c8.09-6.425,17.5-19.644,12.244-30.627c-3.607-7.537-9.808-13.536-7.506-22.707c1.13-4.501,4.567-8.321,7.551-11.598
			c2.827-3.104,5.331-7.383,9.423-8.784C137.586,134.03,137.188,132.513,136.253,132.832L136.253,132.832z"/>
	</g>
</g>
<g>
	<g>
		<path fill="#D0A300" d="M123.85,137.466c-2.255,8.015,0.234,16.13,0.839,24.202c0.681,9.069-1.291,17.806-4.049,26.344
			c-2.58,7.988-4.14,13.945-2.732,22.35c1.006,6.001,1.49,10.253-1.96,15.451c-2.171,3.27-5.028,6.039-7.321,9.223
			c-0.588,0.817,0.737,1.6,1.316,0.795c3.922-5.448,9.495-9.982,10.486-17.057c0.473-3.382-0.774-7.188-1.326-10.484
			c-0.979-5.842-0.092-10.856,1.833-16.386c2.821-8.103,5.048-16.232,5.385-24.875c0.378-9.714-3.682-19.611-1-29.145
			C125.595,136.907,124.123,136.494,123.85,137.466L123.85,137.466z"/>
	</g>
</g>
<g>
	<g>
		<path fill="#D0A300" d="M116.964,132.501c-0.084,2.778,1.587,6.126,2.163,8.828c1.476,6.932-1.094,13.202-4.591,18.972
			c-4.072,6.712-9.403,12.895-9.684,21.187c-0.148,4.374,2.239,8.008,3.792,11.871c1.991,4.954,1.921,10.639,2.808,15.871
			c1.267,7.468,1.329,20.622-7.645,22.723c-0.959,0.226-0.551,1.742,0.405,1.517c6.453-1.511,8.451-7.856,9.094-13.982
			c0.372-3.543,0.103-7.16-0.384-10.676c-0.816-5.889-1.215-11.904-3.443-17.447c-2.705-6.735-4.151-11.316-0.988-18.275
			c2.139-4.706,5.448-8.84,8.111-13.231c2.603-4.292,4.247-8.808,4.479-13.883c0.213-4.685-2.729-9.024-2.594-13.473
			C118.519,131.486,116.994,131.49,116.964,132.501L116.964,132.501z"/>
	</g>
</g>
<g>
	<g>
		<path fill="#D0A300" d="M114.692,148.987c-6.855,16.113,2.084,29.621,5.059,45.378c1.095,5.794,1.159,11.909,0.883,17.784
			c-0.272,5.812-1.022,14.658-6.461,17.975c-0.845,0.516-0.078,1.878,0.77,1.36c8.662-5.284,7.656-21.3,7.131-30.026
			c-1.058-17.667-13.578-34.021-6.066-51.676C116.4,148.862,115.087,148.061,114.692,148.987L114.692,148.987z"/>
	</g>
</g>
<g>
	<g>
		<path fill="#D0A300" d="M118.77,145.289c-8.627,11.391-14.365,24.16-14.22,38.828c0.075,7.551,2.87,14.495,3.504,21.929
			c0.421,4.942-0.847,9.881-5.133,12.609c-3.464,2.202-8.489,1.517-12.304,2.949c-0.916,0.344-0.521,1.866,0.405,1.517
			c5.166-1.938,12.597-0.699,16.063-6.131c3.459-5.42,2.779-11.962,1.352-17.982c-2.178-9.187-3.114-17.804-1.195-27.146
			c1.938-9.443,6.914-17.943,12.605-25.46C120.446,145.612,119.375,144.489,118.77,145.289L118.77,145.289z"/>
	</g>
</g>
<g>
	<g>
		<path fill="#D0A300" d="M105.734,142.442c-9.774,6.157-11.558,21.059-10.897,31.78c0.423,6.853,3.576,12.822,6.524,18.832
			c4.25,8.661,8.375,25.406-3.887,29.913c-0.919,0.338-0.523,1.858,0.406,1.519c5.549-2.04,8.148-7.702,9.236-13.349
			c1.468-7.624-2.646-15.249-5.86-21.767c-3.907-7.923-5.506-14.976-4.782-23.802c0.643-7.846,3.114-17.412,10.028-21.768
			C107.341,143.274,106.577,141.912,105.734,142.442L105.734,142.442z"/>
	</g>
</g>
<g>
	<g>
		<path fill="#D0A300" d="M84.808,124.27c6.381,16.723-4.186,34.498-6.302,51.162c-1.477,11.632-0.107,23.89,11.582,28.9
			c0.909,0.389,1.3-1.134,0.406-1.518c-13.804-5.92-11.515-22.424-9.175-34.738c2.783-14.652,10.675-29.246,4.959-44.225
			C85.922,122.917,84.447,123.324,84.808,124.27L84.808,124.27z"/>
	</g>
</g>
<g>
	<g>
		<path fill="#D0A300" d="M80.928,126.364c3.625,7.231-0.203,18.156-2.168,25.459c-2.462,9.149-4.522,17.647-4.727,27.187
			c-0.196,9.163,1.183,17.799,4.568,26.277c2.3,5.758,5.122,11.724,10.25,15.307c0.817,0.57,1.579-0.795,0.771-1.36
			c-6.266-4.377-9.374-13.09-11.696-20.194c-3.134-9.586-3.04-21.067-1.609-30.99c1.259-8.726,4.343-17.248,6.255-25.846
			c1.193-5.36,2.222-11.544-0.327-16.634C81.792,124.667,80.477,125.464,80.928,126.364L80.928,126.364z"/>
	</g>
</g>
<g>
	<g>
		<path fill="#D0A300" d="M70.832,125.364c3.887,0.764,6.812,4.518,8.869,7.756c3.018,4.756,1.735,9.181-1.245,13.366
			c-4.19,5.887-6.263,9.914-4.264,17.334c2.499,9.27,7.911,16.703,7.628,26.793c-0.267,9.574-9.235,19.497-17.239,23.172
			c-0.896,0.413-0.12,1.77,0.771,1.36c7.354-3.377,13.773-10.612,16.562-18.423c3.54-9.909-0.553-19.661-4.538-28.729
			c-3.24-7.373-3.239-13.16,1.612-19.663c2.175-2.916,3.911-5.611,4.111-9.354c0.322-6.062-6.263-14.03-11.863-15.132
			C70.276,123.659,69.866,125.175,70.832,125.364L70.832,125.364z"/>
	</g>
</g>
<g>
	<g>
		<path fill="#D0A300" d="M68.144,131.697c2.498-2.914,6.484,5.072,7.342,6.626c2.359,4.268,1.475,7.983-1.073,11.714
			c-3.017,4.416-8.525,9.796-7.268,15.816c1.315,6.304,6.357,11.376,8.65,17.39c3.01,7.898,3.776,16.828,3.181,25.232
			c-0.072,1.013,1.454,1.006,1.525,0c0.652-9.197-0.516-18.516-3.793-27.115c-1.434-3.762-3.599-7.049-5.752-10.394
			c-4.052-6.291-1.513-11.53,2.453-17.009c4.639-6.407,6.609-10.611,2.502-18.042c-1.607-2.907-5.344-9.42-8.848-5.332
			C66.416,131.342,67.491,132.458,68.144,131.697L68.144,131.697z"/>
	</g>
</g>
<g>
	<g>
		<path fill="#D0A300" d="M61.863,135.711c6.926,1.532,8.041,12.072,6.218,17.469c-1.738,5.146-4.683,9.724-2.95,15.312
			c1.472,4.748,6.408,8.097,9.841,11.212c6.341,5.755,8.387,14.749,6.67,23.117c-0.202,0.99,1.267,1.411,1.471,0.418
			c1.381-6.734,0.396-13.319-2.696-19.401c-3.453-6.791-11.821-9.332-14.186-16.963c-2.213-7.137,5.809-14.057,4.307-21.578
			c-0.834-4.179-3.896-10.136-8.27-11.104C61.31,133.981,60.901,135.498,61.863,135.711L61.863,135.711z"/>
	</g>
</g>
<g>
	<g>
		<path fill="#D0A300" d="M64.764,157.495c7.19,2.606,8.177,14.062,7.697,20.57c-0.653,8.877-5.303,17.165-9.328,24.822
			c-1.984,3.777-4.772,9.273-2.906,13.661c2.35,5.525,8.031,7.192,13.242,8.75c0.947,0.285,1.349-1.234,0.405-1.517
			c-3.571-1.069-7.128-2.183-10.114-4.566c-4.985-3.982-1.543-11.149,0.69-15.534c3.348-6.572,6.707-13.002,8.608-20.209
			c2.178-8.251,1.682-24.027-7.89-27.494C64.239,155.641,63.843,157.163,64.764,157.495L64.764,157.495z"/>
	</g>
</g>
<g>
	<g>
		<path fill="#D0A300" d="M52.425,136.177c6.596-3.452,16.084,4.437,18.434,10.34c2.712,6.818,2.33,16.091,2.611,23.395
			c0.234,6.086-4.926,13.26-1.056,18.862c3.189,4.616,10.806,4.079,11.048,10.989c0.036,1.013,1.56,1.017,1.523,0
			c-0.209-5.971-5.081-7.432-9.376-10.151c-5.829-3.692-1.546-9.816-0.913-14.901c0.64-5.126-0.106-10.23-0.393-15.356
			c-0.409-7.356-0.923-15.416-6.932-20.32c-4.004-3.268-10.666-6.86-15.719-4.215C50.778,135.276,51.55,136.634,52.425,136.177
			L52.425,136.177z"/>
	</g>
</g>
<g>
	<g>
		<path fill="#D0A300" d="M136.395,119.101c5.198-0.725,10.168,2.139,13.12,6.446c3.372,4.919,2.079,11.646,0.751,17.001
			c-2.237,9.027-5.213,17.825-7.137,26.946c-1.653,7.832-1.868,14.871,1.321,22.283c1.991,4.631,5.165,8.57,6.897,13.328
			c1.264,3.469,1.931,7.048,3.705,10.304c0.481,0.883,1.799,0.091,1.317-0.795c-1.999-3.669-2.528-7.823-4.18-11.625
			c-2.244-5.167-5.626-9.629-7.606-14.958c-4.228-11.38,1.868-26.091,4.872-37.181c2.007-7.408,6.188-17.115,2.158-24.633
			c-3.115-5.812-9.122-9.542-15.628-8.636C135.018,117.717,135.434,119.235,136.395,119.101L136.395,119.101z"/>
	</g>
</g>
<g>
	<g>
		<path fill="#D0A300" d="M142.644,119.566c6.533-4.394,13.71,1.105,12.71,8.69c-0.545,4.143-2.7,8.014-3.725,12.042
			c-1.669,6.568,1.972,10.637,6.824,14.095c16.79,11.97-9.344,28.824-12.708,41.074c-0.269,0.979,1.203,1.394,1.471,0.419
			c3.028-11.023,29.156-29.29,13.904-41.403c-5.372-4.267-9.688-7.201-7.683-15.089c1.286-5.063,3.967-9.508,3.532-14.909
			c-0.592-7.375-9.77-9.861-15.095-6.28C141.053,118.758,141.817,120.121,142.644,119.566L142.644,119.566z"/>
	</g>
</g>
<g>
	<g>
		<path fill="#D0A300" d="M145.718,195.95c-0.5,7.45,0.389,16.664,6.29,21.795c0.747,0.65,1.831-0.458,1.079-1.112
			c-5.604-4.872-6.318-13.615-5.844-20.683C147.311,194.937,145.786,194.94,145.718,195.95L145.718,195.95z"/>
	</g>
</g>
<g>
	<g>
		<path fill="#D0A300" d="M136.707,183.435c2.615,2.722,0.995,9.698,0.686,13.063c-0.36,3.905-0.805,7.728,0.535,11.474
			c3.21,8.981,16.848,15.924,12.378,26.793c-0.38,0.923,0.934,1.726,1.316,0.794c4.19-10.194-5.851-17.678-10.769-25.234
			c-3.277-5.035-2.22-10.641-1.71-16.31c0.309-3.438,1.308-8.921-1.357-11.694C137.094,181.601,136.014,182.715,136.707,183.435
			L136.707,183.435z"/>
	</g>
</g>
<g>
	<g>
		<path fill="#D0A300" d="M143.111,121.667c-4.736,1.591-6.226,8.822-7.26,13.146c-1.894,7.919-0.991,15.808,1.578,23.438
			c3.137,9.322,8.398,17.691,11.211,27.165c0.822,2.77,1.176,5.629,1.208,8.519c0.042,4.004-2.163,6.178-4.267,9.154
			c-3.054,4.323-2.701,8.332-3.793,13.348c-0.216,0.988,1.254,1.408,1.47,0.418c1.125-5.163,0.996-9.61,4.427-13.961
			c1.712-2.17,3.33-4.339,3.554-7.246c0.64-8.237-2.694-15.944-5.997-23.252c-3.948-8.731-8.261-17.143-8.909-26.94
			c-0.353-5.332,1.043-20.208,7.185-22.269C144.448,122.872,144.05,121.352,143.111,121.667L143.111,121.667z"/>
	</g>
</g>
<g>
	<g>
		<path fill="#D0A300" d="M125.959,152.317c3.67,12.911,15.003,24.278,8.688,38.359c-1.766,3.938-5.367,8.16-4.299,12.88
			c1.194,5.277,5.563,8.924,10.207,11.046c0.89,0.406,1.667-0.95,0.77-1.36c-2.722-1.241-4.965-2.937-7.057-5.141
			c-4.146-4.37-2.17-9.48,0.286-13.966c2.346-4.288,3.79-8.404,3.676-13.38c-0.24-10.405-8.048-19.175-10.801-28.857
			C127.154,150.927,125.682,151.34,125.959,152.317L125.959,152.317z"/>
	</g>
</g>
<g>
	<g>
		<path fill="#D0A300" d="M126.751,161.575c1.012,3.738,0.009,7.895-0.398,11.662c-0.491,4.545,0.69,8.698,1.827,13.064
			c1.677,6.438,1.406,11.923-0.732,18.171c-1.48,4.326-2.923,8.349-2.834,12.99c0.02,1.014,1.544,1.016,1.524,0
			c-0.107-5.609,2.175-10.468,3.799-15.692c1.262-4.062,1.218-8.235,0.521-12.395c-0.925-5.522-3.063-10.413-2.581-16.139
			c0.336-3.988,1.414-8.128,0.343-12.079C127.957,160.182,126.485,160.598,126.751,161.575L126.751,161.575z"/>
	</g>
</g>
<g>
	<g>
		<path fill="#D0A300" d="M91.094,130.312c-0.341-0.281-0.574-0.557-1-0.626c0.111,0.438,0.224,0.877,0.336,1.315
			c1.631-1.602,5.081,5.754,5.667,6.886c2.861,5.522,3.429,11.555,2.147,17.62c-0.906,4.293-3.041,8.104-2.878,12.589
			c0.135,3.722,3.379,6.899,5.802,9.259c5.651,5.5,7.017,11.288,3.46,18.71c-1.88,3.925-5.163,6.812-7.627,10.309
			c-4.052,5.748-4.553,10.88,1.61,15.037c0.196-0.479,0.393-0.96,0.588-1.438c-16.064-3.345-11.427-22.59-7.645-34.16
			c2.501-7.654-0.986-13.159-4.562-19.669c-3.086-5.62-10.49-14.804-7.386-21.533c0.421-0.912-0.895-1.711-1.316-0.794
			c-2.858,6.197,1.917,13.488,4.901,18.672c2.217,3.851,4.458,7.727,6.415,11.723c2.678,5.468,0.565,10.542-0.97,15.902
			c-3.407,11.898-4.719,28.279,10.159,31.374c0.848,0.179,1.325-0.939,0.586-1.437c-7.75-5.228-2.111-11.782,2.235-16.955
			c2.792-3.322,4.942-6.859,6.223-11.074c1.196-3.94,0.492-8.121-1.659-11.512c-3.664-5.778-10.7-8.149-8.91-16.493
			c1.134-5.282,3.232-9.833,3.229-15.365c-0.001-3.95-1.278-8.107-3.085-11.557c-1.161-2.217-4.641-10.562-8.062-7.204
			c-0.384,0.375-0.239,1.221,0.337,1.315c0.109,0.073,0.219,0.147,0.327,0.221C90.777,132.05,91.863,130.943,91.094,130.312
			L91.094,130.312z"/>
	</g>
</g>
<g>
	<g>
		<path fill="#D0A300" d="M85.412,133.716c6.062,9.846,5.63,23.519,6.596,34.8c1.3,15.18,1.466,30.448,1.478,45.679
			c0,1.016,1.525,1.016,1.523,0c-0.01-16.636-0.322-33.261-1.846-49.833c-0.955-10.382-0.84-22.354-6.436-31.44
			C86.203,132.068,84.883,132.857,85.412,133.716L85.412,133.716z"/>
	</g>
</g>
<g>
	<g>
		<path fill="#D0A300" d="M139.632,126.795c4.199-4.575,11.125-6.193,16.974-4.854c7.656,1.751,7.503,11.112,6.268,17.27
			c-2.088,10.422-8.646,19.724-9.605,30.369c-0.869,9.672,10.037,14.719,12.788,23.038c3.716,11.245,5.778,22.158,16.969,27.976
			c0.875,0.456,1.646-0.902,0.769-1.36c-7.562-3.931-11.236-10.509-13.824-18.56c-1.68-5.231-2.46-10.786-5.938-15.169
			c-3.667-4.623-8.718-8.255-9.246-14.665c-0.467-5.644,2.909-11.958,4.896-17.021c3.136-7.988,9.181-21.373,3.028-29.45
			c-5.704-7.489-18.446-4.909-24.157,1.314C137.879,126.419,138.955,127.534,139.632,126.795L139.632,126.795z"/>
	</g>
</g>
<g>
	<g>
		<path fill="#D0A300" d="M151.167,127.271c5.204-1.615,11.263-2.417,16.389-0.111c7.667,3.45,3.657,14.31,1.225,19.921
			c-4.495,10.36-8.775,20.583-1.011,30.671c4.818,6.26,9.936,11.735,13.8,18.777c2.785,5.072,5.045,10.383,8.022,15.349
			c4.606,7.683,11.922,17.851,21.782,16.992c0.971-0.084,0.979-1.659,0-1.575c-12.018,1.047-20.151-14.812-24.806-24.138
			c-3.199-6.412-6.369-12.599-10.691-18.304c-5.224-6.895-11.541-11.777-11.103-21.471c0.474-10.43,12.795-22.146,7.883-32.905
			c-3.741-8.187-14.957-6.879-21.897-4.726C149.823,126.044,150.223,127.562,151.167,127.271L151.167,127.271z"/>
	</g>
</g>
<g>
	<g>
		<path fill="#D0A300" d="M159.877,129.569c-0.586-2.418,6.779-2.106,8.222-1.85c3.109,0.553,5.82,2.56,8.002,4.79
			c5.77,5.89,3.708,13.202,0.708,19.867c-4.584,10.19-8.525,19.41,0.639,28.165c5.17,4.937,10.987,7.953,14.701,14.44
			c2.882,5.035,4.317,10.674,7.812,15.36c2.689,3.607,6.47,6.134,10.228,8.394c2.323,1.395,4.812,2.453,7.231,3.644
			c1.344,0.663,7.454,4.074,5.967,5.021c-0.837,0.53-0.07,1.893,0.769,1.359c0.292-0.155,0.583-0.312,0.873-0.465
			c0.438-0.189,0.739-0.681,0.456-1.156c-2.687-4.515-7.714-6.296-12.154-8.451c-5.688-2.761-10.803-6.745-14.162-12.272
			c-3.162-5.207-4.366-11.523-8.33-16.27c-5.313-6.36-14.486-9.796-17.361-18.044c-4.254-12.203,12.297-22.941,7.072-35.299
			c-3.696-8.742-13.633-13.885-22.058-8.795c-0.3,0.181-0.434,0.545-0.351,0.888c0.089,0.364,0.177,0.729,0.265,1.09
			C158.645,130.972,160.115,130.554,159.877,129.569L159.877,129.569z"/>
	</g>
</g>
<g>
	<g>
		<path fill="#D0A300" d="M160.989,129.749c10.854-1.312,19.714,10.091,19.176,20.46c-0.411,7.926-4.469,15.113-3.714,23.176
			c0.546,5.819,4.335,10.342,8.508,13.918c3.826,3.278,15.086,7.211,14.31,13.274c-0.128,1.005,1.399,0.991,1.525,0
			c0.757-5.907-7.201-9.297-11.13-11.719c-9.095-5.601-13.375-13.886-10.939-24.657c1.875-8.295,4.825-16.209,1.108-24.426
			c-3.038-6.713-11.649-12.471-18.844-11.601C160.026,128.292,160.014,129.866,160.989,129.749L160.989,129.749z"/>
	</g>
</g>
<g>
	<g>
		<path fill="#D0A300" d="M159.086,131.351c1.146-3.319,7.876,0.424,9.603,1.141c4.827,2.008,8.506,5.862,11.064,10.448
			c4.503,8.071,4.017,18.096,5.159,27.049c1.797,14.089,7.728,24.563,20.983,29.716c0.922,0.359,1.317-1.164,0.406-1.518
			c-9.738-3.784-15.829-10.616-18.529-20.962c-2.303-8.82-1.791-18.091-3.745-26.968c-1.85-8.405-6.733-15.146-14.212-18.979
			c-3.092-1.585-10.464-5.383-12.2-0.347C157.285,131.891,158.758,132.299,159.086,131.351L159.086,131.351z"/>
	</g>
</g>
<g>
	<g>
		<path fill="#D0A300" d="M164.184,143.666c-0.012,6.775,2.831,12.505,5.86,18.347c4.196,8.097,8.316,16.293,9.327,25.547
			c0.794,7.265-3.228,13.36-3.867,20.405c-0.507,5.556,4.464,8.799,8.313,11.539c0.812,0.575,1.573-0.789,0.771-1.36
			c-2.594-1.845-5.101-3.563-6.854-6.337c-2.245-3.557,0.406-9.428,1.597-12.965c1.903-5.659,1.921-10.789,0.737-16.629
			c-2.729-13.429-14.383-24.649-14.357-38.547C165.71,142.652,164.185,142.652,164.184,143.666L164.184,143.666z"/>
	</g>
</g>
<g>
	<g>
		<path fill="#D0A300" d="M154.01,211.062c6.443,3.347,11.616-3.235,15.288-7.967c5.535-7.132,5.145-14.801,3.047-23.197
			c-1.357-5.434-2.626-10.694-2.373-16.36c0.242-5.388,2.123-10.423,1.887-15.867c-0.413-9.528-9.344-17.142-15.078-23.622
			c-0.663-0.75-1.739,0.366-1.078,1.112c5.593,6.321,12.476,12.444,14.448,21.104c1.015,4.457-0.516,9.346-1.272,13.732
			c-0.605,3.505-0.571,6.982-0.158,10.51c0.804,6.866,3.7,13.229,3.741,20.221c0.039,6.597-9.327,23.314-17.682,18.976
			C153.903,209.249,153.131,210.604,154.01,211.062L154.01,211.062z"/>
	</g>
</g>
<g>
	<g>
		<path fill="#D0A300" d="M145.437,113.997c7.1-7.671,22.893-9.835,31.98-5.06c9.665,5.077,2.075,19.915-0.721,26.864
			c-2.155,5.362-3.966,10.705-3.544,16.579c0.358,4.963,4.348,8.827,6.963,12.651c1.823,2.667,3.83,6.483,7.041,7.598
			c1.94,0.673,4.047,0.979,6.087,0.514c1.757-0.4,3.378-0.936,5.064-1.587c2.182-0.844,2.467-0.325,1.779,1.855
			c-0.307,0.968,1.167,1.38,1.471,0.419c0.491-1.557,0.669-2.694,0.554-4.294c-0.034-0.472-0.468-0.946-0.967-0.759
			c-3.264,1.223-6.3,2.668-9.819,2.969c-4.474,0.381-6.867-3.067-9.124-6.398c-1.746-2.575-3.673-5.009-5.417-7.582
			c-2.8-4.124-2.455-8.846-1.404-13.49c2.152-9.544,8.778-17.898,8.094-28.096c-1.178-17.585-31.394-11.637-39.115-3.295
			C143.679,113.618,144.756,114.731,145.437,113.997L145.437,113.997z"/>
	</g>
</g>
<g>
	<g>
		<path fill="#D0A300" d="M190.066,112.565c7.505,1.233,5.261,7.754,3.255,13.02c-1.41,3.7-3.348,7.501-3.671,11.529
			c-0.651,8.144,4.388,13.647,9.478,19.195c6.497,7.084,10.534,13.296,10.714,23.394c0.155,8.87-1.789,19.904-8.505,26.037
			c-0.737,0.675,0.345,1.783,1.078,1.112c6.3-5.751,8.155-15.001,8.824-23.292c0.72-8.913-1.116-16.522-6.639-23.433
			c-2.879-3.602-6.215-6.797-9.146-10.356c-5.511-6.699-4.76-13.326-1.812-20.882c2.665-6.826,6.844-16.195-3.173-17.842
			C189.512,110.89,189.099,112.406,190.066,112.565L190.066,112.565z"/>
	</g>
</g>
<g>
	<g>
		<path fill="#D0A300" d="M189.798,115.137c-2.725,8.243-2.921,17.197-1.581,25.743c1.237,7.904,6.541,13.896,12.101,19.017
			c7.647,7.042,14.746,13.895,18.046,24.257c3.3,10.369,0.912,21.575-2.713,31.466c-0.349,0.95,1.126,1.358,1.47,0.418
			c6.545-17.854,5.512-35.18-7.519-49.51c-5.884-6.472-13.311-11.102-17.568-19.054c-4.827-9.009-3.871-22.524-0.765-31.919
			C191.588,114.592,190.114,114.182,189.798,115.137L189.798,115.137z"/>
	</g>
</g>
<g>
	<g>
		<path fill="#D0A300" d="M191.913,117.31c-11.415,3.168-9.22,25.191-7.296,34.002c2.049,9.384,7.351,17.541,15.019,22.959
			c6.444,4.553,16.431,8.021,24.075,5.281c0.924-0.33,0.527-1.851-0.404-1.52c-7.503,2.689-16.489-1.044-22.899-5.121
			c-7.624-4.847-12.119-13.312-14.32-22.019c-1.988-7.885-3.764-29.291,6.234-32.064
			C193.268,118.566,192.864,117.048,191.913,117.31L191.913,117.31z"/>
	</g>
</g>
<g>
	<g>
		<path fill="#D0A300" d="M191.853,115.861c4.413-0.038,8.529-2.133,13.09-2.068c8.389,0.117,12.557,5.4,11.971,13.862
			c-0.715,10.378,3.472,17.427,12.988,21.126c6.789,2.641,29.029,0.979,24.413-11.044c-0.357-0.933-1.831-0.526-1.468,0.419
			c3.173,8.265-8.55,9.493-13.833,9.766c-8.694,0.447-17.491-2.781-20.285-12.248c-2.338-7.925,2.663-16.061-5.6-21.365
			c-2.73-1.755-6.265-2.064-9.396-2.107c-4.126-0.058-7.871,2.051-11.88,2.084C190.869,114.296,190.869,115.87,191.853,115.861
			L191.853,115.861z"/>
	</g>
</g>
<g>
	<g>
		<path fill="#D0A300" d="M232.344,114.654c5.05-8.255,16.835-0.203,20.163,5.579c2.597,4.51,3.322,10.382,4.842,15.347
			c2.269,7.414,6.26,16.06,14.961,15.681c0.98-0.042,0.984-1.615,0-1.572c-13.239,0.574-14.011-19.961-17.904-29.08
			c-3.331-7.799-17.548-16.278-23.378-6.748C230.502,114.721,231.82,115.51,232.344,114.654L232.344,114.654z"/>
	</g>
</g>
<g>
	<g>
		<path fill="#D0A300" d="M230.226,122.561c6.203-4.259,13.115-5.833,19.352-0.714c4.708,3.862,6.094,10.463,9.698,15.215
			c3.331,4.389,12.356,9.871,14.034,1.096c0.19-0.991-1.279-1.414-1.471-0.419c-0.846,4.429-4.482,4.005-7.586,2.252
			c-2.795-1.576-4.606-5.008-6.136-7.744c-2.311-4.141-4.04-8.177-7.463-11.514c-6.213-6.06-14.812-3.917-21.199,0.468
			C228.642,121.761,229.402,123.126,230.226,122.561L230.226,122.561z"/>
	</g>
</g>
<g>
	<g>
		<path fill="#D0A300" d="M230.603,124.604c0.564-4.718,8.698,1.091,10.078,2.028c6.433,4.371,1.411,11.023-1.85,15.466
			c-4.172,5.69-8.447,12.734-7.218,20.248c1.166,7.12,5.8,12.769,11.292,16.984c3.629,2.783,7.772,4.731,10.283,8.802
			c3.89,6.309-2.844,13.24-7.007,17.063c-0.735,0.678,0.346,1.785,1.079,1.113c6.95-6.386,12.19-15.292,3.936-22.925
			c-4.112-3.802-8.969-6.178-12.805-10.423c-6.104-6.753-6.537-15.045-2.753-23.104c3.076-6.549,14.121-15.134,7.882-22.804
			c-2.538-3.121-13.521-10.167-14.443-2.45C228.957,125.61,230.483,125.599,230.603,124.604L230.603,124.604z"/>
	</g>
</g>
<g>
	<g>
		<path fill="#D0A300" d="M203.734,123.799c4.275-4.564,9.271,8.566,10.536,11.473c1.901,4.37,2.971,7.464,7.508,9.452
			c4.991,2.187,11.003,1.826,16.302,1.897c3.457,0.048,6.919,0.148,10.312,0.895c1.174,0.258,8.817,4.291,6.387,5.545
			c-0.879,0.454-0.104,1.812,0.771,1.359c0.353-0.182,0.703-0.363,1.055-0.544c0.284-0.148,0.459-0.576,0.35-0.89
			c-4.699-13.453-26.297-5.302-36.082-10.428c-4.935-2.588-6.557-11.521-9.238-16.145c-1.934-3.327-5.461-7.484-8.977-3.729
			C201.974,123.417,203.051,124.53,203.734,123.799L203.734,123.799z"/>
	</g>
</g>
<g>
	<g>
		<path fill="#D0A300" d="M198.316,123.118c-5.67,9.862,4.925,16.648,11.523,21.995c4.864,3.942,7.64,9.181,9.919,15.036
			c2.579,6.627,5.083,15.984,0.716,22.331c-0.57,0.83,0.754,1.615,1.317,0.794c6.241-9.07,0.319-23.348-4.396-31.769
			c-4.773-8.52-24.445-15.972-17.765-27.594C200.135,123.038,198.817,122.247,198.316,123.118L198.316,123.118z"/>
	</g>
</g>
<g>
	<g>
		<path fill="#D0A300" d="M204.19,126.725c4.039-1.551,8.279-0.086,12.129,1.404c4.507,1.745,6.834,4.602,7.769,9.435
			c1.004,5.178,1.125,10.341,4.568,14.557c6.712,8.209,20.641,5.26,29.025,10.741c0.832,0.547,1.597-0.817,0.77-1.357
			c-10.772-7.045-28.381-2-31.919-18.007c-1.046-4.722-0.612-10.782-4.771-14.076c-4.583-3.626-12.342-6.377-17.976-4.215
			C202.872,125.557,203.267,127.08,204.19,126.725L204.19,126.725z"/>
	</g>
</g>
<g>
	<g>
		<path fill="#D0A300" d="M246.135,151.506c8.762-3.241,15.354,3.755,17.359,11.977c0.965,3.959,1.678,7.713,4.688,10.581
			c4.846,4.62,17.384,6.146,20.879-0.861c0.147-0.297,0.148-0.72-0.12-0.955c-0.555-0.484-0.669-0.551-1.391-0.747
			c-0.954-0.258-1.355,1.259-0.405,1.519c-0.326,1.376-1.257,2.207-2.799,2.497c-1.385,0.593-2.958,0.638-4.433,0.698
			c-3.135,0.127-6.171-0.707-8.968-2.114c-4.904-2.469-5.338-8.688-6.604-13.485c-2.181-8.263-10.725-13.544-18.613-10.626
			C244.81,150.327,245.205,151.848,246.135,151.506L246.135,151.506z"/>
	</g>
</g>
<g>
	<g>
		<path fill="#D0A300" d="M247.569,156.674c1.403,9.053,7.323,22.08,18.176,19.388c2.555-0.636,4.686-2.563,6.577-4.336
			c2.591-2.429,3.784-7.67,8.83-4.749c3.633,2.104,12.055,6.344,12.848,10.938c0.172,0.997,1.641,0.574,1.469-0.418
			c-0.599-3.479-5.044-6.052-7.592-7.931c-2.913-2.149-7.589-6.324-11.452-5.248c-1.272,0.355-2.15,2.204-2.771,3.213
			c-2.646,4.296-7.278,8.019-12.438,7.262c-7.574-1.112-11.158-11.99-12.174-18.536
			C248.885,155.256,247.416,155.682,247.569,156.674L247.569,156.674z"/>
	</g>
</g>
<g>
	<g>
		<path fill="#D0A300" d="M250.404,156.477c1.922,2.538,1.929,5.755,2.342,8.771c0.329,2.419,1.385,4.626,2.531,6.729
			c2.006,3.675,5.386,6.226,9.044,7.909c4.263,1.963,8.924,2.168,13.497,1.817c3.867-0.297,7.33-0.644,10.966,1.195
			c2.679,1.355,4.999,4.231,7.411,6.105c0.786,0.613,1.545-0.755,0.77-1.358c-3.875-3.013-6.793-6.607-11.705-7.632
			c-5.382-1.122-10.92,0.806-16.418-0.31c-6.664-1.352-11.504-5.875-13.999-12.283c-1.583-4.069-0.613-8.431-3.36-12.059
			C250.876,154.565,249.805,155.687,250.404,156.477L250.404,156.477z"/>
	</g>
</g>
<g>
	<g>
		<path fill="#D0A300" d="M238.839,154.287c-0.115,5.192-0.944,11.221,2.598,15.513c3.723,4.513,9.077,6.645,14.101,9.219
			c7.846,4.02,11.764,10.879,14.712,19.12c2.551,7.133,7.47,12.297,10.899,18.905c0.465,0.895,1.781,0.101,1.316-0.795
			c-3.365-6.483-8.33-11.474-10.746-18.528c-1.999-5.835-4.638-11.242-8.894-15.67c-3.632-3.778-9.122-5.583-13.604-7.991
			c-3.62-1.945-6.797-4.512-8.354-8.527c-1.312-3.38-0.584-7.684-0.503-11.244C240.385,153.271,238.86,153.273,238.839,154.287
			L238.839,154.287z"/>
	</g>
</g>
<g>
	<g>
		<path fill="#D0A300" d="M239.133,163.216c4.265,1.164,6.009,9.192,7.563,12.817c2.013,4.691,6.224,8.234,10.469,10.688
			c4.878,2.817,10.728,2.422,15.759,4.945c5.383,2.7,8.745,8.43,11.919,13.395c0.54,0.843,1.86,0.056,1.318-0.794
			c-2.735-4.279-5.562-9.072-9.667-12.122c-4.949-3.675-10.396-3.817-16.02-5.642c-7.364-2.391-11.387-8.675-14.212-15.531
			c-1.359-3.302-2.937-8.24-6.722-9.275C238.587,161.438,238.183,162.955,239.133,163.216L239.133,163.216z"/>
	</g>
</g>
<g>
	<g>
		<path fill="#D0A300" d="M246.206,170.638c-0.167,0.213,7.361,9.609,7.615,9.997c3.462,5.312,4.807,11.518,5.592,17.764
			c0.463,3.686,0.896,7.53,3.25,10.539c3.718,4.755,9.438,5.597,13.592,9.624c0.716,0.694,1.798-0.418,1.078-1.112
			c-4.421-4.29-10.558-4.956-14.129-10.479c-3.139-4.852-2.511-12.283-3.966-17.843c-1.304-4.967-3.924-9.325-6.964-13.342
			c-1.481-1.957-3.822-5.962-6.256-6.655c-0.241-0.068-0.575-0.008-0.741,0.202c-0.051,0.064-0.1,0.126-0.148,0.189
			C244.513,170.304,245.584,171.424,246.206,170.638L246.206,170.638z"/>
	</g>
</g>
<g>
	<g>
		<path fill="#D0A300" d="M233.59,167.42c-0.585,4.371,2.788,7.135,5.736,9.754c4.936,4.385,10.944,7.467,14.596,13.219
			c3.235,5.1,2.449,12.023,3.521,17.793c0.863,4.645,3.868,7.802,7.625,10.229c0.344,0.223,0.85,0.087,1.045-0.282
			c0.314-0.602,0.332-0.78,0.369-1.486c0.051-1.014-1.474-1.009-1.526,0c-0.765-0.788-1.596-1.502-2.493-2.137
			c-1.361-1.227-2.272-2.887-2.952-4.585c-0.824-2.056-0.983-4.41-1.189-6.591c-0.386-4.078-0.507-8.781-2.426-12.473
			c-2.099-4.037-5.274-6.863-8.792-9.57c-3.506-2.696-12.783-7.9-12.043-13.45C235.192,166.847,233.723,166.417,233.59,167.42
			L233.59,167.42z"/>
	</g>
</g>
<g>
	<g>
		<path fill="#D0A300" d="M227.991,169.777c4.387,0.022,7.086,3.938,8.984,7.484c2.157,4.028,1.243,8.527,0.293,12.746
			c-1.123,4.991-1.969,9.441,0.041,14.306c1.659,4.02,6.176,6.335,9.765,8.043c6.175,2.938,11.193,5.502,16.521,10.018
			c0.753,0.639,1.838-0.467,1.077-1.112c-4.308-3.655-8.269-6.561-13.437-8.782c-8.651-3.72-15.218-7.911-13.208-18.872
			c1.103-6.024,2.93-11.272,0.266-17.14c-1.894-4.173-5.61-8.239-10.301-8.263C227.01,168.198,227.011,169.773,227.991,169.777
			L227.991,169.777z"/>
	</g>
</g>
<g>
	<g>
		<path fill="#D0A300" d="M204.045,117.316c-1.626,10.884-7.929,20.221-9.934,30.996c-1.798,9.664,3.174,17.033,10.592,22.351
			c8.955,6.422,26.311,6.333,26.016,20.708c-0.241,11.708-10.645,20.984-13.222,32.145c-0.227,0.987,1.242,1.405,1.47,0.418
			c3.391-14.685,25.7-37.637,3.021-47.16c-11.631-4.883-27.128-9.588-26.686-25.523c0.327-11.733,8.49-21.982,10.214-33.517
			C205.662,116.742,204.194,116.315,204.045,117.316L204.045,117.316z"/>
	</g>
</g>
<g>
	<g>
		<path fill="#D0A300" d="M197.908,122.414c-5.562,5.11-5.699,13.991-5.91,21.109c-0.291,9.802,0.049,19.517,5.404,27.973
			c2.594,4.094,6.387,7.318,9.521,10.95c4.194,4.86,5.414,10.3,5.309,16.658c-0.169,9.893-3.454,19.685-0.537,29.46
			c0.287,0.966,1.76,0.554,1.469-0.419c-2.687-9.009-0.122-18.439,0.524-27.572c0.577-8.146-1.509-14.399-6.728-20.449
			c-3.515-4.073-7.324-7.529-9.961-12.348c-2.958-5.397-3.434-11.938-3.577-17.989c-0.193-8.168-0.846-20.369,5.565-26.261
			C199.723,122.85,198.641,121.742,197.908,122.414L197.908,122.414z"/>
	</g>
</g>
<g>
	<g>
		<path fill="#D0A300" d="M182.822,125.091c6.161-1.958,13.048,0.369,18.88,2.542c6.488,2.42,12.279,5.669,13.692,13.209
			c1.979,10.55-3.211,21.265,4.747,30.215c4.483,5.042,11.642,6.112,16.78,10.227c6.211,4.974,3.889,13.605,6.029,20.454
			c2.387,7.646,9.559,17.104,18.138,12.864c0.888-0.438,0.113-1.796-0.77-1.36c-7.12,3.52-12.468-4.121-15.14-9.945
			c-2.627-5.723-0.729-12.51-3.393-18.062c-2.693-5.616-7.932-7.925-13.202-10.372c-7.58-3.521-11.563-9.046-11.844-17.627
			c-0.279-8.593,2.969-19.876-4.926-26.043c-7.281-5.684-20.381-10.483-29.396-7.616
			C181.48,123.871,181.879,125.391,182.822,125.091L182.822,125.091z"/>
	</g>
</g>
<g>
	<g>
		<path fill="#D0A300" d="M196.805,137.072c4.842-0.899,7.873,11.017,8.911,14.18c2.029,6.188,3.517,12.546,5.383,18.787
			c2.205,7.38,7.128,13.64,10.557,20.436c6.174,12.236,3.768,25.29,5.046,38.425c0.099,1,1.624,1.011,1.526,0
			c-1.264-12.979,0.798-25.418-4.541-37.704c-3.732-8.587-9.504-15.71-12.061-24.84c-2.038-7.282-3.771-14.75-6.677-21.733
			c-1.427-3.425-3.903-9.931-8.552-9.068C195.432,135.733,195.844,137.251,196.805,137.072L196.805,137.072z"/>
	</g>
</g>
<g>
	<g>
		<path fill="#D0A300" d="M204.383,148.42c5.905,10.18,21.325,4.241,26.584-3.843c1.869-2.874,2.841-5.876,3.552-9.246
			c0.521-2.457,0.358-5.468,3.437-6.427c2.921-0.911,5.736,1.026,7.816,2.824c2.521,2.18,4.435,5.138,6.438,7.796
			c2.805,3.723,6.311,6.829,9.274,10.418c0.639,0.772,1.713-0.347,1.078-1.114c-2.728-3.306-5.863-6.22-8.582-9.529
			c-2.121-2.577-3.954-5.345-6.224-7.796c-3.283-3.549-8.014-5.682-12.48-3.173c-1.547,0.87-1.637,3.575-1.949,5.051
			c-1.002,4.713-2.031,8.77-5.373,12.381c-5.312,5.739-17.374,10.274-22.251,1.864C205.196,146.756,203.877,147.547,204.383,148.42
			L204.383,148.42z"/>
	</g>
</g>
<g>
	<g>
		<path fill="#D0A300" d="M216.913,118.856c3.594-0.111,8.31,5.604,10.845,7.893c5.603,5.064,5.61,11.022,5.071,18.137
			c-0.383,5.039-0.334,9.694,2.044,14.205c1.941,3.689,5.341,6.466,8.188,9.368c7.919,8.075,4.324,16.144,2.24,25.79
			c-0.987,4.569-3.121,13.558,2.537,15.801c0.92,0.366,1.314-1.155,0.406-1.518c-6.687-2.651,0.287-20.66,1.336-25.636
			c1.81-8.601-3.976-14.01-9.357-19.472c-4.829-4.899-6.329-10.023-5.981-16.968c0.246-4.912,1.409-10.786-1.016-15.368
			c-1.989-3.759-5.255-6.298-8.412-8.984c-2.041-1.738-5.05-4.91-7.901-4.822C215.935,117.312,215.93,118.887,216.913,118.856
			L216.913,118.856z"/>
	</g>
</g>
<g>
	<g>
		<path fill="#D0A300" d="M177.355,108.822c4.635-5.984,5.587,3.173,5.573,4.6c-0.021,2.09-0.479,4.212-0.821,6.266
			c-0.918,5.502-3.161,10.707-3.858,16.258c-1.49,11.869,5.501,20.881,9.663,31.327c4.23,10.615,6.781,21.934,10.466,32.76
			c2.109,6.194,4.997,13.609,11.736,15.465c0.952,0.263,1.354-1.256,0.406-1.518c-9.881-2.719-12.86-20.573-15.364-29.109
			c-1.775-6.062-3.545-12.11-5.773-18.017c-2.303-6.104-5.778-11.608-8.141-17.678c-4.562-11.721,1.97-23.005,3.146-34.708
			c0.279-2.783,0.053-5.817-2.088-7.759c-1.887-1.71-4.656-0.768-6.024,1C175.672,108.494,176.743,109.615,177.355,108.822
			L177.355,108.822z"/>
	</g>
</g>
<g>
	<g>
		<path fill="#D0A300" d="M155.835,114.664c4.369-3.442,9.953-2.17,14.448,0.312c6.496,3.586,7.058,11.056,7.354,17.798
			c0.518,11.733,5.479,22.447,7.846,33.789c2.512,12.026,2.939,24.503,5.987,36.411c1.883,7.357,6.861,12.597,14.162,13.885
			c0.963,0.17,1.373-1.346,0.405-1.517c-13.134-2.318-14.147-16.554-15.771-27.751c-0.941-6.511-1.766-13.034-2.937-19.508
			c-1.298-7.17-3.685-13.883-5.687-20.845c-1.846-6.409-2.288-12.942-2.76-19.567c-0.333-4.689-1.816-8.344-4.881-11.779
			c-4.442-4.978-13.603-6.792-18.938-2.589C154.294,113.912,155.053,115.28,155.835,114.664L155.835,114.664z"/>
	</g>
</g>
<g>
	<g>
		<path fill="#D0A300" d="M144.836,125.091c8.663-2.72,10.779,7.831,11.58,14.429c0.991,8.175,0.238,16.419,1.803,24.548
			c1.412,7.347,5.802,12.163,11.859,15.918c6.333,3.923,20.898,6.737,18.04,17.064c-1.771,6.401-9.08,11.512-13.732,15.72
			c-3.766,3.403-7.475,6.851-10.895,10.631c-4.023,4.446-12.129,14.82-2.442,17.693c0.947,0.28,1.349-1.237,0.405-1.518
			c-11.352-3.366,9.348-21.494,13.206-24.973c6.676-6.021,22.201-17.714,12.065-27.411c-2.441-2.335-5.868-3.604-8.879-4.918
			c-3.99-1.743-7.897-3.923-11.328-6.665c-9.164-7.32-7.784-20.954-8.229-31.596c-0.346-8.266-2.42-24.033-13.86-20.44
			C143.492,123.868,143.893,125.388,144.836,125.091L144.836,125.091z"/>
	</g>
</g>
<g>
	<g>
		<path fill="#D0A300" d="M141.325,132.092c6.382-2.793,14.05-0.288,16.674,6.493c1.916,4.96,0.739,11.113-0.075,16.163
			c-1.364,8.451-3.451,17.319,0.954,25.199c4.53,8.104,14.242,11.871,19.638,19.425c5.538,7.755,8.83,15.53,17.702,19.858
			c0.884,0.43,1.658-0.927,0.77-1.359c-10.365-5.057-13.411-15.756-20.796-23.9c-3.23-3.562-7.451-6.177-11.08-9.264
			c-5.13-4.364-7.49-9.774-7.425-16.616c0.098-10.299,5.234-21.001,1.326-31.11c-2.813-7.272-12.071-9.041-18.456-6.247
			C139.653,131.129,140.431,132.483,141.325,132.092L141.325,132.092z"/>
	</g>
</g>
<g>
	<g>
		<path fill="#D0A300" d="M115.295,126.447c3.557-11.528,16.016-1.092,20.675,3.918c8.491,9.125,6.697,23.151,5.418,34.7
			c-1,9.029-3.755,21.781,2.454,29.584c6.142,7.719,15.553,9.808,24.798,10.529c0.982,0.076,0.975-1.499,0-1.574
			c-6.512-0.507-12.885-1.706-18.579-5.172c-7.522-4.581-8.668-13.06-8.303-21.263c0.613-13.783,4.37-27.547-0.083-41.066
			c-2.974-9.034-23.104-25.462-27.85-10.075C113.527,127,114.999,127.41,115.295,126.447L115.295,126.447z"/>
	</g>
</g>
<g>
	<g>
		<path fill="#D0A300" d="M104.657,124.739c6.322-4.269,12.843-6.771,20.328-4.241c5.462,1.848,8.606,7.3,10.427,12.552
			c4.333,12.514,3.218,27.572,3.397,40.611c0.14,10.154-2.985,25.609,4.503,33.795c5.689,6.218,17.356,3.63,23.864,0.609
			c0.896-0.416,0.119-1.772-0.77-1.36c-5.331,2.475-11.453,3.513-17.201,2.212c-8.214-1.858-8.931-11.497-8.991-18.579
			c-0.125-14.834,0.345-29.675-0.877-44.487c-0.703-8.521-2.522-17.905-8.939-23.874c-7.835-7.287-18.76-3.833-26.511,1.402
			C103.068,123.933,103.832,125.296,104.657,124.739L104.657,124.739z"/>
	</g>
</g>
<g>
	<g>
		<path fill="#D0A300" d="M115.676,122.641c1.875,0.552,11.267,0.838,9.717,3.779c-1.604,3.044-4.027,5.552-5.751,8.515
			c-4.815,8.268-9.247,17.959-7.231,27.796c2.099,10.247,10.605,17.908,9.038,29.072c-1.444,10.269-10.685,18.226-15.46,26.896
			c-0.487,0.883,0.831,1.676,1.316,0.795c5.053-9.176,13.336-16.656,15.612-27.272c2.216-10.334-5.725-19.361-8.675-28.555
			c-3.983-12.406,4.835-25.073,11.38-34.711c0.926-1.363,2.704-3.464,1.187-5.029c-2.514-2.597-7.592-1.879-10.727-2.805
			C115.135,120.843,114.732,122.362,115.676,122.641L115.676,122.641z"/>
	</g>
</g>
<g>
	<g>
		<path fill="#D0A300" d="M78.892,133.257c0.875-5.712,6.35-9.138,10.837-11.792c3.361-1.986,7.575-3.424,10.988-0.463
			c2.599,2.255,2.469,6.916,2.501,10.032c0.046,4.568-0.308,8.912,1.439,13.209c1.829,4.501,5.184,8.324,8.123,12.077
			c8.045,10.267,9.501,22.451,12.499,34.847c1.685,6.97,5.213,13.858,12.557,15.346c0.961,0.195,1.371-1.322,0.406-1.518
			c-11.964-2.424-12.372-19.521-14.75-29.243c-1.579-6.45-3.798-12.483-7.609-17.87c-3.82-5.401-8.869-10.198-10.705-16.805
			c-2.074-7.463,2.931-22.068-8.366-23.392c-7.144-0.836-18.29,7.972-19.39,15.151C77.27,133.831,78.738,134.256,78.892,133.257
			L78.892,133.257z"/>
	</g>
</g>
<g>
	<g>
		<path fill="#D0A300" d="M91.554,123.308c-2.646-10.242,22.978-10.958,29.084-9.843c12.531,2.288-3.463,22.321-6.797,26.901
			c-7.17,9.855-16.207,22.399-10.931,35.138c1.602,3.869,4.451,7.201,6.761,10.627c2.792,4.138,4.103,8.777,5.021,13.674
			c1.763,9.399,1.755,18.709,6.332,27.315c0.473,0.89,1.79,0.095,1.316-0.795c-5.576-10.485-4.492-22.662-7.836-33.851
			c-3.388-11.332-14.248-16.967-10.962-30.337c3.442-14.007,15.435-23.76,21.435-36.435c1.568-3.312,3.02-7.672,0.802-11.015
			c-2.493-3.755-8.574-3.227-12.305-3.028c-6.39,0.34-26.238,1.043-23.39,12.068C90.337,124.705,91.808,124.289,91.554,123.308
			L91.554,123.308z"/>
	</g>
</g>
<g>
	<g>
		<path fill="#D0A300" d="M66.23,133.383c-2.274-6.362,5.251-11.939,9.571-15.074c1.672-1.212,3.438-2.285,5.233-3.287
			c1.354-0.757,2.778-1.333,4.238-1.829c3.034,1.731,3.966,3.775,2.795,6.131c-0.424,1.093-0.87,2.176-1.336,3.25
			c-4.793,11.211-3.62,23.207,2.296,33.498c2.98,5.185,6.727,9.871,9.958,14.884c4.224,6.555,6.403,13.259,7.194,21.087
			c0.716,7.098,0.323,14.278,1.333,21.348c0.572,4.011,1.668,8.202,5.79,9.459c0.944,0.289,1.344-1.229,0.405-1.517
			c-7.431-2.272-5.447-19.704-5.733-25.488c-0.365-7.386-1.591-14.285-4.89-20.883c-6.742-13.487-18.365-22.79-17.764-39.213
			c0.174-4.752,1.799-10.174,3.63-14.506c0.959-2.271,1.689-4.461,1.283-6.922c-0.809-4.895-6.85-2.165-9.297-1.014
			c-6.453,3.031-19.37,11.564-16.178,20.495C65.097,134.744,66.571,134.336,66.23,133.383L66.23,133.383z"/>
	</g>
</g>
<g>
	<g>
		<path fill="#D0A300" d="M52.513,128.081c1.716-4.306,7.691-9.488,12.191-10.042c6.79-0.837,3.104,10.235,2.346,13.136
			c-1.91,7.311-2.359,13.628,1.656,20.29c4.187,6.951,10.344,11.952,13.883,19.513c4.117,8.787,4.869,18.907,5.094,28.511
			c0.024,1.014,1.548,1.016,1.523,0c-0.235-10.103-1.322-19.977-5.301-29.306c-5.04-11.817-18.841-19.169-16.62-33.49
			c0.751-4.844,6.51-16.521,0.124-19.829c-5.832-3.018-14.463,6.023-16.367,10.797C50.668,128.601,52.143,129.007,52.513,128.081
			L52.513,128.081z"/>
	</g>
</g>
<g>
	<g>
		<path fill="#D0A300" d="M86.541,120.855c-0.483-1.24,18.269-10.254,21.091-11.143c5.465-1.719,11.471-3.046,17.111-1.52
			c9.038,2.445,7.784,15.723,7.982,23.108c0.245,9.152,0.903,18.103,0.408,27.279c-0.442,8.197-1.745,16.281-1.409,24.511
			c0.271,6.617,2.045,12.947,5.471,18.544c4.196,6.854,11.494,11.118,17.449,16.109c0.755,0.636,1.841-0.471,1.078-1.112
			c-7.312-6.129-15.22-10.987-19.502-20.026c-4.097-8.648-3.301-19.131-2.354-28.397c1.059-10.368,1.396-20.75,0.767-31.157
			c-0.493-8.146,0.746-18.56-3.431-25.869c-5.108-8.94-20.346-4.896-27.566-1.754c-2.392,1.042-19.708,8.914-18.567,11.844
			C85.433,122.204,86.909,121.797,86.541,120.855L86.541,120.855z"/>
	</g>
</g>
<g>
	<g>
		<path fill="#D0A300" d="M128.485,119.096c2.431-6.011,9.688-9.233,15.295-11.16c2.568-0.883,5.264-1.457,7.971-1.454
			c6.806,0.004,6.256,7.44,4.914,12.043c-1.403,4.815-2.412,8.471-0.222,13.208c2.157,4.667,7.618,7.775,11.362,10.885
			c5.317,4.423,9.743,9.331,11.704,16.236c1.391,4.899,0.535,10.771,0.299,15.783c-0.425,8.868-0.57,18.82,6.911,24.718
			c0.78,0.616,1.541-0.753,0.77-1.36c-10.231-8.062-5.195-24.757-5.992-36.065c-0.953-13.547-13.023-19.474-21.415-27.836
			c-7.064-7.039-0.377-14.387-0.872-22.434c-0.258-4.184-3.883-6.353-7.459-6.749c-8.306-0.92-21.489,5.736-24.736,13.77
			C126.637,119.614,128.113,120.018,128.485,119.096L128.485,119.096z"/>
	</g>
</g>
<g>
	<g>
		<path fill="#D0A300" d="M99.8,121.052c-3.647-2.929,4.181-6.798,6.163-7.75c4.334-2.083,9.391-2.493,7.924,4.182
			c-1.604,7.305-7.608,13.145-6.835,20.919c0.553,5.574,4.773,10.693,6.737,15.787c2.657,6.896,2.643,14.044,1.641,21.263
			c-1.48,10.667-3.842,21.411,2.429,30.97c0.547,0.834,1.87,0.048,1.316-0.795c-9.222-14.054,0.693-31.445-2.461-46.944
			c-0.708-3.479-2.12-6.78-3.605-9.969c-2.099-4.506-5.45-8.76-4.578-14.126c0.713-4.399,3.883-8.633,5.493-12.739
			c2.175-5.55,2.808-13.414-5.185-11.299c-3.302,0.875-16.14,6.776-10.116,11.614C99.487,122.781,100.575,121.675,99.8,121.052
			L99.8,121.052z"/>
	</g>
</g>
<g>
	<g>
		<path fill="#D0A300" d="M110.724,120.382c12.389-8.062,26.484-11.7,40.78-14.081c4.648-0.774,10.022,0.276,8.436,6.496
			c-0.81,3.17-2.567,6.108-3.806,9.116c-1.042,2.528-2.067,6.736-0.104,9.135c3.161,3.865,8.673,3.433,12.203,6.732
			c4.595,4.29-2.878,17.614-4.664,21.843c-5.294,12.525-10.864,25.817-6.481,39.531c0.307,0.959,1.779,0.548,1.47-0.418
			c-5.523-17.286,5.054-33.5,10.657-49.19c1.474-4.127,3.108-9.119,0.097-12.879c-4.331-5.406-14.641-2.178-12.337-12.397
			c1.062-4.711,5.665-9.636,4.938-14.736c-0.699-4.908-5.438-5.341-9.394-4.951c-14.682,1.452-30.066,6.308-42.564,14.44
			C109.125,119.563,109.889,120.926,110.724,120.382L110.724,120.382z"/>
	</g>
</g>
<g>
	<g>
		<path fill="#D0A300" d="M159.79,114.392c4.834-3.302,29.335-14.929,26.409-0.311c-1.981,9.886-12.178,16.267-15.965,25.347
			c-1.702,4.081-0.291,8.285,2.017,11.712c2.069,3.072,4.591,5.674,6.418,8.95c2.193,3.94,3.092,8.493,3.582,12.951
			c1.392,12.645-2.583,26.404,4.722,37.738c0.542,0.84,1.863,0.054,1.317-0.795c-8.727-13.535-1.664-31.421-6.42-46.31
			c-2.382-7.46-10.742-12.853-10.822-20.814c-0.059-5.675,6.274-11.631,9.374-15.724c3.782-4.996,11.992-15.344,4.498-20.794
			c-6.766-4.919-20.201,2.8-25.898,6.69C158.205,113.59,158.968,114.953,159.79,114.392L159.79,114.392z"/>
	</g>
</g>
<g>
	<g>
		<path fill="#D0A300" d="M177.607,112.381c-6.937-0.168-17.928,4.9-18.518,13.039c-0.348,4.78,5.642,7.736,8.623,10.114
			c7.754,6.186-6.426,15.904-10.842,18.8c-2.966,1.948-6.156,3.534-9.47,4.732c-5.16,1.866-0.157-4.392,1.134-6.196
			c5.324-7.44,10.781-14.984,16.821-21.827c2.111-2.389,6.708-6.495,6.486-10.148c-0.233-3.875-4.422-4.213-7.426-4.43
			c-0.98-0.071-0.975,1.503,0,1.573c2.41,0.174,7.015,0.765,5.376,4.637c-0.754,1.781-2.15,3.331-3.354,4.781
			c-2.591,3.116-5.27,6.112-7.764,9.321c-5.39,6.935-13.582,15.132-16.097,23.836c-0.127,0.441,0.24,1.063,0.735,0.995
			c6.547-0.897,12.526-4.475,17.84-8.343c3.748-2.726,10.439-7.776,10.401-13.226c-0.048-6.278-7.591-7.756-10.399-12.417
			c-4.601-7.634,11.589-13.787,16.452-13.669C178.592,113.979,178.588,112.405,177.607,112.381L177.607,112.381z"/>
	</g>
</g>
<g>
	<g>
		<path fill="#D0A300" d="M166.386,116.571c3.062-1.445,5.933-3.24,8.907-4.862c2.374-1.296,4.579-1.958,7.227-2.305
			c2.223-0.291,0.288,2.28-0.017,2.969c-1.114,2.505-1.197,5.829,1.535,7.014c3.181,1.377,9.2-2.149,12.272-3.074
			c3.283-0.989,6.708-1.881,10.146-1.354c6.378,0.979,3.077,9.458,2.022,13.26c-3.669,13.206,12.18,15.271,15.841,25.443
			c2.233,6.208-1.766,13.599-3.521,19.44c-1.448,4.832-1.476,9.541,0.994,13.986c0.489,0.88,1.808,0.087,1.317-0.795
			c-6.715-12.081,8.415-24.44,0.951-36.711c-3.227-5.305-9.718-7.415-13.257-12.49c-4.621-6.628,4.032-13.854,0.437-20.238
			c-2.287-4.061-6.568-3.913-10.607-3.251c-2.604,0.426-5.138,1.325-7.664,2.072c-2.509,0.742-10.81,5.294-9.406-1.719
			c0.367-1.831,3.775-5.613,0.21-6.142c-6.304-0.934-12.842,4.889-18.157,7.396C164.722,115.632,165.499,116.989,166.386,116.571
			L166.386,116.571z"/>
	</g>
</g>
<g>
	<g>
		<path fill="#D0A300" d="M190.479,112.959c-0.868-5.197,8.764-7.177,12.139-7.265c7.622-0.198,2.656,15.161,1.409,18.634
			c-1.451,4.045-3.597,8.5-2.558,12.95c0.656,2.81,1.896,5.088,3.291,7.585c2.277,4.076,2.066,8.828,1.268,13.268
			c-1.79,9.952-6.234,18.612,1.062,27.227c2.202,2.6,4.742,4.501,6.562,7.483c1.559,2.56,2.481,5.652,3.414,8.503
			c0.938,2.867,2.267,4.89,5.326,4.351c0.967-0.17,0.555-1.688-0.406-1.518c-3.409,0.599-6.434-11.838-8.546-14.428
			c-2.414-2.956-5.423-5.227-7.485-8.502c-2.16-3.423-1.831-7.592-1.152-11.402c1.154-6.458,3.685-12.479,3.241-19.159
			c-0.198-2.99-1.447-5.688-2.869-8.232c-2.377-4.255-2.87-7.984-1.519-12.63c1.635-5.621,9.686-22.064,0.545-25.506
			c-4.75-1.788-16.247,2.744-15.192,9.061C189.173,114.375,190.644,113.951,190.479,112.959L190.479,112.959z"/>
	</g>
</g>
<g>
	<g>
		<path fill="#D0A300" d="M225.223,123.39c-2.354,5.341-7.129,9.65-10.811,14.07c-3.622,4.35-7.123,8.786-10.36,13.448
			c-4.051,5.832-8.382,12.638-4.858,19.745c1.411,2.843,3.731,5.179,5.362,7.89c3.312,5.496,1.81,11.752,0.973,17.743
			c-0.705,5.043,0.282,9.383,1.899,14.104c1.846,5.391,1.904,11.279,4.002,16.541c0.367,0.924,1.845,0.52,1.47-0.418
			c-1.891-4.74-2.038-10.032-3.471-14.94c-1.93-6.61-2.989-11.505-1.893-18.5c1.221-7.812,0.194-13.162-4.443-19.379
			c-2.006-2.688-3.75-5.242-3.819-8.781c-0.106-5.293,4.343-10.691,7.156-14.741c3.494-5.03,7.474-9.706,11.388-14.388
			c3.106-3.722,6.725-7.07,8.722-11.599C226.944,123.268,225.63,122.468,225.223,123.39L225.223,123.39z"/>
	</g>
</g>
<g>
	<g>
		<path fill="#D0A300" d="M196.349,201.68c13.758-13.472,33.756-20.26,45.49-36.014c4.892-6.569,1.385-14.377-2.45-20.45
			c-2.081-3.297-4.501-6.466-6.969-9.46c-3.01-3.648-7.731-5.539-11.43-8.291c0,0.453,0,0.905,0,1.358
			c0.383-0.247,0.532-0.443,0.802-0.827c0.291-0.415-0.016-1.036-0.456-1.155c-4.112-1.126-7.93-0.366-12.012,0.545
			c-0.961,0.215-0.554,1.731,0.405,1.519c1.087-0.25,2.177-0.485,3.27-0.704c1.237-0.257,6.031,0.034,7.222-0.734
			c-0.519,0.335-0.463,1.014,0,1.358c3.253,2.42,6.878,4.216,9.966,6.873c3.126,2.69,5.587,6.871,7.884,10.312
			c2.57,3.854,4.665,8.143,4.706,12.906c0.041,5.028-4.775,9.259-8.091,12.339c-12.018,11.154-27.682,17.822-39.415,29.312
			C194.557,201.268,195.635,202.379,196.349,201.68L196.349,201.68z"/>
	</g>
</g>
<g>
	<g>
		<path fill="#D0A300" d="M248.245,118.4c-6.416-2.556-13.533-0.12-13.652,7.688c-0.024,1.56,0.895,3.091,1.612,4.396
			c1.865,3.395,4.056,6.057,5.53,9.765c2.861,7.188,0.49,13.843-3.6,19.74c-4.646,6.708-12.172,13.845-13.185,22.46
			c-1.274,10.838,9.683,14.533,17.165,18.812c0.862,0.491,1.629-0.868,0.77-1.36c-7.604-4.346-18.919-8.134-15.951-19.354
			c1.974-7.467,8.179-13.689,12.52-19.764c4.617-6.46,6.284-13.149,3.752-20.952c-1.52-4.683-5.062-8.069-6.835-12.554
			c-3.091-7.829,6.935-9.165,11.466-7.358C248.758,120.284,249.151,118.761,248.245,118.4L248.245,118.4z"/>
	</g>
</g>
<g>
	<g>
		<path fill="#D0A300" d="M249.746,117.932c0.497-0.276,0.782-0.357,0.977-0.879c0.326-0.879-0.937-1.301-1.394-0.607
			c-0.548,0.834-0.526,1.984-0.673,2.945c-0.317,2.117-1.421,4.218-2.216,6.171c-1.642,4.033-1.988,8.53-2.299,12.85
			c-0.73,10.131,0.892,20.29,1.492,30.383c0.875,14.676,1.228,31.638,11.63,42.96c0.678,0.736,1.754-0.377,1.077-1.113
			c-10.084-10.978-10.351-27.63-11.181-41.847c-0.478-8.171-1.489-16.292-1.634-24.48c-0.092-5.186,0.392-10.34,1.402-15.417
			c0.411-2.059,1.446-4.052,2.219-5.982c0.646-1.613,0.59-4.297,1.498-5.675c-0.465-0.202-0.929-0.404-1.392-0.606
			c-0.093-0.021-0.187-0.042-0.278-0.063C248.11,117.055,248.879,118.414,249.746,117.932L249.746,117.932z"/>
	</g>
</g>
<g>
	<g>
		<path fill="#D0A300" d="M226.687,127.859c-4.934-5.316-14.484,0.851-18.8,4.351c-7.534,6.115-11.409,14.327-7.747,23.952
			c2.184,5.74,6.118,10.538,8.216,16.418c2.277,6.377,2.565,13.195,1.978,19.899c-0.965,11.004-5.626,22.771,0.646,33.005
			c0.525,0.856,1.845,0.066,1.317-0.794c-5.645-9.21-2.026-20.356-0.658-30.305c1.188-8.652,0.268-17.104-2.929-25.192
			c-3.648-9.238-11.688-16.672-7.065-27.298c2.422-5.568,17.678-19.701,23.965-12.924
			C226.287,129.708,227.365,128.593,226.687,127.859L226.687,127.859z"/>
	</g>
</g>
<g>
	<g>
		<path fill="#D0A300" d="M209.466,115.949c-13.366-3.258-28.815-2.262-40.378,5.973c-9.597,6.835-13.637,18.054-7.526,28.615
			c6.833,11.814,22.021,19.12,23.565,33.835c0.94,8.951-4.379,17.945-6.446,26.399c-0.676,2.771-0.891,5.437-0.558,8.258
			c0.364,3.101,1.988,10.262-3.153,9.899c-0.981-0.068-0.976,1.504,0,1.573c4.078,0.288,5.174-2.646,5.175-6.393
			c0.002-2.553-0.59-5.078-0.73-7.622c-0.238-4.328,1.729-9.176,3.095-13.193c2.505-7.358,5.11-14.423,3.654-22.312
			c-1.133-6.139-5.815-11.205-9.834-15.553c-8.553-9.255-21.825-20.258-13.755-34.169c9.079-15.65,30.976-17.574,46.484-13.793
			C210.017,117.7,210.424,116.182,209.466,115.949L209.466,115.949z"/>
	</g>
</g>
<g>
	<g>
		<path fill="#D0A300" d="M157.426,203.427c7.484-12.08,21.404-25.481,13.074-40.737c-1.87-3.427-4.925-6.07-7.514-8.883
			c-4.14-4.497-5.929-10.256-8.463-15.71c-2.998-6.46-7.02-10.59-13.646-12.889c-0.936-0.324-1.333,1.195-0.406,1.519
			c7.747,2.688,11.094,8.188,14.136,15.629c1.635,3.993,3.607,7.713,6.143,11.172c2.243,3.062,5.239,5.434,7.492,8.511
			c10.378,14.165-5.059,29.178-12.133,40.595C155.578,203.489,156.897,204.277,157.426,203.427L157.426,203.427z"/>
	</g>
</g>
<g>
	<g>
		<path fill="#D0A300" d="M157.762,120.305c-8.928-1.402-18.407,2.25-23.499,10.191c-4.659,7.269-1.847,16.817,1.535,23.916
			c6.646,13.949,5.506,26.581-0.288,40.538c-3,7.225-5.798,15.003-10.514,21.258c-3.447,4.571-4.221-0.217-4.983-3.702
			c-0.759-3.463-1.28-6.979-1.907-10.467c-2.566-14.305-2.978-27.615,3.866-40.862c3.122-6.04,10.08-15.491,6.898-22.835
			c-3.297-7.607-13.095-9.692-20.377-10.168c-0.982-0.063-0.976,1.511,0,1.574c5.222,0.34,10.428,1.616,14.948,4.403
			c6.704,4.131,4.395,11.896,1.67,17.79c-1.835,3.968-4.368,7.602-6.01,11.665c-2.329,5.76-3.844,11.601-4.448,17.812
			c-0.926,9.523,1.547,18.956,3.244,28.244c0.456,2.493,0.988,12.03,5.347,10.185c5.033-2.133,8.006-11.169,10.059-15.749
			c3.452-7.702,7.062-15.68,8.511-24.06c0.901-5.211,0.45-10.485-0.69-15.606c-1.357-6.078-4.68-11.323-6.559-17.193
			c-4.882-15.251,8.008-27.738,22.791-25.416C158.319,121.974,158.731,120.458,157.762,120.305L157.762,120.305z"/>
	</g>
</g>
<g>
	<g>
		<path fill="#D0A300" d="M112.571,117.118c-0.947-0.474-1.567-0.75-2.557-1.169c-0.067,0.516-0.135,1.031-0.203,1.546
			c3.284-0.129,6.534-0.849,9.8-1.179c2.776-0.281,7.28-0.891,6.447,4.165c-0.343,2.084-1.092,4.177-1.544,6.247
			c-2.442,11.174,3.41,22.411,6.194,32.94c2.197,8.302,2.965,17.123,9.608,23.137c5.135,4.649,17.104,10.469,13.869,19.197
			c-0.353,0.95,1.123,1.357,1.47,0.418c2.538-6.847-3.392-12.063-8.155-15.842c-3.882-3.08-7.708-5.71-10.278-10.113
			c-3.624-6.21-4.129-14.132-6.077-20.974c-2.039-7.157-5.094-14.239-5.676-21.743c-0.271-3.479,0.462-7.074,1.395-10.404
			c0.428-1.527,1.284-3.614,0.881-5.261c-1.643-6.721-13.466-2.341-17.936-2.165c-0.91,0.036-0.973,1.219-0.202,1.546
			c0.731,0.336,1.461,0.672,2.192,1.009C112.682,118.917,113.456,117.56,112.571,117.118L112.571,117.118z"/>
	</g>
</g>
<g>
	<g>
		<path fill="#D0A300" d="M167.978,119.034c-6.054-8.542-13.704-10.535-23.532-8.167c-8.978,2.162-18.29,6.102-25.433,12.19
			c-2.59,2.208-5.211,5.479-5.632,9.048c-0.366,3.108,0.555,6.023,0.939,9.092c0.59,4.702-1.394,10.384-2.606,14.89
			c-4.153,15.434-6.66,31.634-12.662,46.461c-0.379,0.938,1.097,1.341,1.471,0.419c4.837-11.948,7.112-24.71,10.124-37.223
			c1.673-6.946,3.998-13.642,4.988-20.756c0.767-5.511-2.181-10.902,0.476-16.093c4.071-7.955,15.269-12.105,22.957-14.789
			c10.474-3.654,20.446-4.366,27.594,5.721C167.234,120.638,168.559,119.854,167.978,119.034L167.978,119.034z"/>
	</g>
</g>
<g>
	<g>
		<path fill="#D0A300" d="M86.335,123c-1.32,0.091-2.638,0.182-3.958,0.272c-0.979,0.066-0.986,1.519,0,1.573
			c5.343,0.294,10.354-2.874,15.435-4.159c9.158-2.317,8.989,5.725,6.341,11.666c-3.749,8.413-11.025,15.223-14.069,23.901
			c-3.81,10.863,2.607,18.149,10.824,23.823c5.727,3.955,11.523,7.384,14.897,13.878c3.919,7.547,2.795,17.22,2.214,25.411
			c-0.072,1.012,1.454,1.005,1.525,0c0.519-7.309,0.989-14.604-0.779-21.772c-1.615-6.545-5.997-11.043-11.157-14.816
			c-5.305-3.88-11.541-6.943-15.234-12.687c-3.736-5.81-1.538-12.946,1.757-18.293c4.736-7.686,14.112-17.55,13.489-27.356
			c-0.767-12.054-20.063-0.884-25.243-1.169c0,0.524,0,1.048,0,1.573c1.319-0.088,2.638-0.18,3.958-0.271
			C87.31,124.506,87.316,122.934,86.335,123L86.335,123z"/>
	</g>
</g>
<g>
	<g>
		<path fill="#D0A300" d="M93.841,135.362c-2.526-1.43,4.214-4.227,5.341-4.768c2.626-1.257,5.439-2.146,8.193-3.052
			c2.73-0.899,4.657-0.505,5.809-3.546c0.102-0.266-0.028-0.568-0.195-0.766c-5.576-6.589-18.611,3.203-23.875,6.14
			c0.256,0.454,0.514,0.905,0.77,1.359c5.622-4.071,10.77-8.795,16.619-12.526c-0.348-0.359-0.694-0.717-1.042-1.077
			c-5.069,10.243-10.833,19.789-8.645,31.773c1.732,9.493,10.09,14.969,17.888,18.823c10.776,5.329,22.7,9.606,25.965,22.916
			c3.798,15.485-4.116,32.776-6.794,47.853c-0.176,0.991,1.292,1.416,1.471,0.418c2.504-14.098,7.714-27.706,7.509-42.211
			c-0.144-10.082-4.932-17.62-12.941-23.032c-8.81-5.956-19.69-7.984-27.131-16.118c-10.896-11.909-1.824-27.864,3.998-39.626
			c0.333-0.673-0.359-1.513-1.043-1.077c-5.853,3.732-10.996,8.454-16.619,12.525c-0.796,0.576-0.107,1.848,0.769,1.359
			c5.713-3.188,11.732-7.527,18.393-7.953c3.724-0.237,2.672,2.522-0.218,3.024c-2.252,0.392-4.45,1.345-6.588,2.148
			c-3.799,1.427-7.468,3.26-10.399,6.173c-0.291,0.287-0.301,0.826,0,1.113c0.967,0.918,0.833,0.823,2,1.483
			C93.935,137.209,94.705,135.85,93.841,135.362L93.841,135.362z"/>
	</g>
</g>
<g>
	<g>
		<path fill="#D0A300" d="M104.139,146.81c-5.013-8.777,9.797-15.353,15.791-17.688c3.075-1.197,7.778-2.698,10.633-0.287
			c2.315,1.955,1.434,6.621,1.024,9.168c-1.389,8.626-8.595,25.086,4.202,28.197c5.919,1.439,12.299-0.537,18.312-0.044
			c8.843,0.724,9.587,9.792,10.052,17.079c0.718,11.213,0.526,26.751,14.774,27.393c0.983,0.043,0.98-1.53,0-1.575
			c-18.297-0.82-10.108-26.618-15.373-38.118c-6.468-14.125-32.859,3.045-33.837-14.711c-0.384-6.954,10.103-27.821-1.395-30.045
			c-6.155-1.19-13.752,3.253-18.735,6.439c-5.033,3.218-10.361,8.687-6.762,14.988C103.322,148.476,104.641,147.684,104.139,146.81
			L104.139,146.81z"/>
	</g>
</g>
<g>
	<g>
		<path fill="#D0A300" d="M133.234,141.696c1.918-12.662,17.337-18.199,27.692-21.234c2.711-0.793,5.574-1.131,8.381-1.076
			c6.736,0.133,8.961,6.387,7.959,12.376c-1.166,6.983-5.137,13.866-7.59,20.468c-2.236,6.017-3.676,12.203-2.691,18.639
			c0.867,5.667,5.55,9.551,9.823,12.608c6.76,4.836,11.914,9.498,13.961,18.104c1.884,7.919,0.005,16.579-1.497,24.385
			c-0.192,0.991,1.279,1.414,1.469,0.417c2.855-14.835,4.536-30.844-8.578-41.034c-3.274-2.544-6.813-4.579-9.787-7.535
			c-4.563-4.537-4.728-10.89-3.656-16.893c1.606-9.006,6.377-17.127,9.233-25.722c1.599-4.806,2.251-12.187-2.635-15.401
			c-5.022-3.305-11.354-1.919-16.725-0.277c-10.364,3.171-24.929,9.214-26.828,21.756
			C131.613,142.27,133.083,142.697,133.234,141.696L133.234,141.696z"/>
	</g>
</g>
<g>
	<g>
		<path fill="#D0A300" d="M184.674,175.589c-1.641-10.85,0.204-20.509,7.647-28.608c3.886-4.229,14.236-12.513,19.853-6.826
			c3.122,3.16,0.434,10.202-0.769,13.646c-1.777,5.096-4.305,9.935-6.908,14.623c-4.851,8.737-12.583,17.021-14.585,27.011
			c-0.997,4.974,2.246,7.887,6.276,9.666c3.458,1.525,7.928,2.817,9.445,6.816c1.156,3.048-0.518,7.451-1.06,10.509
			c-0.178,0.992,1.292,1.416,1.469,0.419c0.934-5.25,2.922-10.698-1.273-14.9c-2.347-2.353-5.935-3.377-8.874-4.674
			c-7.503-3.312-3.81-11.205-0.83-16.543c5.753-10.305,12.614-19.517,17.088-30.597c2.943-7.287,5.72-19.818-5.731-19.174
			c-7.026,0.396-14.104,6.857-18.103,12.353c-5.769,7.936-6.561,17.128-5.115,26.697
			C183.354,177.009,184.823,176.581,184.674,175.589L184.674,175.589z"/>
	</g>
</g>
<g>
	<g>
		<path fill="#D0A300" d="M179.926,125.903c1.581-5.222,5.527-10.096,9.916-13.058c0.79-0.533,4.512-2.527,4.717,0.121
			c0.109,1.427-0.442,2.924-0.884,4.248c-0.974,2.908-2.784,5.592-4.422,8.134c-5.886,9.13-13.162,19.485-14.027,30.81
			c-0.372,4.894,0.311,10.145,3.469,14.051c3.692,4.57,8.711,7.474,12.964,11.411c11.602,10.731,2.826,27.415-1.068,39.717
			c-0.306,0.968,1.167,1.38,1.472,0.418c2.921-9.23,8.366-19.618,6.753-29.646c-1.768-10.972-11.401-14.598-18.131-21.888
			c-9.619-10.417-0.494-28.05,5.698-37.86c3.798-6.018,11.212-13.695,9.372-21.583c-0.059-0.251-0.282-0.499-0.532-0.551
			c-7.61-1.585-14.811,8.783-16.765,15.254C178.162,126.457,179.634,126.869,179.926,125.903L179.926,125.903z"/>
	</g>
</g>
<g>
	<g>
		<path fill="#D0A300" d="M191.269,145.236c2.916-9.576,10.062-15.096,18.413-19.373c2.023-1.038,10.047-4.723,10.396-0.05
			c0.213,2.813-1.521,6.075-2.629,8.507c-2.843,6.244-6.475,12.107-9.889,18.027c-2.348,4.07-4.843,7.841-4.953,12.699
			c-0.114,5.12,3.82,8.435,7.524,11.058c6.01,4.258,10.229,8.386,8.629,16.451c-1.524,7.687-8.959,27.256,1.642,31.384
			c0.922,0.358,1.317-1.164,0.405-1.518c-7.479-2.914-3.405-16.759-2.144-22.47c1.258-5.691,3.291-11.155,0.893-16.797
			c-2.312-5.439-8.625-7.738-12.58-11.574c-5.865-5.692-1.295-12.874,1.9-18.44c3.57-6.223,7.312-12.366,10.296-18.92
			c1.317-2.896,3.919-8.053,1.491-11.008c-3.512-4.277-12.869,1.777-16.01,3.659c-7.047,4.225-12.369,9.778-14.856,17.948
			C189.502,145.79,190.976,146.203,191.269,145.236L191.269,145.236z"/>
	</g>
</g>
<g>
	<g>
		<path fill="#D0A300" d="M215.038,153.469c0.022-7.714,2.863-14.076,8.894-18.7c2.107-1.615,11.759-7.726,13.209-2.831
			c0.96,3.239-1.23,7.836-2.377,10.76c-1.679,4.286-3.786,8.398-5.874,12.483c-4.507,8.817-9.508,18.643-9.146,28.851
			c0.2,5.587,3.045,10.466,6.39,14.653c5.872,7.347,7.405,13.542,5.608,22.924c-0.191,0.991,1.28,1.414,1.472,0.419
			c1.219-6.371,1.51-12.232-1.451-18.126c-1.938-3.856-5.218-6.843-7.492-10.458c-3.088-4.912-3.498-10.654-2.481-16.264
			c2.139-11.769,9.448-22.134,14.007-32.982c1.581-3.765,6.472-15.325-1.15-15.625c-5.113-0.2-10.996,4.071-14.54,7.437
			c-4.739,4.5-6.574,11.002-6.59,17.46C213.512,154.485,215.036,154.485,215.038,153.469L215.038,153.469z"/>
	</g>
</g>
<g>
	<g>
		<path fill="#D0A300" d="M219.155,137.529c0.264-0.455,0.527-0.908,0.792-1.363c-0.475-0.132-0.949-0.264-1.424-0.396
			c-1.217,15.251-10.732,31.1-0.626,45.14c4.971,6.904,11.216,11.271,13.18,20.18c2.27,10.287-2.299,21.764-2.793,32.165
			c-0.048,1.017,1.477,1.011,1.524,0c0.468-9.837,3.676-19.564,3.157-29.431c-0.366-7.008-4.03-12.796-8.423-17.867
			c-3.437-3.97-6.989-7.265-8.861-12.383c-1.58-4.313-1.191-9.158-0.487-13.602c1.293-8.166,4.192-15.904,4.854-24.202
			c0.064-0.812-1.053-1.031-1.42-0.398c-0.265,0.454-0.53,0.908-0.792,1.361C217.331,137.605,218.648,138.396,219.155,137.529
			L219.155,137.529z"/>
	</g>
</g>
<g>
	<g>
		<path fill="#D0A300" d="M223.481,135.225c-0.15-10.131,15.812-24.721,20.954-10.381c3.148,8.784-1.344,19.781-2.819,28.545
			c-1.405,8.341-1.045,16.374,2.69,24.018c4.779,9.78,15.205,15.579,17.773,26.65c0.228,0.986,1.697,0.567,1.47-0.419
			c-2.911-12.547-15.366-19.274-19.705-31.19c-4.682-12.859,1.991-26.164,2.976-39.005c0.522-6.804-1.574-16.404-9.712-16.34
			c-7.964,0.062-15.264,10.547-15.153,18.124C221.97,136.237,223.494,136.239,223.481,135.225L223.481,135.225z"/>
	</g>
</g>
<g>
	<g>
		<path fill="#D0A300" d="M244.583,136.857c0-2.812,8.597,3.461,9.209,4c3.14,2.765,4.64,6.363,4.99,10.528
			c0.505,5.987-1.519,12.024-0.413,18.005c2.122,11.472,12.116,19.394,13.18,31.187c0.089,1.003,1.615,1.011,1.524,0
			c-0.551-6.107-3.165-11.139-6.291-16.247c-4.435-7.248-7.532-13.596-7.052-22.416c0.366-6.687,1.656-13.152-2.129-19.076
			c-2.759-4.316-8.664-8.553-13.782-8.398c-0.414,0.013-0.762,0.348-0.762,0.786c0,0.545,0,1.089,0,1.635
			C243.058,137.874,244.583,137.874,244.583,136.857L244.583,136.857z"/>
	</g>
</g>
<g>
	<g>
		<path fill="#D0A300" d="M246.589,140.545c-3.562-5.338-7.59-6.56-11.918-1.122c-4.206,5.286-6.245,13.502-6.313,20.232
			c-0.086,8.25,8.031,14.832,11.613,21.538c6.912,12.945-4.276,28.143-6.381,40.96c-0.165,0.991,1.305,1.418,1.47,0.418
			c1.63-9.921,7.339-18.833,8.304-28.861c0.823-8.546-2.248-14.383-7.154-20.992c-2.604-3.509-4.976-6.98-6.162-11.288
			c-0.782-2.847,0.2-6.46,0.821-9.224c1.464-6.515,7.346-21.45,14.403-10.866C245.825,142.17,247.147,141.385,246.589,140.545
			L246.589,140.545z"/>
	</g>
</g>
<g>
	<g>
		<path fill="#D0A300" d="M230.895,128.175c-9.338-0.477-7.835,18.188-7.27,23.881c0.833,8.362,4.783,16.376,6.868,24.46
			c3.604,13.994-1.112,24.646-7.907,36.464c-0.505,0.875,0.815,1.667,1.315,0.795c4.029-7.006,8.801-14.523,9.428-22.888
			c0.718-9.551-2.266-18.416-5.164-27.347c-1.96-6.043-3.272-11.468-3.351-17.814c-0.052-4.232-0.164-16.297,6.079-15.978
			C231.878,129.799,231.872,128.225,230.895,128.175L230.895,128.175z"/>
	</g>
</g>
<g>
	<g>
		<path d="M26.34,195.318c0.243,1.833-1.588,2.797-3.09,2.834c-1.472,0.033-1.476,2.395,0,2.36c3.174-0.073,5.744-2.422,5.295-5.822
			c-0.084-0.639-0.867-0.979-1.406-0.824C26.479,194.054,26.255,194.682,26.34,195.318L26.34,195.318z"/>
	</g>
</g>
<g>
	<g>
		<path d="M15.144,175.343c-0.458,0.078-0.803,0.702-1.048,1.049c-0.521,0.736-0.98,1.521-1.468,2.28
			c-0.272,0.423,0.388,0.816,0.66,0.396c0.37-0.575,0.728-1.16,1.101-1.734c0.181-0.279,0.625-1.177,0.96-1.234
			C15.831,176.021,15.625,175.262,15.144,175.343L15.144,175.343z"/>
	</g>
</g>
</svg>
