<?xml version="1.0" encoding="utf-8"?>
<!-- Generator: Adobe Illustrator 16.0.4, SVG Export Plug-In . SVG Version: 6.00 Build 0)  -->
<!DOCTYPE svg PUBLIC "-//W3C//DTD SVG 1.1//EN" "http://www.w3.org/Graphics/SVG/1.1/DTD/svg11.dtd">
<svg version="1.1" id="Layer_1" xmlns="http://www.w3.org/2000/svg" xmlns:xlink="http://www.w3.org/1999/xlink" x="0px" y="0px"
	 width="300px" height="250px" viewBox="0 0 300 250" enable-background="new 0 0 300 250" xml:space="preserve">
<g>
	<g>
		<path d="M100.542,169.473c1.297-3.891,7.251-7.512,11.232-5.649c1.948,0.912,3.654-1.981,1.694-2.898
			c-6.03-2.821-14.131,1.559-16.164,7.655C96.617,170.64,99.86,171.516,100.542,169.473L100.542,169.473z"/>
	</g>
</g>
<g>
	<g>
		<path d="M123.942,154.86c10.15,18.602,15.281,41.435,2.84,60.266c-0.599,0.906,0.855,1.746,1.449,0.848
			c12.767-19.324,7.591-42.843-2.84-61.961C124.873,153.062,123.423,153.909,123.942,154.86L123.942,154.86z"/>
	</g>
</g>
<g>
	<g>
		<path d="M114.033,139.67c-7.384-16.423-27.293-21.413-43.691-22.36c-8.814-0.509-17.806,0.304-26.361,2.491
			c-11.267,2.881-20.558,10.224-27.826,19.094c-10.949,13.362-13.051,30.73-11.592,47.483c1.433,16.459,7.7,35.087,23.333,43.095
			c0.962,0.492,1.811-0.956,0.848-1.449c-15.222-7.797-20.91-25.713-22.502-41.646c-1.521-15.22,0.339-31.233,9.307-43.938
			c6.783-9.607,16.548-17.448,27.905-20.755c7.896-2.299,16.268-2.941,24.457-2.79c16.446,0.305,37.257,5.127,44.674,21.622
			C113.027,141.503,114.474,140.648,114.033,139.67L114.033,139.67z"/>
	</g>
</g>
<path fill="#C49A6C" d="M110.569,132.304c0,0,26.736,13.546,28.886,46.272c0,0,3.348,23.828,0,31.052l-1.055,2.373l-7.287,3.549
	l-6.446-6.307l-13.528-24.182l-3.726-19.713l1.312-20.229L110.569,132.304z"/>
<path fill="#C49A6C" d="M123.127,93.584c0,0,39.77-10.645,47.514,13.333c7.746,23.978,21.561,50.394,65.308,38.406
	c43.747-11.989,56.832-25.283,56.832-25.283l-5.027-14.443l-7.771-17.783l-11.987-14.185l-20.649-15.682l-20.756-7.571
	l-28.344-0.752l-23.662,5.181l-22.678,9.611L136.298,75.43l-13.171,17.262"/>
<g>
	<g>
		<path d="M83.545,200.345c-0.933-0.956-2.072-1.613-3.237-2.244c-0.476-0.258-0.9,0.467-0.424,0.725
			c1.104,0.598,2.184,1.207,3.067,2.113C83.33,201.326,83.923,200.732,83.545,200.345L83.545,200.345z"/>
	</g>
</g>
<g>
	<g>
		<path d="M92.499,198.274c-0.929,0.607-1.905,1.167-2.66,1.995c-0.364,0.399,0.229,0.994,0.594,0.594
			c0.708-0.777,1.619-1.294,2.49-1.864C93.373,198.704,92.953,197.977,92.499,198.274L92.499,198.274z"/>
	</g>
</g>
<g>
	<g>
		<path d="M92.116,211.188c-1.839,0.054-3.308-0.696-4.681-1.856c-0.213-0.18-0.501-0.153-0.659,0.085
			c-1.416,2.143-3.674,2.742-5.899,1.334c-0.459-0.29-0.88,0.437-0.424,0.725c2.592,1.641,5.379,0.893,7.048-1.635
			c-0.22,0.028-0.439,0.057-0.659,0.085c1.552,1.311,3.209,2.162,5.274,2.103C92.656,212.012,92.657,211.172,92.116,211.188
			L92.116,211.188z"/>
	</g>
</g>
<g>
	<g>
		<path d="M50.473,141.824c2.875,3.158-1.38,6.088-4.679,5.05c-0.76-0.239-1.7-0.561-2.507-0.562
			c-2.114-0.001-3.607,0.538-5.369,1.757c-1.295,0.896-2.218,2.401-3.082,3.68c-2.748,4.066-9.723,7.256-12.059,0.349
			c-0.345-1.021-1.967-0.583-1.619,0.445c1.252,3.703,4.615,5.488,8.44,5.218c4.316-0.307,6.109-4.79,8.53-7.62
			c4.072-4.761,9.822,1.262,14.233-2.367c2.241-1.844,0.835-5.448-0.701-7.137C50.93,139.835,49.747,141.025,50.473,141.824
			L50.473,141.824z"/>
	</g>
</g>
<g>
	<g>
		<path d="M60.505,230.56c-0.68,0.652-0.667,0.808-0.725,1.771c0.125,0.883,0.169,1.772,0.131,2.67
			c-0.375,2.534-3.279,4.024-5.32,4.849c-4.362,1.76-9.843,2.662-14.39,1.368c-7.961-2.268-10.917-13.271-13.805-19.908
			c-0.431-0.99-1.876-0.135-1.449,0.848c3.617,8.314,6.806,19.218,16.962,21.192c4.313,0.839,10.584-0.453,14.454-2.42
			c2-1.017,3.404-2.2,4.592-4.107c0.665-1.069,0.091-4.454,0.738-5.074C62.475,230.996,61.286,229.811,60.505,230.56L60.505,230.56z
			"/>
	</g>
</g>
<g>
	<g>
		<path d="M128.843,217.242c-0.694-7.164-13.362-3.497-17.11-1.545c-4.223,2.198-5.101,7.552-1.174,10.33
			c4.011,2.838,10.537,2.876,14.945,1.096c5.475-2.21,5.455-7.486,2.729-11.997c-0.559-0.925-2.011-0.082-1.449,0.848
			c2.293,3.796,2.495,7.827-2.099,9.682c-3.435,1.387-7.628,1.166-11.086,0.006c-3.995-1.34-5.056-4.409-2.221-7.643
			c2.163-2.468,15.304-5.774,15.788-0.776C127.268,218.31,128.947,218.319,128.843,217.242L128.843,217.242z"/>
	</g>
</g>
<g>
	<g>
		<path d="M108.774,224.152c-7.738,3.522-15.861,4.432-24.163,5.733c-9.32,1.462-18.34,3.701-26.489-2.479
			c-0.863-0.655-1.698,0.804-0.848,1.449c7.02,5.325,14.728,4.807,23.005,3.436c9.974-1.653,20.024-2.447,29.342-6.689
			C110.606,225.153,109.752,223.707,108.774,224.152L108.774,224.152z"/>
	</g>
</g>
<g>
	<g>
		<path d="M63.699,176.019c-3.538-6.626-10.837-14.431-18.553-8.722c-1.72,1.272-0.049,4.188,1.694,2.898
			c6.081-4.498,11.293,2.524,13.959,7.519C61.82,179.624,64.718,177.928,63.699,176.019L63.699,176.019z"/>
	</g>
</g>
<g>
	<g>
		<path d="M208.293,80.239c-2.075,3.872-1.377,8.661,2.714,10.807c1.862,0.978,4.518,0.658,6.333-0.259
			c3.946-1.992,6.444-4.62,11.288-3.542c6.39,1.421,9.335,8.226,16.337,8.757c6.023,0.457,11.476-4.999,11.505-10.815
			c0.008-1.596-2.467-1.596-2.475,0c-0.041,8.08-9.31,9.919-14.882,6.14c-3.392-2.3-5.802-5.178-9.827-6.468
			c-3.119-0.999-6.139-0.316-8.922,1.21c-1.672,0.917-3.081,2.114-4.887,2.804c-4.989,1.907-6.915-3.901-5.048-7.384
			C211.184,80.082,209.047,78.832,208.293,80.239L208.293,80.239z"/>
	</g>
</g>
<g>
	<g>
		<path d="M122.502,102.471c-5.978-7.737-7.825,6.478-9.375,9.836c-1.559,3.376-5.579,6.804-5.557,10.771
			c0.023,4.251,3.986,5.826,7.494,6.97c1.522,0.496,2.168-1.895,0.658-2.387c-4.585-1.494-6.812-3.51-4.259-7.969
			c1.198-2.092,2.663-4.005,3.802-6.136c0.787-1.473,1.154-3.078,1.523-4.69c0.407-1.778,1.412-7.95,3.965-4.645
			C121.727,105.482,123.465,103.717,122.502,102.471L122.502,102.471z"/>
	</g>
</g>
<g>
	<g>
		<path d="M109.3,128.093c-6.952,31.256-4.309,67.004,21.695,88.972c1.211,1.023,2.971-0.719,1.75-1.75
			c-25.335-21.402-27.828-56.126-21.058-86.563C112.033,127.196,109.647,126.535,109.3,128.093L109.3,128.093z"/>
	</g>
</g>
<g>
	<g>
		<path d="M161.379,223.437c15.383,2.513,30.653-0.542,45.953-2.188c11.516-1.238,21.515-4.196,28.562-13.945
			c0.938-1.297-1.211-2.529-2.137-1.25c-7.511,10.39-18.797,11.94-30.705,13.17c-13.729,1.417-27.204,4.083-41.016,1.826
			C160.477,220.795,159.807,223.18,161.379,223.437L161.379,223.437z"/>
	</g>
</g>
<g>
	<g>
		<path d="M119.054,101.185c0,0.288,0,0.576,0,0.864c0,1.596,2.475,1.596,2.475,0c0-0.288,0-0.576,0-0.864
			C121.529,99.589,119.054,99.589,119.054,101.185L119.054,101.185z"/>
	</g>
</g>
<g>
	<g>
		<path d="M121.821,103.461c2.704-20.378,20.825-33.667,38.186-41.766c17.603-8.211,38.21-12.853,57.664-11.473
			c46.877,3.325,77.36,52.314,77.421,95.804c0.025,18.043-6.673,35.076-18.022,48.969c-1.001,1.225,0.739,2.986,1.75,1.75
			c15.119-18.506,20.988-41.017,17.754-64.591c-2.569-18.73-10.688-37.169-21.843-52.362
			c-12.898-17.566-33.995-29.095-55.456-31.876c-18.435-2.389-38.757,2.671-55.713,9.555c-20.06,8.144-41.156,22.937-44.215,45.991
			C119.137,105.04,121.615,105.02,121.821,103.461L121.821,103.461z"/>
	</g>
</g>
<g>
	<g>
		<path d="M210.705,136.431c1.664-8.086,6.28-20.263,16.632-16.155c2.97,1.179,4.246-3.61,1.316-4.772
			c-13.156-5.222-20.507,8.851-22.722,19.611C205.291,138.229,210.062,139.556,210.705,136.431L210.705,136.431z"/>
	</g>
</g>
<g>
	<g>
		<path d="M155.197,137.774c-5.346-7.745-18.599-11.01-26.075-4.564c-2.421,2.088,1.096,5.573,3.5,3.5
			c4.913-4.235,14.866-1.414,18.301,3.562C152.724,142.88,157.016,140.409,155.197,137.774L155.197,137.774z"/>
	</g>
</g>
<path d="M55.848,118.531c0,0,8.703,6.066,0,14.601c-8.702,8.535-25.027,7.518-25.447,13.613c-0.418,6.098-22.459,8.077-22.629,8.47
	c-0.171,0.394,6.169-12.463,6.169-12.463l5.552-7.088c0,0,11.12-10.385,17.808-12.69c0,0,16.801-5.272,18.636-4.947"/>
<path d="M59.716,229.595v-0.846c0,0-18.527-23.781-34.966-7.017l3.333,5.679l3.336,6.846l4.276,5.318l5.414,2.761l4.884,0.293
	l6.642-1.31l5.064-2.104l3.021-3.992l0.378-5.409L59.716,229.595z"/>
<g>
	<path fill="#FFFFFF" d="M132.652,210.755c-9.105,11.584,20.094,23.471,27.629,12.803c8.478-12.193-19.152-26.214-27.629-13.106"/>
	<g>
		<path d="M131.583,210.13c-9.874,13.758,20.93,25.354,29.573,14.303c10.791-13.8-19.979-28.154-29.573-14.606
			c-0.925,1.306,1.223,2.54,2.137,1.25c7.803-11.019,34.077,0.876,25.187,12.244c-6.681,8.544-32.964-1.104-25.187-11.94
			C134.653,210.08,132.505,208.847,131.583,210.13L131.583,210.13z"/>
	</g>
</g>
<g>
	<g>
		<path d="M233.456,208.012c-0.811,21.36,34.621,17.659,43.271,4.827c3.021-4.483,5.288-10.962,2.636-16.182
			c-2.762-5.435-7.97-7.539-13.743-8.498c-14.689-2.441-25.958,5.906-31.995,18.923c-0.667,1.438,1.466,2.696,2.137,1.25
			c4.995-10.771,13.379-18.368,25.671-18.092c5.495,0.124,12.103,1.531,15.206,6.51c3.611,5.793-0.165,13.362-4.48,17.511
			c-8.72,8.379-36.882,11.002-36.228-6.249C235.991,206.415,233.517,206.421,233.456,208.012L233.456,208.012z"/>
	</g>
</g>
<g>
	<g>
		<path d="M175.337,199.147c6.874,1.437,11.926-3.436,11.614-10.339c-0.769,0.208-1.537,0.416-2.306,0.625
			c3.483,6.551,12.165,10.773,18.27,5.127c1.174-1.086-0.58-2.832-1.75-1.75c-4.981,4.607-11.736,0.352-14.383-4.627
			c-0.571-1.075-2.361-0.599-2.306,0.625c0.229,5.088-3.078,9.081-8.481,7.952C174.438,196.436,173.775,198.821,175.337,199.147
			L175.337,199.147z"/>
	</g>
</g>
<g>
	<g>
		<path d="M176.047,179.321c0.628,0.609,1.257,1.219,1.885,1.829c1.145,1.112,2.896-0.636,1.75-1.75
			c-0.628-0.61-1.257-1.22-1.885-1.829C176.651,176.46,174.899,178.208,176.047,179.321L176.047,179.321z"/>
	</g>
</g>
<g>
	<g>
		<path d="M190.983,178.711c0.299-0.311,0.549-0.655,0.754-1.034c0.152-0.282,0.278-0.562,0.503-0.795
			c1.105-1.15-0.643-2.903-1.75-1.75c-0.299,0.312-0.55,0.656-0.755,1.035c-0.152,0.282-0.278,0.561-0.502,0.794
			C188.128,178.111,189.876,179.864,190.983,178.711L190.983,178.711z"/>
	</g>
</g>
<g>
	<path fill="#ED1F24" d="M95.5,107c-5,1-13.5,0.5-17.5-2.5c-13-8,1-16.5,10.5-8.5c-3.5-10.5,7.5-18.5,13-7.5c3,6.5-2,14-5,19.5"/>
	<g>
		<path fill="#ED1F24" d="M95.367,106.518c-7.185,1.327-16.618,0.308-21.231-6.079c-2.143-2.967-0.01-5.722,2.953-6.725
			c3.812-1.291,8.058,0.238,11.058,2.639c0.361,0.29,0.996,0.036,0.835-0.486c-1.04-3.401-0.89-7.072,1.415-9.932
			c2.087-2.59,5.453-2.804,7.993-0.787c7.638,6.066,1.174,16.253-2.321,22.599c-0.312,0.565,0.552,1.07,0.863,0.505
			c2.381-4.324,5.493-8.946,5.914-14.006c0.36-4.336-1.498-9.024-5.603-10.991c-2.706-1.296-5.659-0.107-7.554,1.973
			c-2.672,2.933-2.771,7.312-1.671,10.905c0.278-0.162,0.557-0.324,0.835-0.486c-3.301-2.642-7.34-3.961-11.538-3.034
			c-2.667,0.589-5.642,2.917-5.016,5.978c0.805,3.935,5.198,6.674,8.68,7.986c4.51,1.699,9.965,1.772,14.653,0.906
			C96.267,107.365,95.998,106.401,95.367,106.518L95.367,106.518z"/>
	</g>
</g>
</svg>
