<?xml version="1.0" encoding="utf-8"?>
<!-- Generator: Adobe Illustrator 16.0.4, SVG Export Plug-In . SVG Version: 6.00 Build 0)  -->
<!DOCTYPE svg PUBLIC "-//W3C//DTD SVG 1.1//EN" "http://www.w3.org/Graphics/SVG/1.1/DTD/svg11.dtd">
<svg version="1.1" id="Layer_1" xmlns="http://www.w3.org/2000/svg" xmlns:xlink="http://www.w3.org/1999/xlink" x="0px" y="0px"
	 width="300px" height="250px" viewBox="0 0 300 250" enable-background="new 0 0 300 250" xml:space="preserve">
<path fill="#CAB9B1" stroke="#000000" stroke-width="2" stroke-miterlimit="10" d="M152.066,121.585c0,0-7.979,18.616-7.314,20.61
	c0,0,3.762,14.794,10.746,5.734L152.066,121.585z"/>
<path fill="#CAB9B1" stroke="#000000" stroke-width="2" stroke-miterlimit="10" d="M177.771,198.042c0,0-21.279-1.552-22.273,6.869
	c0,0,1.637,3.889,10.077,3.21c0.342-0.027,0.694-0.062,1.06-0.107c9.365-1.105,22.219,0.188,22.219,0.188L177.771,198.042z"/>
<path fill="#CAB9B1" stroke="#000000" stroke-width="2" stroke-miterlimit="10" d="M205.466,225.078l-16.612,2.658
	c0,0,4.435,13.74,17.729,9.309c0,0,7.757-4.441,15.957,0.883c0,0,4.433,1.771,2.659-6.426
	C223.425,223.307,205.466,225.078,205.466,225.078z"/>
<path fill="#FFE0B9" stroke="#000000" stroke-width="2" stroke-miterlimit="10" d="M160.656,37.349
	c-4.463,9.78-2.939,20.067-3.526,30.826c-0.549,10.082-7.516,15.236-9.202,24.542c-1.87,10.305,1.156,18.851,2.486,28.185
	c0.826,5.802-1.555,9.227-3.116,14.108c-1.583,4.945,3.3,9.959,7.897,10.555c-0.295,6.496,14.363,32.84,16.625,36.226
	c3.101,4.636,2.354,8.542,3.576,13.985c2.396,10.697,10.703,10.668,17.773,17.181c6.963,6.414,11.258,17.462,20.996,20.257
	c9.032,2.594,20.874,1.053,30.073-0.631c11.058-2.021,14.284-11.234,20.702-19.186c2.826-3.502,7.545-6.541,9.998-10.139
	c2.274-3.332,3.062-8.432,4.881-12.391c8.494-18.48,5.537-38.782-9.051-53.523c-5.73-5.789-13.394-10.238-17.791-17.178
	c-3.244-5.121-0.918-7.826-0.121-13.342c0.824-5.696-1.051-9.535-3.862-14.127c-2.272-3.709-5.106-7.469-6.117-11.64
	c-1.172-4.842,0.802-10.554-0.466-15.348c-1.913-7.248-10.529-13.614-14.124-20.262c-5.997-11.102-15.452-15.74-24.69-23.739
	C180.25,7,163.091,32.02,160.656,37.349z"/>
<circle cx="205.287" cy="54.373" r="4.601"/>
<g>
	<g>
		<path stroke="#000000" stroke-miterlimit="10" d="M218.562,188.925c-4.047,5.632-8.065,12.187-9.271,19.115
			c-0.895,5.142-0.557,12.956-4.835,16.685c-0.487,0.426,0.224,1.129,0.707,0.707c4.049-3.527,4.126-10.479,4.821-15.379
			c1.082-7.602,5.01-14.457,9.438-20.623C219.802,188.904,218.934,188.406,218.562,188.925L218.562,188.925z"/>
	</g>
</g>
<g>
	<g>
		<path stroke="#000000" stroke-miterlimit="10" d="M150.305,122.502c4.498,7.248,0.353,16.648,4.875,23.934
			c0.34,0.547,1.204,0.045,0.863-0.504c-4.498-7.248-0.354-16.647-4.875-23.935C150.829,121.451,149.963,121.953,150.305,122.502
			L150.305,122.502z"/>
	</g>
</g>
<g>
	<path d="M16.821,81.52v-3.218c1.361,0.315,3.252,0.547,5.508,0.547c4.862,0,6.405-1.593,6.405-3.152c0-1.377-0.863-2.24-2.97-3.203
		l-4.248-1.94c-1.974-0.913-5.06-2.49-5.06-6.289c0-3.202,2.887-5.856,9.159-5.856c2.373,0,3.949,0.099,5.31,0.232v3.169
		c-0.962-0.215-3.003-0.465-5.31-0.465c-4.696,0-5.857,1.51-5.857,2.838c0,1.625,0.962,2.355,3.168,3.417l4.364,2.074
		c2.34,1.111,4.746,2.638,4.746,5.939c0,3.534-2.937,6.223-9.723,6.223C20.355,81.836,18.514,81.72,16.821,81.52z"/>
	<path d="M35.824,67.085h-2.456v-1.56l2.456-0.979l0.796-4.248h2.522v4.248h5.31v2.539h-5.31v8.097c0,3.086,1.096,4.065,2.954,4.065
		c0.398,0,1.659-0.05,2.273-0.266v2.655c-0.548,0.116-2.091,0.133-2.588,0.133c-4.68,0-5.957-3.401-5.957-6.571V67.085z"/>
	<path d="M58.528,79.696c-0.515,0.713-2.257,2.223-4.762,2.223c-2.804,0-7.052-1.808-7.052-8.461c0-6.538,5.193-9.176,10.088-9.176
		c2.224,0,3.468,0.132,4.845,0.266V81.67h-2.986L58.528,79.696z M58.329,77.174V66.986c-0.331-0.066-1.162-0.132-1.692-0.132
		c-3.916,0-6.47,1.924-6.47,6.604c0,4.811,2.604,5.907,4.264,5.907C56.57,79.364,57.914,77.953,58.329,77.174z"/>
	<path d="M76.8,81.67v-9.358c0-3.949-1.443-5.176-3.833-5.176c-1.924,0-3.351,0.763-4.396,1.675V81.67h-3.318V64.547h3.07
		l0.232,1.858c1.841-1.443,3.948-2.124,5.591-2.124c3.982,0,5.974,2.207,5.974,8.03v9.358L76.8,81.67L76.8,81.67z"/>
	<path d="M94.425,56.98h3.302v24.69h-2.97l-0.133-1.974c-0.514,0.713-2.306,2.24-4.811,2.24c-2.805,0-7.052-1.825-7.052-8.479
		c0-6.538,5.193-9.176,10.088-9.176c0.597,0,1.095,0.034,1.576,0.066V56.98L94.425,56.98z M94.409,77.174V66.969
		c-0.333-0.066-1.195-0.132-1.727-0.132c-3.915,0-6.47,1.94-6.47,6.62c0,4.811,2.605,5.923,4.264,5.923
		C92.617,79.38,93.994,77.953,94.409,77.174z"/>
	<path d="M114.364,64.547v9.357c0,4.281,1.162,5.177,3.55,5.177c1.792,0,3.302-0.697,4.348-1.609V64.547h3.318V81.67h-2.986
		l-0.299-1.809c-1.726,1.46-3.899,2.075-5.426,2.075c-4.148,0-5.823-2.041-5.823-7.865v-9.523L114.364,64.547L114.364,64.547z"/>
	<path d="M132.586,66.505c0.514-0.713,2.256-2.224,4.795-2.224c2.805,0,7.019,1.909,7.019,8.413c0,6.537-5.161,9.225-10.055,9.225
		c-0.564,0-1.111,0-1.56-0.016v6.405h-3.318v-23.76h2.986L132.586,66.505z M132.785,69.027v10.187
		c0.333,0.066,1.195,0.133,1.726,0.133c3.916,0,6.438-1.975,6.438-6.653c0-4.812-2.655-5.857-4.28-5.857
		C134.61,66.837,133.2,68.214,132.785,69.027z"/>
	<path d="M23.973,116.312c-4.497,0-8.512-3.301-8.512-8.86c0-5.591,4.032-8.876,8.528-8.876c4.43,0,8.313,3.285,8.313,8.876
		C32.302,113.011,28.402,116.312,23.973,116.312z M23.973,113.757c3.518,0,4.878-3.136,4.878-6.305c0-3.202-1.477-6.321-4.862-6.321
		c-3.534,0-5.077,3.12-5.077,6.321C18.912,110.622,20.306,113.757,23.973,113.757z"/>
	<path d="M46.227,116.047v-9.358c0-3.949-1.443-5.176-3.833-5.176c-1.924,0-3.351,0.764-4.396,1.676v12.859H34.68V98.924h3.069
		l0.232,1.858c1.841-1.443,3.949-2.124,5.591-2.124c3.982,0,5.974,2.207,5.974,8.03v9.358L46.227,116.047L46.227,116.047z"/>
	<path d="M73.963,116.047v-9.358c0-3.949-1.459-5.176-3.849-5.176c-1.925,0-3.335,0.764-4.38,1.676v12.859h-3.318V91.359h3.318
		v9.407c1.825-1.427,3.916-2.107,5.558-2.107c4.016,0,5.99,2.207,5.99,8.03v9.358H73.963z"/>
	<path d="M84.388,93.946c0,1.262-0.93,1.958-2.19,1.958c-1.212,0-2.124-0.697-2.124-1.958c0-1.277,0.912-1.958,2.124-1.958
		C83.458,91.989,84.388,92.669,84.388,93.946z M83.824,116.047h-3.319V98.924h3.319V116.047z"/>
	<path d="M98.88,116.047v-9.358c0-3.949-1.443-5.176-3.833-5.176c-1.924,0-3.351,0.764-4.396,1.676v12.859h-3.318V98.924h3.069
		l0.232,1.858c1.841-1.443,3.949-2.124,5.591-2.124c3.982,0,5.974,2.207,5.974,8.03v9.358L98.88,116.047L98.88,116.047z"/>
	<path d="M116.506,91.359h3.302v24.688h-2.97l-0.133-1.974c-0.514,0.713-2.307,2.239-4.812,2.239c-2.804,0-7.052-1.825-7.052-8.478
		c0-6.538,5.193-9.176,10.088-9.176c0.597,0,1.095,0.033,1.576,0.066L116.506,91.359L116.506,91.359z M116.49,111.551v-10.204
		c-0.332-0.066-1.195-0.132-1.726-0.132c-3.916,0-6.471,1.94-6.471,6.62c0,4.811,2.605,5.923,4.264,5.923
		C114.697,113.757,116.075,112.331,116.49,111.551z"/>
	<path d="M19.412,123.254h3.318v18.201c0,3.086,0.83,4.064,2.688,4.064c0.265,0,0.597-0.049,0.878-0.135v2.557
		c-0.415,0.051-0.83,0.101-1.194,0.101c-4.679,0-5.691-3.401-5.691-6.571L19.412,123.254L19.412,123.254z"/>
	<path d="M26.936,139.032c0-5.575,4.281-8.479,7.948-8.479c4.513,0,6.818,3.271,6.818,7.649v1.294H30.386
		c0,2.82,1.129,5.988,5.957,5.988c2.207,0,3.551-0.28,4.413-0.514v2.805c-0.846,0.199-2.174,0.431-4.43,0.431
		C29.989,148.207,26.936,145.039,26.936,139.032z M30.47,137.059h7.915c0-1.908-1.129-3.949-3.717-3.949
		C32.013,133.109,30.47,135.018,30.47,137.059z"/>
	<path d="M54.667,147.113v-0.881c-0.73,0.764-2.506,1.959-5.127,1.959c-2.756,0-6.986-1.992-7.02-8.694
		c-0.033-6.14,5.725-8.942,10.619-8.942c2.223,0,3.469,0.065,4.846,0.266v16.295c0,5.973-3.104,7.729-7.883,7.729
		c-1.178,0-2.938-0.062-3.783-0.332v-2.953c0.615,0.268,2.357,0.564,3.75,0.564C53.72,152.174,54.667,150.795,54.667,147.113z
		 M54.667,143.445v-10.203c-0.332-0.066-1.162-0.133-1.693-0.133c-3.783,0-7.053,1.975-7.053,6.388c0,5.077,2.871,6.14,4.646,6.14
		C52.774,145.637,54.251,144.227,54.667,143.445z"/>
	<path d="M69.653,138.535c2.637,1.359,4.363,2.289,4.363,5.076c0,2.621-2.854,4.596-7.898,4.596c-1.211,0-2.654-0.049-4.379-0.299
		v-2.936c1.842,0.445,3.152,0.514,4.379,0.514c3.799,0,4.447-1.045,4.447-1.875c0-0.945-0.564-1.459-1.975-2.156l-2.422-1.112
		c-2.672-1.311-4.363-2.389-4.363-5.044c0-2.621,2.555-4.744,7.682-4.744c1.111,0,2.189,0.032,3.783,0.266v2.838
		c-1.693-0.301-2.789-0.383-3.75-0.383c-3.867,0-4.266,1.195-4.266,2.023c0,0.812,0.615,1.344,1.959,2.059L69.653,138.535z"/>
</g>
<path fill="#CAB9B1" stroke="#000000" stroke-width="2" stroke-miterlimit="10" d="M155.826,149.171c0,0-7.09,10.532-0.328,20.726
	c0,0,8.312,11.082,12.523,0L155.826,149.171z"/>
<path fill="none" stroke="#000000" stroke-miterlimit="10" d="M168.357,41.402c0,0-6.457-2.5-2.979-5.75c0,0-2.891,3.5-5.081,2.875"
	/>
</svg>
