<?xml version="1.0" encoding="utf-8"?>
<!-- Generator: Adobe Illustrator 16.0.4, SVG Export Plug-In . SVG Version: 6.00 Build 0)  -->
<!DOCTYPE svg PUBLIC "-//W3C//DTD SVG 1.1//EN" "http://www.w3.org/Graphics/SVG/1.1/DTD/svg11.dtd">
<svg version="1.1" id="Layer_1" xmlns="http://www.w3.org/2000/svg" xmlns:xlink="http://www.w3.org/1999/xlink" x="0px" y="0px"
	 width="300px" height="250px" viewBox="0 0 300 250" enable-background="new 0 0 300 250" xml:space="preserve">
<path fill="#BC7917" d="M14.759,168.783l-6.833,19.449c0,0-0.788,17.602,6.833,15.759l15.647-9.329l5.039,7.736
	c0,0,6.454,18.178,10.409,18.333l26.697-16.74l1.929-3.37l23.233,7.545l35.605,1.809l17.04-3.096l15.112-2.888l16.331-5.527
	l7.2,11.511c0,0,14.082,9.301,20.518-5.247l7.073-9.972h16.181l15.649-7.811l-2.924-7.073l-18.781-8.8l43.251-21.339l11.648-3.954
	c0,0,15.503-13.994,14.207-29.283c0,0-3.383-22.904-17.554-33.993c0,0-22.189-25.49-50.652-15.999c0,0-17.521-1.895-41.121,13.457
	c0,0-17.32-5.991-59.846,12.718c0,0-48.201-4.763-62.887-8.942c0,0-55.73,0.761-55.862,48.674L14.759,168.783z"/>
<polyline fill="#FFBCA2" points="295.824,115.065 285.678,106.76 293.201,103.287 "/>
<g>
	<g>
		<path d="M224.286,168.643c-4.829,9.751-6.801,20.206-12.232,29.799c-3.462,6.121-7.5,10.993-14.436,13.15
			c-7.229,2.249-10.538-8.546-12.899-13.021c-1.069-2.031-4.138-0.232-3.069,1.793c5.367,10.177,9.295,18.502,21.88,12.735
			c15.352-7.033,17.339-29.574,23.825-42.662C228.37,168.39,225.304,166.588,224.286,168.643L224.286,168.643z"/>
	</g>
</g>
<g>
	<g>
		<path d="M189.308,190.422c-15.871,13.614-38.305,15.054-58.192,17.107c-22.145,2.29-45.421-2.058-64.697-13.287
			c-1.985-1.154-3.772,1.916-1.793,3.071c20.823,12.128,45.294,15.958,69.086,13.502c20.191-2.088,42.082-4.134,58.108-17.883
			C193.565,191.441,191.038,188.938,189.308,190.422L189.308,190.422z"/>
	</g>
</g>
<g>
	<g>
		<path d="M187.284,77.978c-6.124,0.061-12.419-1.281-18.51-0.348c-7.089,1.086-13.676,3.479-20.418,5.854
			c-12.99,4.576-26.384,7.147-40.162,6c-13.909-1.158-26.999-6.406-41.071-7.163c-12.534-0.673-24.744,2.541-35.818,8.234
			c-8.414,4.323-15.751,10.71-20.71,18.768c-5.184,8.424-4.357,20.176-3.63,29.556c0.913,11.778,4.002,23.393,7.856,34.517
			c1.856,5.356,4.482,10.237,7.485,15.036c3.573,5.712,9.001,9.451,12.983,14.799c1.352,1.816,4.438,0.048,3.069-1.793
			c-6.071-8.151-13.209-14.176-17.942-23.537c-5.053-9.993-7.415-22.131-9.186-33.087c-1.9-11.767-2.621-25.479,3.818-35.944
			c6.601-10.73,20.063-17.179,31.617-20.722c24.05-7.379,46.713,5.286,70.612,5.272c9.75-0.006,19.413-2.59,28.665-5.388
			c5.725-1.732,11.273-3.974,17.019-5.66c8.111-2.378,16.097-0.755,24.323-0.837C189.574,81.51,189.576,77.954,187.284,77.978
			L187.284,77.978z"/>
	</g>
</g>
<g>
	<g>
		<path d="M74.481,200.621c-6.522,2.24-10.806,7.238-15.789,11.758c-4.138,3.748-11.315,7.238-16.271,2.949
			c-3.735-3.228-3.499-10.188-3.413-14.632c0.044-2.293-3.508-2.289-3.555,0c-0.158,7.968,1.015,18.295,10.4,20.035
			c12.661,2.344,19.226-13.129,29.569-16.68C77.581,203.31,76.655,199.875,74.481,200.621L74.481,200.621z"/>
	</g>
</g>
<ellipse cx="239.772" cy="99.171" rx="5.727" ry="5.565"/>
<g>
	<g>
		<path d="M224.046,89.593c0.224,5.783-1.26,11.102-2.199,16.733c-1.096,6.564-8.022,2.988-11.749,3.428
			c-2.199,0.259-3.968,1.717-5.615,3.06c-1.367,1.117-2.563,2.537-3.825,3.771c-6.97,6.812-14.376-0.517-15.285-7.724
			c-0.284-2.244-3.84-2.27-3.555,0c0.653,5.184,2.934,11.897,8.764,13.382c6.627,1.688,10.597-1.064,15.14-5.691
			c6.291-6.403,11.926,1.682,17.684-4.489c1.988-2.129,2.126-6.212,2.488-8.878c0.646-4.753,1.894-8.708,1.706-13.592
			C227.513,87.308,223.957,87.301,224.046,89.593L224.046,89.593z"/>
	</g>
</g>
<g>
	<g>
		<path d="M291.766,128.467c-1.884,0.369-3.763,0.659-5.613,0c-2.166-0.774-3.089,2.661-0.944,3.425
			c2.442,0.873,5.022,0.489,7.504,0C294.959,131.451,294.004,128.026,291.766,128.467L291.766,128.467z"/>
	</g>
</g>
<g>
	<g>
		<path d="M27.368,193.699c-2.882,2.866-5.911,5.618-9.721,7.191c-6.652,2.75-7.619-6.255-7.599-10.275
			c0.035-7.43,2.701-14.766,4.711-21.832c0.629-2.211-2.801-3.146-3.426-0.945c-2.738,9.618-7.391,21.459-3.488,31.35
			c4.536,11.49,16.641,2.393,22.034-2.973C31.508,194.595,28.994,192.081,27.368,193.699L27.368,193.699z"/>
	</g>
</g>
<g>
	<g>
		<path d="M226.17,172.89c5.039,1.023,26.417,7.717,19.264,15.138c-6.339,6.574-20.719,4.708-29.039,5.561
			c-2.257,0.23-2.28,3.789,0,3.556c9.812-1.004,28.019,1.09,33.598-9.369c5.451-10.222-16.527-17.021-22.876-18.311
			C224.877,169.011,223.924,172.436,226.17,172.89L226.17,172.89z"/>
	</g>
</g>
<path fill="#FFFFFF" d="M218.707,64.936l-4.014,4.92c0,0,31.102-4.125,30.806,1.021c0,0-0.296,9.968,12.243,10.932
	c12.541,0.965,25.95,6.067,25.95,6.067l-7.944-10.577l-10.604-8.029C265.145,69.27,242.046,59.959,218.707,64.936z"/>
<g>
	<g>
		<path d="M189.001,80.879c21.132-10.651,48.121-21.85,71.347-11.365c18.405,8.307,36.299,31.104,33.419,52.13
			c-3.926,28.655-47.505,36.326-68.844,46.359c-2.073,0.974-0.268,4.038,1.795,3.068c25.485-11.982,75.063-21.285,70.574-58.93
			c-2.359-19.792-19.701-39.91-38.021-46.98c-23.833-9.2-50.653,1.854-72.064,12.647C185.16,78.841,186.96,81.907,189.001,80.879
			L189.001,80.879z"/>
	</g>
</g>
</svg>
